<svg width="40" height="40" viewBox="0 0 40 40" fill="none" xmlns="http://www.w3.org/2000/svg">
<path d="M38.8009 14.5795C39.3104 14.5795 39.5652 14.8654 39.5652 15.4372V36.4898C39.5652 37.0096 39.3104 37.2695 38.8009 37.2695H1.1998C0.690297 37.2695 0.435547 37.0096 0.435547 36.4898V3.42937C0.435547 2.90956 0.690297 2.64965 1.1998 2.64965H17.4783C17.9878 2.64965 18.2426 2.90956 18.2426 3.42937V14.5795H38.8009ZM16.7141 35.7101V4.2091H1.96405V35.7101H16.7141ZM34.2154 35.7101V30.4859H22.0639V32.2793H29.7828C30.2923 32.2793 30.547 32.5392 30.547 33.059C30.547 33.5788 30.2923 33.8387 29.7828 33.8387H22.0639V35.7101H34.2154ZM34.2154 28.9265V27.1331H22.0639V28.9265H34.2154ZM22.0639 25.5736H34.2154V23.7023H22.0639V25.5736ZM38.0367 35.7101V16.2169H18.2426V35.7101H20.4589V22.9226C20.4589 22.3508 20.7137 22.0649 21.2232 22.0649H34.9797C35.5401 22.0649 35.8204 22.3508 35.8204 22.9226V35.7101H38.0367ZM12.6636 21.8309C13.1731 21.8309 13.4278 22.1168 13.4278 22.6886V31.5775C13.4278 32.0973 13.1731 32.3573 12.6636 32.3573H6.01458C5.50508 32.3573 5.25033 32.0973 5.25033 31.5775V22.6886C5.25033 22.1168 5.50508 21.8309 6.01458 21.8309H12.6636ZM8.53661 30.7978V23.4684H6.77883V30.7978H8.53661ZM11.8993 30.7978V23.4684H10.1415V30.7978H11.8993ZM12.6636 7.56193C13.1731 7.56193 13.4278 7.82184 13.4278 8.34166V17.2305C13.4278 17.8023 13.1731 18.0882 12.6636 18.0882H6.01458C5.50508 18.0882 5.25033 17.8023 5.25033 17.2305V8.34166C5.25033 7.82184 5.50508 7.56193 6.01458 7.56193H12.6636ZM8.53661 16.4508V9.12138H6.77883V16.4508H8.53661ZM11.8993 16.4508V9.12138H10.1415V16.4508H11.8993ZM32.4577 32.2793C32.9672 32.2793 33.2219 32.5392 33.2219 33.059C33.2219 33.5788 32.9672 33.8387 32.4577 33.8387H32.2284C31.7189 33.8387 31.4641 33.5788 31.4641 33.059C31.4641 32.5392 31.7189 32.2793 32.2284 32.2793H32.4577Z" fill="#00AFF9"/>
</svg>
