<svg width="40" height="40" viewBox="0 0 40 40" fill="none" xmlns="http://www.w3.org/2000/svg">
<path d="M26.0161 14.9581C26.1184 14.9576 26.1184 14.9576 26.2227 14.9572C26.3667 14.9569 26.5106 14.9575 26.6546 14.9588C26.8748 14.9605 27.0948 14.9588 27.315 14.9568C27.4549 14.957 27.5949 14.9574 27.7349 14.9581C27.8006 14.9574 27.8664 14.9568 27.9342 14.9561C28.225 14.9608 28.3897 14.9676 28.6363 15.1309C28.7781 15.3558 28.7867 15.488 28.781 15.7527C28.78 15.8363 28.779 15.9199 28.778 16.006C28.774 16.1363 28.774 16.1363 28.77 16.2691C28.7686 16.3571 28.7672 16.4451 28.7658 16.5358C28.7621 16.753 28.7569 16.97 28.7505 17.1871C28.7964 17.2013 28.8424 17.2156 28.8897 17.2303C30.134 17.6284 30.9488 18.5058 31.7308 19.5116C32.596 20.5611 33.8171 21.021 35.1354 21.1571C35.8019 21.2108 36.4754 21.1998 37.1437 21.2012C37.3508 21.2019 37.5579 21.2046 37.7651 21.2075C37.8282 21.2071 37.8912 21.2067 37.9562 21.2063C38.2183 21.2109 38.4058 21.2307 38.6337 21.3645C38.8086 21.6604 38.7953 21.9272 38.792 22.2652C38.7923 22.3334 38.7926 22.4015 38.7929 22.4718C38.7931 22.6157 38.7925 22.7597 38.7912 22.9036C38.7896 23.1238 38.7912 23.3438 38.7932 23.564C38.793 23.704 38.7926 23.844 38.792 23.9839C38.7926 24.0497 38.7933 24.1155 38.7939 24.1832C38.7893 24.4698 38.7806 24.6393 38.6256 24.8854C38.3707 25.0406 38.1923 25.0351 37.8948 25.0301C37.8432 25.0296 37.7916 25.0292 37.7385 25.0287C37.5745 25.027 37.4106 25.0231 37.2466 25.0191C37.1351 25.0175 37.0236 25.0161 36.9121 25.0148C36.6395 25.0114 36.3669 25.006 36.0942 24.9996C36.1475 25.1048 36.1475 25.1048 36.2018 25.2122C36.3332 25.4721 36.4641 25.7322 36.5949 25.9923C36.6517 26.105 36.7085 26.2176 36.7654 26.3302C36.8472 26.4918 36.9285 26.6535 37.0098 26.8154C37.0354 26.8658 37.061 26.9163 37.0875 26.9683C37.2661 27.3255 37.2661 27.3255 37.2661 27.4996C37.3471 27.4959 37.4281 27.4923 37.5115 27.4886C37.6185 27.4856 37.7255 27.4828 37.8325 27.48C37.9124 27.4761 37.9124 27.4761 37.994 27.4721C38.2469 27.4672 38.4118 27.4837 38.6297 27.6158C38.8014 27.8947 38.7972 28.1536 38.7896 28.4712C38.7886 28.5339 38.7876 28.5965 38.7865 28.6611C38.751 29.7156 38.3545 30.6123 37.6372 31.3863C36.665 32.2872 35.5789 32.5755 34.283 32.5292C33.2548 32.465 32.3135 32.0064 31.6115 31.249C30.9275 30.4083 30.6037 29.5516 30.5864 28.4712C30.5843 28.3805 30.5843 28.3805 30.582 28.288C30.585 28.0239 30.6068 27.8424 30.7463 27.6158C31.0101 27.4559 31.2453 27.4654 31.5435 27.48C31.598 27.4814 31.6524 27.4829 31.7086 27.4843C31.8424 27.488 31.9761 27.4936 32.1099 27.4996C32.1308 27.4323 32.1516 27.3651 32.1732 27.2958C32.266 27.0313 32.3772 26.7909 32.5036 26.5407C32.5715 26.4055 32.5715 26.4055 32.6409 26.2676C32.6885 26.1737 32.7361 26.0798 32.7837 25.9859C32.8319 25.8902 32.8802 25.7945 32.9284 25.6987C33.0459 25.4655 33.1637 25.2325 33.2817 24.9996C33.2218 25.0061 33.1618 25.0127 33.1001 25.0194C32.8141 25.0462 32.5285 25.0619 32.2417 25.0777C32.1476 25.0882 32.0535 25.0986 31.9565 25.1094C30.7633 25.158 29.7884 24.3795 28.8286 23.7496C28.8066 24.9985 28.7901 26.2474 28.7801 27.4965C28.7752 28.0767 28.7687 28.6567 28.7579 29.2368C28.7485 29.7431 28.7425 30.2492 28.7404 30.7556C28.7392 31.0232 28.7364 31.2905 28.7295 31.558C28.7008 32.8068 28.7367 33.8587 29.6306 34.8144C29.9325 35.0529 30.3172 35.0961 30.6942 35.0575C30.747 35.053 30.7999 35.0484 30.8544 35.0437C30.9078 35.0388 30.9611 35.0339 31.0161 35.0289C31.1793 35.02 31.3425 35.0131 31.5058 35.0076C31.6524 35.0017 31.7988 34.9906 31.9451 34.9792C32.188 34.9996 32.188 34.9996 32.3582 35.121C32.5342 35.3573 32.6724 35.6051 32.8045 35.8675C32.8318 35.9211 32.8591 35.9746 32.8872 36.0298C32.9445 36.1428 33.0015 36.2561 33.0581 36.3694C33.1446 36.5416 33.2329 36.7126 33.3214 36.8837C33.3771 36.9941 33.4326 37.1046 33.488 37.2151C33.5276 37.2909 33.5276 37.2909 33.5679 37.3681C33.7506 37.7407 33.8011 38.0218 33.7505 38.4371C33.5791 38.6729 33.4857 38.7418 33.1954 38.7889C33.0993 38.789 33.0033 38.7891 32.9042 38.7892C32.8238 38.79 32.8238 38.79 32.7417 38.7907C32.562 38.792 32.3824 38.791 32.2026 38.79C32.0738 38.7904 31.945 38.791 31.8161 38.7917C31.4662 38.7931 31.1162 38.7925 30.7663 38.7915C30.4002 38.7908 30.0342 38.7915 29.6682 38.792C29.0534 38.7925 28.4387 38.7918 27.824 38.7903C27.113 38.7886 26.4021 38.7892 25.6912 38.7909C25.081 38.7923 24.4709 38.7925 23.8608 38.7917C23.4962 38.7912 23.1317 38.7911 22.7672 38.7922C22.4245 38.7931 22.0818 38.7924 21.7391 38.7906C21.6133 38.7902 21.4874 38.7903 21.3616 38.791C21.1899 38.7919 21.0184 38.7908 20.8468 38.7892C20.7026 38.7891 20.7026 38.7891 20.5556 38.7889C20.2653 38.7418 20.172 38.6727 20.0005 38.4371C19.937 37.9381 20.0547 37.6136 20.2828 37.1755C20.3117 37.1178 20.3406 37.0601 20.3704 37.0006C20.4314 36.8797 20.4929 36.759 20.5551 36.6386C20.6501 36.4542 20.7432 36.2688 20.8359 36.0832C20.8956 35.9655 20.9553 35.8478 21.0152 35.7302C21.0431 35.6748 21.0709 35.6195 21.0996 35.5625C21.234 35.3037 21.3158 35.1644 21.563 34.9996C21.7971 34.997 21.7971 34.997 22.0827 35.0167C22.188 35.0204 22.2934 35.0237 22.3987 35.0267C22.5639 35.0316 22.7276 35.0384 22.8923 35.0523C22.9453 35.0566 22.9984 35.0608 23.053 35.0652C23.0996 35.0697 23.1462 35.0741 23.1943 35.0787C23.6334 35.058 23.9429 35.004 24.2466 34.6792C25.0457 33.6557 25.0499 32.6575 25.0174 31.4006C25.0115 31.1307 25.011 30.8608 25.0099 30.5908C25.007 30.0819 24.9994 29.5733 24.9899 29.0645C24.9793 28.4843 24.9742 27.904 24.9696 27.3237C24.9598 26.1322 24.9434 24.9409 24.9224 23.7496C24.8653 23.787 24.8082 23.8245 24.7494 23.8631C22.6743 25.2073 22.6743 25.2073 21.5093 25.0777C21.407 25.0721 21.3048 25.0664 21.1994 25.0606C20.9549 25.0463 20.7127 25.0261 20.4692 24.9996C20.5047 25.0697 20.5402 25.1399 20.5768 25.2122C20.7082 25.4721 20.8391 25.7322 20.9699 25.9923C21.0267 26.105 21.0835 26.2176 21.1404 26.3302C21.2222 26.4918 21.3035 26.6535 21.3848 26.8154C21.4104 26.8658 21.436 26.9163 21.4625 26.9683C21.6411 27.3255 21.6411 27.3255 21.6411 27.4996C21.7221 27.4959 21.8031 27.4923 21.8865 27.4886C21.9935 27.4856 22.1005 27.4828 22.2075 27.48C22.2608 27.4774 22.3141 27.4748 22.369 27.4721C22.6219 27.4672 22.7868 27.4837 23.0047 27.6158C23.1764 27.8947 23.1722 28.1536 23.1646 28.4712C23.1636 28.5339 23.1626 28.5965 23.1615 28.6611C23.126 29.7156 22.7295 30.6123 22.0122 31.3863C21.04 32.2872 19.9539 32.5755 18.658 32.5292C17.6298 32.465 16.6885 32.0064 15.9865 31.249C15.3025 30.4083 14.9787 29.5516 14.9614 28.4712C14.96 28.4108 14.9585 28.3503 14.957 28.288C14.96 28.0239 14.9818 27.8424 15.1213 27.6158C15.3851 27.4559 15.6203 27.4654 15.9185 27.48C15.973 27.4814 16.0274 27.4829 16.0836 27.4843C16.2174 27.488 16.3511 27.4936 16.4849 27.4996C16.5058 27.4323 16.5266 27.3651 16.5482 27.2958C16.641 27.0313 16.7522 26.7909 16.8786 26.5407C16.9465 26.4055 16.9465 26.4055 17.0159 26.2676C17.0635 26.1737 17.1111 26.0798 17.1587 25.9859C17.2069 25.8902 17.2552 25.7945 17.3034 25.6987C17.4209 25.4655 17.5387 25.2325 17.6567 24.9996C17.5874 25.0012 17.518 25.0028 17.4466 25.0045C17.1886 25.0099 16.9306 25.0138 16.6726 25.0167C16.561 25.0183 16.4495 25.0204 16.3379 25.0231C16.1773 25.0269 16.0168 25.0287 15.8562 25.0301C15.7597 25.0317 15.6631 25.0334 15.5636 25.035C15.313 24.9996 15.313 24.9996 15.1254 24.8854C14.9395 24.5902 14.9557 24.3263 14.959 23.9839C14.9587 23.9158 14.9584 23.8476 14.9581 23.7773C14.9579 23.6334 14.9585 23.4894 14.9598 23.3455C14.9614 23.1253 14.9598 22.9053 14.9578 22.6851C14.958 22.5451 14.9584 22.4052 14.959 22.2652C14.9584 22.1994 14.9577 22.1337 14.9571 22.0659C14.9616 21.785 14.9726 21.6093 15.1173 21.3645C15.3998 21.1986 15.6674 21.2055 15.9859 21.2075C16.0851 21.2061 16.0851 21.2061 16.1863 21.2047C16.3982 21.2019 16.6099 21.2012 16.8218 21.2007C18.7593 21.1888 20.4717 21.1026 21.9143 19.6465C22.0884 19.4553 22.2567 19.2607 22.4224 19.0621C23.1274 18.2223 23.8278 17.6119 24.8442 17.1871C24.8958 17.1871 24.9474 17.1871 25.0005 17.1871C24.998 17.1043 24.998 17.1043 24.9955 17.0199C24.989 16.7696 24.985 16.5194 24.981 16.2691C24.9783 16.1823 24.9757 16.0955 24.973 16.006C24.9715 15.8807 24.9715 15.8807 24.97 15.7527C24.9675 15.6374 24.9675 15.6374 24.965 15.5197C25.0005 15.3121 25.0005 15.3121 25.1147 15.1309C25.4089 14.9361 25.6704 14.9547 26.0161 14.9581ZM26.2505 16.2496C26.2505 16.4558 26.2505 16.6621 26.2505 16.8746C26.663 16.8746 27.0755 16.8746 27.5005 16.8746C27.5005 16.6683 27.5005 16.4621 27.5005 16.2496C27.088 16.2496 26.6755 16.2496 26.2505 16.2496ZM24.063 19.2183C23.815 19.4679 23.587 19.731 23.3599 19.9996C23.2541 20.1168 23.1484 20.234 23.0425 20.3511C22.8559 20.5375 22.8559 20.5375 22.813 20.7808C22.7447 20.8119 22.7447 20.8119 22.6751 20.8437C22.4953 20.9398 22.3618 21.0485 22.2075 21.1812C21.8893 21.4311 21.5603 21.6267 21.2017 21.8111C21.1547 21.8361 21.1077 21.8612 21.0592 21.887C19.9878 22.4199 18.9115 22.471 17.7398 22.48C17.5945 22.4822 17.4493 22.4846 17.3041 22.4871C16.9529 22.4928 16.6017 22.4967 16.2505 22.4996C16.2505 22.9121 16.2505 23.3246 16.2505 23.7496C16.9957 23.78 17.7405 23.8042 18.4861 23.8184C18.8327 23.8252 19.1788 23.8344 19.5251 23.8498C21.4707 23.9337 22.6854 23.7064 24.2811 22.5765C25.4042 21.8816 26.8928 21.7469 28.1707 22.0153C28.8158 22.1858 29.3987 22.4976 29.9691 22.8377C30.018 22.8664 30.067 22.8952 30.1174 22.9248C30.266 23.0172 30.4104 23.1163 30.5526 23.2182C31.3423 23.7658 31.9713 23.8461 32.9152 23.8182C33.0484 23.8169 33.1816 23.8159 33.3148 23.8152C33.6613 23.8126 34.0076 23.8057 34.354 23.7978C34.7091 23.7906 35.0642 23.7874 35.4194 23.7839C36.1132 23.7764 36.8068 23.7641 37.5005 23.7496C37.5005 23.3371 37.5005 22.9246 37.5005 22.4996C37.412 22.4988 37.3234 22.4981 37.2322 22.4974C36.898 22.4942 36.5639 22.489 36.2297 22.4834C36.0862 22.4812 35.9426 22.4795 35.799 22.4784C34.6413 22.4689 33.5907 22.3658 32.5493 21.8111C32.4975 21.7844 32.4456 21.7578 32.3922 21.7303C32.029 21.5382 31.7032 21.3185 31.3909 21.05C31.2544 20.9305 31.2544 20.9305 31.0857 20.8632C30.8982 20.7586 30.8686 20.6614 30.7817 20.4683C30.7019 20.368 30.6186 20.2705 30.5327 20.1753C30.3868 20.0135 30.2422 19.8524 30.1049 19.6831C29.3338 18.742 28.2875 18.2639 27.0891 18.1368C25.9665 18.0898 24.9159 18.4945 24.063 19.2183ZM26.2505 23.2027C26.2507 23.3368 26.251 23.471 26.2512 23.6092C26.2531 24.8747 26.2521 26.1403 26.2483 27.4058C26.2464 28.0564 26.2455 28.707 26.247 29.3576C26.2483 29.925 26.2477 30.4923 26.2448 31.0597C26.2434 31.3598 26.2429 31.6599 26.2447 31.9601C26.2463 32.2432 26.2454 32.5263 26.2425 32.8094C26.2417 32.9616 26.2435 33.1138 26.2454 33.266C26.2347 33.9641 26.0391 34.3669 25.6255 34.9214C25.6255 34.9472 25.6255 34.973 25.6255 34.9996C26.4505 34.9996 27.2755 34.9996 28.1255 34.9996C27.8646 34.5232 27.8646 34.5232 27.5786 34.0621C27.5582 33.8636 27.5582 33.8636 27.5569 33.6216C27.556 33.5299 27.5551 33.4382 27.5542 33.3438C27.5541 33.2431 27.5539 33.1424 27.5537 33.0386C27.553 32.9316 27.5522 32.8246 27.5513 32.7175C27.5492 32.4268 27.548 32.1362 27.547 31.8455C27.5458 31.5417 27.5437 31.238 27.5417 30.9343C27.538 30.3591 27.5352 29.7838 27.5326 29.2086C27.5296 28.5538 27.5257 27.8989 27.5218 27.2441C27.5137 25.897 27.5068 24.5498 27.5005 23.2027C27.088 23.2027 26.6755 23.2027 26.2505 23.2027ZM18.9849 25.3121C18.8398 25.5983 18.6952 25.8847 18.551 26.1713C18.5018 26.2688 18.4525 26.3663 18.4032 26.4637C18.3323 26.6035 18.2618 26.7436 18.1914 26.8837C18.1276 27.0101 18.1276 27.0101 18.0625 27.1391C17.9584 27.3296 17.9584 27.3296 17.9692 27.4996C18.6911 27.4996 19.413 27.4996 20.1567 27.4996C20.0488 27.1758 19.9485 26.908 19.7973 26.6091C19.759 26.533 19.7207 26.457 19.6813 26.3787C19.6416 26.3006 19.6019 26.2226 19.561 26.1421C19.5208 26.0623 19.4805 25.9824 19.439 25.9001C19.34 25.704 19.2407 25.508 19.1411 25.3121C19.0896 25.3121 19.038 25.3121 18.9849 25.3121ZM34.6099 25.3121C34.4648 25.5983 34.3202 25.8847 34.176 26.1713C34.1268 26.2688 34.0775 26.3663 34.0282 26.4637C33.9573 26.6035 33.8868 26.7436 33.8164 26.8837C33.7526 27.0101 33.7526 27.0101 33.6875 27.1391C33.5834 27.3296 33.5834 27.3296 33.5942 27.4996C34.3161 27.4996 35.038 27.4996 35.7817 27.4996C35.6738 27.1758 35.5735 26.908 35.4223 26.6091C35.384 26.533 35.3457 26.457 35.3063 26.3787C35.2666 26.3006 35.2269 26.2226 35.186 26.1421C35.1458 26.0623 35.1055 25.9824 35.064 25.9001C34.965 25.704 34.8657 25.508 34.7661 25.3121C34.7146 25.3121 34.663 25.3121 34.6099 25.3121ZM16.3286 28.7496C16.4469 29.5776 16.7551 30.1832 17.4224 30.7027C18.2117 31.1735 19.0138 31.3047 19.9166 31.1263C20.6698 30.862 21.296 30.2437 21.6411 29.5308C21.7595 29.2376 21.7974 29.0687 21.7974 28.7496C19.9927 28.7496 18.188 28.7496 16.3286 28.7496ZM31.9536 28.7496C32.0719 29.5776 32.3801 30.1832 33.0474 30.7027C33.8367 31.1735 34.6388 31.3047 35.5416 31.1263C36.2948 30.862 36.921 30.2437 37.2661 29.5308C37.3845 29.2376 37.4224 29.0687 37.4224 28.7496C35.6177 28.7496 33.813 28.7496 31.9536 28.7496ZM22.2661 36.2496C21.891 36.8506 21.891 36.8506 21.7192 37.4996C25.1224 37.4996 28.5255 37.4996 32.0317 37.4996C31.8663 36.9664 31.8663 36.9664 31.4849 36.2496C28.4427 36.2496 25.4005 36.2496 22.2661 36.2496Z" fill="#00AFF9"/>
<path d="M3.31693 1.22861C3.39163 1.22825 3.46633 1.2279 3.54329 1.22753C3.79379 1.22654 4.04428 1.22667 4.29479 1.2268C4.47433 1.22633 4.65387 1.2258 4.83341 1.22521C5.32139 1.22383 5.80936 1.22346 6.29734 1.22336C6.60231 1.22325 6.90728 1.22292 7.21225 1.22251C8.22155 1.22113 9.23085 1.22041 10.2402 1.22053C10.3217 1.22054 10.3217 1.22054 10.405 1.22055C10.4867 1.22055 10.4867 1.22055 10.57 1.22056C11.4517 1.22063 12.3334 1.21913 13.2152 1.21693C14.1214 1.21468 15.0276 1.21364 15.9339 1.21374C16.4423 1.21378 16.9507 1.21334 17.4591 1.21168C17.9376 1.21017 18.4161 1.21016 18.8946 1.21129C19.0699 1.21146 19.2451 1.21109 19.4204 1.21014C20.9942 1.2022 21.8186 1.44957 22.9721 2.55995C23.1123 2.69901 23.2521 2.83848 23.3915 2.9783C23.4693 3.05579 23.5472 3.13325 23.6251 3.21068C23.8343 3.41886 24.043 3.62754 24.2516 3.83634C24.4266 4.0114 24.6018 4.18623 24.777 4.36106C25.1906 4.77373 25.6037 5.18681 26.0166 5.60014C26.441 6.02508 26.8662 6.44929 27.2917 6.87316C27.6587 7.23874 28.0252 7.60477 28.3913 7.97116C28.6093 8.18928 28.8274 8.40723 29.046 8.62473C29.2515 8.82922 29.4564 9.03428 29.6609 9.23977C29.7709 9.35007 29.8815 9.4598 29.9921 9.5695C30.8127 10.3968 31.2729 11.1049 31.2779 12.2881C31.2772 12.4563 31.2754 12.6245 31.2735 12.7928C31.2731 12.9109 31.2727 13.029 31.2725 13.1471C31.2716 13.4557 31.2693 13.7643 31.2667 14.073C31.2643 14.3888 31.2632 14.7046 31.2621 15.0204C31.2596 15.6384 31.2554 16.2565 31.2506 16.8745C30.8381 16.8745 30.4256 16.8745 30.0006 16.8745C29.9991 16.7385 29.9975 16.6026 29.9959 16.4625C29.9906 16.011 29.9846 15.5595 29.9782 15.108C29.9743 14.8345 29.9707 14.561 29.9677 14.2875C29.9642 13.9724 29.9595 13.6572 29.9548 13.3421C29.9535 13.1963 29.9535 13.1963 29.9521 13.0476C29.9308 11.7812 29.6199 11.2344 28.7298 10.3516C28.6558 10.2776 28.5819 10.2037 28.508 10.1297C28.3082 9.92985 28.1079 9.73051 27.9076 9.53125C27.6979 9.32258 27.4887 9.11347 27.2795 8.9044C26.8836 8.50899 26.4873 8.11399 26.0909 7.71912C25.6394 7.26938 25.1883 6.8192 24.7373 6.36898C23.81 5.44324 22.882 4.51806 21.9537 3.59325C21.9501 4.2534 21.9473 4.91354 21.9456 5.57369C21.9448 5.88029 21.9437 6.18688 21.942 6.49347C21.9402 6.7898 21.9393 7.08613 21.9389 7.38247C21.9386 7.49506 21.9381 7.60765 21.9372 7.72024C21.9139 8.89411 21.9139 8.89411 22.4225 9.92137C23.0591 10.5527 23.7677 10.5572 24.6167 10.5711C24.7406 10.5735 24.7406 10.5735 24.8669 10.576C25.1296 10.5811 25.3922 10.5857 25.6549 10.5903C25.8334 10.5937 26.012 10.5971 26.1905 10.6005C26.6272 10.6089 27.0639 10.6168 27.5006 10.6245C27.5006 11.037 27.5006 11.4495 27.5006 11.8745C26.9348 11.8816 26.3691 11.8873 25.8033 11.8907C25.5405 11.8923 25.2777 11.8945 25.0149 11.8981C24.7118 11.9019 24.4087 11.9036 24.1055 11.905C24.0126 11.9066 23.9196 11.9082 23.8238 11.9099C22.8938 11.9102 22.1629 11.6622 21.485 11.0151C20.5923 10.08 20.5813 9.08621 20.5951 7.86479C20.5957 7.71188 20.5961 7.55897 20.5964 7.40606C20.5976 7.00623 20.6007 6.60644 20.6042 6.20663C20.6074 5.79759 20.6088 5.38855 20.6104 4.97951C20.6137 4.17887 20.619 3.37825 20.6256 2.57762C18.4029 2.57406 16.1801 2.57129 13.9574 2.56964C13.695 2.56945 13.4326 2.56925 13.1703 2.56904C13.118 2.569 13.0658 2.56896 13.012 2.56892C12.166 2.56824 11.3201 2.567 10.4742 2.56557C9.60626 2.56411 8.73835 2.56325 7.87045 2.56292C7.38291 2.56272 6.89538 2.56224 6.40785 2.5611C5.94917 2.56004 5.4905 2.55972 5.03183 2.55995C4.8633 2.55991 4.69478 2.5596 4.52625 2.559C4.29648 2.55822 4.06673 2.55841 3.83696 2.55883C3.77001 2.55838 3.70305 2.55792 3.63407 2.55745C3.16346 2.55683 3.16346 2.55683 2.73499 2.73387C2.56576 3.05656 2.55917 3.33805 2.55908 3.69856C2.55885 3.75588 2.55863 3.81319 2.55839 3.87225C2.55782 4.06488 2.55837 4.25749 2.5589 4.45013C2.55872 4.5894 2.55847 4.72867 2.55816 4.86794C2.55751 5.25111 2.55784 5.63427 2.55832 6.01744C2.55867 6.43049 2.55813 6.84354 2.5577 7.25659C2.557 8.06593 2.55715 8.87528 2.5576 9.68463C2.55796 10.3422 2.55801 10.9999 2.55784 11.6575C2.55781 11.751 2.55779 11.8445 2.55776 11.9408C2.55771 12.1308 2.55766 12.3207 2.55761 12.5106C2.55717 14.2927 2.55768 16.0748 2.55852 17.8569C2.55922 19.3869 2.55909 20.9169 2.55837 22.4469C2.55754 24.2225 2.55721 25.9982 2.55769 27.7738C2.55774 27.963 2.55779 28.1523 2.55784 28.3415C2.55786 28.4346 2.55788 28.5277 2.55791 28.6237C2.55804 29.2807 2.55782 29.9377 2.55745 30.5948C2.55701 31.3952 2.55713 32.1956 2.55796 32.996C2.55837 33.4046 2.55853 33.8132 2.55802 34.2218C2.55755 34.5955 2.5578 34.9693 2.55864 35.343C2.55881 35.4785 2.55872 35.614 2.55834 35.7495C2.55787 35.9331 2.55835 36.1168 2.55908 36.3004C2.55912 36.4537 2.55912 36.4537 2.55916 36.61C2.57811 36.8659 2.61606 37.0391 2.73499 37.2651C3.05524 37.4614 3.40093 37.4441 3.76578 37.4431C3.86199 37.4438 3.86199 37.4438 3.96014 37.4445C4.17486 37.4458 4.38957 37.4461 4.60429 37.4463C4.75829 37.447 4.91228 37.4478 5.06628 37.4487C5.48431 37.4508 5.90234 37.452 6.32037 37.453C6.75725 37.4542 7.19413 37.4563 7.63101 37.4583C8.45829 37.462 9.28557 37.4648 10.1129 37.4674C11.0547 37.4704 11.9965 37.4743 12.9384 37.4782C14.8758 37.4863 16.8132 37.4932 18.7506 37.4995C18.7506 37.912 18.7506 38.3245 18.7506 38.7495C16.6529 38.7567 14.5551 38.7623 12.4573 38.7657C11.4833 38.7673 10.5093 38.7695 9.53526 38.7731C8.68628 38.7762 7.8373 38.7782 6.98832 38.7789C6.5388 38.7793 6.0893 38.7803 5.63979 38.7825C5.21657 38.7847 4.79337 38.7853 4.37015 38.7848C4.21495 38.7849 4.05975 38.7856 3.90455 38.7868C3.69229 38.7883 3.48011 38.7879 3.26785 38.7871C3.20675 38.788 3.14564 38.7889 3.08269 38.7898C2.56872 38.7843 2.16614 38.6231 1.77857 38.2835C1.73648 38.2326 1.69438 38.1818 1.65101 38.1294C1.60771 38.0787 1.5644 38.0281 1.51978 37.9759C1.26554 37.6069 1.22794 37.2699 1.23052 36.8309C1.23011 36.7422 1.23011 36.7422 1.22969 36.6518C1.22896 36.4531 1.22935 36.2545 1.22973 36.0558C1.22943 35.9122 1.22908 35.7686 1.22865 35.625C1.2277 35.2298 1.22772 34.8346 1.2279 34.4394C1.22793 34.0134 1.22707 33.5874 1.22633 33.1614C1.22503 32.3266 1.2246 31.4918 1.22452 30.657C1.22444 29.9786 1.22412 29.3001 1.22363 28.6217C1.22225 26.699 1.22153 24.7763 1.22165 22.8536C1.22165 22.8018 1.22165 22.7499 1.22166 22.6965C1.22166 22.5917 1.22167 22.4869 1.22168 22.3821C1.22177 20.7515 1.2206 19.1208 1.21846 17.4902C1.21606 15.6583 1.21472 13.8265 1.21486 11.9947C1.21491 11.0247 1.21448 10.0547 1.2128 9.08469C1.21138 8.25886 1.21104 7.43304 1.2121 6.60721C1.21261 6.18577 1.21262 5.76435 1.21126 5.34292C1.21004 4.95715 1.21026 4.5714 1.21162 4.18563C1.21186 4.04605 1.21157 3.90646 1.21071 3.76688C1.20255 2.36408 1.20255 2.36408 1.71662 1.77745C1.76748 1.73536 1.81834 1.69326 1.87074 1.64989C1.92139 1.60658 1.97205 1.56328 2.02424 1.51866C2.4444 1.22917 2.82317 1.22689 3.31693 1.22861Z" fill="#00AFF9"/>
<path d="M5.625 28.125C8.30625 28.125 10.9875 28.125 13.75 28.125C13.75 28.5375 13.75 28.95 13.75 29.375C11.0687 29.375 8.3875 29.375 5.625 29.375C5.625 28.9625 5.625 28.55 5.625 28.125Z" fill="#00AFF9"/>
<path d="M5.625 19.375C8.30625 19.375 10.9875 19.375 13.75 19.375C13.75 19.7875 13.75 20.2 13.75 20.625C11.0687 20.625 8.3875 20.625 5.625 20.625C5.625 20.2125 5.625 19.8 5.625 19.375Z" fill="#00AFF9"/>
<path d="M15.625 15C18.3063 15 20.9875 15 23.75 15C23.75 15.4125 23.75 15.825 23.75 16.25C21.0687 16.25 18.3875 16.25 15.625 16.25C15.625 15.8375 15.625 15.425 15.625 15Z" fill="#00AFF9"/>
<path d="M11.875 6.25C13.9375 6.25 16 6.25 18.125 6.25C18.125 6.6625 18.125 7.075 18.125 7.5C16.0625 7.5 14 7.5 11.875 7.5C11.875 7.0875 11.875 6.675 11.875 6.25Z" fill="#00AFF9"/>
<path d="M10.625 32.5C12.4813 32.5 14.3375 32.5 16.25 32.5C16.25 32.9125 16.25 33.325 16.25 33.75C14.3937 33.75 12.5375 33.75 10.625 33.75C10.625 33.3375 10.625 32.925 10.625 32.5Z" fill="#00AFF9"/>
<path d="M12.5 10.625C14.3563 10.625 16.2125 10.625 18.125 10.625C18.125 11.0375 18.125 11.45 18.125 11.875C16.2687 11.875 14.4125 11.875 12.5 11.875C12.5 11.4625 12.5 11.05 12.5 10.625Z" fill="#00AFF9"/>
<path d="M5.625 10.625C7.48125 10.625 9.3375 10.625 11.25 10.625C11.25 11.0375 11.25 11.45 11.25 11.875C9.39375 11.875 7.5375 11.875 5.625 11.875C5.625 11.4625 5.625 11.05 5.625 10.625Z" fill="#00AFF9"/>
<path d="M9.375 15C11.025 15 12.675 15 14.375 15C14.375 15.4125 14.375 15.825 14.375 16.25C12.725 16.25 11.075 16.25 9.375 16.25C9.375 15.8375 9.375 15.425 9.375 15Z" fill="#00AFF9"/>
<path d="M27.3438 18.7497C27.7254 18.9269 27.9478 19.1493 28.125 19.531C28.1839 19.9684 28.1854 20.3384 27.998 20.7419C27.6407 21.118 27.3978 21.2694 26.875 21.2888C26.3522 21.2694 26.1093 21.118 25.752 20.7419C25.5646 20.3384 25.5661 19.9684 25.625 19.531C25.9748 18.7775 26.574 18.6461 27.3438 18.7497Z" fill="#00AFF9"/>
<path d="M5.625 32.5C6.8625 32.5 8.1 32.5 9.375 32.5C9.375 32.9125 9.375 33.325 9.375 33.75C8.1375 33.75 6.9 33.75 5.625 33.75C5.625 33.3375 5.625 32.925 5.625 32.5Z" fill="#00AFF9"/>
<path d="M10 23.75C11.2375 23.75 12.475 23.75 13.75 23.75C13.75 24.1625 13.75 24.575 13.75 25C12.5125 25 11.275 25 10 25C10 24.5875 10 24.175 10 23.75Z" fill="#00AFF9"/>
<path d="M5.625 23.75C6.45 23.75 7.275 23.75 8.125 23.75C8.125 24.1625 8.125 24.575 8.125 25C7.3 25 6.475 25 5.625 25C5.625 24.5875 5.625 24.175 5.625 23.75Z" fill="#00AFF9"/>
<path d="M5.625 15C6.45 15 7.275 15 8.125 15C8.125 15.4125 8.125 15.825 8.125 16.25C7.3 16.25 6.475 16.25 5.625 16.25C5.625 15.8375 5.625 15.425 5.625 15Z" fill="#00AFF9"/>
<path d="M8.75 6.25C9.1625 6.25 9.575 6.25 10 6.25C10 6.6625 10 7.075 10 7.5C9.5875 7.5 9.175 7.5 8.75 7.5C8.75 7.0875 8.75 6.675 8.75 6.25Z" fill="#00AFF9"/>
</svg>
