<svg width="40" height="40" viewBox="0 0 40 40" fill="none" xmlns="http://www.w3.org/2000/svg">
<path d="M5.53562 11.8531C5.587 11.8526 5.63839 11.8521 5.69133 11.8515C5.85975 11.85 6.02816 11.8497 6.19659 11.8496C6.31428 11.8491 6.43197 11.8485 6.54966 11.848C6.79565 11.847 7.04164 11.8468 7.28764 11.8468C7.60272 11.8469 7.91775 11.8447 8.23282 11.842C8.47558 11.8403 8.71832 11.84 8.96108 11.8401C9.07727 11.8399 9.19345 11.8392 9.30963 11.838C9.47195 11.8365 9.63416 11.8369 9.79649 11.8378C9.88875 11.8376 9.98102 11.8374 10.0761 11.8372C10.3599 11.8836 10.451 11.9638 10.6247 12.1883C10.6662 12.3445 10.6662 12.3445 10.6638 12.5008C10.665 12.5781 10.665 12.5781 10.6662 12.657C10.6054 12.8859 10.4941 12.977 10.3122 13.1258C10.1014 13.1648 10.1014 13.1648 9.85758 13.1647C9.76602 13.1655 9.67447 13.1663 9.58014 13.1671C9.48143 13.1665 9.38271 13.1658 9.28101 13.1652C9.12523 13.1663 8.96945 13.1674 8.81367 13.1686C8.59537 13.1699 8.37708 13.1699 8.15877 13.1698C7.77844 13.1697 7.39812 13.1702 7.01779 13.1729C6.81554 13.1742 6.61328 13.1745 6.41102 13.1735C5.80232 13.177 5.19868 13.1825 4.73114 13.6141C4.43828 14.1295 4.42992 14.6218 4.43106 15.2008C4.43061 15.283 4.43016 15.3651 4.42969 15.4497C4.42837 15.7244 4.42814 15.9991 4.42791 16.2738C4.42718 16.4709 4.42639 16.6681 4.42553 16.8652C4.42384 17.2893 4.42262 17.7134 4.42183 18.1375C4.42069 18.7507 4.41869 19.3639 4.41649 19.9771C4.41294 20.9721 4.41008 21.967 4.40765 22.962C4.40529 23.9283 4.40261 24.8946 4.39949 25.8609C4.3992 25.9503 4.3992 25.9503 4.39891 26.0415C4.39794 26.3405 4.39697 26.6395 4.39599 26.9385C4.3879 29.4176 4.38095 31.8967 4.37469 34.3758C4.78719 34.3758 5.19969 34.3758 5.62469 34.3758C5.62441 34.2746 5.62412 34.1734 5.62382 34.0692C5.61706 31.6687 5.6119 29.2681 5.60874 26.8675C5.60835 26.5722 5.60794 26.2769 5.60753 25.9816C5.60745 25.9228 5.60736 25.864 5.60728 25.8034C5.60592 24.8508 5.60346 23.8982 5.60058 22.9456C5.59766 21.9685 5.59593 20.9914 5.59529 20.0143C5.59486 19.4111 5.59351 18.808 5.59097 18.2048C5.58913 17.7427 5.58893 17.2806 5.58935 16.8184C5.58926 16.6286 5.58864 16.4387 5.58744 16.2489C5.5859 15.9903 5.58626 15.7318 5.58712 15.4733C5.58621 15.3976 5.58529 15.3219 5.58436 15.2439C5.58891 14.738 5.58891 14.738 5.7707 14.4855C5.98305 14.3456 6.11575 14.3362 6.36932 14.3354C6.45588 14.3344 6.54244 14.3334 6.63162 14.3324C6.72473 14.333 6.81783 14.3336 6.91376 14.3343C7.00968 14.334 7.10561 14.3337 7.20444 14.3334C7.40723 14.3332 7.61002 14.3338 7.81281 14.3351C8.12352 14.3367 8.4341 14.3351 8.74481 14.3331C8.94175 14.3333 9.13869 14.3337 9.33563 14.3343C9.42874 14.3337 9.52184 14.333 9.61777 14.3324C9.74761 14.3339 9.74761 14.3339 9.88007 14.3354C9.99419 14.3357 9.99419 14.3357 10.1106 14.3361C10.3686 14.3869 10.4619 14.4864 10.6247 14.6883C10.6662 14.8445 10.6662 14.8445 10.6638 15.0008C10.665 15.0781 10.665 15.0781 10.6662 15.157C10.6247 15.3133 10.6247 15.3133 10.3122 15.6258C9.17782 15.6258 8.04344 15.6258 6.87469 15.6258C6.87469 21.8133 6.87469 28.0008 6.87469 34.3758C15.5372 34.3758 24.1997 34.3758 33.1247 34.3758C33.1247 28.1883 33.1247 22.0008 33.1247 15.6258C31.9903 15.6258 30.8559 15.6258 29.6872 15.6258C29.3747 15.3133 29.3747 15.3133 29.3332 15.157C29.334 15.1055 29.3348 15.0539 29.3356 15.0008C29.3344 14.9235 29.3344 14.9235 29.3332 14.8445C29.3938 14.6165 29.5066 14.5247 29.6872 14.3758C29.8888 14.3361 29.8888 14.3361 30.1193 14.3354C30.2059 14.3344 30.2924 14.3334 30.3816 14.3324C30.4747 14.333 30.5678 14.3336 30.6638 14.3343C30.7597 14.334 30.8556 14.3337 30.9544 14.3334C31.1572 14.3332 31.36 14.3338 31.5628 14.3351C31.8735 14.3367 32.1841 14.3351 32.4948 14.3331C32.6918 14.3333 32.8887 14.3337 33.0856 14.3343C33.1787 14.3337 33.2718 14.333 33.3678 14.3324C33.4976 14.3339 33.4976 14.3339 33.6301 14.3354C33.7062 14.3356 33.7822 14.3359 33.8606 14.3361C34.1372 14.3906 34.2091 14.4582 34.3747 14.6883C34.4216 14.9496 34.4155 15.2085 34.4123 15.4733C34.4125 15.554 34.4128 15.6346 34.4131 15.7177C34.4136 15.9888 34.4119 16.2599 34.4102 16.531C34.4101 16.725 34.4101 16.919 34.4103 17.1131C34.4104 17.5312 34.4095 17.9493 34.4077 18.3674C34.4052 18.9719 34.4044 19.5764 34.404 20.1809C34.4033 21.1617 34.4012 22.1425 34.3983 23.1233C34.3954 24.076 34.3932 25.0288 34.3919 25.9816C34.3918 26.0403 34.3917 26.099 34.3916 26.1595C34.3912 26.4541 34.3908 26.7487 34.3904 27.0433C34.3872 29.4875 34.3817 31.9316 34.3747 34.3758C34.7872 34.3758 35.1997 34.3758 35.6247 34.3758C35.6201 31.8399 35.6143 29.304 35.6068 26.7681C35.6059 26.4685 35.6051 26.169 35.6042 25.8695C35.6039 25.7801 35.6039 25.7801 35.6037 25.6888C35.6009 24.7239 35.599 23.7589 35.5973 22.7939C35.5956 21.8035 35.593 20.8131 35.5896 19.8226C35.5876 19.2117 35.5862 18.6007 35.5857 17.9898C35.5852 17.521 35.5835 17.0522 35.5814 16.5834C35.5807 16.3913 35.5804 16.1992 35.5806 16.0071C35.5807 15.7446 35.5794 15.4821 35.5777 15.2196C35.5781 15.1439 35.5785 15.0681 35.5789 14.99C35.5732 14.4421 35.5208 13.8986 35.1364 13.4822C34.5507 13.1495 33.9648 13.182 33.3069 13.1826C33.1502 13.1814 32.9936 13.1802 32.837 13.1789C32.4525 13.176 32.068 13.1746 31.6834 13.1742C31.4669 13.1739 31.2504 13.1727 31.0339 13.1707C30.8304 13.1689 30.6268 13.1683 30.4233 13.1691C30.2852 13.1676 30.2852 13.1676 30.1443 13.166C30.0634 13.1657 29.9824 13.1655 29.899 13.1653C29.6334 13.1158 29.5409 13.0219 29.3747 12.8133C29.3332 12.657 29.3332 12.657 29.3356 12.5008C29.3344 12.4235 29.3344 12.4235 29.3332 12.3445C29.3945 12.1137 29.502 12.0245 29.6872 11.8758C29.9212 11.8361 29.9212 11.8361 30.1979 11.8354C30.2486 11.8348 30.2992 11.8343 30.3513 11.8337C30.5184 11.8323 30.6853 11.8332 30.8524 11.8343C30.9691 11.8341 31.0859 11.8338 31.2027 11.8334C31.4477 11.8329 31.6926 11.8336 31.9376 11.8351C32.2497 11.8368 32.5617 11.8358 32.8737 11.8339C33.1152 11.8328 33.3566 11.8332 33.598 11.834C33.7129 11.8342 33.8279 11.8339 33.9428 11.8332C34.8062 11.8289 35.5534 11.9124 36.2082 12.524C36.7693 13.148 36.8982 13.7717 36.8935 14.5902C36.8937 14.7171 36.8937 14.7171 36.8939 14.8466C36.8941 15.1302 36.8933 15.4137 36.8924 15.6973C36.8924 15.9006 36.8924 16.1039 36.8925 16.3071C36.8926 16.7448 36.8921 17.1824 36.8912 17.62C36.8899 18.2528 36.8895 18.8855 36.8893 19.5182C36.889 20.5449 36.888 21.5715 36.8865 22.5981C36.885 23.5953 36.8839 24.5924 36.8833 25.5896C36.8832 25.6511 36.8832 25.7126 36.8832 25.7759C36.8829 26.0844 36.8828 26.3928 36.8826 26.7013C36.8809 29.2594 36.8782 31.8176 36.8747 34.3758C36.9204 34.3742 36.9661 34.3725 37.0132 34.3708C37.2209 34.3643 37.4286 34.3603 37.6364 34.3563C37.7083 34.3536 37.7802 34.351 37.8543 34.3483C38.387 34.3406 38.387 34.3406 38.6409 34.5185C38.9136 34.9441 38.7945 35.5624 38.6981 36.0347C38.3877 37.0722 37.7007 37.8523 36.7902 38.4102C36.0363 38.7614 35.3137 38.7844 34.4951 38.7811C34.3649 38.7814 34.2347 38.7818 34.1045 38.7824C33.7482 38.7835 33.3919 38.7832 33.0356 38.7826C32.6508 38.7822 32.266 38.7832 31.8811 38.784C31.1278 38.7853 30.3745 38.7854 29.6211 38.785C29.0087 38.7847 28.3963 38.7848 27.7838 38.7852C27.6966 38.7853 27.6094 38.7853 27.5195 38.7854C27.3423 38.7855 27.1651 38.7856 26.9879 38.7857C25.3268 38.7868 23.6657 38.7864 22.0046 38.7855C20.4856 38.7847 18.9667 38.7857 17.4478 38.7876C15.8872 38.7895 14.3267 38.7903 12.7662 38.7897C11.8905 38.7895 11.0147 38.7896 10.1389 38.791C9.39341 38.7922 8.6479 38.7922 7.90237 38.7908C7.52219 38.7902 7.14203 38.79 6.76185 38.7912C6.41342 38.7923 6.06502 38.7919 5.71659 38.7904C5.59095 38.7901 5.4653 38.7903 5.33966 38.7912C4.07859 38.7988 3.14468 38.5029 2.20673 37.6326C1.46422 36.8481 1.2285 35.9865 1.21094 34.9306C1.24969 34.6883 1.24969 34.6883 1.35832 34.5181C1.6759 34.2964 1.98597 34.3425 2.36298 34.3563C2.43609 34.3577 2.5092 34.3591 2.58453 34.3605C2.76467 34.3642 2.94464 34.3694 3.12469 34.3758C3.12458 34.3325 3.12446 34.2891 3.12434 34.2444C3.11734 31.674 3.11198 29.1036 3.10874 26.5332C3.10835 26.2244 3.10794 25.9156 3.10753 25.6068C3.10745 25.5453 3.10736 25.4838 3.10728 25.4205C3.10592 24.4258 3.10346 23.431 3.10058 22.4363C3.09766 21.4153 3.09593 20.3942 3.09529 19.3731C3.09486 18.7433 3.09351 18.1135 3.09097 17.4838C3.08912 17.0004 3.08893 16.5171 3.08935 16.0337C3.08926 15.8357 3.08864 15.6378 3.08744 15.4398C3.08588 15.1691 3.08626 14.8985 3.08712 14.6278C3.08621 14.5498 3.08529 14.4718 3.08436 14.3915C3.09034 13.6853 3.28432 13.0654 3.77289 12.5423C4.28892 12.0784 4.84006 11.8576 5.53562 11.8531ZM2.65594 35.6258C2.7854 36.2731 3.12902 36.7219 3.67126 37.0934C4.46426 37.5741 5.31351 37.5122 6.20799 37.5112C6.33166 37.5114 6.45533 37.5116 6.579 37.5118C6.91798 37.5123 7.25695 37.5122 7.59593 37.5122C7.96185 37.5121 8.32778 37.5126 8.6937 37.5129C9.41027 37.5136 10.1268 37.5138 10.8434 37.5139C11.4259 37.5139 12.0085 37.514 12.591 37.5143C14.2431 37.515 15.8952 37.5153 17.5472 37.5153C17.6363 37.5153 17.7253 37.5153 17.817 37.5153C17.9062 37.5153 17.9953 37.5153 18.0871 37.5153C19.5319 37.5152 20.9766 37.516 22.4214 37.5171C23.9053 37.5182 25.3893 37.5187 26.8733 37.5187C27.7062 37.5187 28.5391 37.5189 29.3721 37.5197C30.0812 37.5204 30.7903 37.5206 31.4994 37.5201C31.8611 37.5198 32.2227 37.5198 32.5844 37.5205C32.9158 37.5211 33.2472 37.521 33.5786 37.5203C33.6982 37.5202 33.8177 37.5203 33.9373 37.5208C34.9989 37.5244 35.9723 37.503 36.785 36.74C37.074 36.4189 37.3434 36.0716 37.3434 35.6258C25.8966 35.6258 14.4497 35.6258 2.65594 35.6258Z" fill="#00AFF9"/>
<path d="M19.0782 10.6067C19.1497 10.6061 19.2212 10.6054 19.2948 10.6048C19.4464 10.6037 19.598 10.6029 19.7496 10.6022C19.9807 10.6009 20.2118 10.5975 20.4429 10.594C20.5902 10.5932 20.7375 10.5926 20.8848 10.592C20.9537 10.5907 21.0225 10.5893 21.0935 10.5879C21.6215 10.5897 21.8999 10.7378 22.2874 11.1038C22.6426 11.6874 22.6008 12.3853 22.5804 13.0472C22.8196 13.1481 23.0589 13.249 23.2982 13.3499C23.3657 13.3784 23.4332 13.4069 23.5028 13.4363C23.8193 13.5697 24.1357 13.7027 24.4554 13.8284C24.512 13.7691 24.5686 13.7098 24.6269 13.6487C24.7031 13.5702 24.7794 13.4918 24.8558 13.4134C24.8928 13.3744 24.9299 13.3353 24.9681 13.2951C25.2771 12.9799 25.5683 12.7658 26.0179 12.7008C26.0952 12.7007 26.1726 12.7006 26.2523 12.7005C26.3296 12.699 26.4069 12.6975 26.4866 12.6959C26.9634 12.7748 27.2915 13.129 27.6231 13.4598C27.662 13.4985 27.7008 13.5372 27.7408 13.577C27.8222 13.6583 27.9033 13.7397 27.9842 13.8213C28.1079 13.9458 28.2324 14.0695 28.357 14.1931C28.4363 14.2725 28.5156 14.352 28.5948 14.4315C28.702 14.5389 28.702 14.5389 28.8114 14.6486C29.1597 15.0371 29.1827 15.3459 29.1716 15.8575C29.0893 16.5361 28.5225 16.9767 28.0491 17.4222C28.0672 17.4651 28.0854 17.508 28.104 17.5522C28.1867 17.7481 28.2693 17.944 28.3519 18.1399C28.3946 18.2412 28.3946 18.2412 28.4382 18.3446C28.5716 18.6611 28.7046 18.9775 28.8304 19.2972C28.8753 19.2979 28.9201 19.2986 28.9664 19.2994C29.1718 19.3036 29.377 19.3101 29.5823 19.3167C29.6529 19.3178 29.7235 19.3189 29.7963 19.3201C30.2403 19.3363 30.5106 19.3901 30.8616 19.6878C31.3725 20.2677 31.2778 20.8769 31.2839 21.614C31.2856 21.7679 31.2882 21.9217 31.2919 22.0755C31.2972 22.2979 31.2993 22.5201 31.3008 22.7426C31.3029 22.8107 31.3051 22.8787 31.3074 22.9488C31.3056 23.4706 31.1397 23.7648 30.7835 24.1409C30.4348 24.4469 30.0303 24.4181 29.5872 24.429C29.5145 24.4317 29.4417 24.4343 29.3667 24.4371C29.188 24.4435 29.0092 24.4489 28.8304 24.4534C28.7294 24.6927 28.6285 24.9319 28.5276 25.1712C28.4991 25.2387 28.4706 25.3062 28.4413 25.3758C28.3079 25.6923 28.1749 26.0088 28.0491 26.3284C28.1084 26.385 28.1678 26.4416 28.2289 26.4999C28.3073 26.5762 28.3858 26.6525 28.4642 26.7288C28.5032 26.7659 28.5422 26.8029 28.5824 26.8411C28.8977 27.1501 29.1118 27.4414 29.1768 27.8909C29.1769 28.0069 29.1769 28.0069 29.1771 28.1253C29.1793 28.2413 29.1793 28.2413 29.1816 28.3597C29.0785 28.9831 28.4904 29.4293 28.0606 29.8573C27.9367 29.9809 27.814 30.1054 27.6913 30.2301C27.6122 30.3094 27.533 30.3887 27.4537 30.4678C27.3469 30.575 27.3469 30.575 27.2378 30.6844C26.852 31.0154 26.4941 31.0565 25.9999 31.0446C25.3365 30.9567 24.8908 30.3848 24.4554 29.9222C24.391 29.9493 24.391 29.9493 24.3253 29.9771C24.1294 30.0597 23.9335 30.1423 23.7376 30.2249C23.6363 30.2677 23.6363 30.2677 23.533 30.3113C23.2165 30.4447 22.9 30.5777 22.5804 30.7034C22.5796 30.7483 22.5789 30.7932 22.5782 30.8394C22.5739 31.0448 22.5674 31.2501 22.5608 31.4554C22.5597 31.526 22.5586 31.5966 22.5575 31.6693C22.5413 32.1133 22.4875 32.3837 22.1898 32.7347C21.7619 33.1116 21.4851 33.1393 20.9263 33.1439C20.8548 33.1445 20.7833 33.1452 20.7097 33.1458C20.5581 33.1469 20.4065 33.1477 20.2549 33.1484C20.0238 33.1497 19.7927 33.1531 19.5616 33.1566C19.4143 33.1574 19.267 33.158 19.1197 33.1586C19.0508 33.1599 18.982 33.1613 18.911 33.1627C18.4798 33.1612 18.2347 33.1007 17.8929 32.8128C17.6209 32.504 17.4956 32.3169 17.4775 31.9089C17.4743 31.8389 17.471 31.7689 17.4676 31.6968C17.4645 31.6236 17.4615 31.5503 17.4583 31.4749C17.4549 31.4011 17.4516 31.3273 17.4481 31.2512C17.4398 31.0686 17.4318 30.886 17.4241 30.7034C17.3753 30.6842 17.3265 30.665 17.2763 30.6452C16.6953 30.4162 16.1223 30.1699 15.5491 29.9222C15.4925 29.9815 15.4359 30.0408 15.3776 30.1019C15.3014 30.1804 15.2251 30.2588 15.1487 30.3372C15.1117 30.3762 15.0746 30.4153 15.0364 30.4555C14.7274 30.7707 14.4362 30.9848 13.9866 31.0498C13.8706 31.0499 13.8706 31.0499 13.7523 31.0501C13.6362 31.0524 13.6362 31.0524 13.5179 31.0547C13.0411 30.9758 12.713 30.6216 12.3814 30.2908C12.3231 30.2328 12.3231 30.2328 12.2637 30.1736C12.1823 30.0923 12.1012 30.0109 12.0203 29.9293C11.8966 29.8048 11.7721 29.6811 11.6475 29.5575C11.5682 29.4781 11.4889 29.3986 11.4097 29.3191C11.3382 29.2475 11.2668 29.1758 11.1931 29.102C10.858 28.7282 10.8254 28.4451 10.8384 27.9535C10.9153 27.2285 11.4457 26.8031 11.9554 26.3284C11.9373 26.2855 11.9191 26.2426 11.9005 26.1984C11.8178 26.0025 11.7352 25.8066 11.6526 25.6107C11.6241 25.5431 11.5956 25.4756 11.5663 25.406C11.4329 25.0895 11.2999 24.7731 11.1741 24.4534C11.1068 24.4523 11.1068 24.4523 11.0381 24.4512C10.8327 24.447 10.6275 24.4405 10.4222 24.4339C10.3516 24.4328 10.281 24.4317 10.2082 24.4305C9.76424 24.4143 9.49386 24.3605 9.14288 24.0628C8.76592 23.6349 8.73828 23.3581 8.73364 22.7994C8.73301 22.7279 8.73238 22.6564 8.73173 22.5827C8.73064 22.4311 8.72981 22.2796 8.72919 22.128C8.72785 21.8968 8.72442 21.6658 8.72097 21.4346C8.72018 21.2873 8.71952 21.14 8.71899 20.9927C8.71762 20.9239 8.71625 20.855 8.71484 20.7841C8.71636 20.3528 8.77689 20.1077 9.06475 19.7659C9.37353 19.4939 9.56067 19.3687 9.96868 19.3506C10.0387 19.3473 10.1087 19.344 10.1808 19.3407C10.254 19.3376 10.3272 19.3345 10.4026 19.3314C10.4765 19.328 10.5503 19.3246 10.6263 19.3211C10.8089 19.3128 10.9915 19.3049 11.1741 19.2972C11.2751 19.0579 11.376 18.8187 11.4769 18.5794C11.5054 18.5119 11.5339 18.4444 11.5632 18.3748C11.6966 18.0583 11.8296 17.7418 11.9554 17.4222C11.8961 17.3656 11.8367 17.309 11.7756 17.2507C11.6972 17.1744 11.6187 17.0981 11.5403 17.0218C11.5013 16.9847 11.4623 16.9477 11.4221 16.9095C11.1068 16.6005 10.8927 16.3092 10.8278 15.8597C10.8277 15.7823 10.8276 15.705 10.8274 15.6253C10.8252 15.5093 10.8252 15.5093 10.8229 15.3909C10.926 14.7675 11.5141 14.3213 11.944 13.8933C12.0678 13.7697 12.1905 13.6452 12.3132 13.5205C12.3923 13.4412 12.4715 13.3619 12.5508 13.2828C12.622 13.2113 12.6933 13.1398 12.7667 13.0662C13.1525 12.7352 13.5104 12.6941 14.0046 12.706C14.668 12.7939 15.1137 13.3658 15.5491 13.8284C15.592 13.8103 15.635 13.7922 15.6792 13.7735C15.8751 13.6909 16.071 13.6083 16.2669 13.5257C16.3344 13.4972 16.402 13.4687 16.4715 13.4393C16.788 13.3059 17.1045 13.1729 17.4241 13.0472C17.4249 13.0023 17.4256 12.9574 17.4263 12.9112C17.4306 12.7058 17.4371 12.5005 17.4437 12.2952C17.4448 12.2246 17.4459 12.154 17.447 12.0813C17.4632 11.6373 17.517 11.3669 17.8148 11.0159C18.2427 10.639 18.5195 10.6113 19.0782 10.6067ZM18.7523 12.0315C18.7285 12.1814 18.7285 12.1814 18.7309 12.3523C18.7293 12.4163 18.7277 12.4803 18.726 12.5462C18.724 12.6801 18.7226 12.814 18.7217 12.9478C18.7088 13.409 18.6364 13.6875 18.3616 14.0628C18.2014 14.1852 18.2014 14.1852 18.0247 14.263C17.9568 14.2935 17.889 14.324 17.819 14.3555C17.7403 14.3878 17.6615 14.4201 17.5804 14.4534C17.5336 14.4727 17.4868 14.4919 17.4385 14.5118C17.1901 14.6134 16.9409 14.7128 16.6908 14.8105C16.4966 14.8873 16.3069 14.9667 16.1164 15.0516C15.7265 15.2122 15.4459 15.1971 15.0462 15.0735C14.5714 14.849 14.1898 14.4372 13.8304 14.0628C13.5676 14.1767 13.3971 14.3215 13.1968 14.5248C13.1379 14.5843 13.079 14.6437 13.0183 14.7049C12.9576 14.7669 12.8969 14.829 12.8343 14.8929C12.7723 14.9555 12.7104 15.0182 12.6466 15.0827C12.494 15.2372 12.3417 15.392 12.1898 15.5472C12.3123 15.8071 12.4435 15.9697 12.6536 16.1673C13.0525 16.5568 13.2575 16.8697 13.303 17.4268C13.2784 17.8151 13.1543 18.1012 12.9954 18.4524C12.9376 18.5839 12.8798 18.7153 12.8221 18.8467C12.7939 18.9102 12.7657 18.9737 12.7366 19.0391C12.6685 19.1961 12.6047 19.3534 12.5438 19.5132C12.5123 19.595 12.4809 19.6768 12.4485 19.761C12.4225 19.831 12.3964 19.901 12.3695 19.9731C12.1991 20.2806 11.9723 20.4374 11.6429 20.5472C11.5357 20.5567 11.4282 20.5628 11.3206 20.5664C11.259 20.569 11.1973 20.5715 11.1338 20.5742C11.0045 20.579 10.8751 20.5834 10.7457 20.5876C10.684 20.5903 10.6224 20.5929 10.5589 20.5957C10.5027 20.5977 10.4465 20.5996 10.3886 20.6016C10.2116 20.6183 10.2116 20.6183 10.0023 20.7815C9.96702 21.0062 9.96702 21.0062 9.97387 21.2698C9.97392 21.3673 9.97397 21.4648 9.97402 21.5652C9.97528 21.6676 9.97654 21.7699 9.97784 21.8753C9.97759 21.9776 9.97734 22.0799 9.97708 22.1854C9.93934 22.7019 9.93934 22.7019 10.1585 23.1253C10.3083 23.149 10.3083 23.149 10.4792 23.1467C10.5432 23.1483 10.6072 23.1499 10.6732 23.1515C10.807 23.1536 10.9409 23.155 11.0748 23.1558C11.536 23.1688 11.8142 23.2416 12.1898 23.5159C12.3094 23.6706 12.3094 23.6706 12.3851 23.8431C12.4154 23.9105 12.4457 23.978 12.4769 24.0475C12.5111 24.1299 12.5452 24.2123 12.5804 24.2972C12.6026 24.3499 12.6248 24.4026 12.6476 24.4569C12.7911 24.7975 12.9319 25.1391 13.0695 25.4822C13.1184 25.6033 13.169 25.7238 13.22 25.8441C13.3476 26.1894 13.3074 26.4856 13.2005 26.8314C12.9759 27.3061 12.5641 27.6878 12.1898 28.0472C12.3036 28.3099 12.4484 28.4804 12.6518 28.6807C12.7112 28.7396 12.7706 28.7985 12.8318 28.8592C12.8939 28.92 12.9559 28.9807 13.0198 29.0433C13.0825 29.1052 13.1451 29.1671 13.2097 29.231C13.3641 29.3836 13.519 29.5359 13.6741 29.6878C13.9319 29.5664 14.0868 29.4399 14.2796 29.2288C14.6583 28.8431 14.9786 28.6168 15.5235 28.5687C15.9157 28.5768 16.232 28.721 16.5843 28.8821C16.7151 28.9402 16.8459 28.9982 16.9767 29.0561C17.0398 29.0843 17.1028 29.1125 17.1677 29.1416C17.4703 29.273 17.7813 29.3835 18.0925 29.4928C18.3718 29.6637 18.5368 29.8588 18.6741 30.1565C18.7249 30.4259 18.7288 30.6887 18.7278 30.9622C18.7291 31.1019 18.731 31.2416 18.7336 31.3812C18.7336 31.4424 18.7336 31.5035 18.7335 31.5666C18.7386 31.7375 18.7386 31.7375 18.9085 31.8753C19.1336 31.8997 19.1336 31.8997 19.3968 31.896C19.4943 31.8963 19.5918 31.8965 19.6922 31.8967C19.7945 31.8961 19.8968 31.8955 20.0023 31.8948C20.1046 31.8954 20.2069 31.896 20.3123 31.8967C20.4098 31.8965 20.5073 31.8963 20.6077 31.896C20.7425 31.8958 20.7425 31.8958 20.8799 31.8955C21.1071 31.8974 21.1071 31.8974 21.2523 31.719C21.276 31.5692 21.276 31.5692 21.2736 31.3983C21.276 31.3023 21.276 31.3023 21.2785 31.2044C21.2805 31.0705 21.2819 30.9366 21.2828 30.8028C21.2957 30.3416 21.3681 30.0631 21.6429 29.6878C21.8031 29.5654 21.8031 29.5654 21.9798 29.4876C22.0477 29.4571 22.1155 29.4266 22.1855 29.3951C22.2642 29.3628 22.343 29.3305 22.4241 29.2972C22.4709 29.2779 22.5177 29.2587 22.566 29.2388C22.8144 29.1372 23.0636 29.0378 23.3137 28.9401C23.5079 28.8633 23.6976 28.7839 23.8881 28.699C24.278 28.5384 24.5586 28.5535 24.9583 28.6771C25.4331 28.9016 25.8147 29.3134 26.1741 29.6878C26.4369 29.5739 26.6074 29.4291 26.8077 29.2258C26.8666 29.1663 26.9255 29.1069 26.9862 29.0457C27.0469 28.9837 27.1077 28.9216 27.1702 28.8577C27.2322 28.7951 27.2941 28.7324 27.3579 28.6679C27.5105 28.5134 27.6628 28.3586 27.8148 28.2034C27.6922 27.9435 27.561 27.7809 27.3509 27.5833C26.952 27.1938 26.747 26.8809 26.7015 26.3238C26.7261 25.9355 26.8502 25.6494 27.0091 25.2982C27.0669 25.1667 27.1247 25.0353 27.1824 24.9039C27.2247 24.8086 27.2247 24.8086 27.2679 24.7115C27.336 24.5545 27.3998 24.3972 27.4607 24.2374C27.4922 24.1556 27.5236 24.0738 27.556 23.9896C27.5951 23.8846 27.5951 23.8846 27.635 23.7775C27.8054 23.47 28.0322 23.3132 28.3616 23.2034C28.4688 23.1939 28.5763 23.1878 28.6839 23.1842C28.7455 23.1816 28.8072 23.1791 28.8707 23.1764C29 23.1716 29.1294 23.1672 29.2588 23.163C29.3205 23.1603 29.3821 23.1577 29.4456 23.1549C29.5018 23.1529 29.558 23.151 29.6159 23.149C29.7929 23.1323 29.7929 23.1323 30.0023 22.969C30.0375 22.7444 30.0375 22.7444 30.0306 22.4808C30.0306 22.3833 30.0305 22.2858 30.0305 22.1854C30.0292 22.083 30.028 21.9807 30.0267 21.8753C30.0269 21.773 30.0272 21.6707 30.0274 21.5652C30.0652 21.0487 30.0652 21.0487 29.846 20.6253C29.6962 20.6016 29.6962 20.6016 29.5253 20.6039C29.4613 20.6023 29.3973 20.6007 29.3313 20.5991C29.1975 20.597 29.0636 20.5956 28.9297 20.5948C28.4685 20.5818 28.1901 20.5094 27.8148 20.2347C27.6924 20.0745 27.6924 20.0745 27.6146 19.8978C27.584 19.8299 27.5535 19.762 27.5221 19.6921C27.4898 19.6133 27.4574 19.5346 27.4241 19.4534C27.4049 19.4066 27.3856 19.3598 27.3658 19.3116C27.2641 19.0631 27.1648 18.8139 27.0671 18.5638C26.9902 18.3696 26.9108 18.18 26.826 17.9895C26.6653 17.5996 26.6805 17.319 26.804 16.9192C27.0286 16.4445 27.4404 16.0628 27.8148 15.7034C27.7009 15.4407 27.5561 15.2702 27.3527 15.0699C27.2933 15.011 27.2339 14.9521 27.1727 14.8914C27.0796 14.8003 27.0796 14.8003 26.9847 14.7073C26.922 14.6454 26.8594 14.5835 26.7949 14.5196C26.6404 14.367 26.4855 14.2147 26.3304 14.0628C26.0705 14.1853 25.9079 14.3165 25.7103 14.5267C25.3207 14.9256 25.0079 15.1305 24.4508 15.1761C24.0625 15.1514 23.7763 15.0274 23.4251 14.8685C23.2937 14.8106 23.1623 14.7529 23.0308 14.6951C22.9673 14.6669 22.9038 14.6387 22.8384 14.6097C22.6815 14.5415 22.5241 14.4777 22.3643 14.4168C22.2825 14.3854 22.2008 14.354 22.1165 14.3216C22.0465 14.2955 21.9765 14.2694 21.9044 14.2425C21.5969 14.0722 21.4402 13.8453 21.3304 13.5159C21.3208 13.4087 21.3147 13.3012 21.3112 13.1937C21.3086 13.132 21.306 13.0704 21.3034 13.0069C21.2986 12.8775 21.2941 12.7481 21.2899 12.6187C21.2873 12.5571 21.2846 12.4954 21.2819 12.4319C21.2799 12.3757 21.2779 12.3196 21.2759 12.2617C21.2592 12.0846 21.2592 12.0846 21.096 11.8753C20.8713 11.8401 20.8713 11.8401 20.6077 11.8469C20.5102 11.847 20.4128 11.847 20.3123 11.8471C20.21 11.8483 20.1077 11.8496 20.0023 11.8509C19.8999 11.8506 19.7976 11.8504 19.6922 11.8501C19.1756 11.8124 19.1756 11.8124 18.7523 12.0315Z" fill="#00AFF9"/>
<path d="M23.8427 16.8554C23.9426 16.9393 24.0419 17.0239 24.1405 17.1093C24.2025 17.156 24.2644 17.2026 24.3282 17.2506C25.0876 17.8913 25.5894 18.7703 25.9374 19.6875C25.9713 19.7743 26.0051 19.8611 26.04 19.9505C26.5502 21.5131 26.347 23.2603 25.6396 24.7168C25.3963 25.1927 25.116 25.6108 24.7655 26.0156C24.7091 26.0929 24.6527 26.1703 24.5946 26.25C23.7707 27.2121 22.2644 27.9774 21.0155 28.125C19.175 28.2614 17.4567 27.985 16.0073 26.7688C15.9585 26.7265 15.9096 26.6842 15.8593 26.6406C15.7664 26.5706 15.7664 26.5706 15.6716 26.4993C14.9122 25.8587 14.4104 24.9796 14.0624 24.0625C14.0286 23.9757 13.9947 23.8888 13.9599 23.7994C13.4496 22.2368 13.6528 20.4897 14.3603 19.0332C14.6031 18.5575 14.8841 18.1387 15.2343 17.7343C15.2818 17.6715 15.3294 17.6087 15.3783 17.5439C17.4275 15.1087 21.413 14.9818 23.8427 16.8554ZM16.4257 18.374C15.3821 19.5058 14.9798 20.795 15.0405 22.3159C15.133 23.6256 15.7702 24.7313 16.7187 25.625C17.7658 26.4877 19.0041 26.9212 20.3619 26.8628C21.6761 26.7099 22.9875 26.1337 23.828 25.0781C24.7647 23.8314 25.093 22.5754 24.9218 21.0156C24.7051 19.7345 23.9433 18.5875 22.8954 17.8271C20.7796 16.4394 18.297 16.6748 16.4257 18.374Z" fill="#00AFF9"/>
<path d="M4.92319 1.4585C5.38002 1.76914 5.84508 2.14963 6.0914 2.65601C6.11926 2.81194 6.14546 2.96819 6.16952 3.12476C6.2207 3.12406 6.27188 3.12337 6.32461 3.12265C6.85688 3.11575 7.38913 3.11103 7.92142 3.10759C8.12012 3.10602 8.31882 3.10389 8.51751 3.10118C8.80297 3.0974 9.08839 3.09562 9.37387 3.09424C9.50731 3.09182 9.50731 3.09182 9.64344 3.08935C9.76775 3.08932 9.76775 3.08932 9.89458 3.08928C9.96744 3.08859 10.0403 3.08789 10.1154 3.08718C10.3846 3.13912 10.4683 3.21023 10.6226 3.43726C10.6535 3.66756 10.6654 3.86865 10.6631 4.09888C10.6636 4.16548 10.6642 4.23208 10.6647 4.3007C10.6661 4.52072 10.6652 4.74067 10.6642 4.9607C10.6644 5.11364 10.6647 5.26658 10.6651 5.41953C10.6655 5.74002 10.6648 6.06049 10.6634 6.38098C10.6616 6.79188 10.6626 7.20272 10.6645 7.61362C10.6656 7.92942 10.6653 8.24522 10.6645 8.56103C10.6643 8.71253 10.6645 8.86404 10.6652 9.01555C10.666 9.22728 10.6648 9.43891 10.6631 9.65064C10.6637 9.71331 10.6643 9.77598 10.665 9.84055C10.6607 10.1218 10.6469 10.2805 10.4736 10.5073C10.2965 10.6346 10.2133 10.6672 9.99765 10.6638C9.9203 10.665 9.9203 10.665 9.8414 10.6663C9.60781 10.6042 9.52123 10.502 9.37265 10.3123C9.34339 10.1075 9.33295 9.93603 9.33717 9.73174C9.33713 9.67378 9.33708 9.61582 9.33703 9.55611C9.33725 9.36501 9.33968 9.174 9.34213 8.98291C9.34271 8.85024 9.34316 8.71757 9.34347 8.58489C9.34466 8.23604 9.34773 7.88723 9.35119 7.5384C9.35495 7.11967 9.35639 6.70093 9.35821 6.28219C9.36124 5.64635 9.36722 5.0106 9.37265 4.37476C8.31562 4.37476 7.25859 4.37476 6.16952 4.37476C6.14374 4.52945 6.11796 4.68413 6.0914 4.84351C5.76206 5.48651 5.28877 5.91206 4.6232 6.18201C3.94864 6.36441 3.1388 6.34024 2.50589 6.03491C1.92077 5.68754 1.505 5.19453 1.27542 4.54474C1.15638 3.81613 1.15909 3.05752 1.56015 2.42163C1.58754 2.37309 1.61493 2.32455 1.64316 2.27454C2.28787 1.2403 3.85895 0.881697 4.92319 1.4585ZM2.70273 3.09546C2.53053 3.45309 2.51349 3.75019 2.57577 4.14038C2.75778 4.5184 2.97901 4.73963 3.35702 4.92163C3.74722 4.98391 4.04431 4.96687 4.40195 4.79468C4.68195 4.54134 4.88791 4.33845 4.94943 3.953C4.96943 3.50896 4.91454 3.23027 4.60702 2.89038C4.26713 2.58286 3.98845 2.52797 3.5444 2.54798C3.15896 2.6095 2.95607 2.81545 2.70273 3.09546Z" fill="#00AFF9"/>
<path d="M37.4913 1.46441C38.1431 1.85307 38.5489 2.39127 38.7499 3.12518C38.8118 3.81951 38.8201 4.47143 38.4374 5.0783C38.41 5.12684 38.3826 5.17539 38.3544 5.2254C38.0203 5.7613 37.477 6.08937 36.8749 6.25018C35.9834 6.32963 35.2973 6.2607 34.5897 5.67889C34.1476 5.26591 33.9291 4.98181 33.828 4.37518C32.771 4.37518 31.7139 4.37518 30.6249 4.37518C30.6285 4.80017 30.6321 5.22515 30.6359 5.66302C30.6375 5.93219 30.639 6.20135 30.6401 6.47052C30.642 6.8978 30.6442 7.32506 30.6484 7.75233C30.6518 8.09679 30.6537 8.44122 30.6545 8.7857C30.6551 8.91715 30.6562 9.0486 30.6579 9.18004C30.6602 9.3641 30.6605 9.54808 30.6603 9.73216C30.662 9.81375 30.662 9.81375 30.6638 9.897C30.6615 10.1614 30.6413 10.2917 30.4762 10.5026C30.2985 10.6355 30.2188 10.6677 29.9999 10.6642C29.9483 10.665 29.8967 10.6659 29.8436 10.6667C29.6068 10.6038 29.5238 10.5076 29.3749 10.3127C29.344 10.0824 29.3321 9.88129 29.3344 9.65106C29.3339 9.58446 29.3333 9.51786 29.3328 9.44924C29.3314 9.22921 29.3323 9.00927 29.3334 8.78924C29.3332 8.6363 29.3329 8.48335 29.3325 8.33041C29.332 8.00991 29.3327 7.68945 29.3341 7.36895C29.3359 6.95805 29.3349 6.54722 29.333 6.13632C29.3319 5.82051 29.3322 5.50472 29.3331 5.18891C29.3333 5.0374 29.333 4.88589 29.3323 4.73439C29.3315 4.52266 29.3327 4.31103 29.3344 4.0993C29.3338 4.03663 29.3332 3.97396 29.3325 3.90938C29.3366 3.63889 29.3539 3.46852 29.5077 3.24229C29.725 3.10065 29.8447 3.08724 30.1029 3.0897C30.1858 3.08972 30.2687 3.08975 30.3541 3.08977C30.443 3.09139 30.532 3.093 30.6237 3.09466C30.7151 3.0951 30.8066 3.09554 30.9008 3.096C31.193 3.09775 31.4851 3.10167 31.7772 3.10565C31.9753 3.10721 32.1733 3.10864 32.3714 3.10992C32.857 3.11336 33.3425 3.11859 33.828 3.12518C33.8388 3.05196 33.8495 2.97875 33.8607 2.90331C33.962 2.35301 34.3582 1.91328 34.8094 1.60174C35.5794 1.11574 36.6687 1.06967 37.4913 1.46441ZM35.205 3.09588C35.0328 3.45351 35.0157 3.75061 35.078 4.1408C35.26 4.51882 35.4812 4.74005 35.8592 4.92205C36.2494 4.98433 36.5465 4.96729 36.9042 4.7951C37.1842 4.54176 37.3901 4.33887 37.4517 3.95343C37.4717 3.50938 37.4168 3.23069 37.1092 2.8908C36.7694 2.58328 36.4907 2.52839 36.0466 2.5484C35.6612 2.60992 35.4583 2.81587 35.205 3.09588Z" fill="#00AFF9"/>
<path d="M21.8102 1.86124C22.3776 2.45889 22.5466 3.1095 22.5371 3.91917C22.5178 4.36683 22.4249 4.70163 22.1874 5.0781C22.16 5.12664 22.1326 5.17518 22.1044 5.22519C21.8583 5.62002 21.5099 5.89005 21.0937 6.09372C20.9378 6.12207 20.7816 6.14837 20.6249 6.17185C20.6266 6.25777 20.6282 6.3437 20.6299 6.43224C20.6356 6.75138 20.6391 7.07051 20.6421 7.38969C20.6437 7.52776 20.6458 7.66583 20.6485 7.80389C20.6523 8.00248 20.6541 8.20101 20.6555 8.39963C20.6571 8.46124 20.6587 8.52286 20.6603 8.58634C20.6605 8.86957 20.6506 9.02869 20.4765 9.25755C20.2991 9.38454 20.2157 9.4174 19.9999 9.41403C19.9484 9.41484 19.8968 9.41564 19.8437 9.41647C19.6066 9.35351 19.5236 9.25787 19.3749 9.06247C19.3477 8.83128 19.3384 8.63008 19.3444 8.39963C19.3449 8.33591 19.3453 8.27219 19.3458 8.20654C19.3475 8.00352 19.3514 7.80061 19.3554 7.59763C19.357 7.45979 19.3584 7.32195 19.3597 7.18411C19.3631 6.84665 19.3685 6.50927 19.3749 6.17185C19.3017 6.16107 19.2285 6.15029 19.1531 6.13919C18.6028 6.03784 18.163 5.64168 17.8515 5.1904C17.42 4.50674 17.3808 3.67017 17.5509 2.89182C17.794 2.21987 18.1994 1.78097 18.8281 1.45017C19.8582 0.980412 20.9346 1.12573 21.8102 1.86124ZM18.955 3.09567C18.7828 3.45331 18.7658 3.7504 18.8281 4.1406C19.0101 4.51861 19.2313 4.73984 19.6093 4.92185C19.9995 4.98412 20.2966 4.96709 20.6542 4.79489C20.9342 4.54155 21.1402 4.33866 21.2017 3.95322C21.2217 3.50917 21.1668 3.23049 20.8593 2.8906C20.5194 2.58307 20.2407 2.52819 19.7967 2.54819C19.4112 2.60971 19.2084 2.81567 18.955 3.09567Z" fill="#00AFF9"/>
</svg>
