<svg width="40" height="40" viewBox="0 0 40 40" fill="none" xmlns="http://www.w3.org/2000/svg">
<path d="M26.4022 10.866C28.6091 12.4722 30.3192 14.9641 30.8654 17.6553C31.3403 20.8537 30.7282 23.9402 28.88 26.6129C26.9516 29.0865 24.1957 30.5537 21.1033 30.9706C17.8836 31.2314 15.0711 30.1987 12.5608 28.1848C10.5404 26.3191 9.17354 23.6275 9.04934 20.8721C8.97285 17.7457 9.56917 15.0434 11.6842 12.6388C11.9113 12.4082 12.1416 12.1805 12.3758 11.957C12.5159 11.8123 12.5159 11.8123 12.6588 11.6648C16.3545 8.08881 22.2499 8.18132 26.4022 10.866ZM13.2804 13.9398C11.5028 16.183 10.8465 18.4843 11.129 21.3079C11.4455 23.0274 12.1456 24.5308 13.3109 25.8276C13.4169 25.9481 13.523 26.0687 13.6323 26.1929C14.4631 27.083 15.3207 27.665 16.4278 28.1653C16.5612 28.2298 16.6946 28.2943 16.8321 28.3607C17.8904 28.7971 18.9115 28.8481 20.0416 28.8569C20.186 28.8585 20.3304 28.8601 20.4792 28.8617C22.4246 28.837 24.7284 27.9409 26.1465 26.58C28.2626 24.2221 29.0392 21.8687 28.9237 18.7318C28.7643 16.5343 27.4798 14.6889 25.9347 13.2038C22.1203 10.0313 16.6857 10.2495 13.2804 13.9398Z" fill="#00AFF9"/>
<path d="M19.6999 14.9189C20.1114 14.9189 20.5228 14.9189 20.9467 14.9189C20.9467 15.279 20.9467 15.639 20.9467 16.0099C21.0444 16.0193 21.142 16.0288 21.2426 16.0385C21.37 16.0516 21.4973 16.0646 21.6286 16.0781C21.7551 16.0907 21.8817 16.1034 22.0121 16.1164C22.3494 16.1657 22.3494 16.1657 22.6611 16.3216C22.5247 17.3736 22.5247 17.3736 22.3494 17.7242C22.1983 17.6985 22.0472 17.6728 21.8916 17.6463C21.2125 17.5475 20.5405 17.5544 19.8558 17.5684C19.8558 17.8255 19.8558 18.0827 19.8558 18.3476C20.0155 18.4286 20.1752 18.5096 20.3398 18.593C20.5519 18.7027 20.7639 18.8125 20.976 18.9223C21.0809 18.9753 21.1859 19.0282 21.294 19.0827C21.9592 19.4299 22.5003 19.7744 22.9728 20.3737C23.1377 21.0947 23.1419 21.8828 22.8236 22.5623C22.4396 23.056 22.0135 23.333 21.4143 23.4907C21.26 23.4907 21.1057 23.4907 20.9467 23.4907C20.9467 23.9021 20.9467 24.3135 20.9467 24.7375C20.5353 24.7375 20.1238 24.7375 19.6999 24.7375C19.6999 24.3774 19.6999 24.0174 19.6999 23.6465C19.5929 23.6389 19.4858 23.6312 19.3755 23.6234C19.235 23.6117 19.0946 23.6001 18.9499 23.5881C18.8107 23.5772 18.6715 23.5664 18.528 23.5552C18.1414 23.4907 18.1414 23.4907 17.6739 23.179C17.7253 22.7675 17.7768 22.3561 17.8297 21.9322C18.2973 21.7763 18.2973 21.7763 18.7161 21.9224C19.4796 22.1673 20.1753 22.1893 20.9467 21.9322C20.9467 21.675 20.9467 21.4179 20.9467 21.1529C20.6707 21.0173 20.6707 21.0173 20.3891 20.879C20.1463 20.7561 19.9036 20.6331 19.661 20.51C19.5398 20.451 19.4187 20.3919 19.2939 20.3311C18.5315 19.9401 18.0757 19.604 17.6739 18.8152C17.5786 18.1479 17.6207 17.8247 17.9369 17.2275C18.292 16.7956 18.6079 16.4703 19.0765 16.1657C19.2823 16.1657 19.488 16.1657 19.6999 16.1657C19.6999 15.7543 19.6999 15.3429 19.6999 14.9189Z" fill="#00AFF9"/>
<path d="M38.7126 6.03479C39.2827 6.35271 39.5962 6.58092 39.9594 7.12574C40.026 7.9517 40.041 8.48903 39.4919 9.15178C39.0058 9.58067 38.6406 9.65487 38.0113 9.61933C37.3106 9.51521 36.9636 9.25665 36.5308 8.68423C36.5308 8.58137 36.5308 8.47851 36.5308 8.37253C33.7311 8.09056 33.7311 8.09056 31.2526 9.16334C30.5559 9.83112 29.9346 10.5576 29.3617 11.3337C29.156 11.2308 28.9502 11.1279 28.7383 11.022C28.7383 9.88456 29.6673 9.16159 30.4117 8.36599C31.5742 7.27435 32.5274 7.03191 34.0676 7.07218C34.8927 7.10978 35.7113 7.17484 36.5308 7.28158C36.5733 7.15884 36.6159 7.03609 36.6598 6.90962C36.8425 6.50234 36.8425 6.50234 37.271 6.21986C37.8164 6.02058 38.1387 5.95109 38.7126 6.03479Z" fill="#00AFF9"/>
<path d="M2.24426 6.03492C2.73904 6.27106 3.14054 6.54572 3.49105 6.97001C3.49105 7.07287 3.49105 7.17573 3.49105 7.28171C3.61555 7.26457 3.74004 7.24743 3.86831 7.22978C7.64651 6.78016 7.64651 6.78016 8.96262 7.79914C9.89753 8.61169 10.6958 9.5671 11.4394 10.5546C11.3127 10.8565 11.3127 10.8565 11.1277 11.1779C10.8962 11.2551 10.8962 11.2551 10.6601 11.3338C10.598 11.2496 10.5359 11.1655 10.4719 11.0788C9.15752 9.35983 9.15752 9.35983 7.29369 8.38034C6.02679 8.22574 4.76076 8.26493 3.49105 8.37266C3.42415 8.5161 3.42415 8.5161 3.3559 8.66244C3.10642 9.13388 2.85627 9.34179 2.4001 9.61945C1.73285 9.75453 1.28869 9.70186 0.705242 9.34672C0.123585 8.73084 -0.00918492 8.30034 0.0118343 7.43208C0.0923383 6.94421 0.338501 6.68395 0.685761 6.34662C1.26642 5.95951 1.55651 5.97563 2.24426 6.03492Z" fill="#00AFF9"/>
<path d="M10.6606 28.4775C10.9177 28.7347 11.1749 28.9918 11.4398 29.2568C9.08418 32.3849 9.08418 32.3849 7.55308 32.6846C6.20789 32.8528 4.8276 32.7136 3.49148 32.5296C3.44508 32.6526 3.39867 32.7755 3.35085 32.9022C3.14444 33.3929 3.02993 33.5336 2.55639 33.7764C1.84546 33.9615 1.34639 34.0429 0.695934 33.6693C0.141114 33.0472 -0.0163486 32.6146 0.001308 31.7559C0.111658 31.1866 0.432992 30.9029 0.842043 30.5036C1.38174 30.2337 1.96629 30.2733 2.55639 30.3477C3.02725 30.6224 3.27853 30.7756 3.43304 31.3047C3.45233 31.4004 3.47161 31.496 3.49148 31.5945C5.92453 31.8562 5.92453 31.8562 8.18934 31.1407C9.13021 30.3616 9.92196 29.4478 10.6606 28.4775Z" fill="#00AFF9"/>
<path d="M29.2074 28.4775C29.3456 28.59 29.4838 28.7025 29.6262 28.8185C29.7289 28.9016 29.8315 28.9848 29.9373 29.0705C30.2321 29.3498 30.4393 29.5955 30.6739 29.9204C31.2826 30.7086 31.8195 31.3314 32.8285 31.5458C34.0617 31.6738 35.2954 31.6569 36.5323 31.5945C36.5989 31.4104 36.5989 31.4104 36.6668 31.2226C36.8973 30.6927 37.0943 30.571 37.6233 30.3477C38.3021 30.2613 38.6265 30.2997 39.2304 30.6302C39.6493 30.9711 39.6493 30.9711 39.961 31.4387C40.0348 32.1892 40.0377 32.5376 39.6883 33.2115C39.3494 33.6068 39.1854 33.7488 38.7142 33.9323C37.956 33.9852 37.4371 33.8738 36.8343 33.4063C36.5323 32.9972 36.5323 32.9972 36.5323 32.5296C36.4078 32.5468 36.2833 32.5639 36.155 32.5816C32.3768 33.0312 32.3768 33.0312 31.0607 32.0122C30.1258 31.1996 29.3276 30.2442 28.584 29.2568C28.7897 28.9996 28.9954 28.7425 29.2074 28.4775Z" fill="#00AFF9"/>
<path d="M38.7144 18.191C39.1875 18.4458 39.5379 18.6673 39.8638 19.0969C40.0529 19.7587 40.0468 20.3197 39.7859 20.9574C39.3084 21.5304 38.8156 21.7441 38.0813 21.834C37.5537 21.7667 37.2679 21.6258 36.8443 21.308C36.5326 20.8405 36.5326 20.8405 36.5326 20.3729C35.1954 20.3729 33.8582 20.3729 32.4805 20.3729C32.4805 20.0644 32.4805 19.7558 32.4805 19.4378C33.8177 19.4378 35.1548 19.4378 36.5326 19.4378C36.6354 19.1807 36.7383 18.9235 36.8443 18.6586C37.4712 18.2454 37.9681 18.0822 38.7144 18.191Z" fill="#00AFF9"/>
<path d="M2.24542 18.1912C2.7402 18.4273 3.14171 18.702 3.49221 19.1263C3.49221 19.2291 3.49221 19.332 3.49221 19.438C4.8294 19.438 6.16659 19.438 7.5443 19.438C7.5443 19.7465 7.5443 20.0551 7.5443 20.3731C6.20711 20.3731 4.86992 20.3731 3.49221 20.3731C3.38935 20.6302 3.28649 20.8874 3.18052 21.1523C2.74499 21.6263 2.41175 21.8189 1.77787 21.8536C1.14544 21.8202 0.81493 21.6179 0.375227 21.1523C0.0172773 20.675 -0.00127765 20.178 0.0129985 19.5883C0.0935025 19.1005 0.339665 18.8402 0.686925 18.5029C1.26759 18.1158 1.55767 18.1319 2.24542 18.1912Z" fill="#00AFF9"/>
<path d="M3.64608 7.43826C7.4642 6.94091 7.4642 6.94091 8.84893 7.74418C9.84765 8.55653 10.6739 9.52296 11.4386 10.5552C11.3119 10.8572 11.3119 10.8572 11.1269 11.1786C10.9726 11.2301 10.8183 11.2815 10.6593 11.3345C10.5916 11.2456 10.524 11.1567 10.4543 11.0651C8.87092 9.04642 8.87092 9.04642 6.56461 8.14202C5.53642 8.08418 4.51491 8.1188 3.49023 8.21751C3.54166 7.96036 3.59309 7.70321 3.64608 7.43826Z" fill="#00AFF9"/>
</svg>
