<svg width="40" height="40" viewBox="0 0 40 40" fill="none" xmlns="http://www.w3.org/2000/svg">
<g clip-path="url(#clip0_279_822)">
<path d="M23.8226 6.84602C24.1277 7.06393 24.348 7.29823 24.4689 7.66085C24.6038 8.98347 23.8912 10.0342 23.2317 11.118C23.186 11.1932 23.186 11.1932 23.1394 11.27C23.0815 11.3648 23.0232 11.4593 22.9642 11.5535C22.6702 12.0318 22.5632 12.5007 22.4739 13.0462C22.4639 13.1035 22.4538 13.1608 22.4435 13.2198C22.3396 13.8444 22.3373 14.3465 22.5816 14.9381C22.6049 14.9958 22.6282 15.0535 22.6522 15.113C23.1283 16.2647 23.7237 17.3498 24.3576 18.4209C25.3724 20.1415 26.3793 21.9185 26.9414 23.8451C26.9653 23.9202 26.9892 23.9953 27.0137 24.0728C27.2334 24.8561 27.1874 25.6615 27.1662 26.4675C27.2141 26.4662 27.262 26.4649 27.3114 26.4636C28.3585 26.4471 29.19 26.8133 30.0965 27.2923C30.3102 27.4044 30.5263 27.5107 30.744 27.6148C30.8131 27.6485 30.8823 27.6822 30.9536 27.717C31.6748 27.9936 32.3538 28.0769 33.1229 28.0691C33.2078 28.0699 33.2927 28.0708 33.3802 28.0717C34.4562 28.068 35.3543 27.7239 36.3102 27.2586C36.3783 27.2256 36.4463 27.1927 36.5165 27.1587C36.6513 27.093 36.7858 27.0267 36.9199 26.9595C37.6657 26.5946 38.3382 26.4305 39.1686 26.4535C39.2399 26.4545 39.3112 26.4555 39.3847 26.4565C39.5578 26.4591 39.7308 26.4628 39.9038 26.4675C39.9506 26.7204 39.9506 26.7204 39.9787 26.992C39.8039 27.1668 39.7632 27.1626 39.5259 27.1761C39.4646 27.1804 39.4032 27.1847 39.34 27.1891C39.2742 27.1936 39.2083 27.1981 39.1405 27.2027C38.1165 27.2917 37.2981 27.6008 36.4031 28.0924C35.3794 28.6497 34.3379 28.8951 33.1744 28.8886C33.0957 28.8882 33.017 28.8878 32.936 28.8875C31.8346 28.8709 30.9334 28.5771 29.952 28.0855C29.1308 27.6773 28.3693 27.3785 27.4659 27.2168C27.341 27.192 27.2161 27.1671 27.0913 27.1418C27.0857 27.1829 27.0801 27.2239 27.0743 27.2662C26.864 28.5344 26.2377 29.7293 25.1862 30.4963C23.1084 31.8765 20.4297 32.0777 18.022 31.6254C16.4781 31.3034 15.1132 30.5793 14.1957 29.2571C14.0263 28.9676 13.8887 28.6731 13.759 28.3641C13.7369 28.3116 13.7148 28.2591 13.6921 28.205C13.5513 27.8493 13.4884 27.5229 13.4546 27.1418C12.3042 27.3024 11.3581 27.6431 10.3446 28.2032C9.90086 28.4434 9.44907 28.5948 8.95899 28.7153C8.89592 28.7321 8.83285 28.7489 8.76787 28.7662C7.81083 28.9835 6.68646 28.948 5.73713 28.7153C5.66083 28.697 5.58453 28.6786 5.50591 28.6597C4.98585 28.5174 4.54167 28.3073 4.0744 28.0467C3.07515 27.4974 2.05559 27.2212 0.918397 27.1676C0.717031 27.1418 0.717031 27.1418 0.567177 26.992C0.553128 26.7625 0.553128 26.7625 0.567177 26.5424C0.706754 26.4029 0.904427 26.4551 1.09015 26.4532C2.22075 26.4547 3.10954 26.6951 4.12796 27.1919C4.20236 27.2282 4.27676 27.2644 4.35342 27.3018C4.50107 27.3744 4.64831 27.4479 4.79504 27.5223C5.58787 27.9145 6.33362 28.0818 7.21694 28.0691C7.29513 28.0682 7.37331 28.0673 7.45387 28.0664C8.55294 28.0434 9.42331 27.8176 10.3852 27.2958C11.3586 26.7733 12.2613 26.4463 13.3797 26.4675C13.3781 26.4238 13.3765 26.3802 13.3749 26.3352C13.3453 25.3808 13.3741 24.5303 13.6794 23.6203C13.6967 23.567 13.714 23.5137 13.7318 23.4588C14.2534 21.8739 15.0425 20.413 15.8737 18.9725C16.4463 17.9801 17.012 16.9867 17.51 15.9543C17.5428 15.8869 17.5755 15.8195 17.6093 15.75C18.1062 14.7116 18.1062 14.7116 18.0802 13.5932C18.0251 13.3553 18.0251 13.3553 17.9982 13.0963C17.8918 12.2346 17.465 11.7019 16.9421 11.0334C16.3967 10.3239 16.0241 9.68043 16.0449 8.76866C16.0943 8.44783 16.2108 8.32262 16.4517 8.11041C17.0192 7.82666 17.9045 8.05775 18.4934 8.18534C19.395 8.42823 19.395 8.42823 20.2551 8.20758C20.4053 8.09291 20.5531 7.97516 20.6988 7.8549C20.9693 7.63528 21.2616 7.46492 21.5654 7.29558C21.6141 7.26796 21.6627 7.24035 21.7129 7.21189C22.3924 6.83635 23.05 6.58848 23.8226 6.84602ZM18.9243 14.4792C18.9057 14.5261 18.8872 14.5729 18.8681 14.6212C18.2586 16.1546 17.5243 17.6084 16.6913 19.0325C15.3313 21.3505 15.3313 21.3505 14.3537 23.8451C14.3393 23.8933 14.3248 23.9415 14.3099 23.9911C13.8682 25.5054 13.9204 27.1447 14.6534 28.5655C14.8837 28.964 15.1351 29.3045 15.4776 29.6144C15.5163 29.6542 15.5549 29.694 15.5947 29.735C16.9795 31.084 19.1618 31.0791 20.9613 31.0585C22.4959 31.0317 23.9687 30.6462 25.1151 29.5817C25.1738 29.5183 25.2326 29.4549 25.2931 29.3897C25.3283 29.3548 25.3636 29.3199 25.3999 29.284C26.3309 28.3049 26.5245 26.8599 26.5024 25.5681C26.4142 23.0625 24.8221 20.5828 23.5697 18.4925C22.8665 17.3137 22.2249 16.1095 21.7844 14.807C21.7223 14.569 21.7223 14.569 21.6216 14.4792C21.4219 14.4726 21.224 14.4706 21.0243 14.4719C20.9346 14.472 20.9346 14.472 20.8432 14.4722C20.6515 14.4726 20.4599 14.4736 20.2683 14.4745C20.1387 14.4749 20.0091 14.4752 19.8794 14.4755C19.561 14.4764 19.2427 14.4777 18.9243 14.4792Z" fill="#00AFF9"/>
<path d="M1.14239 31.239C2.33757 31.2601 3.36328 31.6499 4.41741 32.1712C5.89127 32.8961 7.39232 33.1906 9.01059 32.7311C9.57856 32.5331 10.1148 32.2507 10.6528 31.9842C12.192 31.2234 13.9964 30.945 15.6747 31.4418C16.2442 31.6375 16.7828 31.9162 17.3193 32.1873C18.895 32.9759 20.5468 33.1647 22.2293 32.6087C22.8049 32.4002 23.346 32.1317 23.8891 31.8519C25.3693 31.0991 27.2241 31.0075 28.81 31.5066C29.2308 31.6585 29.6213 31.8722 30.0144 32.0837C31.5185 32.8744 33.1754 33.2027 34.8411 32.7311C35.4934 32.5186 36.1028 32.1847 36.7155 31.88C37.6926 31.4022 38.7332 31.1498 39.8281 31.2624C39.9779 31.4122 39.9779 31.4122 40.0014 31.637C39.9936 31.7112 39.9859 31.7854 39.9779 31.8618C39.7012 32.0463 39.4833 32.0328 39.1631 32.0398C38.271 32.0788 37.5492 32.3489 36.7632 32.7553C36.2504 33.0197 35.7259 33.2406 35.1826 33.4353C35.1308 33.4555 35.0789 33.4757 35.0255 33.4966C34.4825 33.6881 33.9467 33.6969 33.378 33.6935C33.2171 33.6928 33.0563 33.695 32.8953 33.6974C31.8497 33.703 30.9766 33.4255 30.0454 32.9529C28.9163 32.397 28.015 32.0732 26.744 32.0679C26.6535 32.0663 26.563 32.0648 26.4697 32.0632C25.5088 32.059 24.7581 32.2837 23.9061 32.7141C23.7552 32.7881 23.6041 32.8619 23.453 32.9357C23.3821 32.9705 23.3112 33.0053 23.2381 33.0412C23.0067 33.154 22.7747 33.2622 22.5387 33.365C22.4804 33.3906 22.422 33.4162 22.3619 33.4426C20.6696 33.9709 18.7323 33.7946 17.1736 32.9859C17.0765 32.9346 16.9796 32.8831 16.8827 32.8314C15.4049 32.0436 13.6662 31.8079 12.0302 32.2364C11.7107 32.3625 11.408 32.5144 11.103 32.672C9.32117 33.5589 7.23725 34.1197 5.26571 33.466C4.83794 33.3052 4.4362 33.0871 4.03776 32.8649C3.36345 32.4902 2.54714 32.096 1.76493 32.0682C1.70944 32.0657 1.65395 32.0632 1.59678 32.0607C1.48089 32.0561 1.36499 32.0518 1.24907 32.0478C0.962071 32.0345 0.810303 32.0244 0.566389 31.8618C0.542974 31.637 0.542974 31.637 0.566389 31.4122C0.765936 31.2127 0.863615 31.24 1.14239 31.239Z" fill="#00AFF9"/>
<path fill-rule="evenodd" clip-rule="evenodd" d="M19.8286 18.3482L19.6744 18.3483C19.643 18.3482 19.6127 18.3478 19.5832 18.3475C19.3669 18.3447 19.1987 18.3425 19.0055 18.4727C18.9054 18.6311 18.9054 18.6311 18.909 19.0274C18.9119 19.2931 18.8933 19.536 18.8499 19.7991C18.7935 19.8761 18.7658 19.9139 18.7309 19.9428C18.6974 19.9705 18.6571 19.9901 18.5783 20.0286C18.0612 20.2529 17.7 20.657 17.4263 21.1478C17.0731 21.8981 16.9958 22.6455 17.2691 23.4375C17.7414 24.488 18.6057 24.9505 19.5992 25.4187L19.8278 25.5243L20.03 25.62C20.2904 25.7386 20.3921 25.8247 20.4983 26.093C19.6882 26.1233 19.2046 26.0727 18.5408 25.5919L18.3576 25.4506C18.1495 25.3285 18.0382 25.3098 17.8009 25.3437C17.6315 25.5132 17.6315 25.5132 17.4019 26.1204L17.3092 26.3693C17.1923 26.675 17.0779 26.9805 16.9767 27.2918C16.9738 27.3028 16.9709 27.3136 16.968 27.3244C16.9083 27.5461 16.8569 27.7371 16.9776 27.9501C17.4647 28.3214 18.0064 28.6605 18.6158 28.7655L18.8499 28.7904C18.8456 28.9199 18.8416 29.0494 18.8389 29.1789L18.8359 29.3383C18.8347 29.3696 18.8332 29.4008 18.8317 29.4319C18.8212 29.6459 18.811 29.8531 18.9309 30.0417C19.0747 30.1391 19.0747 30.1391 19.311 30.167L19.5995 30.1663C19.7039 30.1664 19.8083 30.1663 19.9128 30.1661C20.0772 30.1642 20.2416 30.1625 20.4061 30.1627C20.4419 30.1628 20.4778 30.163 20.5137 30.1631C20.8087 30.1644 21.1035 30.1657 21.3974 30.1391C21.4858 30.0507 21.5221 30.0144 21.5404 29.9707C21.5532 29.9402 21.5573 29.9061 21.5643 29.8484L21.5619 29.6795L21.5604 29.4966L21.5566 29.3055L21.5525 28.9303L21.5473 28.6405C21.6477 28.6177 21.7476 28.5924 21.847 28.5656C22.503 28.2108 22.948 27.7072 23.2826 27.0448C23.5655 26.2817 23.5334 25.2601 23.2056 24.5233C22.5704 23.4277 21.459 22.8806 20.3057 22.4781L20.1237 22.4216V22.2717C20.6695 22.3179 21.1454 22.3768 21.6269 22.651C21.8764 22.8083 22.0734 22.9214 22.3715 22.9461C22.5324 22.7851 22.5985 22.634 22.6843 22.4257L22.7461 22.2717C22.8143 22.1042 22.8821 21.9364 22.9486 21.7682L23.0177 21.5927C23.0294 21.5635 23.0412 21.5344 23.053 21.5053C23.1887 21.1696 23.3221 20.8399 23.3455 20.4735C22.9259 20.0539 22.32 19.835 21.7571 19.6827L21.6222 19.6493C21.6251 19.5186 21.6278 19.3878 21.6295 19.2571L21.6316 19.0967C21.6362 18.9037 21.6331 18.7187 21.6222 18.5254C21.5783 18.4815 21.5457 18.4489 21.5077 18.4246C21.3981 18.3544 21.2439 18.3538 20.6445 18.3514C20.4799 18.3519 20.3153 18.3521 20.1507 18.3503C20.0433 18.3491 19.936 18.3484 19.8286 18.3482ZM20.9481 19.0498H19.6744L19.6556 19.6399C19.6535 19.7506 19.6503 19.8612 19.6451 19.9718C19.6376 20.1299 19.6344 20.1972 19.6023 20.2451C19.5784 20.2806 19.5386 20.3055 19.4692 20.3488C18.8671 20.5256 18.4093 20.9185 18.0871 21.4416C17.8064 21.9739 17.7774 22.5593 17.9256 23.1398C18.2458 23.9523 18.9233 24.3036 19.6729 24.6662L19.8309 24.7425L20.152 24.8988C20.3474 24.99 20.5386 25.0824 20.7233 25.1938C20.7295 25.199 20.7357 25.204 20.7418 25.209C20.9506 25.3812 21.0788 25.4868 21.1425 25.7584L21.1354 25.9478C21.1371 26.0436 21.138 26.091 21.1331 26.1377C21.1283 26.1834 21.1181 26.2285 21.098 26.3178C20.965 26.5347 20.8754 26.6161 20.6531 26.7486C20.1568 26.9441 19.5513 26.9086 19.0685 26.6997C18.7732 26.5661 18.4782 26.4348 18.1758 26.3178C17.9459 26.7392 17.8094 27.119 17.7263 27.5915C17.9127 27.7098 18.0919 27.8126 18.2967 27.8959L18.4989 27.9661L18.7149 28.0422C18.9179 28.1153 19.0194 28.1518 19.1206 28.1891C19.2218 28.2265 19.3227 28.2646 19.5245 28.3408L19.5994 29.3898H20.7983L20.831 28.8325C20.8336 28.7874 20.8334 28.7382 20.8333 28.6874C20.8328 28.5076 20.8323 28.3067 20.9481 28.1909C21.6242 27.8529 22.1577 27.5705 22.5444 26.8967C22.815 26.3201 22.8661 25.7073 22.6662 25.1002C22.3357 24.3779 21.8796 23.9826 21.1723 23.6488C20.9415 23.5424 20.7114 23.4348 20.4826 23.3242L20.3206 23.2457C20.0257 23.1089 19.7943 22.9922 19.5652 22.7573C19.4109 22.5093 19.4225 22.3336 19.4496 22.0469C19.5394 21.8673 19.6509 21.7685 19.8181 21.6591C20.3142 21.4627 20.9173 21.5713 21.3988 21.7616L21.6412 21.8643L21.8859 21.9676L22.072 22.0469C22.2329 21.6256 22.3816 21.2019 22.5216 20.7732C22.3928 20.6873 22.3378 20.6507 22.2793 20.6209C22.2356 20.5987 22.19 20.5804 22.1104 20.5484L21.8987 20.4735C21.7569 20.4228 21.6149 20.3729 21.4726 20.3236L21.023 20.1737L20.9481 19.0498Z" fill="#00AFF9"/>
</g>
<defs>
<clipPath id="clip0_279_822">
<rect width="40" height="40" fill="white"/>
</clipPath>
</defs>
</svg>
