<svg width="757" height="234" viewBox="0 0 757 234" fill="none" xmlns="http://www.w3.org/2000/svg">
<path d="M37.3594 132.422C66.1253 132.422 94.8911 132.422 124.529 132.422C123.37 139.36 118.973 144.929 113.55 149.23C112.983 149.616 112.408 149.989 111.826 150.351C111.483 150.574 111.14 150.796 110.787 151.026C104.181 154.994 97.1921 154.97 89.7322 154.895C88.8695 154.892 88.0068 154.89 87.1441 154.889C83.9823 154.88 80.8205 154.856 77.6588 154.833C70.5757 154.797 63.4927 154.761 56.195 154.724C56.195 180.555 56.195 206.386 56.195 233C49.9792 233 43.7635 233 37.3594 233C37.3594 199.809 37.3594 166.618 37.3594 132.422Z" fill="white"/>
<path d="M84.9192 64.5354C85.5882 64.5349 86.2572 64.5341 86.9261 64.5329C88.7259 64.5308 90.5257 64.5341 92.3255 64.5385C94.213 64.5424 96.1004 64.5416 97.9879 64.5414C101.151 64.5419 104.314 64.5456 107.477 64.5516C111.138 64.5585 114.798 64.5608 118.458 64.5605C122.359 64.5602 126.259 64.5632 130.16 64.5672C131.284 64.5682 132.408 64.5685 133.533 64.5687C135.294 64.5691 137.054 64.5717 138.815 64.5762C139.462 64.5774 140.11 64.578 140.758 64.5777C141.638 64.5775 142.518 64.5802 143.398 64.5831C143.891 64.5839 144.385 64.5846 144.893 64.5854C145.993 64.6416 145.993 64.6416 146.431 65.0789C146.916 69.801 144.301 74.5329 141.513 78.1517C138.267 81.9114 134.552 84.6171 129.785 86.0691C129.471 86.1793 129.157 86.2896 128.834 86.4032C124.451 87.7449 119.995 87.5669 115.453 87.5606C113.921 87.5586 112.388 87.5648 110.855 87.573C107.05 87.5917 103.245 87.5966 99.4404 87.6019C96.2178 87.607 92.9952 87.6174 89.7726 87.6346C88.2702 87.6405 86.7679 87.6387 85.2655 87.6366C76.5844 87.6584 70.2682 88.9239 63.6963 95.0866C59.0969 100.227 56.9819 106.018 55.7569 112.744C49.6857 112.744 43.6145 112.744 37.3594 112.744C37.3594 100.379 40.2141 89.2041 48.7483 79.947C48.9544 79.7204 49.1604 79.4939 49.3727 79.2605C58.7924 69.0043 71.067 64.4782 84.9192 64.5354Z" fill="white"/>
<ellipse cx="132.288" cy="19.6783" rx="19.7117" ry="19.6783" fill="#FF5800"/>
<path d="M4.06836 180.962C8.83858 180.962 13.6088 180.962 18.5236 180.962C18.5236 198.135 18.5236 215.307 18.5236 233C13.7534 233 8.98313 233 4.06836 233C4.06836 215.827 4.06836 198.655 4.06836 180.962Z" fill="white"/>
<ellipse cx="57.3821" cy="38.4821" rx="15.3313" ry="15.3053" fill="#FF5800"/>
<ellipse cx="13.1411" cy="84.8347" rx="13.1411" ry="13.1189" fill="#FF5800"/>
<path d="M18.523 139.419C18.523 147.933 18.523 156.447 18.523 165.219C13.8974 165.219 9.2717 165.219 4.50586 165.219C4.50586 157.116 5.96604 150.332 11.5144 144.229C16.4763 139.419 16.4763 139.419 18.523 139.419Z" fill="white"/>
<path d="M201.325 202V107.455H261.893V121.812H218.452V147.479H257.739V161.837H218.452V202H201.325ZM294.624 107.455V202H277.497V107.455H294.624ZM390.866 107.455V202H375.632L331.083 137.6H330.298V202H313.171V107.455H328.498L373.001 171.901H373.832V107.455H390.866ZM426.656 107.455V202H409.528V107.455H426.656ZM459.513 107.455L480.334 142.078H481.072L501.985 107.455H521.513L492.383 154.727L521.974 202H502.123L481.072 167.607H480.334L459.282 202H439.524L469.393 154.727L439.893 107.455H459.513Z" fill="white"/>
<path d="M572.49 107.455V202H555.363V124.12H554.809L532.696 138.246V122.55L556.194 107.455H572.49ZM629.319 106.162C633.843 106.193 638.244 106.993 642.522 108.562C646.831 110.101 650.709 112.625 654.156 116.134C657.603 119.611 660.342 124.274 662.373 130.121C664.404 135.969 665.42 143.201 665.42 151.819C665.451 159.944 664.589 167.207 662.835 173.609C661.111 179.979 658.634 185.365 655.402 189.766C652.17 194.167 648.277 197.522 643.722 199.83C639.167 202.138 634.043 203.293 628.349 203.293C622.379 203.293 617.085 202.123 612.469 199.784C607.883 197.445 604.174 194.244 601.343 190.182C598.512 186.119 596.773 181.472 596.126 176.24H612.977C613.838 179.995 615.593 182.98 618.239 185.196C620.917 187.381 624.287 188.474 628.349 188.474C634.905 188.474 639.952 185.627 643.491 179.933C647.031 174.24 648.8 166.33 648.8 156.205H648.154C646.646 158.913 644.692 161.252 642.291 163.222C639.891 165.161 637.167 166.653 634.12 167.7C631.104 168.746 627.903 169.269 624.518 169.269C618.978 169.269 613.992 167.946 609.56 165.299C605.159 162.652 601.666 159.021 599.081 154.404C596.527 149.788 595.234 144.509 595.203 138.57C595.203 132.414 596.619 126.89 599.45 121.996C602.313 117.072 606.298 113.194 611.407 110.363C616.516 107.501 622.487 106.1 629.319 106.162ZM629.365 120.011C626.041 120.011 623.04 120.827 620.363 122.458C617.716 124.058 615.623 126.244 614.085 129.013C612.576 131.753 611.822 134.815 611.822 138.2C611.853 141.555 612.607 144.602 614.085 147.341C615.593 150.08 617.639 152.25 620.224 153.85C622.84 155.451 625.826 156.251 629.18 156.251C631.673 156.251 633.997 155.774 636.151 154.82C638.306 153.866 640.183 152.542 641.783 150.849C643.415 149.126 644.676 147.172 645.569 144.987C646.492 142.801 646.938 140.493 646.908 138.062C646.908 134.83 646.138 131.845 644.599 129.106C643.091 126.367 641.014 124.166 638.367 122.504C635.751 120.842 632.75 120.011 629.365 120.011ZM715.416 203.293C710.892 203.262 706.476 202.477 702.167 200.938C697.858 199.369 693.98 196.83 690.533 193.321C687.086 189.782 684.347 185.088 682.316 179.241C680.285 173.362 679.285 166.084 679.315 157.405C679.315 149.311 680.177 142.094 681.901 135.754C683.624 129.414 686.102 124.058 689.333 119.688C692.565 115.287 696.458 111.933 701.013 109.624C705.598 107.316 710.723 106.162 716.386 106.162C722.326 106.162 727.588 107.331 732.174 109.67C736.79 112.009 740.514 115.21 743.346 119.273C746.177 123.304 747.932 127.859 748.609 132.938H731.759C730.897 129.306 729.127 126.413 726.45 124.259C723.803 122.073 720.448 120.981 716.386 120.981C709.83 120.981 704.783 123.828 701.244 129.521C697.735 135.215 695.965 143.032 695.935 152.973H696.581C698.089 150.265 700.043 147.941 702.444 146.002C704.844 144.063 707.553 142.571 710.569 141.524C713.616 140.447 716.832 139.908 720.217 139.908C725.757 139.908 730.728 141.232 735.129 143.879C739.56 146.525 743.069 150.172 745.654 154.82C748.239 159.436 749.517 164.73 749.486 170.7C749.517 176.917 748.101 182.503 745.239 187.458C742.376 192.382 738.391 196.26 733.282 199.092C728.173 201.923 722.218 203.323 715.416 203.293ZM715.324 189.443C718.679 189.443 721.679 188.628 724.326 186.996C726.973 185.365 729.066 183.165 730.604 180.395C732.143 177.625 732.897 174.517 732.866 171.07C732.897 167.684 732.159 164.622 730.651 161.883C729.173 159.144 727.127 156.974 724.511 155.374C721.895 153.773 718.909 152.973 715.555 152.973C713.062 152.973 710.738 153.45 708.584 154.404C706.429 155.358 704.552 156.682 702.952 158.374C701.351 160.036 700.089 161.975 699.166 164.191C698.274 166.376 697.812 168.715 697.781 171.208C697.812 174.501 698.581 177.533 700.089 180.303C701.598 183.072 703.675 185.288 706.322 186.95C708.969 188.612 711.969 189.443 715.324 189.443Z" fill="#FF5800"/>
</svg>
