<svg width="599" height="222" viewBox="0 0 599 222" fill="none" xmlns="http://www.w3.org/2000/svg">
<g clip-path="url(#clip0_346_219)">
<path d="M31.9531 126.17C56.5556 126.17 81.1581 126.17 106.506 126.17C105.515 132.781 101.754 138.087 97.1167 142.185C96.6318 142.552 96.1397 142.908 95.6416 143.253C95.3484 143.465 95.0553 143.677 94.7533 143.895C89.1032 147.677 83.126 147.654 76.7458 147.582C76.008 147.579 75.2702 147.578 74.5323 147.577C71.8281 147.568 69.124 147.545 66.4198 147.523C60.3619 147.489 54.304 147.455 48.0626 147.419C48.0626 172.031 48.0626 196.642 48.0626 222C42.7464 222 37.4303 222 31.9531 222C31.9531 190.376 31.9531 158.752 31.9531 126.17Z" fill="url(#paint0_linear_346_219)"/>
<path d="M72.6294 61.4884C73.2016 61.4879 73.7737 61.4871 74.3459 61.486C75.8852 61.484 77.4245 61.4871 78.9638 61.4914C80.5781 61.495 82.1924 61.4943 83.8067 61.4941C86.512 61.4945 89.2174 61.4981 91.9227 61.5038C95.0532 61.5104 98.1837 61.5126 101.314 61.5123C104.65 61.512 107.986 61.5149 111.322 61.5187C112.284 61.5196 113.245 61.5199 114.207 61.5201C115.713 61.5205 117.219 61.523 118.725 61.5272C119.278 61.5284 119.832 61.5289 120.386 61.5287C121.139 61.5285 121.891 61.5311 122.644 61.5339C123.066 61.5346 123.488 61.5353 123.923 61.536C124.863 61.5896 124.863 61.5896 125.238 62.0062C125.653 66.5054 123.417 71.0139 121.032 74.4618C118.256 78.0441 115.079 80.6221 111.002 82.0054C110.733 82.1105 110.465 82.2156 110.188 82.3238C106.44 83.6021 102.629 83.4326 98.7444 83.4265C97.4334 83.4246 96.1226 83.4305 94.8116 83.4383C91.5574 83.4562 88.3032 83.4608 85.0489 83.4659C82.2927 83.4708 79.5365 83.4806 76.7803 83.4971C75.4954 83.5027 74.2106 83.501 72.9256 83.499C65.501 83.5198 60.0989 84.7255 54.4782 90.5972C50.5445 95.4948 48.7356 101.013 47.6879 107.421C42.4954 107.421 37.303 107.421 31.9531 107.421C31.9531 95.64 34.3947 84.9925 41.6937 76.1723C41.8699 75.9565 42.0461 75.7407 42.2277 75.5183C50.2841 65.7463 60.7821 61.4339 72.6294 61.4884Z" fill="url(#paint1_linear_346_219)"/>
<ellipse cx="113.142" cy="18.7493" rx="16.8587" ry="18.7493" fill="#FF5800"/>
<path d="M3.47852 172.419C7.55832 172.419 11.6381 172.419 15.8416 172.419C15.8416 188.781 15.8416 205.143 15.8416 222C11.7618 222 7.68195 222 3.47852 222C3.47852 205.638 3.47852 189.277 3.47852 172.419Z" fill="url(#paint2_linear_346_219)"/>
<ellipse cx="49.0772" cy="36.6648" rx="13.1123" ry="14.5828" fill="#FF5800"/>
<ellipse cx="11.2391" cy="80.8296" rx="11.2391" ry="12.4995" fill="#FF5800"/>
<path d="M15.8419 132.837C15.8419 140.949 15.8419 149.061 15.8419 157.419C11.8858 157.419 7.92958 157.419 3.85352 157.419C3.85352 149.699 5.10236 143.234 9.84772 137.42C14.0915 132.837 14.0915 132.837 15.8419 132.837Z" fill="url(#paint3_linear_346_219)"/>
<path d="M137.452 127.455V222H120.325V127.455H137.452ZM233.694 127.455V222H218.46L173.911 157.6H173.126V222H155.999V127.455H171.326L215.829 191.901H216.66V127.455H233.694ZM269.484 127.455V222H252.357V127.455H269.484Z" fill="url(#paint4_linear_346_219)"/>
<path d="M422.857 126.455V221H405.73V143.12H405.176L383.063 157.246V141.55L406.561 126.455H422.857ZM479.686 125.162C484.21 125.193 488.611 125.993 492.889 127.562C497.198 129.101 501.076 131.625 504.523 135.134C507.97 138.611 510.709 143.274 512.74 149.121C514.771 154.969 515.787 162.201 515.787 170.819C515.818 178.944 514.956 186.207 513.202 192.609C511.478 198.979 509.001 204.365 505.769 208.766C502.538 213.167 498.644 216.522 494.089 218.83C489.535 221.138 484.41 222.293 478.717 222.293C472.746 222.293 467.452 221.123 462.836 218.784C458.25 216.445 454.542 213.244 451.71 209.182C448.879 205.119 447.14 200.472 446.494 195.24H463.344C464.205 198.995 465.96 201.98 468.607 204.196C471.284 206.381 474.654 207.474 478.717 207.474C485.272 207.474 490.319 204.627 493.859 198.933C497.398 193.24 499.168 185.33 499.168 175.205H498.521C497.013 177.913 495.059 180.252 492.658 182.222C490.258 184.161 487.534 185.653 484.487 186.7C481.471 187.746 478.27 188.269 474.885 188.269C469.345 188.269 464.359 186.946 459.928 184.299C455.527 181.652 452.033 178.021 449.448 173.404C446.894 168.788 445.601 163.509 445.57 157.57C445.57 151.414 446.986 145.89 449.817 140.996C452.68 136.072 456.665 132.194 461.774 129.363C466.883 126.501 472.854 125.1 479.686 125.162ZM479.732 139.011C476.408 139.011 473.408 139.827 470.73 141.458C468.083 143.058 465.991 145.244 464.452 148.013C462.944 150.753 462.19 153.815 462.19 157.2C462.22 160.555 462.974 163.602 464.452 166.341C465.96 169.08 468.006 171.25 470.592 172.85C473.208 174.451 476.193 175.251 479.548 175.251C482.04 175.251 484.364 174.774 486.518 173.82C488.673 172.866 490.55 171.542 492.151 169.849C493.782 168.126 495.044 166.172 495.936 163.987C496.859 161.801 497.306 159.493 497.275 157.062C497.275 153.83 496.505 150.845 494.967 148.106C493.459 145.367 491.381 143.166 488.734 141.504C486.118 139.842 483.118 139.011 479.732 139.011ZM565.783 222.293C561.259 222.262 556.843 221.477 552.534 219.938C548.225 218.369 544.348 215.83 540.901 212.321C537.454 208.782 534.714 204.088 532.683 198.241C530.652 192.362 529.652 185.084 529.683 176.405C529.683 168.311 530.544 161.094 532.268 154.754C533.991 148.414 536.469 143.058 539.7 138.688C542.932 134.287 546.825 130.933 551.38 128.624C555.966 126.316 561.09 125.162 566.753 125.162C572.693 125.162 577.955 126.331 582.541 128.67C587.158 131.009 590.882 134.21 593.713 138.273C596.545 142.304 598.299 146.859 598.976 151.938H582.126C581.264 148.306 579.494 145.413 576.817 143.259C574.17 141.073 570.815 139.981 566.753 139.981C560.197 139.981 555.15 142.828 551.611 148.521C548.102 154.215 546.333 162.032 546.302 171.973H546.948C548.456 169.265 550.411 166.941 552.811 165.002C555.212 163.063 557.92 161.571 560.936 160.524C563.983 159.447 567.199 158.908 570.585 158.908C576.124 158.908 581.095 160.232 585.496 162.879C589.928 165.525 593.436 169.172 596.021 173.82C598.607 178.436 599.884 183.73 599.853 189.7C599.884 195.917 598.468 201.503 595.606 206.458C592.744 211.382 588.758 215.26 583.649 218.092C578.54 220.923 572.585 222.323 565.783 222.293ZM565.691 208.443C569.046 208.443 572.046 207.628 574.693 205.996C577.34 204.365 579.433 202.165 580.972 199.395C582.51 196.625 583.264 193.517 583.234 190.07C583.264 186.684 582.526 183.622 581.018 180.883C579.54 178.144 577.494 175.974 574.878 174.374C572.262 172.773 569.277 171.973 565.922 171.973C563.429 171.973 561.105 172.45 558.951 173.404C556.797 174.358 554.919 175.682 553.319 177.374C551.719 179.036 550.457 180.975 549.533 183.191C548.641 185.376 548.179 187.715 548.148 190.208C548.179 193.501 548.949 196.533 550.457 199.303C551.965 202.072 554.042 204.288 556.689 205.95C559.336 207.612 562.336 208.443 565.691 208.443Z" fill="#FF5800"/>
<path d="M349.5 128H369.5L339.5 175L369.5 222.5H349.5L321.5 175L349.5 128Z" fill="url(#paint5_linear_346_219)"/>
<path d="M309 128H289.5L319 175L289 222.5H309L338 175L309 128Z" fill="#FF5800"/>
</g>
<defs>
<linearGradient id="paint0_linear_346_219" x1="106.506" y1="174.085" x2="31.9531" y2="174.085" gradientUnits="userSpaceOnUse">
<stop stop-color="#05246C"/>
<stop offset="1" stop-color="#020820"/>
</linearGradient>
<linearGradient id="paint1_linear_346_219" x1="125.288" y1="84.4532" x2="31.9531" y2="84.4532" gradientUnits="userSpaceOnUse">
<stop stop-color="#05246C"/>
<stop offset="1" stop-color="#020820"/>
</linearGradient>
<linearGradient id="paint2_linear_346_219" x1="15.8416" y1="197.21" x2="3.47852" y2="197.21" gradientUnits="userSpaceOnUse">
<stop stop-color="#05246C"/>
<stop offset="1" stop-color="#020820"/>
</linearGradient>
<linearGradient id="paint3_linear_346_219" x1="15.8419" y1="145.128" x2="3.85352" y2="145.128" gradientUnits="userSpaceOnUse">
<stop stop-color="#05246C"/>
<stop offset="1" stop-color="#020820"/>
</linearGradient>
<linearGradient id="paint4_linear_346_219" x1="279" y1="174.5" x2="111" y2="174.5" gradientUnits="userSpaceOnUse">
<stop stop-color="#05246C"/>
<stop offset="1" stop-color="#020820"/>
</linearGradient>
<linearGradient id="paint5_linear_346_219" x1="321.5" y1="175.25" x2="369.5" y2="175.25" gradientUnits="userSpaceOnUse">
<stop stop-color="#05246C"/>
<stop offset="1" stop-color="#020820"/>
</linearGradient>
<clipPath id="clip0_346_219">
<rect width="599" height="222" fill="white"/>
</clipPath>
</defs>
</svg>
