<svg width="599" height="222" viewBox="0 0 599 222" fill="none" xmlns="http://www.w3.org/2000/svg">
<g clip-path="url(#clip0_346_218)">
<path d="M138.452 127.455V222H121.325V127.455H138.452ZM234.694 127.455V222H219.46L174.911 157.6H174.126V222H156.999V127.455H172.326L216.829 191.901H217.66V127.455H234.694ZM270.484 127.455V222H253.357V127.455H270.484Z" fill="white"/>
<path d="M421.857 127.455V222H404.73V144.12H404.176L382.063 158.246V142.55L405.561 127.455H421.857ZM478.686 126.162C483.21 126.193 487.611 126.993 491.889 128.562C496.198 130.101 500.076 132.625 503.523 136.134C506.97 139.611 509.709 144.274 511.74 150.121C513.771 155.969 514.787 163.201 514.787 171.819C514.818 179.944 513.956 187.207 512.202 193.609C510.478 199.979 508.001 205.365 504.769 209.766C501.538 214.167 497.644 217.522 493.089 219.83C488.535 222.138 483.41 223.293 477.717 223.293C471.746 223.293 466.452 222.123 461.836 219.784C457.25 217.445 453.542 214.244 450.71 210.182C447.879 206.119 446.14 201.472 445.494 196.24H462.344C463.205 199.995 464.96 202.98 467.607 205.196C470.284 207.381 473.654 208.474 477.717 208.474C484.272 208.474 489.319 205.627 492.859 199.933C496.398 194.24 498.168 186.33 498.168 176.205H497.521C496.013 178.913 494.059 181.252 491.658 183.222C489.258 185.161 486.534 186.653 483.487 187.7C480.471 188.746 477.27 189.269 473.885 189.269C468.345 189.269 463.359 187.946 458.928 185.299C454.527 182.652 451.033 179.021 448.448 174.404C445.894 169.788 444.601 164.509 444.57 158.57C444.57 152.414 445.986 146.89 448.817 141.996C451.68 137.072 455.665 133.194 460.774 130.363C465.883 127.501 471.854 126.1 478.686 126.162ZM478.732 140.011C475.408 140.011 472.408 140.827 469.73 142.458C467.083 144.058 464.991 146.244 463.452 149.013C461.944 151.753 461.19 154.815 461.19 158.2C461.22 161.555 461.974 164.602 463.452 167.341C464.96 170.08 467.006 172.25 469.592 173.85C472.208 175.451 475.193 176.251 478.548 176.251C481.04 176.251 483.364 175.774 485.518 174.82C487.673 173.866 489.55 172.542 491.151 170.849C492.782 169.126 494.044 167.172 494.936 164.987C495.859 162.801 496.306 160.493 496.275 158.062C496.275 154.83 495.505 151.845 493.967 149.106C492.459 146.367 490.381 144.166 487.734 142.504C485.118 140.842 482.118 140.011 478.732 140.011ZM564.783 223.293C560.259 223.262 555.843 222.477 551.534 220.938C547.225 219.369 543.348 216.83 539.901 213.321C536.454 209.782 533.714 205.088 531.683 199.241C529.652 193.362 528.652 186.084 528.683 177.405C528.683 169.311 529.544 162.094 531.268 155.754C532.991 149.414 535.469 144.058 538.7 139.688C541.932 135.287 545.825 131.933 550.38 129.624C554.966 127.316 560.09 126.162 565.753 126.162C571.693 126.162 576.955 127.331 581.541 129.67C586.158 132.009 589.882 135.21 592.713 139.273C595.545 143.304 597.299 147.859 597.976 152.938H581.126C580.264 149.306 578.494 146.413 575.817 144.259C573.17 142.073 569.815 140.981 565.753 140.981C559.197 140.981 554.15 143.828 550.611 149.521C547.102 155.215 545.333 163.032 545.302 172.973H545.948C547.456 170.265 549.411 167.941 551.811 166.002C554.212 164.063 556.92 162.571 559.936 161.524C562.983 160.447 566.199 159.908 569.585 159.908C575.124 159.908 580.095 161.232 584.496 163.879C588.928 166.525 592.436 170.172 595.021 174.82C597.607 179.436 598.884 184.73 598.853 190.7C598.884 196.917 597.468 202.503 594.606 207.458C591.744 212.382 587.758 216.26 582.649 219.092C577.54 221.923 571.585 223.323 564.783 223.293ZM564.691 209.443C568.046 209.443 571.046 208.628 573.693 206.996C576.34 205.365 578.433 203.165 579.972 200.395C581.51 197.625 582.264 194.517 582.234 191.07C582.264 187.684 581.526 184.622 580.018 181.883C578.54 179.144 576.494 176.974 573.878 175.374C571.262 173.773 568.277 172.973 564.922 172.973C562.429 172.973 560.105 173.45 557.951 174.404C555.797 175.358 553.919 176.682 552.319 178.374C550.719 180.036 549.457 181.975 548.533 184.191C547.641 186.376 547.179 188.715 547.148 191.208C547.179 194.501 547.949 197.533 549.457 200.303C550.965 203.072 553.042 205.288 555.689 206.95C558.336 208.612 561.336 209.443 564.691 209.443Z" fill="#FF5800"/>
<path d="M31.9531 126.17C56.5556 126.17 81.1581 126.17 106.506 126.17C105.515 132.781 101.754 138.087 97.1167 142.185C96.6318 142.552 96.1397 142.908 95.6416 143.253C95.3485 143.465 95.0553 143.677 94.7533 143.895C89.1032 147.677 83.126 147.654 76.7458 147.582C76.008 147.579 75.2702 147.578 74.5323 147.577C71.8281 147.568 69.124 147.545 66.4198 147.523C60.3619 147.489 54.304 147.455 48.0626 147.419C48.0626 172.031 48.0626 196.642 48.0626 222C42.7464 222 37.4303 222 31.9531 222C31.9531 190.376 31.9531 158.752 31.9531 126.17Z" fill="white"/>
<path d="M72.6294 61.4884C73.2016 61.4879 73.7737 61.4871 74.3459 61.486C75.8852 61.484 77.4245 61.4871 78.9638 61.4914C80.5781 61.495 82.1924 61.4943 83.8067 61.4941C86.512 61.4945 89.2174 61.4981 91.9227 61.5038C95.0532 61.5104 98.1837 61.5126 101.314 61.5123C104.65 61.512 107.986 61.5149 111.322 61.5187C112.284 61.5196 113.245 61.5199 114.207 61.5201C115.713 61.5205 117.219 61.523 118.725 61.5272C119.278 61.5284 119.832 61.5289 120.386 61.5287C121.139 61.5285 121.891 61.5311 122.644 61.5339C123.066 61.5346 123.488 61.5353 123.923 61.536C124.863 61.5896 124.863 61.5896 125.238 62.0062C125.653 66.5054 123.417 71.0139 121.032 74.4618C118.256 78.0441 115.079 80.6221 111.002 82.0054C110.733 82.1105 110.465 82.2156 110.188 82.3238C106.44 83.6021 102.629 83.4326 98.7444 83.4265C97.4334 83.4246 96.1226 83.4305 94.8116 83.4383C91.5574 83.4562 88.3032 83.4608 85.0489 83.4659C82.2927 83.4708 79.5365 83.4806 76.7803 83.4971C75.4954 83.5027 74.2106 83.501 72.9256 83.499C65.501 83.5198 60.0989 84.7255 54.4782 90.5972C50.5445 95.4948 48.7356 101.013 47.6879 107.421C42.4954 107.421 37.303 107.421 31.9531 107.421C31.9531 95.64 34.3947 84.9925 41.6937 76.1723C41.8699 75.9565 42.0461 75.7407 42.2277 75.5183C50.2841 65.7463 60.7821 61.4339 72.6294 61.4884Z" fill="white"/>
<ellipse cx="113.142" cy="18.7493" rx="16.8587" ry="18.7493" fill="#FF5800"/>
<path d="M3.48047 172.419C7.56028 172.419 11.6401 172.419 15.8435 172.419C15.8435 188.781 15.8435 205.143 15.8435 222C11.7637 222 7.68391 222 3.48047 222C3.48047 205.638 3.48047 189.277 3.48047 172.419Z" fill="white"/>
<ellipse cx="49.0772" cy="36.6658" rx="13.1123" ry="14.5828" fill="#FF5800"/>
<ellipse cx="11.2391" cy="80.8296" rx="11.2391" ry="12.4995" fill="#FF5800"/>
<path d="M15.8419 132.837C15.8419 140.949 15.8419 149.061 15.8419 157.419C11.8858 157.419 7.92958 157.419 3.85352 157.419C3.85352 149.699 5.10236 143.234 9.84772 137.42C14.0915 132.837 14.0915 132.837 15.8419 132.837Z" fill="white"/>
<path d="M348.5 128H368.5L338.5 175L368.5 222.5H348.5L320.5 175L348.5 128Z" fill="white"/>
<path d="M308 128H288.5L318 175L288 222.5H308L337 175L308 128Z" fill="#FF5800"/>
</g>
<defs>
<clipPath id="clip0_346_218">
<rect width="599" height="222" fill="white"/>
</clipPath>
</defs>
</svg>
