<svg width="756" height="234" viewBox="0 0 756 234" fill="none" xmlns="http://www.w3.org/2000/svg">
<g clip-path="url(#clip0_242_9957)">
<path d="M36.3594 132.422C65.1253 132.422 93.8911 132.422 123.529 132.422C122.37 139.36 117.973 144.929 112.55 149.23C111.983 149.616 111.408 149.989 110.826 150.351C110.483 150.574 110.14 150.796 109.787 151.026C103.181 154.994 96.1921 154.97 88.7322 154.895C87.8695 154.892 87.0068 154.89 86.1441 154.889C82.9823 154.88 79.8205 154.856 76.6588 154.833C69.5757 154.797 62.4927 154.761 55.195 154.724C55.195 180.555 55.195 206.386 55.195 233C48.9792 233 42.7635 233 36.3594 233C36.3594 199.809 36.3594 166.618 36.3594 132.422Z" fill="url(#paint0_linear_242_9957)"/>
<path d="M83.9192 64.5354C84.5882 64.5349 85.2572 64.5341 85.9261 64.5329C87.7259 64.5308 89.5257 64.5341 91.3255 64.5385C93.213 64.5424 95.1004 64.5416 96.9879 64.5414C100.151 64.5419 103.314 64.5456 106.477 64.5516C110.138 64.5585 113.798 64.5608 117.458 64.5605C121.359 64.5602 125.259 64.5632 129.16 64.5672C130.284 64.5682 131.408 64.5685 132.533 64.5687C134.294 64.5691 136.054 64.5717 137.815 64.5762C138.462 64.5774 139.11 64.578 139.758 64.5777C140.638 64.5775 141.518 64.5802 142.398 64.5831C142.891 64.5839 143.385 64.5846 143.893 64.5854C144.993 64.6416 144.993 64.6416 145.431 65.0789C145.916 69.801 143.301 74.5329 140.513 78.1517C137.267 81.9114 133.552 84.6171 128.785 86.0691C128.471 86.1793 128.157 86.2896 127.834 86.4032C123.451 87.7449 118.995 87.5669 114.453 87.5606C112.921 87.5586 111.388 87.5648 109.855 87.573C106.05 87.5917 102.245 87.5966 98.4404 87.6019C95.2178 87.607 91.9952 87.6174 88.7726 87.6346C87.2702 87.6405 85.7679 87.6387 84.2655 87.6366C75.5844 87.6584 69.2682 88.9239 62.6963 95.0866C58.0969 100.227 55.9819 106.018 54.7569 112.744C48.6857 112.744 42.6145 112.744 36.3594 112.744C36.3594 100.379 39.2141 89.2041 47.7483 79.947C47.9544 79.7204 48.1604 79.4939 48.3727 79.2605C57.7924 69.0043 70.067 64.4782 83.9192 64.5354Z" fill="url(#paint1_linear_242_9957)"/>
<ellipse cx="131.288" cy="19.6783" rx="19.7117" ry="19.6783" fill="#FF5800"/>
<path d="M3.06836 180.962C7.83858 180.962 12.6088 180.962 17.5236 180.962C17.5236 198.135 17.5236 215.307 17.5236 233C12.7534 233 7.98313 233 3.06836 233C3.06836 215.827 3.06836 198.655 3.06836 180.962Z" fill="url(#paint2_linear_242_9957)"/>
<ellipse cx="56.3821" cy="38.4821" rx="15.3313" ry="15.3053" fill="#FF5800"/>
<ellipse cx="12.1411" cy="84.8347" rx="13.1411" ry="13.1189" fill="#FF5800"/>
<path d="M17.523 139.419C17.523 147.933 17.523 156.447 17.523 165.219C12.8974 165.219 8.2717 165.219 3.50586 165.219C3.50586 157.116 4.96604 150.332 10.5144 144.229C15.4763 139.419 15.4763 139.419 17.523 139.419Z" fill="url(#paint3_linear_242_9957)"/>
<path d="M200.325 202V107.455H260.893V121.812H217.452V147.479H256.739V161.837H217.452V202H200.325ZM293.624 107.455V202H276.497V107.455H293.624ZM389.866 107.455V202H374.632L330.083 137.6H329.298V202H312.171V107.455H327.498L372.001 171.901H372.832V107.455H389.866ZM425.656 107.455V202H408.528V107.455H425.656ZM458.513 107.455L479.334 142.078H480.072L500.985 107.455H520.513L491.383 154.727L520.974 202H501.123L480.072 167.607H479.334L458.282 202H438.524L468.393 154.727L438.893 107.455H458.513Z" fill="url(#paint4_linear_242_9957)"/>
<path d="M571.49 107.455V202H554.363V124.12H553.809L531.696 138.246V122.55L555.194 107.455H571.49ZM628.319 106.162C632.843 106.193 637.244 106.993 641.522 108.562C645.831 110.101 649.709 112.625 653.156 116.134C656.603 119.611 659.342 124.274 661.373 130.121C663.404 135.969 664.42 143.201 664.42 151.819C664.451 159.944 663.589 167.207 661.835 173.609C660.111 179.979 657.634 185.365 654.402 189.766C651.17 194.167 647.277 197.522 642.722 199.83C638.167 202.138 633.043 203.293 627.349 203.293C621.379 203.293 616.085 202.123 611.469 199.784C606.883 197.445 603.174 194.244 600.343 190.182C597.512 186.119 595.773 181.472 595.126 176.24H611.977C612.838 179.995 614.593 182.98 617.239 185.196C619.917 187.381 623.287 188.474 627.349 188.474C633.905 188.474 638.952 185.627 642.491 179.933C646.031 174.24 647.8 166.33 647.8 156.205H647.154C645.646 158.913 643.692 161.252 641.291 163.222C638.891 165.161 636.167 166.653 633.12 167.7C630.104 168.746 626.903 169.269 623.518 169.269C617.978 169.269 612.992 167.946 608.56 165.299C604.159 162.652 600.666 159.021 598.081 154.404C595.527 149.788 594.234 144.509 594.203 138.57C594.203 132.414 595.619 126.89 598.45 121.996C601.313 117.072 605.298 113.194 610.407 110.363C615.516 107.501 621.487 106.1 628.319 106.162ZM628.365 120.011C625.041 120.011 622.04 120.827 619.363 122.458C616.716 124.058 614.623 126.244 613.085 129.013C611.576 131.753 610.822 134.815 610.822 138.2C610.853 141.555 611.607 144.602 613.085 147.341C614.593 150.08 616.639 152.25 619.224 153.85C621.84 155.451 624.826 156.251 628.18 156.251C630.673 156.251 632.997 155.774 635.151 154.82C637.306 153.866 639.183 152.542 640.783 150.849C642.415 149.126 643.676 147.172 644.569 144.987C645.492 142.801 645.938 140.493 645.908 138.062C645.908 134.83 645.138 131.845 643.599 129.106C642.091 126.367 640.014 124.166 637.367 122.504C634.751 120.842 631.75 120.011 628.365 120.011ZM714.416 203.293C709.892 203.262 705.476 202.477 701.167 200.938C696.858 199.369 692.98 196.83 689.533 193.321C686.086 189.782 683.347 185.088 681.316 179.241C679.285 173.362 678.285 166.084 678.315 157.405C678.315 149.311 679.177 142.094 680.901 135.754C682.624 129.414 685.102 124.058 688.333 119.688C691.565 115.287 695.458 111.933 700.013 109.624C704.598 107.316 709.723 106.162 715.386 106.162C721.326 106.162 726.588 107.331 731.174 109.67C735.79 112.009 739.514 115.21 742.346 119.273C745.177 123.304 746.932 127.859 747.609 132.938H730.759C729.897 129.306 728.127 126.413 725.45 124.259C722.803 122.073 719.448 120.981 715.386 120.981C708.83 120.981 703.783 123.828 700.244 129.521C696.735 135.215 694.965 143.032 694.935 152.973H695.581C697.089 150.265 699.043 147.941 701.444 146.002C703.844 144.063 706.553 142.571 709.569 141.524C712.616 140.447 715.832 139.908 719.217 139.908C724.757 139.908 729.728 141.232 734.129 143.879C738.56 146.525 742.069 150.172 744.654 154.82C747.239 159.436 748.517 164.73 748.486 170.7C748.517 176.917 747.101 182.503 744.239 187.458C741.376 192.382 737.391 196.26 732.282 199.092C727.173 201.923 721.218 203.323 714.416 203.293ZM714.324 189.443C717.679 189.443 720.679 188.628 723.326 186.996C725.973 185.365 728.066 183.165 729.604 180.395C731.143 177.625 731.897 174.517 731.866 171.07C731.897 167.684 731.159 164.622 729.651 161.883C728.173 159.144 726.127 156.974 723.511 155.374C720.895 153.773 717.909 152.973 714.555 152.973C712.062 152.973 709.738 153.45 707.584 154.404C705.429 155.358 703.552 156.682 701.952 158.374C700.351 160.036 699.089 161.975 698.166 164.191C697.274 166.376 696.812 168.715 696.781 171.208C696.812 174.501 697.581 177.533 699.089 180.303C700.598 183.072 702.675 185.288 705.322 186.95C707.969 188.612 710.969 189.443 714.324 189.443Z" fill="#FF5800"/>
</g>
<defs>
<linearGradient id="paint0_linear_242_9957" x1="123.529" y1="182.711" x2="36.3594" y2="182.711" gradientUnits="userSpaceOnUse">
<stop stop-color="#05246C"/>
<stop offset="1" stop-color="#020820"/>
</linearGradient>
<linearGradient id="paint1_linear_242_9957" x1="145.489" y1="88.6382" x2="36.3594" y2="88.6382" gradientUnits="userSpaceOnUse">
<stop stop-color="#05246C"/>
<stop offset="1" stop-color="#020820"/>
</linearGradient>
<linearGradient id="paint2_linear_242_9957" x1="17.5236" y1="206.981" x2="3.06836" y2="206.981" gradientUnits="userSpaceOnUse">
<stop stop-color="#05246C"/>
<stop offset="1" stop-color="#020820"/>
</linearGradient>
<linearGradient id="paint3_linear_242_9957" x1="17.523" y1="152.319" x2="3.50586" y2="152.319" gradientUnits="userSpaceOnUse">
<stop stop-color="#05246C"/>
<stop offset="1" stop-color="#020820"/>
</linearGradient>
<linearGradient id="paint4_linear_242_9957" x1="756" y1="154.5" x2="191" y2="154.5" gradientUnits="userSpaceOnUse">
<stop stop-color="#05246C"/>
<stop offset="1" stop-color="#020820"/>
</linearGradient>
<clipPath id="clip0_242_9957">
<rect width="756" height="234" fill="white"/>
</clipPath>
</defs>
</svg>
