<svg width="22" height="22" viewBox="0 0 22 22" fill="none" xmlns="http://www.w3.org/2000/svg">
<g clip-path="url(#clip0_170_202)">
<path d="M21.5141 5.49556C21.3879 5.0132 21.1418 4.57346 20.8002 4.22011C20.4586 3.86677 20.0335 3.61214 19.5671 3.4816C17.8599 3 10.9888 3 10.9888 3C10.9888 3 4.11745 3.01458 2.41022 3.49618C1.94388 3.62673 1.51874 3.88137 1.17714 4.23473C0.835539 4.58809 0.589395 5.02786 0.46322 5.51022C-0.0531788 8.64782 -0.253499 13.4288 0.477399 16.4409C0.603588 16.9232 0.849737 17.363 1.19134 17.7163C1.53294 18.0697 1.95807 18.3243 2.4244 18.4548C4.13163 18.9364 11.0029 18.9364 11.0029 18.9364C11.0029 18.9364 17.874 18.9364 19.5811 18.4548C20.0475 18.3243 20.4726 18.0697 20.8142 17.7163C21.1559 17.363 21.402 16.9232 21.5282 16.4409C22.0729 13.2988 22.2407 8.5208 21.5141 5.49556Z" fill="#FF0000"/>
<path d="M8.80176 14.3826L14.5018 10.9677L8.80176 7.55273V14.3826Z" fill="white"/>
</g>
<defs>
<clipPath id="clip0_170_202">
<rect width="22" height="16" fill="white" transform="translate(0 3)"/>
</clipPath>
</defs>
</svg>
