<svg width="1920" height="7111" viewBox="0 0 1920 7111" fill="none" xmlns="http://www.w3.org/2000/svg">
<rect x="24.5" y="50.5" width="199" height="199" rx="29.5" fill="#D9D9D9"/>
<rect x="24.5" y="50.5" width="199" height="199" rx="29.5" fill="url(#paint0_linear_37_1098)"/>
<rect x="24.5" y="50.5" width="199" height="199" rx="29.5" stroke="#ECE6FF"/>
<rect x="178.183" y="463.683" width="199" height="199" rx="29.5" transform="rotate(30 178.183 463.683)" fill="#D9D9D9"/>
<rect x="178.183" y="463.683" width="199" height="199" rx="29.5" transform="rotate(30 178.183 463.683)" fill="url(#paint1_linear_37_1098)"/>
<rect x="178.183" y="463.683" width="199" height="199" rx="29.5" transform="rotate(30 178.183 463.683)" stroke="#ECE6FF"/>
<rect x="653.183" y="285.683" width="199" height="199" rx="29.5" transform="rotate(30 653.183 285.683)" fill="#D9D9D9"/>
<rect x="653.183" y="285.683" width="199" height="199" rx="29.5" transform="rotate(30 653.183 285.683)" fill="url(#paint2_linear_37_1098)"/>
<rect x="653.183" y="285.683" width="199" height="199" rx="29.5" transform="rotate(30 653.183 285.683)" stroke="#ECE6FF"/>
<rect x="1347.18" y="0.683013" width="199" height="199" rx="29.5" transform="rotate(30 1347.18 0.683013)" fill="#D9D9D9"/>
<rect x="1347.18" y="0.683013" width="199" height="199" rx="29.5" transform="rotate(30 1347.18 0.683013)" fill="url(#paint3_linear_37_1098)"/>
<rect x="1347.18" y="0.683013" width="199" height="199" rx="29.5" transform="rotate(30 1347.18 0.683013)" stroke="#ECE6FF"/>
<rect x="1837.18" y="240.683" width="199" height="199" rx="29.5" transform="rotate(30 1837.18 240.683)" fill="#D9D9D9"/>
<rect x="1837.18" y="240.683" width="199" height="199" rx="29.5" transform="rotate(30 1837.18 240.683)" fill="url(#paint4_linear_37_1098)"/>
<rect x="1837.18" y="240.683" width="199" height="199" rx="29.5" transform="rotate(30 1837.18 240.683)" stroke="#ECE6FF"/>
<rect x="1590.18" y="711.683" width="199" height="199" rx="29.5" transform="rotate(30 1590.18 711.683)" fill="#D9D9D9"/>
<rect x="1590.18" y="711.683" width="199" height="199" rx="29.5" transform="rotate(30 1590.18 711.683)" fill="url(#paint5_linear_37_1098)"/>
<rect x="1590.18" y="711.683" width="199" height="199" rx="29.5" transform="rotate(30 1590.18 711.683)" stroke="#ECE6FF"/>
<rect x="1847.18" y="1269.68" width="199" height="199" rx="29.5" transform="rotate(30 1847.18 1269.68)" fill="#D9D9D9"/>
<rect x="1847.18" y="1269.68" width="199" height="199" rx="29.5" transform="rotate(30 1847.18 1269.68)" fill="url(#paint6_linear_37_1098)"/>
<rect x="1847.18" y="1269.68" width="199" height="199" rx="29.5" transform="rotate(30 1847.18 1269.68)" stroke="#ECE6FF"/>
<rect x="1013.18" y="1306.68" width="199" height="199" rx="29.5" transform="rotate(30 1013.18 1306.68)" fill="#D9D9D9"/>
<rect x="1013.18" y="1306.68" width="199" height="199" rx="29.5" transform="rotate(30 1013.18 1306.68)" fill="url(#paint7_linear_37_1098)"/>
<rect x="1013.18" y="1306.68" width="199" height="199" rx="29.5" transform="rotate(30 1013.18 1306.68)" stroke="#ECE6FF"/>
<rect x="234.183" y="862.683" width="199" height="199" rx="29.5" transform="rotate(30 234.183 862.683)" fill="#D9D9D9"/>
<rect x="234.183" y="862.683" width="199" height="199" rx="29.5" transform="rotate(30 234.183 862.683)" fill="url(#paint8_linear_37_1098)"/>
<rect x="234.183" y="862.683" width="199" height="199" rx="29.5" transform="rotate(30 234.183 862.683)" stroke="#ECE6FF"/>
<rect x="42.183" y="1550.68" width="199" height="199" rx="29.5" transform="rotate(30 42.183 1550.68)" fill="#D9D9D9"/>
<rect x="42.183" y="1550.68" width="199" height="199" rx="29.5" transform="rotate(30 42.183 1550.68)" fill="url(#paint9_linear_37_1098)"/>
<rect x="42.183" y="1550.68" width="199" height="199" rx="29.5" transform="rotate(30 42.183 1550.68)" stroke="#ECE6FF"/>
<rect x="680.183" y="1762.68" width="199" height="199" rx="29.5" transform="rotate(30 680.183 1762.68)" fill="#D9D9D9"/>
<rect x="680.183" y="1762.68" width="199" height="199" rx="29.5" transform="rotate(30 680.183 1762.68)" fill="url(#paint10_linear_37_1098)"/>
<rect x="680.183" y="1762.68" width="199" height="199" rx="29.5" transform="rotate(30 680.183 1762.68)" stroke="#ECE6FF"/>
<rect x="1369.18" y="1762.68" width="199" height="199" rx="29.5" transform="rotate(30 1369.18 1762.68)" fill="#D9D9D9"/>
<rect x="1369.18" y="1762.68" width="199" height="199" rx="29.5" transform="rotate(30 1369.18 1762.68)" fill="url(#paint11_linear_37_1098)"/>
<rect x="1369.18" y="1762.68" width="199" height="199" rx="29.5" transform="rotate(30 1369.18 1762.68)" stroke="#ECE6FF"/>
<rect x="1820.18" y="1967.68" width="199" height="199" rx="29.5" transform="rotate(30 1820.18 1967.68)" fill="#D9D9D9"/>
<rect x="1820.18" y="1967.68" width="199" height="199" rx="29.5" transform="rotate(30 1820.18 1967.68)" fill="url(#paint12_linear_37_1098)"/>
<rect x="1820.18" y="1967.68" width="199" height="199" rx="29.5" transform="rotate(30 1820.18 1967.68)" stroke="#ECE6FF"/>
<rect x="1486.18" y="2499.68" width="199" height="199" rx="29.5" transform="rotate(30 1486.18 2499.68)" fill="#D9D9D9"/>
<rect x="1486.18" y="2499.68" width="199" height="199" rx="29.5" transform="rotate(30 1486.18 2499.68)" fill="url(#paint13_linear_37_1098)"/>
<rect x="1486.18" y="2499.68" width="199" height="199" rx="29.5" transform="rotate(30 1486.18 2499.68)" stroke="#ECE6FF"/>
<rect x="488.183" y="2682.68" width="199" height="199" rx="29.5" transform="rotate(30 488.183 2682.68)" fill="#D9D9D9"/>
<rect x="488.183" y="2682.68" width="199" height="199" rx="29.5" transform="rotate(30 488.183 2682.68)" fill="url(#paint14_linear_37_1098)"/>
<rect x="488.183" y="2682.68" width="199" height="199" rx="29.5" transform="rotate(30 488.183 2682.68)" stroke="#ECE6FF"/>
<rect x="6.18301" y="2395.68" width="199" height="199" rx="29.5" transform="rotate(30 6.18301 2395.68)" fill="#D9D9D9"/>
<rect x="6.18301" y="2395.68" width="199" height="199" rx="29.5" transform="rotate(30 6.18301 2395.68)" fill="url(#paint15_linear_37_1098)"/>
<rect x="6.18301" y="2395.68" width="199" height="199" rx="29.5" transform="rotate(30 6.18301 2395.68)" stroke="#ECE6FF"/>
<rect x="200.183" y="3187.68" width="199" height="199" rx="29.5" transform="rotate(30 200.183 3187.68)" fill="#D9D9D9"/>
<rect x="200.183" y="3187.68" width="199" height="199" rx="29.5" transform="rotate(30 200.183 3187.68)" fill="url(#paint16_linear_37_1098)"/>
<rect x="200.183" y="3187.68" width="199" height="199" rx="29.5" transform="rotate(30 200.183 3187.68)" stroke="#ECE6FF"/>
<rect x="1747.18" y="3251.68" width="199" height="199" rx="29.5" transform="rotate(30 1747.18 3251.68)" fill="#D9D9D9"/>
<rect x="1747.18" y="3251.68" width="199" height="199" rx="29.5" transform="rotate(30 1747.18 3251.68)" fill="url(#paint17_linear_37_1098)"/>
<rect x="1747.18" y="3251.68" width="199" height="199" rx="29.5" transform="rotate(30 1747.18 3251.68)" stroke="#ECE6FF"/>
<rect x="1668.18" y="3699.68" width="199" height="199" rx="29.5" transform="rotate(30 1668.18 3699.68)" fill="#D9D9D9"/>
<rect x="1668.18" y="3699.68" width="199" height="199" rx="29.5" transform="rotate(30 1668.18 3699.68)" fill="url(#paint18_linear_37_1098)"/>
<rect x="1668.18" y="3699.68" width="199" height="199" rx="29.5" transform="rotate(30 1668.18 3699.68)" stroke="#ECE6FF"/>
<rect x="586.183" y="4035.68" width="199" height="199" rx="29.5" transform="rotate(30 586.183 4035.68)" fill="#D9D9D9"/>
<rect x="586.183" y="4035.68" width="199" height="199" rx="29.5" transform="rotate(30 586.183 4035.68)" fill="url(#paint19_linear_37_1098)"/>
<rect x="586.183" y="4035.68" width="199" height="199" rx="29.5" transform="rotate(30 586.183 4035.68)" stroke="#ECE6FF"/>
<rect x="57.183" y="4261.68" width="199" height="199" rx="29.5" transform="rotate(30 57.183 4261.68)" fill="#D9D9D9"/>
<rect x="57.183" y="4261.68" width="199" height="199" rx="29.5" transform="rotate(30 57.183 4261.68)" fill="url(#paint20_linear_37_1098)"/>
<rect x="57.183" y="4261.68" width="199" height="199" rx="29.5" transform="rotate(30 57.183 4261.68)" stroke="#ECE6FF"/>
<rect x="651.183" y="4424.68" width="199" height="199" rx="29.5" transform="rotate(30 651.183 4424.68)" fill="#D9D9D9"/>
<rect x="651.183" y="4424.68" width="199" height="199" rx="29.5" transform="rotate(30 651.183 4424.68)" fill="url(#paint21_linear_37_1098)"/>
<rect x="651.183" y="4424.68" width="199" height="199" rx="29.5" transform="rotate(30 651.183 4424.68)" stroke="#ECE6FF"/>
<rect x="1272.18" y="4273.68" width="199" height="199" rx="29.5" transform="rotate(30 1272.18 4273.68)" fill="#D9D9D9"/>
<rect x="1272.18" y="4273.68" width="199" height="199" rx="29.5" transform="rotate(30 1272.18 4273.68)" fill="url(#paint22_linear_37_1098)"/>
<rect x="1272.18" y="4273.68" width="199" height="199" rx="29.5" transform="rotate(30 1272.18 4273.68)" stroke="#ECE6FF"/>
<rect x="1818.18" y="4426.68" width="199" height="199" rx="29.5" transform="rotate(30 1818.18 4426.68)" fill="#D9D9D9"/>
<rect x="1818.18" y="4426.68" width="199" height="199" rx="29.5" transform="rotate(30 1818.18 4426.68)" fill="url(#paint23_linear_37_1098)"/>
<rect x="1818.18" y="4426.68" width="199" height="199" rx="29.5" transform="rotate(30 1818.18 4426.68)" stroke="#ECE6FF"/>
<rect x="1731.18" y="4888.68" width="199" height="199" rx="29.5" transform="rotate(30 1731.18 4888.68)" fill="#D9D9D9"/>
<rect x="1731.18" y="4888.68" width="199" height="199" rx="29.5" transform="rotate(30 1731.18 4888.68)" fill="url(#paint24_linear_37_1098)"/>
<rect x="1731.18" y="4888.68" width="199" height="199" rx="29.5" transform="rotate(30 1731.18 4888.68)" stroke="#ECE6FF"/>
<rect x="1070.18" y="5025.68" width="199" height="199" rx="29.5" transform="rotate(30 1070.18 5025.68)" fill="#D9D9D9"/>
<rect x="1070.18" y="5025.68" width="199" height="199" rx="29.5" transform="rotate(30 1070.18 5025.68)" fill="url(#paint25_linear_37_1098)"/>
<rect x="1070.18" y="5025.68" width="199" height="199" rx="29.5" transform="rotate(30 1070.18 5025.68)" stroke="#ECE6FF"/>
<rect x="57.183" y="4963.68" width="199" height="199" rx="29.5" transform="rotate(30 57.183 4963.68)" fill="#D9D9D9"/>
<rect x="57.183" y="4963.68" width="199" height="199" rx="29.5" transform="rotate(30 57.183 4963.68)" fill="url(#paint26_linear_37_1098)"/>
<rect x="57.183" y="4963.68" width="199" height="199" rx="29.5" transform="rotate(30 57.183 4963.68)" stroke="#ECE6FF"/>
<rect x="250.183" y="5356.68" width="199" height="199" rx="29.5" transform="rotate(30 250.183 5356.68)" fill="#D9D9D9"/>
<rect x="250.183" y="5356.68" width="199" height="199" rx="29.5" transform="rotate(30 250.183 5356.68)" fill="url(#paint27_linear_37_1098)"/>
<rect x="250.183" y="5356.68" width="199" height="199" rx="29.5" transform="rotate(30 250.183 5356.68)" stroke="#ECE6FF"/>
<rect x="879.183" y="5704.68" width="199" height="199" rx="29.5" transform="rotate(30 879.183 5704.68)" fill="#D9D9D9"/>
<rect x="879.183" y="5704.68" width="199" height="199" rx="29.5" transform="rotate(30 879.183 5704.68)" fill="url(#paint28_linear_37_1098)"/>
<rect x="879.183" y="5704.68" width="199" height="199" rx="29.5" transform="rotate(30 879.183 5704.68)" stroke="#ECE6FF"/>
<rect x="1790.18" y="5478.68" width="199" height="199" rx="29.5" transform="rotate(30 1790.18 5478.68)" fill="#D9D9D9"/>
<rect x="1790.18" y="5478.68" width="199" height="199" rx="29.5" transform="rotate(30 1790.18 5478.68)" fill="url(#paint29_linear_37_1098)"/>
<rect x="1790.18" y="5478.68" width="199" height="199" rx="29.5" transform="rotate(30 1790.18 5478.68)" stroke="#ECE6FF"/>
<rect x="1568.18" y="6117.68" width="199" height="199" rx="29.5" transform="rotate(30 1568.18 6117.68)" fill="#D9D9D9"/>
<rect x="1568.18" y="6117.68" width="199" height="199" rx="29.5" transform="rotate(30 1568.18 6117.68)" fill="url(#paint30_linear_37_1098)"/>
<rect x="1568.18" y="6117.68" width="199" height="199" rx="29.5" transform="rotate(30 1568.18 6117.68)" stroke="#ECE6FF"/>
<rect x="660.183" y="6413.68" width="199" height="199" rx="29.5" transform="rotate(30 660.183 6413.68)" fill="#D9D9D9"/>
<rect x="660.183" y="6413.68" width="199" height="199" rx="29.5" transform="rotate(30 660.183 6413.68)" fill="url(#paint31_linear_37_1098)"/>
<rect x="660.183" y="6413.68" width="199" height="199" rx="29.5" transform="rotate(30 660.183 6413.68)" stroke="#ECE6FF"/>
<rect x="0.183013" y="5985.68" width="199" height="199" rx="29.5" transform="rotate(30 0.183013 5985.68)" fill="#D9D9D9"/>
<rect x="0.183013" y="5985.68" width="199" height="199" rx="29.5" transform="rotate(30 0.183013 5985.68)" fill="url(#paint32_linear_37_1098)"/>
<rect x="0.183013" y="5985.68" width="199" height="199" rx="29.5" transform="rotate(30 0.183013 5985.68)" stroke="#ECE6FF"/>
<rect x="150.183" y="6810.68" width="199" height="199" rx="29.5" transform="rotate(30 150.183 6810.68)" fill="#D9D9D9"/>
<rect x="150.183" y="6810.68" width="199" height="199" rx="29.5" transform="rotate(30 150.183 6810.68)" fill="url(#paint33_linear_37_1098)"/>
<rect x="150.183" y="6810.68" width="199" height="199" rx="29.5" transform="rotate(30 150.183 6810.68)" stroke="#ECE6FF"/>
<rect x="1052.18" y="6953.68" width="199" height="199" rx="29.5" transform="rotate(30 1052.18 6953.68)" fill="#D9D9D9"/>
<rect x="1052.18" y="6953.68" width="199" height="199" rx="29.5" transform="rotate(30 1052.18 6953.68)" fill="url(#paint34_linear_37_1098)"/>
<rect x="1052.18" y="6953.68" width="199" height="199" rx="29.5" transform="rotate(30 1052.18 6953.68)" stroke="#ECE6FF"/>
<rect x="1855.18" y="7047.68" width="199" height="199" rx="29.5" transform="rotate(30 1855.18 7047.68)" fill="#D9D9D9"/>
<rect x="1855.18" y="7047.68" width="199" height="199" rx="29.5" transform="rotate(30 1855.18 7047.68)" fill="url(#paint35_linear_37_1098)"/>
<rect x="1855.18" y="7047.68" width="199" height="199" rx="29.5" transform="rotate(30 1855.18 7047.68)" stroke="#ECE6FF"/>
<rect x="1847.18" y="3134.68" width="199" height="199" rx="29.5" transform="rotate(30 1847.18 3134.68)" fill="#D9D9D9"/>
<rect x="1847.18" y="3134.68" width="199" height="199" rx="29.5" transform="rotate(30 1847.18 3134.68)" fill="url(#paint36_linear_37_1098)"/>
<rect x="1847.18" y="3134.68" width="199" height="199" rx="29.5" transform="rotate(30 1847.18 3134.68)" stroke="#ECE6FF"/>
<defs>
<linearGradient id="paint0_linear_37_1098" x1="124" y1="50" x2="124" y2="250" gradientUnits="userSpaceOnUse">
<stop stop-color="#F3F0FF"/>
<stop offset="1" stop-color="#F0F6FF"/>
</linearGradient>
<linearGradient id="paint1_linear_37_1098" x1="278" y1="463" x2="278" y2="663" gradientUnits="userSpaceOnUse">
<stop stop-color="#F3F0FF"/>
<stop offset="1" stop-color="#F0F6FF"/>
</linearGradient>
<linearGradient id="paint2_linear_37_1098" x1="753" y1="285" x2="753" y2="485" gradientUnits="userSpaceOnUse">
<stop stop-color="#F3F0FF"/>
<stop offset="1" stop-color="#F0F6FF"/>
</linearGradient>
<linearGradient id="paint3_linear_37_1098" x1="1447" y1="0" x2="1447" y2="200" gradientUnits="userSpaceOnUse">
<stop stop-color="#F3F0FF"/>
<stop offset="1" stop-color="#F0F6FF"/>
</linearGradient>
<linearGradient id="paint4_linear_37_1098" x1="1937" y1="240" x2="1937" y2="440" gradientUnits="userSpaceOnUse">
<stop stop-color="#F3F0FF"/>
<stop offset="1" stop-color="#F0F6FF"/>
</linearGradient>
<linearGradient id="paint5_linear_37_1098" x1="1690" y1="711" x2="1690" y2="911" gradientUnits="userSpaceOnUse">
<stop stop-color="#F3F0FF"/>
<stop offset="1" stop-color="#F0F6FF"/>
</linearGradient>
<linearGradient id="paint6_linear_37_1098" x1="1947" y1="1269" x2="1947" y2="1469" gradientUnits="userSpaceOnUse">
<stop stop-color="#F3F0FF"/>
<stop offset="1" stop-color="#F0F6FF"/>
</linearGradient>
<linearGradient id="paint7_linear_37_1098" x1="1113" y1="1306" x2="1113" y2="1506" gradientUnits="userSpaceOnUse">
<stop stop-color="#F3F0FF"/>
<stop offset="1" stop-color="#F0F6FF"/>
</linearGradient>
<linearGradient id="paint8_linear_37_1098" x1="334" y1="862" x2="334" y2="1062" gradientUnits="userSpaceOnUse">
<stop stop-color="#F3F0FF"/>
<stop offset="1" stop-color="#F0F6FF"/>
</linearGradient>
<linearGradient id="paint9_linear_37_1098" x1="142" y1="1550" x2="142" y2="1750" gradientUnits="userSpaceOnUse">
<stop stop-color="#F3F0FF"/>
<stop offset="1" stop-color="#F0F6FF"/>
</linearGradient>
<linearGradient id="paint10_linear_37_1098" x1="780" y1="1762" x2="780" y2="1962" gradientUnits="userSpaceOnUse">
<stop stop-color="#F3F0FF"/>
<stop offset="1" stop-color="#F0F6FF"/>
</linearGradient>
<linearGradient id="paint11_linear_37_1098" x1="1469" y1="1762" x2="1469" y2="1962" gradientUnits="userSpaceOnUse">
<stop stop-color="#F3F0FF"/>
<stop offset="1" stop-color="#F0F6FF"/>
</linearGradient>
<linearGradient id="paint12_linear_37_1098" x1="1920" y1="1967" x2="1920" y2="2167" gradientUnits="userSpaceOnUse">
<stop stop-color="#F3F0FF"/>
<stop offset="1" stop-color="#F0F6FF"/>
</linearGradient>
<linearGradient id="paint13_linear_37_1098" x1="1586" y1="2499" x2="1586" y2="2699" gradientUnits="userSpaceOnUse">
<stop stop-color="#F3F0FF"/>
<stop offset="1" stop-color="#F0F6FF"/>
</linearGradient>
<linearGradient id="paint14_linear_37_1098" x1="588" y1="2682" x2="588" y2="2882" gradientUnits="userSpaceOnUse">
<stop stop-color="#F3F0FF"/>
<stop offset="1" stop-color="#F0F6FF"/>
</linearGradient>
<linearGradient id="paint15_linear_37_1098" x1="106" y1="2395" x2="106" y2="2595" gradientUnits="userSpaceOnUse">
<stop stop-color="#F3F0FF"/>
<stop offset="1" stop-color="#F0F6FF"/>
</linearGradient>
<linearGradient id="paint16_linear_37_1098" x1="300" y1="3187" x2="300" y2="3387" gradientUnits="userSpaceOnUse">
<stop stop-color="#F3F0FF"/>
<stop offset="1" stop-color="#F0F6FF"/>
</linearGradient>
<linearGradient id="paint17_linear_37_1098" x1="1847" y1="3251" x2="1847" y2="3451" gradientUnits="userSpaceOnUse">
<stop stop-color="#F3F0FF"/>
<stop offset="1" stop-color="#F0F6FF"/>
</linearGradient>
<linearGradient id="paint18_linear_37_1098" x1="1768" y1="3699" x2="1768" y2="3899" gradientUnits="userSpaceOnUse">
<stop stop-color="#F3F0FF"/>
<stop offset="1" stop-color="#F0F6FF"/>
</linearGradient>
<linearGradient id="paint19_linear_37_1098" x1="686" y1="4035" x2="686" y2="4235" gradientUnits="userSpaceOnUse">
<stop stop-color="#F3F0FF"/>
<stop offset="1" stop-color="#F0F6FF"/>
</linearGradient>
<linearGradient id="paint20_linear_37_1098" x1="157" y1="4261" x2="157" y2="4461" gradientUnits="userSpaceOnUse">
<stop stop-color="#F3F0FF"/>
<stop offset="1" stop-color="#F0F6FF"/>
</linearGradient>
<linearGradient id="paint21_linear_37_1098" x1="751" y1="4424" x2="751" y2="4624" gradientUnits="userSpaceOnUse">
<stop stop-color="#F3F0FF"/>
<stop offset="1" stop-color="#F0F6FF"/>
</linearGradient>
<linearGradient id="paint22_linear_37_1098" x1="1372" y1="4273" x2="1372" y2="4473" gradientUnits="userSpaceOnUse">
<stop stop-color="#F3F0FF"/>
<stop offset="1" stop-color="#F0F6FF"/>
</linearGradient>
<linearGradient id="paint23_linear_37_1098" x1="1918" y1="4426" x2="1918" y2="4626" gradientUnits="userSpaceOnUse">
<stop stop-color="#F3F0FF"/>
<stop offset="1" stop-color="#F0F6FF"/>
</linearGradient>
<linearGradient id="paint24_linear_37_1098" x1="1831" y1="4888" x2="1831" y2="5088" gradientUnits="userSpaceOnUse">
<stop stop-color="#F3F0FF"/>
<stop offset="1" stop-color="#F0F6FF"/>
</linearGradient>
<linearGradient id="paint25_linear_37_1098" x1="1170" y1="5025" x2="1170" y2="5225" gradientUnits="userSpaceOnUse">
<stop stop-color="#F3F0FF"/>
<stop offset="1" stop-color="#F0F6FF"/>
</linearGradient>
<linearGradient id="paint26_linear_37_1098" x1="157" y1="4963" x2="157" y2="5163" gradientUnits="userSpaceOnUse">
<stop stop-color="#F3F0FF"/>
<stop offset="1" stop-color="#F0F6FF"/>
</linearGradient>
<linearGradient id="paint27_linear_37_1098" x1="350" y1="5356" x2="350" y2="5556" gradientUnits="userSpaceOnUse">
<stop stop-color="#F3F0FF"/>
<stop offset="1" stop-color="#F0F6FF"/>
</linearGradient>
<linearGradient id="paint28_linear_37_1098" x1="979" y1="5704" x2="979" y2="5904" gradientUnits="userSpaceOnUse">
<stop stop-color="#F3F0FF"/>
<stop offset="1" stop-color="#F0F6FF"/>
</linearGradient>
<linearGradient id="paint29_linear_37_1098" x1="1890" y1="5478" x2="1890" y2="5678" gradientUnits="userSpaceOnUse">
<stop stop-color="#F3F0FF"/>
<stop offset="1" stop-color="#F0F6FF"/>
</linearGradient>
<linearGradient id="paint30_linear_37_1098" x1="1668" y1="6117" x2="1668" y2="6317" gradientUnits="userSpaceOnUse">
<stop stop-color="#F3F0FF"/>
<stop offset="1" stop-color="#F0F6FF"/>
</linearGradient>
<linearGradient id="paint31_linear_37_1098" x1="760" y1="6413" x2="760" y2="6613" gradientUnits="userSpaceOnUse">
<stop stop-color="#F3F0FF"/>
<stop offset="1" stop-color="#F0F6FF"/>
</linearGradient>
<linearGradient id="paint32_linear_37_1098" x1="100" y1="5985" x2="100" y2="6185" gradientUnits="userSpaceOnUse">
<stop stop-color="#F3F0FF"/>
<stop offset="1" stop-color="#F0F6FF"/>
</linearGradient>
<linearGradient id="paint33_linear_37_1098" x1="250" y1="6810" x2="250" y2="7010" gradientUnits="userSpaceOnUse">
<stop stop-color="#F3F0FF"/>
<stop offset="1" stop-color="#F0F6FF"/>
</linearGradient>
<linearGradient id="paint34_linear_37_1098" x1="1152" y1="6953" x2="1152" y2="7153" gradientUnits="userSpaceOnUse">
<stop stop-color="#F3F0FF"/>
<stop offset="1" stop-color="#F0F6FF"/>
</linearGradient>
<linearGradient id="paint35_linear_37_1098" x1="1955" y1="7047" x2="1955" y2="7247" gradientUnits="userSpaceOnUse">
<stop stop-color="#F3F0FF"/>
<stop offset="1" stop-color="#F0F6FF"/>
</linearGradient>
<linearGradient id="paint36_linear_37_1098" x1="1947" y1="3134" x2="1947" y2="3334" gradientUnits="userSpaceOnUse">
<stop stop-color="#F3F0FF"/>
<stop offset="1" stop-color="#F0F6FF"/>
</linearGradient>
</defs>
</svg>
