<svg width="120" height="120" viewBox="0 0 120 120" fill="none" xmlns="http://www.w3.org/2000/svg">
<path d="M59.5973 0C60.1289 0 60.6604 0 61.2081 0C61.4738 13.6889 61.7396 27.3778 62.0134 41.4815C63.3047 33.781 63.3047 33.781 64.5913 26.0798C64.8336 24.6444 64.8336 24.6444 65.0807 23.18C65.1636 22.6795 65.2464 22.1791 65.3317 21.6635C65.6916 19.5438 66.1061 17.5962 66.8456 15.5556C68.0416 15.9222 68.0416 15.9222 69.2617 16.2963C69.1154 17.1818 69.1154 17.1818 68.966 18.0852C68.5252 20.7602 68.0881 23.4356 67.651 26.1111C67.4205 27.5047 67.4205 27.5047 67.1854 28.9265C66.9674 30.2657 66.9674 30.2657 66.745 31.6319C66.61 32.4543 66.475 33.2767 66.336 34.124C65.9736 36.4214 65.9736 36.4214 66.0403 39.2593C66.1762 38.8652 66.312 38.471 66.4521 38.065C67.8674 33.9649 69.2931 29.868 70.7248 25.7728C71.2578 24.2438 71.7882 22.7141 72.3159 21.1836C73.0747 18.9843 73.8429 16.788 74.6131 14.592C74.8472 13.9068 75.0814 13.2215 75.3226 12.5155C75.5482 11.878 75.7737 11.2404 76.0061 10.5836C76.2011 10.0227 76.396 9.46177 76.5968 8.88386C77.3838 7.26699 78.2959 6.34853 79.7315 5.18518C80.633 7.67246 80.4618 8.16881 79.5933 10.5601C79.3675 11.1928 79.1417 11.8256 78.9091 12.4775C78.6583 13.1581 78.4075 13.8387 78.1491 14.5399C77.8977 15.2403 77.6463 15.9406 77.3873 16.6621C76.5815 18.9034 75.766 21.1416 74.9497 23.3796C74.1378 25.6208 73.328 27.8625 72.5207 30.1051C72.0173 31.5017 71.5109 32.8974 71.0015 34.2921C70.7731 34.9225 70.5448 35.5529 70.3095 36.2024C70.1068 36.7583 69.9041 37.3141 69.6952 37.8868C69.1869 39.2582 69.1869 39.2582 69.2617 40.7407C73.7799 32.6741 78.298 24.6074 82.953 16.2963C83.7503 16.2963 84.5477 16.2963 85.3691 16.2963C84.2569 19.611 82.8329 22.6163 81.1346 25.7118C80.8867 26.1659 80.6387 26.62 80.3832 27.0878C79.5985 28.5229 78.8094 29.9559 78.0201 31.3889C77.484 32.3677 76.9481 33.3467 76.4125 34.3258C75.1062 36.7126 73.7958 39.0975 72.4832 41.4815C74.5789 39.6241 76.3882 37.776 78.0485 35.5787C78.4632 35.0335 78.8779 34.4883 79.3053 33.9265C79.7283 33.3641 80.1514 32.8017 80.5872 32.2222C81.4352 31.1031 82.2836 29.9843 83.1323 28.8657C83.6899 28.126 83.6899 28.126 84.2588 27.3712C84.6252 26.8943 84.9916 26.4173 85.3691 25.9259C85.7807 25.3764 86.1923 24.8269 86.6163 24.2607C87.0021 23.8325 87.3878 23.4042 87.7852 22.963C88.3168 22.963 88.8483 22.963 89.396 22.963C88.9525 25.7384 88.2021 27.4874 86.3916 29.7367C85.7196 30.581 85.7196 30.581 85.0341 31.4424C84.5633 32.0206 84.0925 32.5988 83.6074 33.1944C83.1521 33.764 82.6969 34.3336 82.2279 34.9204C80.867 36.6194 79.4961 38.3109 78.1208 40C77.6519 40.5761 77.1831 41.1523 76.7 41.7459C75.5641 43.1401 74.427 44.5334 73.2886 45.9259C74.4846 46.6593 74.4846 46.6593 75.7047 47.4074C78.0242 46.4048 80.0265 45.2609 82.0784 43.8513C82.6843 43.4374 83.2901 43.0235 83.9143 42.5971C84.5605 42.1526 85.2067 41.708 85.8725 41.25C87.249 40.31 88.6259 39.3706 90.0032 38.4317C90.704 37.9536 91.4049 37.4754 92.1271 36.9828C97.1106 33.5976 102.14 30.2706 107.174 26.9495C108.153 26.3031 109.132 25.6556 110.109 25.0065C111.255 24.2448 112.406 23.4879 113.557 22.7315C114.454 22.1399 114.454 22.1399 115.369 21.5365C116.779 20.7407 116.779 20.7407 118.389 20.7407C118.285 22.0168 118.285 22.0168 117.584 23.7037C116.013 24.9165 114.5 25.9497 112.802 26.9907C111.77 27.6459 110.738 28.3018 109.706 28.9583C109.155 29.3059 108.604 29.6535 108.036 30.0116C105.028 31.9262 102.072 33.9053 99.1107 35.8796C98.5057 36.2817 97.9006 36.6839 97.2772 37.0982C91.407 41.0013 85.5653 44.9399 79.7315 48.8889C80.1336 48.7094 80.5357 48.5299 80.95 48.3449C82.7731 47.5341 84.5996 46.73 86.4262 45.9259C87.0589 45.6433 87.6917 45.3606 88.3437 45.0694C89.2585 44.6684 89.2585 44.6684 90.1919 44.2593C90.7528 44.011 91.3138 43.7627 91.8917 43.5069C93.4228 42.963 93.4228 42.963 95.8389 42.963C95.8389 43.6963 95.8389 44.4296 95.8389 45.1852C91.055 47.3852 86.2711 49.5852 81.3423 51.8519C83.5017 51.2713 85.6611 50.6907 87.8859 50.0926C88.5567 49.9127 89.2275 49.7328 89.9186 49.5475C92.5502 48.8377 95.1565 48.1094 97.7517 47.2917C99.9244 46.6493 101.626 46.5441 103.893 46.6667C103.627 47.4 103.361 48.1333 103.087 48.8889C101.148 49.6852 101.148 49.6851 98.6042 50.4022C97.2455 50.7925 97.2455 50.7925 95.8594 51.1907C94.9058 51.4547 93.9523 51.7187 92.9698 51.9907C92.0131 52.2634 91.0564 52.536 90.0708 52.8168C87.7009 53.4909 85.3273 54.1539 82.953 54.8148C86.4081 54.5704 89.8631 54.3259 93.4228 54.0741C93.4228 54.8074 93.4228 55.5407 93.4228 56.2963C89.1705 57.0296 84.9181 57.763 80.5369 58.5185C85.5866 58.763 90.6362 59.0074 95.8389 59.2593C95.8389 59.7481 95.8389 60.237 95.8389 60.7407C90.7893 60.9852 85.7396 61.2296 80.5369 61.4815C88.7758 62.7037 97.0148 63.9259 105.503 65.1852C105.769 65.9185 106.035 66.6518 106.309 67.4074C100.517 67.0608 94.7739 66.5785 89.0185 65.897C88.4311 65.8284 87.8438 65.7598 87.2386 65.6892C85.8099 65.5223 84.3815 65.3539 82.953 65.1852C83.3833 65.3135 83.8136 65.4417 84.2569 65.5739C88.7252 66.9063 93.193 68.2402 97.6604 69.5752C99.329 70.0735 100.998 70.5715 102.666 71.069C105.062 71.7831 107.456 72.4988 109.851 73.2147C110.6 73.4377 111.349 73.6607 112.121 73.8905C112.815 74.0981 113.508 74.3056 114.222 74.5195C115.139 74.7934 115.139 74.7934 116.075 75.0728C117.584 75.5556 117.584 75.5556 119.195 76.2963C119.195 77.0296 119.195 77.763 119.195 78.5185C111.185 76.8569 103.496 74.5194 95.7383 72.0833C93.9246 71.5155 92.1106 70.9486 90.2955 70.3845C89.1761 70.0364 88.0575 69.6862 86.9397 69.3335C84.2025 68.4445 84.2025 68.4445 81.3423 68.1481C81.791 68.3583 82.2396 68.5685 82.7019 68.785C87.3667 70.9703 92.0305 73.1575 96.6936 75.3458C98.4347 76.1625 100.176 76.9787 101.918 77.7944C104.419 78.9662 106.92 80.1398 109.42 81.3137C110.2 81.6787 110.981 82.0437 111.785 82.4198C112.51 82.7607 113.235 83.1017 113.983 83.453C114.621 83.7524 115.26 84.0518 115.917 84.3602C117.584 85.1852 117.584 85.1852 120 86.6667C120 87.4 120 88.1333 120 88.8889C116.453 87.8875 113.292 86.6045 110.012 85.0145C109.532 84.7836 109.052 84.5528 108.558 84.3149C107.541 83.8251 106.524 83.334 105.508 82.8416C102.892 81.574 100.269 80.3173 97.6447 79.0625C97.1349 78.8187 96.6252 78.5749 96.0999 78.3238C90.7201 75.7607 85.2689 73.3717 79.7315 71.1111C80.1571 71.3981 80.5827 71.6851 81.0212 71.9808C82.9914 73.3103 84.9605 74.6413 86.9295 75.9722C87.5986 76.4234 88.2677 76.8746 88.9571 77.3394C93.4563 80.3827 97.8915 83.4918 102.282 86.6667C102.016 87.1556 101.75 87.6444 101.477 88.1482C97.4484 86.9706 94.4999 84.7558 91.2081 82.4074C86.6798 79.2258 82.1332 76.1397 77.3154 73.3333C77.6643 73.6284 78.0131 73.9234 78.3725 74.2274C78.821 74.6199 79.2695 75.0123 79.7315 75.4167C80.4043 75.9967 80.4043 75.9967 81.0906 76.5885C82.1477 77.7778 82.1477 77.7778 82.1477 80C79.4449 79.5561 77.8164 78.6324 75.7047 77.037C76.1034 77.4801 76.502 77.9231 76.9128 78.3796C78.1208 80 78.1208 80 78.1208 82.2222C75.7809 81.2575 74.2475 80.2157 72.4832 78.5185C74.0646 81.4463 75.6483 84.373 77.234 87.2988C77.7901 88.3251 78.3458 89.3517 78.901 90.3785C82.4286 96.8991 85.9734 103.403 89.918 109.722C91.8605 112.949 91.8605 112.949 91.5856 115.133C91.299 115.709 91.299 115.709 91.0067 116.296C88.887 114.557 87.7638 112.804 86.5237 110.463C86.1363 109.739 85.749 109.016 85.3499 108.27C84.9409 107.497 84.532 106.723 84.1107 105.926C83.249 104.318 82.3859 102.71 81.5216 101.102C81.0888 100.297 80.656 99.4918 80.2101 98.6621C78.3204 95.1801 76.3693 91.7294 74.396 88.287C74.0632 87.7041 73.7304 87.1212 73.3875 86.5205C72.0915 84.2664 70.8024 82.1255 69.2617 80C69.4362 80.4918 69.6106 80.9835 69.7903 81.4902C70.0145 82.1442 70.2388 82.7983 70.4698 83.4722C70.694 84.1168 70.9183 84.7613 71.1493 85.4253C71.6767 87.4029 71.7731 89.0844 71.6779 91.1111C71.1463 91.1111 70.6148 91.1111 70.0671 91.1111C68.7383 87.6889 67.4094 84.2667 66.0403 80.7407C66.9578 87.8168 67.9873 94.8462 69.2895 101.872C69.8509 104.991 70.1885 107.935 70.0671 111.111C69.2698 111.111 68.4725 111.111 67.651 111.111C65.7906 100.356 63.9302 89.6 62.0134 78.5185C61.7477 92.2074 61.4819 105.896 61.2081 120C60.6765 120 60.145 120 59.5973 120C59.3315 106.311 59.0658 92.6222 58.7919 78.5185C57.5007 86.219 57.5007 86.219 56.214 93.9202C56.0525 94.8771 55.891 95.8341 55.7246 96.82C55.6004 97.5707 55.6004 97.5707 55.4736 98.3365C55.1138 100.456 54.6993 102.404 53.9597 104.444C53.1624 104.2 52.3651 103.956 51.5436 103.704C51.69 102.818 51.69 102.818 51.8393 101.915C52.2801 99.2398 52.7173 96.5644 53.1544 93.8889C53.308 92.9598 53.4617 92.0307 53.62 91.0735C53.838 89.7343 53.838 89.7343 54.0604 88.368C54.1954 87.5457 54.3303 86.7233 54.4694 85.876C54.8318 83.5786 54.8318 83.5786 54.7651 80.7407C54.6292 81.1348 54.4933 81.529 54.3533 81.935C52.938 86.0351 51.5123 90.132 50.0806 94.2272C49.5475 95.7562 49.0171 97.2859 48.4895 98.8164C47.7307 101.016 46.9625 103.212 46.1923 105.408C45.8411 106.436 45.8411 106.436 45.4827 107.485C45.1444 108.441 45.1444 108.441 44.7992 109.416C44.6043 109.977 44.4094 110.538 44.2085 111.116C43.4216 112.733 42.5095 113.651 41.0738 114.815C40.1724 112.328 40.3436 111.831 41.2121 109.44C41.4379 108.807 41.6637 108.174 41.8963 107.523C42.1471 106.842 42.3979 106.161 42.6562 105.46C42.9077 104.76 43.1591 104.059 43.4181 103.338C44.2239 101.097 45.0393 98.8584 45.8557 96.6204C46.6675 94.3792 47.4774 92.1375 48.2847 89.8949C48.7881 88.4983 49.2944 87.1026 49.8039 85.7079C50.0322 85.0775 50.2606 84.4471 50.4958 83.7976C50.6986 83.2417 50.9013 82.6859 51.1102 82.1132C51.6185 80.7418 51.6185 80.7418 51.5436 79.2593C47.0255 87.3259 42.5074 95.3926 37.8523 103.704C37.055 103.704 36.2577 103.704 35.4362 103.704C36.5484 100.389 37.9725 97.3837 39.6707 94.2882C39.9187 93.8341 40.1667 93.38 40.4222 92.9122C41.2068 91.4771 41.9959 90.0441 42.7852 88.6111C43.3214 87.6323 43.8573 86.6533 44.3928 85.6742C45.6992 83.2874 47.0096 80.9024 48.3221 78.5185C46.2264 80.3759 44.4171 82.224 42.7569 84.4213C42.3422 84.9665 41.9274 85.5117 41.5001 86.0735C41.077 86.6359 40.654 87.1983 40.2181 87.7778C39.3701 88.8969 38.5218 90.0157 37.673 91.1343C37.1154 91.874 37.1154 91.874 36.5466 92.6288C36.1802 93.1057 35.8138 93.5827 35.4362 94.0741C35.0247 94.6236 34.6131 95.1731 34.1891 95.7393C33.8033 96.1675 33.4176 96.5958 33.0201 97.037C32.4886 97.037 31.957 97.037 31.4094 97.037C31.8529 94.2616 32.6033 92.5126 34.4138 90.2633C35.0858 89.419 35.0858 89.419 35.7713 88.5576C36.2421 87.9794 36.7129 87.4012 37.198 86.8056C37.6532 86.236 38.1085 85.6664 38.5775 85.0796C39.9383 83.3806 41.3093 81.6891 42.6846 80C43.1534 79.4239 43.6223 78.8477 44.1054 78.2541C45.2413 76.8599 46.3784 75.4666 47.5168 74.0741C46.7195 73.5852 45.9221 73.0963 45.1007 72.5926C42.7812 73.5952 40.7789 74.7391 38.7269 76.1487C37.8182 76.7695 37.8182 76.7695 36.8911 77.4029C36.2449 77.8474 35.5987 78.292 34.9329 78.75C33.5564 79.6899 32.1795 80.6294 30.8022 81.5683C30.1013 82.0464 29.4004 82.5246 28.6783 83.0172C23.6948 86.4024 18.6652 89.7294 13.6311 93.0505C12.652 93.6969 11.6737 94.3444 10.6967 94.9935C9.54991 95.7552 8.39931 96.5121 7.24832 97.2685C6.65034 97.6629 6.05235 98.0572 5.43624 98.4635C4.02685 99.2593 4.02685 99.2593 2.41611 99.2593C2.51992 97.9832 2.51992 97.9832 3.22148 96.2963C4.7926 95.0835 6.30571 94.0503 8.00336 93.0093C9.03574 92.3541 10.0676 91.6982 11.099 91.0417C11.6503 90.6941 12.2015 90.3465 12.7695 89.9884C15.7769 88.0738 18.7334 86.0947 21.6946 84.1204C22.2997 83.7183 22.9048 83.3161 23.5281 82.9018C29.3983 78.9987 35.2401 75.0601 41.0738 71.1111C40.4707 71.3804 40.4707 71.3804 39.8554 71.6551C38.0323 72.4659 36.2058 73.27 34.3792 74.0741C33.7464 74.3567 33.1137 74.6394 32.4617 74.9306C31.8518 75.1979 31.2419 75.4653 30.6135 75.7407C29.7721 76.1131 29.7721 76.1131 28.9137 76.493C27.3826 77.037 27.3826 77.037 24.9664 77.037C24.9664 76.3037 24.9664 75.5704 24.9664 74.8148C29.7503 72.6148 34.5342 70.4148 39.4631 68.1481C34.4505 69.572 34.4505 69.572 29.4416 71.0068C25.2486 72.1807 21.2785 72.9627 16.9128 73.3333C17.3114 72.2333 17.3114 72.2333 17.7181 71.1111C19.6578 70.3148 19.6578 70.3148 22.2011 69.5978C23.5598 69.2075 23.5598 69.2075 24.946 68.8093C25.8996 68.5453 26.8531 68.2813 27.8356 68.0093C28.7922 67.7366 29.7489 67.464 30.7346 67.1832C33.1045 66.5091 35.4781 65.8461 37.8523 65.1852C32.6698 65.5518 32.6698 65.5518 27.3826 65.9259C27.3826 65.1926 27.3826 64.4593 27.3826 63.7037C31.6349 62.9704 35.8872 62.237 40.2685 61.4815C35.2188 61.237 30.1691 60.9926 24.9664 60.7407C24.9664 60.2519 24.9664 59.763 24.9664 59.2593C30.0161 59.0148 35.0658 58.7704 40.2685 58.5185C32.0295 57.2963 23.7906 56.0741 15.302 54.8148C15.0362 54.0815 14.7705 53.3481 14.4966 52.5926C20.2886 52.9392 26.0315 53.4215 31.7869 54.103C32.3743 54.1716 32.9616 54.2402 33.5667 54.3108C34.9954 54.4777 36.4239 54.6461 37.8523 54.8148C37.4221 54.6865 36.9918 54.5583 36.5485 54.4261C32.0801 53.0937 27.6124 51.7598 23.1449 50.4248C21.4764 49.9265 19.8077 49.4285 18.1389 48.931C15.7436 48.2169 13.3489 47.5012 10.9543 46.7853C10.2051 46.5623 9.45589 46.3393 8.68399 46.1095C7.99078 45.9019 7.29756 45.6944 6.58334 45.4805C5.66589 45.2066 5.66589 45.2066 4.7299 44.9272C3.22148 44.4444 3.22148 44.4444 1.61074 43.7037C1.61074 42.9704 1.61074 42.237 1.61074 41.4815C9.61989 43.1431 17.309 45.4806 25.0671 47.9167C26.8808 48.4845 28.6948 49.0513 30.5098 49.6155C31.6293 49.9636 32.7479 50.3138 33.8656 50.6665C36.6029 51.5555 36.6029 51.5555 39.4631 51.8519C34.3608 49.4525 29.2584 47.0533 24.156 44.6542C22.4201 43.8381 20.6844 43.0218 18.9486 42.2056C16.4538 41.0324 13.9589 39.8593 11.4639 38.6863C10.6878 38.3213 9.9117 37.9563 9.11207 37.5802C8.38672 37.2392 7.66138 36.8983 6.91406 36.5469C6.27739 36.2476 5.64071 35.9482 4.98475 35.6398C3.3268 34.8641 1.66484 34.0964 0 33.3333C0 32.6 0 31.8667 0 31.1111C3.67158 31.5642 6.63596 32.9455 9.86577 34.5226C10.4252 34.7905 10.9845 35.0584 11.5609 35.3344C13.3474 36.1908 15.1302 37.0533 16.9128 37.9167C19.2433 39.0414 21.5755 40.1631 23.9094 41.2818C24.4749 41.5531 25.0404 41.8243 25.623 42.1037C30.6982 44.5217 35.8541 46.7457 41.0738 48.8889C40.6482 48.6019 40.2227 48.3149 39.7842 48.0192C37.8139 46.6897 35.8449 45.3588 33.8758 44.0278C33.2067 43.5766 32.5376 43.1254 31.8483 42.6606C27.349 39.6173 22.9138 36.5082 18.5235 33.3333C18.7893 32.8444 19.055 32.3556 19.3289 31.8519C23.3569 33.0294 26.3054 35.2442 29.5973 37.5926C34.1255 40.7742 38.6721 43.8603 43.4899 46.6667C42.9667 46.2241 42.9667 46.2241 42.4329 45.7726C41.9844 45.3801 41.5359 44.9877 41.0738 44.5833C40.4011 44.0033 40.4011 44.0033 39.7148 43.4115C38.6577 42.2222 38.6577 42.2222 38.6577 40C41.3605 40.4439 42.989 41.3676 45.1007 42.963C44.702 42.5199 44.3034 42.0769 43.8926 41.6204C42.6846 40 42.6846 40 42.6846 37.7778C45.0245 38.7425 46.5578 39.7843 48.3221 41.4815C46.7407 38.5537 45.1571 35.627 43.5713 32.7012C43.0153 31.6749 42.4596 30.6483 41.9044 29.6215C38.3768 23.1009 34.832 16.5968 30.8874 10.278C28.9449 7.05134 28.9449 7.05134 29.2198 4.8669C29.4108 4.48304 29.6018 4.09919 29.7987 3.7037C31.9183 5.4433 33.0416 7.19643 34.2817 9.53704C34.669 10.2606 35.0564 10.9842 35.4555 11.7298C35.8644 12.5034 36.2733 13.277 36.6946 14.0741C37.5564 15.6825 38.4195 17.2903 39.2838 18.8976C39.7166 19.7029 40.1493 20.5082 40.5952 21.3379C42.485 24.8199 44.4361 28.2706 46.4094 31.713C46.7422 32.2959 47.075 32.8788 47.4179 33.4795C48.7138 35.7336 50.003 37.8745 51.5436 40C51.3692 39.5082 51.1948 39.0165 51.0151 38.5098C50.7909 37.8558 50.5666 37.2017 50.3356 36.5278C50.1113 35.8832 49.8871 35.2387 49.656 34.5747C49.1287 32.5971 49.0322 30.9156 49.1275 28.8889C49.6591 28.8889 50.1906 28.8889 50.7383 28.8889C52.0671 32.3111 53.396 35.7333 54.7651 39.2593C53.8475 32.1832 52.8181 25.1538 51.5159 18.1284C50.9545 15.0086 50.6169 12.0654 50.7383 8.88889C51.5356 8.88889 52.3329 8.88889 53.1544 8.88889C55.0148 19.6444 56.8752 30.4 58.7919 41.4815C59.0577 27.7926 59.3235 14.1037 59.5973 0ZM55.5705 41.4815C56.3758 43.7037 56.3758 43.7037 56.3758 43.7037L55.5705 41.4815ZM64.4295 41.4815C65.2349 43.7037 65.2349 43.7037 65.2349 43.7037L64.4295 41.4815ZM52.349 42.2222C53.1544 43.7037 53.1544 43.7037 53.1544 43.7037L52.349 42.2222ZM67.651 42.2222C68.4564 43.7037 68.4564 43.7037 68.4564 43.7037L67.651 42.2222ZM49.1275 42.963C49.9329 44.4444 49.9329 44.4444 49.9329 44.4444L49.1275 42.963ZM70.8725 42.963C71.6778 44.4444 71.6779 44.4444 71.6779 44.4444L70.8725 42.963ZM49.1275 75.5555C49.9329 77.037 49.9329 77.037 49.9329 77.037L49.1275 75.5555ZM70.8725 75.5555C71.6778 77.037 71.6779 77.037 71.6779 77.037L70.8725 75.5555ZM52.349 76.2963C53.1544 77.7778 53.1544 77.7778 53.1544 77.7778L52.349 76.2963ZM55.5705 76.2963C56.3758 78.5185 56.3758 78.5185 56.3758 78.5185L55.5705 76.2963ZM64.4295 76.2963C65.2349 78.5185 65.2349 78.5185 65.2349 78.5185L64.4295 76.2963ZM67.651 76.2963C68.4564 77.7778 68.4564 77.7778 68.4564 77.7778L67.651 76.2963Z" fill="#FB8600"/>
<path d="M59.5973 0C60.1289 0 60.6604 0 61.2081 0C61.3506 6.90249 61.4843 13.8051 61.6065 20.7079C61.6636 23.9131 61.7237 27.1183 61.7909 30.3234C61.8555 33.4163 61.9122 36.5093 61.9632 39.6025C61.984 40.7827 62.0078 41.9629 62.0346 43.1429C62.0716 44.7957 62.0982 46.4482 62.1224 48.1011C62.1402 49.042 62.1581 49.9829 62.1766 50.9523C62.0223 53.2033 61.7017 54.4184 60.4027 56.2963C59.8711 56.2963 59.3396 56.2963 58.792 56.2963C58.5262 56.7852 58.2604 57.2741 57.9866 57.7778C56.543 57.6934 55.1002 57.5989 53.6577 57.5C52.4524 57.4227 52.4524 57.4227 51.2227 57.3438C49.1275 57.037 49.1275 57.037 47.5168 55.5556C49.1114 55.1889 49.1114 55.1889 50.7383 54.8148C50.2181 54.5074 49.698 54.1999 49.1621 53.8831C43.7404 50.6223 38.4846 47.1932 33.2718 43.6574C32.6413 43.23 32.0108 42.8026 31.3612 42.3622C27.0313 39.4114 22.7637 36.3922 18.5235 33.3333C18.7893 32.8444 19.055 32.3556 19.3289 31.8519C23.3569 33.0294 26.3054 35.2442 29.5973 37.5926C34.1255 40.7742 38.6721 43.8603 43.4899 46.6667C43.1411 46.3716 42.7923 46.0766 42.4329 45.7726C41.9844 45.3801 41.5359 44.9877 41.0738 44.5833C40.6253 44.1966 40.1768 43.8099 39.7148 43.4115C38.6577 42.2222 38.6577 42.2222 38.6577 40C41.3605 40.4439 42.989 41.3676 45.1007 42.963C44.702 42.5199 44.3034 42.0769 43.8926 41.6204C42.6846 40 42.6846 40 42.6846 37.7778C45.0245 38.7425 46.5578 39.7843 48.3221 41.4815C46.7407 38.5537 45.1571 35.627 43.5713 32.7012C43.0153 31.6749 42.4596 30.6483 41.9044 29.6215C38.3768 23.1009 34.832 16.5968 30.8874 10.278C28.9449 7.05134 28.9449 7.05134 29.2198 4.8669C29.4108 4.48304 29.6018 4.09919 29.7987 3.7037C31.9183 5.4433 33.0416 7.19643 34.2817 9.53704C34.669 10.2606 35.0564 10.9842 35.4555 11.7298C35.8644 12.5034 36.2733 13.277 36.6946 14.0741C37.5564 15.6825 38.4195 17.2903 39.2838 18.8976C39.7166 19.7029 40.1493 20.5082 40.5952 21.3379C42.485 24.8199 44.4361 28.2706 46.4094 31.713C46.7422 32.2959 47.075 32.8788 47.4179 33.4795C48.7138 35.7336 50.003 37.8745 51.5436 40C51.3692 39.5082 51.1948 39.0165 51.0151 38.5098C50.7909 37.8558 50.5666 37.2017 50.3356 36.5278C50.1113 35.8832 49.8871 35.2387 49.656 34.5747C49.1287 32.5971 49.0322 30.9156 49.1275 28.8889C49.6591 28.8889 50.1906 28.8889 50.7383 28.8889C52.0671 32.3111 53.396 35.7333 54.7651 39.2593C53.8475 32.1832 52.8181 25.1538 51.5159 18.1284C50.9545 15.0086 50.6169 12.0654 50.7383 8.88889C51.5356 8.88889 52.3329 8.88889 53.1544 8.88889C55.0148 19.6444 56.8752 30.4 58.7919 41.4815C59.0577 27.7926 59.3235 14.1037 59.5973 0ZM55.5705 41.4815C56.3758 43.7037 56.3758 43.7037 56.3758 43.7037L55.5705 41.4815ZM52.349 42.2222C53.1544 43.7037 53.1544 43.7037 53.1544 43.7037L52.349 42.2222ZM49.1275 42.963C49.9329 44.4444 49.9329 44.4444 49.9329 44.4444L49.1275 42.963Z" fill="#FB8600"/>
<path d="M82.953 16.2963C83.7503 16.2963 84.5477 16.2963 85.3691 16.2963C84.2569 19.611 82.8329 22.6163 81.1346 25.7118C80.8867 26.1659 80.6387 26.62 80.3832 27.0878C79.5985 28.5229 78.8094 29.9559 78.0201 31.3889C77.484 32.3677 76.9481 33.3467 76.4125 34.3258C75.1062 36.7126 73.7958 39.0975 72.4832 41.4815C74.5789 39.6241 76.3882 37.776 78.0485 35.5787C78.4632 35.0335 78.8779 34.4883 79.3053 33.9265C79.7283 33.3641 80.1514 32.8017 80.5872 32.2222C81.4352 31.1031 82.2836 29.9843 83.1323 28.8657C83.5041 28.3726 83.8758 27.8794 84.2588 27.3712C84.6252 26.8943 84.9916 26.4173 85.3691 25.9259C85.9865 25.1016 85.9865 25.1016 86.6163 24.2607C87.0021 23.8325 87.3878 23.4042 87.7852 22.963C88.3168 22.963 88.8483 22.963 89.396 22.963C88.9525 25.7384 88.2021 27.4874 86.3916 29.7367C85.9436 30.2996 85.4956 30.8625 85.0341 31.4424C84.3279 32.3097 84.3279 32.3097 83.6074 33.1944C83.1521 33.764 82.6969 34.3336 82.2279 34.9204C80.867 36.6194 79.4961 38.3109 78.1208 40C77.6519 40.5761 77.1831 41.1523 76.7 41.7459C75.5641 43.1401 74.427 44.5334 73.2886 45.9259C74.0859 46.4148 74.8832 46.9037 75.7047 47.4074C78.0242 46.4048 80.0265 45.2609 82.0784 43.8513C82.6843 43.4374 83.2901 43.0235 83.9143 42.5971C84.5605 42.1526 85.2067 41.708 85.8725 41.25C87.249 40.31 88.6259 39.3706 90.0032 38.4317C90.704 37.9536 91.4049 37.4754 92.1271 36.9828C97.1106 33.5976 102.14 30.2706 107.174 26.9495C108.153 26.3031 109.132 25.6556 110.109 25.0065C111.255 24.2448 112.406 23.4879 113.557 22.7315C114.155 22.3371 114.753 21.9428 115.369 21.5365C116.779 20.7407 116.779 20.7407 118.389 20.7407C118.285 22.0168 118.285 22.0168 117.584 23.7037C116.013 24.9165 114.5 25.9497 112.802 26.9907C111.77 27.6459 110.738 28.3018 109.706 28.9583C109.155 29.3059 108.604 29.6535 108.036 30.0116C105.028 31.9262 102.072 33.9053 99.1107 35.8796C98.5057 36.2817 97.9006 36.6839 97.2772 37.0982C91.407 41.0013 85.5653 44.9399 79.7315 48.8889C80.1336 48.7094 80.5357 48.5299 80.95 48.3449C82.7731 47.5341 84.5996 46.73 86.4262 45.9259C87.0589 45.6433 87.6917 45.3606 88.3437 45.0694C89.2585 44.6684 89.2585 44.6684 90.1919 44.2593C90.7528 44.011 91.3138 43.7627 91.8917 43.5069C93.4228 42.963 93.4228 42.963 95.8389 42.963C95.8389 43.6963 95.8389 44.4296 95.8389 45.1852C91.055 47.3852 86.2711 49.5852 81.3423 51.8519C84.5814 50.981 84.5814 50.981 87.8859 50.0926C88.5567 49.9127 89.2275 49.7328 89.9186 49.5475C92.5502 48.8377 95.1565 48.1094 97.7517 47.2917C99.9244 46.6493 101.626 46.5441 103.893 46.6667C103.627 47.4 103.361 48.1333 103.087 48.8889C101.148 49.6852 101.148 49.6851 98.6042 50.4022C97.6984 50.6624 96.7926 50.9226 95.8594 51.1907C94.9058 51.4547 93.9523 51.7187 92.9698 51.9907C92.0131 52.2634 91.0564 52.536 90.0708 52.8168C87.7009 53.4909 85.3273 54.1539 82.953 54.8148C88.1356 54.4481 88.1356 54.4481 93.4228 54.0741C93.4228 54.8074 93.4228 55.5407 93.4228 56.2963C89.1705 57.0296 84.9181 57.763 80.5369 58.5185C85.5866 58.763 90.6362 59.0074 95.8389 59.2593C95.8389 59.5037 95.8389 59.7481 95.8389 60C85.2081 60 74.5772 60 63.6242 60C64.4215 59.2667 65.2188 58.5333 66.0403 57.7778C66.8376 57.7778 67.6349 57.7778 68.4564 57.7778C68.4564 57.2889 68.4564 56.8 68.4564 56.2963C69.2537 55.9296 69.2537 55.9296 70.0671 55.5556C67.6818 56.0095 66.5391 56.4842 64.4295 57.7778C64.0309 56.6778 64.0309 56.6778 63.6242 55.5556C62.8269 55.9222 62.8269 55.9222 62.0134 56.2963C63.2333 50.3802 65.3702 44.888 67.651 39.2593C68.1826 39.7481 68.7141 40.237 69.2617 40.7407C73.7799 32.6741 78.298 24.6074 82.953 16.2963ZM67.651 42.2222C68.4564 43.7037 68.4564 43.7037 68.4564 43.7037L67.651 42.2222ZM70.8725 42.963C71.6778 44.4444 71.6779 44.4444 71.6779 44.4444L70.8725 42.963Z" fill="#FB8600"/>
<path d="M0 31.1111C3.5748 31.5656 6.46055 32.8572 9.61095 34.3924C10.4161 34.7773 10.4161 34.7773 11.2376 35.17C12.9807 36.0042 14.7202 36.8446 16.4597 37.6852C18.8611 38.8378 21.2641 39.9875 23.6672 41.1372C24.2616 41.4221 24.8559 41.707 25.4683 42.0005C31.272 44.777 37.1263 47.455 43.0163 50.0734C46.4629 51.6298 49.4521 53.189 52.349 55.5556C50.7544 55.9222 50.7544 55.9222 49.1275 56.2963C49.1275 56.7852 49.1275 57.2741 49.1275 57.7778C49.9248 58.0222 50.7222 58.2667 51.5436 58.5185C50.7463 58.763 49.949 59.0074 49.1275 59.2593C51.5195 59.5037 53.9114 59.7481 56.3758 60C54.7812 60.7333 54.7812 60.7333 53.1544 61.4815C52.3571 62.2148 52.3571 62.2148 51.5436 62.963C51.5436 63.4519 51.5436 63.9407 51.5436 64.4445C50.7536 64.8035 49.9635 65.1625 49.1495 65.5324C42.8253 68.4183 36.5466 71.3569 30.3616 74.4893C26.749 76.2963 26.749 76.2963 24.9664 76.2963C24.9664 75.8074 24.9664 75.3185 24.9664 74.8148C29.7503 72.6148 34.5342 70.4148 39.4631 68.1481C34.4505 69.572 34.4505 69.572 29.4416 71.0068C25.2486 72.1807 21.2785 72.9627 16.9128 73.3333C17.1785 72.6 17.4443 71.8667 17.7181 71.1111C19.6578 70.3148 19.6578 70.3148 22.2011 69.5978C23.1069 69.3376 24.0127 69.0774 24.946 68.8093C25.8996 68.5453 26.8531 68.2813 27.8356 68.0093C28.7922 67.7366 29.7489 67.464 30.7346 67.1832C33.1045 66.5091 35.4781 65.8461 37.8523 65.1852C32.6698 65.5518 32.6698 65.5518 27.3826 65.9259C27.3826 65.1926 27.3826 64.4593 27.3826 63.7037C31.6349 62.9704 35.8872 62.237 40.2685 61.4815C35.2188 61.237 30.1691 60.9926 24.9664 60.7407C24.9664 60.2519 24.9664 59.763 24.9664 59.2593C30.0161 59.0148 35.0658 58.7704 40.2685 58.5185C32.0295 57.2963 23.7906 56.0741 15.302 54.8148C15.0362 54.0815 14.7705 53.3481 14.4966 52.5926C20.2886 52.9392 26.0315 53.4215 31.7869 54.103C32.3743 54.1716 32.9616 54.2402 33.5667 54.3108C34.9954 54.4777 36.4239 54.6461 37.8523 54.8148C37.4221 54.6865 36.9918 54.5583 36.5485 54.4261C32.0801 53.0937 27.6124 51.7598 23.1449 50.4248C21.4764 49.9265 19.8077 49.4285 18.1389 48.931C15.7436 48.2169 13.3489 47.5012 10.9543 46.7853C9.83049 46.4508 9.83049 46.4508 8.68399 46.1095C7.99078 45.9019 7.29756 45.6944 6.58334 45.4805C5.9717 45.2979 5.36007 45.1153 4.7299 44.9272C3.22148 44.4444 3.22148 44.4444 1.61074 43.7037C1.61074 42.9704 1.61074 42.237 1.61074 41.4815C9.61989 43.1431 17.309 45.4806 25.0671 47.9167C26.8808 48.4845 28.6948 49.0513 30.5098 49.6155C31.6293 49.9636 32.7479 50.3138 33.8656 50.6665C36.6029 51.5555 36.6029 51.5555 39.4631 51.8519C34.3608 49.4525 29.2584 47.0533 24.156 44.6542C22.4201 43.8381 20.6844 43.0218 18.9486 42.2056C16.4538 41.0324 13.9589 39.8593 11.4639 38.6863C10.6878 38.3213 9.9117 37.9563 9.11207 37.5802C8.38672 37.2392 7.66138 36.8983 6.91406 36.5469C5.95905 36.0979 5.95905 36.0979 4.98475 35.6398C3.3268 34.8641 1.66484 34.0964 0 33.3333C0 32.6 0 31.8667 0 31.1111Z" fill="#FB8600"/>
<path d="M66.8456 60.7407C74.9531 60.3702 82.7377 61.7492 90.7047 62.963C92.1423 63.1776 93.58 63.3917 95.0178 63.6053C98.5141 64.1259 102.009 64.6535 105.503 65.1852C105.902 66.2852 105.902 66.2852 106.309 67.4074C100.517 67.0608 94.7739 66.5785 89.0185 65.897C88.4311 65.8284 87.8438 65.7598 87.2386 65.6892C85.8099 65.5223 84.3815 65.3539 82.953 65.1852C83.3833 65.3135 83.8136 65.4417 84.2569 65.5739C88.7252 66.9063 93.193 68.2402 97.6604 69.5752C99.329 70.0735 100.998 70.5715 102.666 71.069C105.062 71.7831 107.456 72.4988 109.851 73.2147C110.6 73.4377 111.349 73.6607 112.121 73.8905C112.815 74.0981 113.508 74.3056 114.222 74.5195C114.834 74.7021 115.445 74.8847 116.075 75.0728C117.584 75.5556 117.584 75.5556 119.195 76.2963C119.195 77.0296 119.195 77.763 119.195 78.5185C111.185 76.8569 103.496 74.5194 95.7383 72.0833C93.9246 71.5155 92.1106 70.9486 90.2955 70.3845C89.1761 70.0364 88.0575 69.6862 86.9397 69.3335C84.2025 68.4445 84.2025 68.4445 81.3423 68.1481C82.0153 68.4634 82.0153 68.4634 82.7019 68.785C87.3667 70.9703 92.0305 73.1575 96.6936 75.3458C98.4347 76.1625 100.176 76.9787 101.918 77.7944C104.419 78.9662 106.92 80.1398 109.42 81.3137C110.2 81.6787 110.981 82.0437 111.785 82.4198C112.51 82.7607 113.235 83.1017 113.983 83.453C114.621 83.7524 115.26 84.0518 115.917 84.3602C117.584 85.1852 117.584 85.1852 120 86.6667C120 87.4 120 88.1333 120 88.8889C116.489 87.8947 113.348 86.635 110.096 85.0666C109.624 84.8398 109.151 84.613 108.664 84.3794C107.658 83.8965 106.652 83.4121 105.647 82.9265C103.555 81.9156 101.458 80.9129 99.361 79.9098C97.8055 79.1657 96.2504 78.4206 94.6954 77.6754C90.9253 75.8707 87.1476 74.0806 83.3557 72.3148C82.7891 72.0464 82.2225 71.7781 81.6388 71.5016C78.8632 70.2159 76.3648 69.3098 73.2886 68.8889C69.7994 67.791 66.7299 66.2572 63.6242 64.4445C63.3584 63.7111 63.0926 62.9778 62.8188 62.2222C64.1477 62.2222 65.4765 62.2222 66.8456 62.2222C66.8456 61.7333 66.8456 61.2444 66.8456 60.7407Z" fill="#FB8600"/>
<path d="M63.6242 65.9259C65.9622 67.9257 67.5363 69.7751 68.9912 72.3843C69.3755 73.0674 69.7598 73.7504 70.1558 74.4542C70.5584 75.1843 70.961 75.9144 71.3758 76.6667C71.7997 77.4245 72.2236 78.1823 72.6604 78.963C75.7085 84.4282 78.7059 89.9173 81.6614 95.4253C83.2822 98.4355 84.9449 101.413 86.703 104.358C87.0454 104.934 87.3878 105.51 87.7406 106.104C88.3904 107.191 89.0484 108.273 89.7159 109.35C91.883 112.977 91.883 112.977 91.4859 114.973C91.3278 115.409 91.1696 115.846 91.0067 116.296C88.887 114.557 87.7638 112.804 86.5237 110.463C86.1363 109.739 85.749 109.016 85.3499 108.27C84.7365 107.11 84.7365 107.11 84.1107 105.926C83.249 104.318 82.3859 102.71 81.5216 101.102C81.0888 100.297 80.656 99.4918 80.2101 98.6621C78.3204 95.1801 76.3693 91.7294 74.396 88.287C73.8968 87.4126 73.8968 87.4126 73.3875 86.5205C72.0915 84.2664 70.8024 82.1255 69.2617 80C69.4362 80.4918 69.6106 80.9835 69.7903 81.4902C70.0145 82.1442 70.2388 82.7983 70.4698 83.4722C70.694 84.1168 70.9183 84.7613 71.1493 85.4253C71.6767 87.4029 71.7731 89.0844 71.6779 91.1111C71.1463 91.1111 70.6148 91.1111 70.0671 91.1111C68.7383 87.6889 67.4094 84.2667 66.0403 80.7407C66.1565 81.5361 66.2728 82.3315 66.3926 83.151C66.5438 84.2149 66.6948 85.2787 66.8456 86.3426C66.9225 86.8644 66.9993 87.3863 67.0784 87.9239C67.5436 91.2398 67.7274 94.4345 67.651 97.7778C67.3852 97.7778 67.1195 97.7778 66.8456 97.7778C65.3819 91.4761 64.121 85.1674 63.0705 78.7963C62.9648 78.1649 62.8591 77.5335 62.7502 76.883C61.4646 68.9053 61.4646 68.9053 63.6242 65.9259ZM64.4295 76.2963C65.2349 78.5185 65.2349 78.5185 65.2349 78.5185L64.4295 76.2963ZM67.651 76.2963C68.4564 77.7778 68.4564 77.7778 68.4564 77.7778L67.651 76.2963Z" fill="#FB8600"/>
<path d="M65.2349 65.1852C66.5772 65.679 67.9195 66.1728 69.2617 66.6667C70.2086 67.0104 70.2086 67.0104 71.1745 67.3611C71.8721 67.6208 72.5698 67.8806 73.2886 68.1481C74.1617 68.4613 75.0348 68.7745 75.9344 69.0972C78.9177 70.2786 81.2716 71.8742 83.8087 73.75C88.1147 76.8969 92.5197 79.8659 97.0519 82.7317C99.3098 84.1831 100.733 85.2702 102.282 87.4074C98.4166 87.4074 96.774 86.1604 93.8255 84.1204C93.3354 83.7896 92.8452 83.4589 92.3402 83.1181C90.8157 82.0862 89.2998 81.0442 87.7852 80C86.8227 79.3411 85.86 78.6824 84.8972 78.0237C82.631 76.4692 80.3735 74.9044 78.1208 73.3333C78.6399 73.9091 79.159 74.4849 79.6938 75.0781C81.1975 76.865 81.7964 77.8193 82.1477 80C79.4449 79.5561 77.8164 78.6324 75.7047 77.037C76.1034 77.4801 76.502 77.9231 76.9128 78.3796C78.1208 80 78.1208 80 78.1208 82.2222C74.5237 81.0912 72.8394 78.4454 70.7718 75.6944C70.4157 75.2375 70.0596 74.7806 69.6927 74.3099C65.2349 68.4818 65.2349 68.4818 65.2349 65.1852Z" fill="#FB8600"/>
<path d="M57.9866 63.7037C61.1652 71.4995 52.9743 86.3232 50.2988 93.8486C49.4703 96.1844 48.6545 98.5239 47.8392 100.864C47.312 102.356 46.784 103.847 46.2552 105.339C45.8927 106.384 45.8927 106.384 45.5229 107.45C45.2916 108.093 45.0603 108.737 44.8221 109.401C44.6225 109.965 44.423 110.53 44.2174 111.112C43.424 112.727 42.5104 113.651 41.0738 114.815C40.1724 112.328 40.3436 111.831 41.2121 109.44C41.4379 108.807 41.6637 108.174 41.8963 107.523C42.1471 106.842 42.3979 106.161 42.6562 105.46C42.9077 104.76 43.1591 104.059 43.4181 103.338C44.2239 101.097 45.0393 98.8584 45.8557 96.6204C46.6675 94.3792 47.4774 92.1375 48.2847 89.8949C48.7881 88.4983 49.2944 87.1026 49.8039 85.7079C50.1464 84.7623 50.1464 84.7623 50.4958 83.7976C50.6986 83.2417 50.9013 82.6859 51.1102 82.1132C51.6185 80.7418 51.6185 80.7418 51.5436 79.2593C48.6201 84.3926 45.6966 89.5259 42.6846 94.8148C41.8792 92.5926 41.8792 92.5926 42.7461 90.5657C43.4148 89.3576 43.4149 89.3576 44.0971 88.125C44.3371 87.6871 44.577 87.2492 44.8242 86.7981C45.5968 85.3926 46.3806 83.9927 47.1644 82.5926C47.6711 81.6728 48.1771 80.7526 48.6824 79.8322C51.6749 74.4012 54.7776 69.0294 57.9866 63.7037ZM52.349 76.2963C53.1544 77.7778 53.1544 77.7778 53.1544 77.7778L52.349 76.2963Z" fill="#FB8600"/>
<path d="M118.389 20.7407C118.285 22.0168 118.285 22.0168 117.584 23.7037C116.013 24.9165 114.5 25.9497 112.802 26.9907C111.765 27.6489 110.729 28.3076 109.694 28.967C108.866 29.4889 108.866 29.4889 108.022 30.0213C105.087 31.8881 102.201 33.8157 99.3121 35.7407C98.713 36.1387 98.1139 36.5367 97.4967 36.9468C89.3785 42.3466 81.2984 47.7983 73.2886 53.3333C72.7571 53.0889 72.2255 52.8444 71.6779 52.5926C70.5982 52.8168 69.5243 53.0655 68.4564 53.3333C67.6591 53.3333 66.8617 53.3333 66.0403 53.3333C66.5611 52.3384 67.1026 51.3527 67.651 50.3704C67.9666 49.6982 68.2822 49.0259 68.6074 48.3333C69.0891 47.7833 69.5708 47.2333 70.0671 46.6667C72.9866 46.3889 72.9866 46.3889 75.7047 46.6667C75.9705 46.9111 76.2362 47.1556 76.5101 47.4074C76.8733 47.1661 77.2365 46.9249 77.6108 46.6763C78.1258 46.3341 78.6409 45.992 79.1716 45.6395C79.7511 45.2545 80.3307 44.8695 80.9278 44.4728C82.2276 43.6095 83.5274 42.7461 84.8272 41.8828C88.7663 39.2665 92.7044 36.649 96.6416 34.0303C98.4411 32.8343 100.242 31.6398 102.043 30.4456C104.321 28.9351 106.594 27.4184 108.863 25.897C109.891 25.2121 110.919 24.5273 111.946 23.8426C112.649 23.3682 112.649 23.3682 113.366 22.8843C116.596 20.7407 116.596 20.7407 118.389 20.7407Z" fill="#FB8600"/>
<path d="M50.7383 60.7407C51.1369 62.5741 51.1369 62.5741 51.5436 64.4445C50.7536 64.8035 49.9635 65.1625 49.1495 65.5324C42.8253 68.4183 36.5466 71.3569 30.3616 74.4893C26.749 76.2963 26.749 76.2963 24.9664 76.2963C24.9664 75.8074 24.9664 75.3185 24.9664 74.8148C29.7503 72.6148 34.5342 70.4148 39.4631 68.1481C34.4505 69.572 34.4505 69.572 29.4416 71.0068C25.2486 72.1807 21.2785 72.9627 16.9128 73.3333C17.1785 72.6 17.4443 71.8667 17.7181 71.1111C19.6578 70.3148 19.6578 70.3148 22.2011 69.5978C23.1069 69.3376 24.0127 69.0774 24.946 68.8093C26.3763 68.4133 26.3763 68.4133 27.8356 68.0093C28.7922 67.7366 29.7489 67.464 30.7346 67.1832C33.1045 66.5091 35.4781 65.8461 37.8523 65.1852C32.6698 65.5518 32.6698 65.5518 27.3826 65.9259C27.3826 65.1926 27.3826 64.4593 27.3826 63.7037C29.4294 63.3482 31.4764 62.9934 33.5235 62.6389C34.0976 62.5391 34.6717 62.4393 35.2632 62.3365C40.4777 61.4345 45.4035 60.6426 50.7383 60.7407Z" fill="#FB8600"/>
<path d="M62.8188 62.2222C66.8046 62.6308 69.9617 63.8387 73.4774 65.5237C74.0235 65.7787 74.5695 66.0337 75.1322 66.2964C76.8699 67.1087 78.603 67.9287 80.3356 68.75C89.7836 73.2405 89.7836 73.2405 99.5579 77.0766C103.396 78.4793 107.085 80.175 110.789 81.8519C111.591 82.2023 112.393 82.5527 113.219 82.9138C113.979 83.2585 114.74 83.6032 115.523 83.9583C116.21 84.2653 116.897 84.5723 117.605 84.8886C119.195 85.9259 119.195 85.9259 119.827 87.5304C119.884 87.9787 119.941 88.427 120 88.8889C116.489 87.8947 113.348 86.635 110.096 85.0666C109.624 84.8398 109.151 84.613 108.664 84.3794C107.658 83.8965 106.652 83.4121 105.647 82.9265C103.555 81.9156 101.458 80.9129 99.361 79.9098C97.8055 79.1657 96.2504 78.4206 94.6954 77.6754C90.9253 75.8707 87.1476 74.0806 83.3557 72.3148C82.7891 72.0464 82.2225 71.7781 81.6388 71.5016C78.8632 70.2159 76.3648 69.3098 73.2886 68.8889C69.7994 67.791 66.7299 66.2572 63.6242 64.4445C63.3584 63.7111 63.0926 62.9778 62.8188 62.2222Z" fill="#FB8600"/>
<path d="M14.4966 52.5926C21.7262 52.9782 28.807 53.778 35.9463 54.8902C37.5756 55.1428 39.2066 55.3849 40.8379 55.6264C42.3905 55.8649 42.3905 55.8649 43.9744 56.1082C44.9073 56.2509 45.8403 56.3936 46.8015 56.5406C49.1275 57.037 49.1275 57.037 51.5436 58.5185C50.7463 58.763 49.949 59.0074 49.1275 59.2593C51.5195 59.5037 53.9114 59.7481 56.3758 60C52.8515 61.6208 50.4703 61.615 46.6737 61.4641C46.0526 61.4456 45.4315 61.427 44.7915 61.4079C42.8137 61.3472 40.8365 61.2756 38.8591 61.2037C37.5158 61.1605 36.1724 61.1181 34.8291 61.0764C31.5411 60.9728 28.2538 60.8593 24.9664 60.7407C24.9664 60.2519 24.9664 59.763 24.9664 59.2593C30.0161 59.0148 35.0658 58.7704 40.2685 58.5185C32.0295 57.2963 23.7906 56.0741 15.302 54.8148C15.0362 54.0815 14.7705 53.3481 14.4966 52.5926Z" fill="#FB8600"/>
<path d="M0 31.1111C3.5748 31.5656 6.46055 32.8572 9.61095 34.3924C10.4161 34.7773 10.4161 34.7773 11.2376 35.17C12.9807 36.0042 14.7202 36.8446 16.4597 37.6852C18.8611 38.8378 21.2641 39.9875 23.6672 41.1372C24.2616 41.4221 24.8559 41.707 25.4683 42.0005C31.272 44.777 37.1263 47.455 43.0163 50.0734C46.4629 51.6298 49.4521 53.189 52.349 55.5556C49.0281 55.0938 46.4251 54.0762 43.4333 52.6881C42.5125 52.2627 41.5916 51.8373 40.6428 51.399C40.1683 51.177 39.6937 50.9549 39.2047 50.7261C37.7529 50.0468 36.2976 49.374 34.8417 48.7023C27.7567 45.4146 27.7567 45.4146 24.9664 43.7037C23.912 43.3631 22.8458 43.0523 21.7733 42.7633C17.076 41.3722 12.7878 39.3356 8.40604 37.2685C7.59367 36.8899 6.7813 36.5113 5.94432 36.1212C3.96058 35.196 1.97926 34.2666 0 33.3333C0 32.6 0 31.8667 0 31.1111Z" fill="#FB8600"/>
<path d="M78.9262 5.18519C79.4577 5.42963 79.9893 5.67407 80.5369 5.92593C78.7202 13.3179 76.1825 20.426 73.5403 27.5926C73.1241 28.7296 72.7083 29.8668 72.2929 31.0041C71.2864 33.757 70.2754 36.5085 69.2618 39.2593C68.7302 39.2593 68.1987 39.2593 67.651 39.2593C67.1195 41.4593 66.5879 43.6593 66.0403 45.9259C65.243 45.6815 64.4456 45.437 63.6242 45.1852C63.9683 44.3614 64.3123 43.5377 64.6669 42.689C66.1324 39.0923 67.4146 35.449 68.686 31.7911C69.1845 30.3689 69.6832 28.9467 70.182 27.5246C70.9593 25.3029 71.7355 23.0809 72.5094 20.8581C73.2618 18.699 74.0189 16.5413 74.7766 14.3837C75.0074 13.717 75.2381 13.0504 75.4759 12.3635C75.6937 11.7451 75.9115 11.1267 76.1359 10.4895C76.3253 9.94651 76.5148 9.40347 76.71 8.84398C77.3154 7.40741 77.3154 7.40741 78.9262 5.18519Z" fill="#FB8600"/>
<path d="M50.7383 8.88889C51.5356 8.88889 52.3329 8.88889 53.1544 8.88889C54.0746 14.1225 54.9919 19.3564 55.9071 24.5907C56.2189 26.3721 56.5314 28.1533 56.8446 29.9344C57.2941 32.4917 57.7413 35.0493 58.1879 37.6071C58.3289 38.4057 58.4698 39.2044 58.615 40.0273C58.744 40.7686 58.873 41.51 59.0059 42.2738C59.1203 42.9268 59.2348 43.5798 59.3527 44.2526C59.5973 45.9259 59.5973 45.9259 59.5973 48.1482C59.0658 48.1482 58.5342 48.1482 57.9866 48.1482C57.9866 47.1704 57.9866 46.1926 57.9866 45.1852C57.455 45.1852 56.9235 45.1852 56.3758 45.1852C55.568 40.7311 54.7653 36.2763 53.9672 31.8207C53.6952 30.306 53.4217 28.7915 53.1469 27.2772C52.7514 25.097 52.361 22.9161 51.9715 20.735C51.8482 20.0612 51.7249 19.3874 51.5978 18.6932C51.0121 15.3861 50.5909 12.2537 50.7383 8.88889Z" fill="#FB8600"/>
<path d="M33.0201 76.2963C33.5517 76.5407 34.0832 76.7852 34.6309 77.037C32.6348 80.9619 29.4294 82.8378 25.6711 85.2315C25.0353 85.6442 24.3994 86.0568 23.7442 86.482C22.4127 87.3454 21.0791 88.206 19.7433 89.0639C17.7428 90.3545 15.7562 91.6615 13.7731 92.9745C12.5379 93.7888 11.3026 94.6028 10.0671 95.4167C9.1933 95.9961 9.1933 95.9961 8.30183 96.5873C4.21053 99.2593 4.21053 99.2593 2.41611 99.2593C2.51992 97.9832 2.51992 97.9832 3.22148 96.2963C4.7926 95.0835 6.30571 94.0503 8.00336 93.0093C9.02526 92.3608 10.0466 91.7117 11.0675 91.0619C11.6175 90.7152 12.1675 90.3685 12.7341 90.0112C15.9215 87.9816 19.0571 85.886 22.198 83.7963C22.811 83.391 23.4239 82.9857 24.0555 82.5682C27.1078 80.5443 30.1088 78.4915 33.0201 76.2963Z" fill="#FB8600"/>
<path d="M29.7987 3.7037C31.9614 5.47101 33.0958 7.28814 34.3666 9.66725C34.7666 10.4101 35.1665 11.153 35.5786 11.9184C35.9967 12.7062 36.4148 13.4939 36.8456 14.3056C37.2741 15.1038 37.7026 15.9021 38.1441 16.7245C38.9988 18.3167 39.8516 19.9097 40.7026 21.5035C42.2209 24.3426 43.7592 27.1722 45.302 30C46.0403 31.358 46.7785 32.7161 47.5168 34.0741C45.3883 33.6175 43.9124 33.1016 42.5617 31.4741C41.6109 29.9673 40.7438 28.4393 39.8972 26.8808C39.5793 26.3145 39.2613 25.7481 38.9337 25.1646C38.2657 23.9682 37.6041 22.7689 36.9483 21.5668C35.9419 19.7264 34.9122 17.8984 33.879 16.0706C33.2326 14.9061 32.5877 13.741 31.9442 12.5752C31.6356 12.0281 31.327 11.4809 31.009 10.9172C29.5233 8.16292 28.733 6.64258 29.7987 3.7037Z" fill="#FB8600"/>
<path d="M42.6846 37.7778C46.4073 38.9138 48.0287 41.6941 50.1342 44.537C50.5038 45.025 50.8734 45.5129 51.2542 46.0156C52.1623 47.2163 53.0619 48.4224 53.9597 49.6296C53.694 50.1185 53.4282 50.6074 53.1544 51.1111C52.8886 51.1111 52.6228 51.1111 52.349 51.1111C52.8639 51.325 53.3789 51.5389 53.9094 51.7593C55.5705 52.5926 55.5705 52.5926 56.3758 54.0741C55.8443 54.563 55.3128 55.0519 54.7651 55.5556C54.1142 54.9397 53.4632 54.3238 52.7926 53.6892C51.9235 52.876 51.0541 52.0629 50.1846 51.25C49.7574 50.8447 49.3302 50.4393 48.89 50.0217C46.4476 47.7477 44.1538 45.9855 41.0738 44.4444C39.6141 43.3333 39.6141 43.3333 38.6577 42.2222C38.6577 41.4889 38.6577 40.7556 38.6577 40C41.3605 40.4439 42.989 41.3676 45.1007 42.963C44.702 42.5199 44.3034 42.0769 43.8926 41.6204C42.6846 40 42.6846 40 42.6846 37.7778Z" fill="#FB8600"/>
<path d="M66.8456 15.5556C67.643 15.8 68.4403 16.0444 69.2617 16.2963C69.1398 17.0398 69.0178 17.7834 68.8921 18.5494C68.4389 21.3169 67.9895 24.0849 67.5413 26.8531C67.347 28.0495 67.1517 29.2457 66.9554 30.4418C66.6727 32.1643 66.3939 33.8874 66.1158 35.6105C65.9837 36.4082 65.9837 36.4082 65.8489 37.222C65.4193 39.907 65.2268 42.4762 65.2349 45.1852C64.9691 45.6741 64.7034 46.163 64.4295 46.6667C63.898 46.6667 63.3664 46.6667 62.8188 46.6667C62.6079 39.9338 63.1764 33.5821 64.3792 26.9444C64.5261 26.0879 64.673 25.2314 64.8244 24.349C65.906 18.1482 65.906 18.1482 66.8456 15.5556Z" fill="#FB8600"/>
<path d="M50.7383 83.7037C53.5107 92.3261 45.7618 105.893 42.6846 114.074C41.8872 114.074 41.0899 114.074 40.2685 114.074C41.9703 107.174 44.3104 100.55 46.8624 93.8889C47.2398 92.8946 47.6168 91.9002 47.9934 90.9057C48.9039 88.5036 49.8196 86.1032 50.7383 83.7037Z" fill="#FB8600"/>
<path d="M73.2886 85.9259C75.7047 86.6667 75.7047 86.6667 77.0889 88.9294C77.5752 89.8692 78.0531 90.8127 78.5235 91.7593C80.1154 95.1726 80.1154 95.1726 82.5102 98.1024C84.9741 100.386 86.3641 103.428 87.9866 106.25C88.3666 106.886 88.7465 107.523 89.138 108.179C89.4931 108.794 89.8481 109.409 90.2139 110.043C90.7033 110.883 90.7033 110.883 91.2026 111.74C91.9111 113.592 91.7232 114.477 91.0067 116.296C88.844 114.529 87.7095 112.712 86.4388 110.333C86.0388 109.59 85.6389 108.847 85.2268 108.082C84.5996 106.9 84.5996 106.9 83.9597 105.694C83.317 104.497 83.317 104.497 82.6612 103.275C81.8066 101.683 80.9537 100.09 80.1028 98.4965C78.5845 95.6574 77.0462 92.8278 75.5034 90C74.7651 88.642 74.0268 87.284 73.2886 85.9259Z" fill="#FB8600"/>
<path d="M87.7852 22.963C88.3168 22.963 88.8483 22.963 89.396 22.963C88.9535 25.7349 88.2108 27.4717 86.3916 29.7107C85.9436 30.2702 85.4956 30.8297 85.0341 31.4063C84.5633 31.9811 84.0925 32.5559 83.6074 33.1482C82.6885 34.2853 81.7709 35.4235 80.8547 36.5625C80.4006 37.1225 79.9465 37.6826 79.4787 38.2596C77.6623 40.5877 76.0159 43.0063 74.3887 45.4492C73.8441 46.0519 73.8441 46.0519 73.2886 46.6667C72.4913 46.6667 71.694 46.6667 70.8725 46.6667C72.055 42.1015 74.9369 38.8908 77.9698 35.2315C78.9653 34.0135 79.9605 32.7954 80.9553 31.577C81.6711 30.7092 81.6711 30.7092 82.4013 29.8239C83.6541 28.2769 84.8473 26.7036 86.0329 25.1129C86.6112 24.4034 87.1895 23.6939 87.7852 22.963Z" fill="#FB8600"/>
<path d="M57.9866 66.6667C58.2523 66.6667 58.5181 66.6667 58.7919 66.6667C58.6784 68.349 58.56 70.0311 58.4396 71.713C58.3742 72.6497 58.3088 73.5864 58.2414 74.5515C57.9866 77.037 57.9866 77.037 57.1812 79.2593C57.1859 80.4942 57.2247 81.7291 57.2819 82.963C57.3662 89.9827 56.3836 97.7563 53.9597 104.444C53.1624 104.2 52.3651 103.956 51.5436 103.704C52.1997 99.6193 52.8585 95.5352 53.5197 91.4515C53.7438 90.0651 53.9672 88.6786 54.1898 87.292C54.5118 85.2874 54.8364 83.2831 55.1615 81.2789C55.2589 80.6691 55.3563 80.0592 55.4566 79.4308C56.1551 75.1466 57.026 70.9076 57.9866 66.6667Z" fill="#FB8600"/>
<path d="M61.2081 71.8519C61.7396 71.8519 62.2711 71.8519 62.8188 71.8519C63.3402 75.0616 63.8598 78.2715 64.3792 81.4815C64.5261 82.3857 64.673 83.29 64.8244 84.2216C65.5538 88.7353 66.2606 93.2462 66.8456 97.7778C67.3772 97.7778 67.9087 97.7778 68.4564 97.7778C68.7299 99.1658 68.9971 100.555 69.2617 101.944C69.4112 102.718 69.5607 103.491 69.7148 104.288C70.0568 106.597 70.1279 108.785 70.0671 111.111C69.2698 111.111 68.4725 111.111 67.651 111.111C66.7308 105.878 65.8135 100.644 64.8983 95.4093C64.5865 93.628 64.274 91.8468 63.9608 90.0657C63.5112 87.5083 63.0641 84.9507 62.6175 82.3929C62.4765 81.5943 62.3356 80.7956 62.1904 79.9727C62.0614 79.2314 61.9324 78.4901 61.7995 77.7262C61.685 77.0732 61.5706 76.4202 61.4527 75.7474C61.2081 74.0741 61.2081 74.0741 61.2081 71.8519Z" fill="#FB8600"/>
<path d="M103.893 46.6667C103.627 47.4 103.361 48.1333 103.087 48.8889C101.141 49.6616 99.2885 50.2831 97.2735 50.8623C96.684 51.0382 96.0946 51.2142 95.4873 51.3955C94.2349 51.767 92.9809 52.1341 91.7256 52.4971C89.8248 53.048 87.9304 53.6147 86.0361 54.184C84.8158 54.5438 83.5952 54.9026 82.3742 55.2604C81.8151 55.4279 81.2561 55.5953 80.6802 55.7678C76.6097 56.9321 72.7037 57.4344 68.4564 57.7778C70.5758 56.4782 72.0223 55.8655 74.3991 55.1794C75.0745 54.9837 75.7498 54.7879 76.4456 54.5862C77.1479 54.3867 77.8502 54.1871 78.5738 53.9815C79.2793 53.7762 79.9847 53.5709 80.7115 53.3594C85.9557 51.8519 85.9557 51.8519 87.7852 51.8519C87.7852 51.363 87.7852 50.8741 87.7852 50.3704C89.7124 49.7461 91.6419 49.1301 93.5738 48.5185C94.3875 48.2535 94.3875 48.2535 95.2176 47.9832C98.2003 47.0465 100.735 46.4411 103.893 46.6667Z" fill="#FB8600"/>
<path d="M118.389 20.7407C118.307 22.0023 118.307 22.0023 117.584 23.7037C115.896 24.9897 114.263 26.1072 112.45 27.2222C111.426 27.8719 110.402 28.522 109.379 29.1725C108.608 29.6569 108.608 29.6569 107.822 30.1512C105.576 31.5761 103.377 33.055 101.175 34.537C100.454 35.0202 99.7335 35.5034 98.9912 36.0012C98.4825 36.343 97.9738 36.6848 97.4497 37.037C97.1839 36.0593 96.9181 35.0815 96.6443 34.0741C99.0926 32.4057 101.543 30.7397 103.993 29.0741C104.683 28.6043 105.372 28.1345 106.082 27.6505C116.256 20.7407 116.256 20.7407 118.389 20.7407Z" fill="#FB8600"/>
<path d="M48.3222 72.5926C48.5879 73.3259 48.8537 74.0593 49.1275 74.8148C48.2015 76.045 47.2694 77.2746 46.2458 78.4375C44.9615 80.0757 44.9615 80.0757 44.009 82.4537C42.6866 85.4076 40.7789 87.7141 38.6074 90.1852C35.7109 93.5403 35.7109 93.5403 33.0201 97.037C32.4886 97.037 31.957 97.037 31.4094 97.037C31.8517 94.282 32.5807 92.5438 34.3855 90.3154C35.0478 89.4866 35.0478 89.4866 35.7235 88.6411C36.1935 88.0659 36.6634 87.4908 37.1477 86.8982C38.1013 85.7092 39.0545 84.52 40.0073 83.3305C40.4679 82.7593 40.9285 82.1882 41.403 81.5998C43.7746 78.6394 46.0495 75.6178 48.3222 72.5926Z" fill="#FB8600"/>
<path d="M53.1544 70.3704C53.4201 70.8593 53.6859 71.3482 53.9597 71.8519C53.0545 73.8182 53.0545 73.8182 51.6569 76.2992C51.4112 76.7416 51.1655 77.1841 50.9124 77.64C50.1222 79.0623 49.3237 80.4805 48.5235 81.8981C45.3194 87.586 42.2881 93.1008 40.2685 99.2593C39.4975 100.756 38.7061 102.245 37.8523 103.704C37.055 103.704 36.2577 103.704 35.4362 103.704C36.7012 99.8065 38.5393 96.3109 40.5233 92.6939C40.8587 92.0771 41.1942 91.4604 41.5398 90.825C42.2457 89.5288 42.9531 88.2333 43.662 86.9385C44.7509 84.949 45.8346 82.9572 46.9175 80.965C47.6046 79.7047 48.292 78.4446 48.9797 77.1846C49.4679 76.2877 49.4679 76.2877 49.966 75.3727C52.2555 71.1971 52.2555 71.1971 53.1544 70.3704Z" fill="#FB8600"/>
<path d="M69.5134 55C69.9619 55.1833 70.4104 55.3667 70.8725 55.5556C70.0752 55.8 69.2779 56.0444 68.4564 56.2963C68.4564 56.7852 68.4564 57.2741 68.4564 57.7778C66.8617 58.5111 66.8618 58.5111 65.2349 59.2593C75.3342 59.5037 85.4336 59.7481 95.8389 60C95.8389 60.2444 95.8389 60.4889 95.8389 60.7407C92.5172 60.8884 89.195 61.0239 85.8725 61.1574C84.9413 61.1989 84.01 61.2405 83.0505 61.2833C77.5617 61.4972 72.2921 61.4272 66.8456 60.7407C67.1114 61.4741 67.3772 62.2074 67.651 62.963C64.9495 62.2598 62.2611 61.5574 59.5973 60.7407C60.9396 59.7531 62.2819 58.7654 63.6242 57.7778C64.3052 57.2125 64.9862 56.6472 65.6879 56.0648C67.651 54.8148 67.651 54.8148 69.5134 55Z" fill="#FB8600"/>
<path d="M1.61074 41.4815C9.64768 43.1525 17.3759 45.4865 25.1678 47.9167C26.404 48.2994 27.6404 48.6818 28.8769 49.064C31.87 49.9897 34.8616 50.9196 37.8524 51.8519C34.643 53.0384 32.049 52.0544 28.9335 51.0966C28.1081 50.8537 28.1081 50.8537 27.266 50.6059C25.5069 50.087 23.7517 49.558 21.9966 49.0278C19.6963 48.3399 17.3943 47.6565 15.0912 46.9763C14.5425 46.8138 13.9938 46.6513 13.4284 46.4838C9.51831 45.3403 5.63638 44.4226 1.61074 43.7037C1.61074 42.9704 1.61074 42.237 1.61074 41.4815Z" fill="#FB8600"/>
<path d="M95.8389 42.963C95.8389 43.6963 95.8389 44.4296 95.8389 45.1852C89.4604 48.1185 83.0819 51.0519 76.5101 54.0741C76.5101 53.3407 76.5101 52.6074 76.5101 51.8519C79.6011 49.1092 83.2668 47.4659 87.0805 45.7407C87.6567 45.4715 88.2329 45.2022 88.8266 44.9248C93.1166 42.963 93.1166 42.963 95.8389 42.963Z" fill="#FB8600"/>
<path d="M81.3423 62.963C89.6261 62.5596 97.4007 63.7941 105.503 65.1852C105.769 65.9185 106.035 66.6518 106.309 67.4074C97.6059 66.9907 89.1214 65.7701 80.5369 64.4445C80.8027 63.9556 81.0685 63.4667 81.3423 62.963Z" fill="#FB8600"/>
<path d="M44.2953 32.5926C48.8573 34.3845 50.2191 37.5769 52.2483 41.4815C52.5826 42.0888 52.9169 42.6961 53.2613 43.3218C55.677 47.8543 55.677 47.8543 54.7651 50.3704C51.5494 47.0761 49.3521 43.7923 47.2651 39.8148C46.976 39.282 46.6868 38.7492 46.3889 38.2002C44.2953 34.2829 44.2953 34.2829 44.2953 32.5926Z" fill="#FB8600"/>
<path d="M53.9597 27.4074C55.5705 30.1852 55.5705 30.1852 55.5705 31.8519C56.102 31.8519 56.6336 31.8519 57.1812 31.8519C57.9785 37.2296 58.7758 42.6074 59.5973 48.1482C59.0658 48.1482 58.5342 48.1482 57.9866 48.1482C57.9866 47.1704 57.9866 46.1926 57.9866 45.1852C57.455 45.1852 56.9235 45.1852 56.3758 45.1852C55.9682 43.0563 55.5664 40.9266 55.1678 38.7963C55.0526 38.1976 54.9373 37.5989 54.8186 36.9821C54.2185 33.7491 53.8206 30.7019 53.9597 27.4074Z" fill="#FB8600"/>
<path d="M78.9262 5.18519C79.4577 5.42963 79.9893 5.67407 80.5369 5.92593C78.7202 13.3179 76.1825 20.426 73.5403 27.5926C73.1241 28.7296 72.7083 29.8668 72.2929 31.0041C71.2864 33.757 70.2754 36.5085 69.2618 39.2593C67.895 36.2404 69.1549 33.7704 70.2873 30.8681C70.4832 30.3437 70.6791 29.8194 70.8809 29.2792C71.5076 27.6032 72.1454 25.931 72.7852 24.2593C73.4186 22.5979 74.0493 20.9358 74.6724 19.2711C75.0597 18.2368 75.4528 17.2043 75.8528 16.1742C77.1378 12.7503 77.6786 9.52319 78.1208 5.92593C78.3866 5.68148 78.6524 5.43704 78.9262 5.18519Z" fill="#FB8600"/>
<path d="M94.2282 37.037C95.0255 37.2815 95.8228 37.5259 96.6443 37.7778C96.2802 38.0121 95.916 38.2465 95.5409 38.488C88.0302 43.3276 80.5797 48.2166 73.2886 53.3333C72.7571 53.0889 72.2255 52.8444 71.6779 52.5926C78.445 46.6006 86.4329 41.8169 94.2282 37.037Z" fill="#FB8600"/>
<path d="M86.9799 78.5185C92.6845 79.4513 97.2296 82.3588 101.477 85.9259C101.477 86.6593 101.477 87.3926 101.477 88.1482C97.7322 87.0132 95.0165 85.1302 91.9631 82.9167C91.2413 82.4061 91.2413 82.4061 90.5049 81.8851C89.3117 81.031 88.1433 80.1476 86.9799 79.2593C86.9799 79.0148 86.9799 78.7704 86.9799 78.5185Z" fill="#FB8600"/>
<path d="M102.282 72.5926C108.23 73.3015 113.671 74.1047 119.195 76.2963C119.195 77.0296 119.195 77.763 119.195 78.5185C113.455 77.2591 107.852 75.8673 102.282 74.0741C102.282 73.5852 102.282 73.0963 102.282 72.5926Z" fill="#FB8600"/>
<path d="M77.3154 50.3704C77.847 50.6148 78.3785 50.8593 78.9262 51.1111C77.8631 52.0889 76.8 53.0667 75.7047 54.0741C76.3743 53.8516 77.0439 53.6291 77.7339 53.3999C78.609 53.1182 79.4842 52.8365 80.3859 52.5463C81.2549 52.2627 82.1238 51.9791 83.0191 51.6869C85.3691 51.1111 85.3691 51.1111 87.7852 51.8519C85.0208 52.7423 82.251 53.6179 79.4799 54.4907C78.6935 54.7443 77.907 54.9978 77.0968 55.259C76.3415 55.4953 75.5863 55.7316 74.8081 55.9751C74.1122 56.1962 73.4163 56.4173 72.6993 56.6451C70.8725 57.037 70.8725 57.037 68.4564 56.2963C68.9879 56.0519 69.5195 55.8074 70.0671 55.5556C70.0671 54.8222 70.0671 54.0889 70.0671 53.3333C70.9641 52.9819 71.8611 52.6306 72.7852 52.2685C74.3091 51.6644 75.8313 51.0529 77.3154 50.3704Z" fill="#FB8600"/>
<path d="M93.4228 54.0741C93.4228 54.8074 93.4228 55.5407 93.4228 56.2963C91.3437 56.6899 89.2634 57.0743 87.1812 57.4537C86.5936 57.5659 86.006 57.6781 85.4006 57.7937C82.417 58.3301 80.2202 58.5912 77.3154 57.7778C80.0141 55.5518 82.2662 55.1113 85.8222 54.6759C86.7368 54.5585 87.6514 54.441 88.5938 54.32C91.0067 54.0741 91.0067 54.0741 93.4228 54.0741Z" fill="#FB8600"/>
<path d="M43.4899 45.9259C47.4448 47.4079 49.9099 50.3121 52.802 53.1019C54.5204 54.6013 55.8187 55.484 57.9866 56.2963C57.9866 56.7852 57.9866 57.2741 57.9866 57.7778C56.543 57.6934 55.1002 57.5989 53.6577 57.5C52.4524 57.4227 52.4524 57.4227 51.2227 57.3438C49.1275 57.037 49.1275 57.037 47.5168 55.5556C49.1114 55.5556 50.706 55.5556 52.349 55.5556C51.7842 55.0667 51.2195 54.5778 50.6376 54.0741C47.9242 51.5927 45.7251 48.7729 43.4899 45.9259Z" fill="#FB8600"/>
<path d="M77.3154 70.3704C80.4452 71.6672 83.177 73.4691 85.9732 75.2778C86.458 75.5891 86.9428 75.9004 87.4423 76.2211C88.6318 76.9851 89.8194 77.7516 91.0067 78.5185C88.1672 79.3891 87.0868 78.9237 84.4411 77.7922C81.4721 76.2854 78.6548 74.6313 77.4161 71.6204C77.3829 71.2079 77.3497 70.7954 77.3154 70.3704Z" fill="#FB8600"/>
<path d="M19.3289 31.8519C22.6318 32.8918 24.9511 34.3488 27.6342 36.3889C28.3454 36.9255 29.0565 37.4622 29.7892 38.015C30.3239 38.4256 30.8585 38.8362 31.4094 39.2593C30.0881 39.8032 30.0881 39.8032 28.1879 40C25.9354 38.8542 25.9354 38.8542 23.557 37.2222C22.7639 36.6913 21.9707 36.1604 21.1535 35.6134C20.5514 35.1054 19.9492 34.5975 19.3289 34.0741C19.3289 33.3407 19.3289 32.6074 19.3289 31.8519Z" fill="#FB8600"/>
<path d="M66.0403 78.5185C68.2241 79.2614 69.0884 79.6638 70.1049 81.6348C70.2917 82.2717 70.4786 82.9086 70.6712 83.5648C70.9639 84.5116 70.9639 84.5116 71.2626 85.4774C71.6782 87.409 71.7545 89.1479 71.6779 91.1111C71.1463 91.1111 70.6148 91.1111 70.0671 91.1111C69.3913 89.4305 68.7209 87.7483 68.0537 86.0648C67.8616 85.5888 67.6696 85.1128 67.4717 84.6224C66.6276 82.482 66.0403 80.8142 66.0403 78.5185Z" fill="#FB8600"/>
<path d="M70.0671 46.6667C73.0369 46.4352 73.0369 46.4352 75.7047 46.6667C73.9215 49.947 71.9228 51.54 68.4564 53.3333C67.6591 53.3333 66.8617 53.3333 66.0403 53.3333C66.5611 52.3384 67.1026 51.3527 67.651 50.3704C68.1244 49.362 68.1244 49.362 68.6074 48.3333C69.0891 47.7833 69.5708 47.2333 70.0671 46.6667Z" fill="#FB8600"/>
<path d="M43.4899 81.4815C43.4899 84.1121 42.8978 84.7415 41.2563 86.8374C40.7912 87.4318 40.3261 88.0262 39.8469 88.6386C39.3548 89.2559 38.8627 89.8732 38.3557 90.5093C37.8698 91.1352 37.384 91.7611 36.8834 92.406C34.1675 95.8448 34.1675 95.8448 33.0201 97.037C32.4886 97.037 31.957 97.037 31.4094 97.037C31.75 93.3825 33.4611 92.1289 36.2416 89.6296C37.5526 88.2091 38.845 86.7739 40.1175 85.3241C40.7538 84.6012 41.3903 83.8784 42.0459 83.1337C42.5225 82.5885 42.999 82.0432 43.4899 81.4815Z" fill="#FB8600"/>
<path d="M82.953 16.2963C83.7503 16.2963 84.5477 16.2963 85.3691 16.2963C84.0438 20.5074 81.9138 24.2717 79.7316 28.1482C79.2 28.1482 78.6685 28.1482 78.1208 28.1482C78.5041 23.6832 80.6958 20.1728 82.953 16.2963Z" fill="#FB8600"/>
<path d="M73.2886 85.9259C75.7047 86.6667 75.7047 86.6667 77.0889 88.9294C77.5752 89.8692 78.0531 90.8127 78.5235 91.7593C79.957 94.6093 81.211 97.102 83.7584 99.2593C83.7584 99.7482 83.7584 100.237 83.7584 100.741C82.9611 100.741 82.1638 100.741 81.3423 100.741C79.9973 98.4118 78.656 96.0811 77.3154 93.75C76.9313 93.0849 76.5472 92.4199 76.1514 91.7347C75.7881 91.1021 75.4247 90.4695 75.0503 89.8177C74.7129 89.232 74.3755 88.6462 74.0279 88.0427C73.2886 86.6667 73.2886 86.6667 73.2886 85.9259Z" fill="#FB8600"/>
<path d="M62.8188 62.2222C66.7963 62.5625 68.6899 63.5394 71.6779 65.9259C72.2758 66.1856 72.8738 66.4454 73.4899 66.713C74.8993 67.4074 74.8993 67.4074 75.7047 69.6296C73.6913 68.8889 73.6913 68.8889 71.6779 68.1482C70.6812 67.8044 70.6812 67.8044 69.6644 67.4537C67.4875 66.6028 65.5683 65.6862 63.6242 64.4445C63.3584 63.7111 63.0926 62.9778 62.8188 62.2222Z" fill="#FB8600"/>
<path d="M53.1544 68.1481C53.4201 68.637 53.6859 69.1259 53.9597 69.6296C51.4533 74.0755 48.3907 78.1713 44.2953 81.4815C45.3117 78.8926 46.5382 77.0025 48.3222 74.8148C48.5713 74.2037 48.8205 73.5926 49.0772 72.963C50.0575 70.8415 51.306 69.6781 53.1544 68.1481Z" fill="#FB8600"/>
<path d="M71.6779 68.8889C75.3506 71.7072 78.8061 74.6294 82.1477 77.7778C81.8819 78.5111 81.6161 79.2444 81.3423 80C78.8814 77.8051 76.5331 75.5428 74.245 73.1945C73.7581 72.6951 73.2712 72.1957 72.7695 71.6811C71.6779 70.3704 71.6779 70.3704 71.6779 68.8889Z" fill="#FB8600"/>
<path d="M69.2617 68.8889C72.9136 70.5174 75.0685 72.847 77.5986 75.6742C78.9732 77.1994 78.9732 77.1994 81.3423 78.5185C81.3423 79.0074 81.3423 79.4963 81.3423 80C78.096 78.8057 75.8984 76.6946 73.4899 74.4445C73.0819 74.0749 72.6739 73.7054 72.2536 73.3247C69.2617 70.5581 69.2617 70.5581 69.2617 68.8889Z" fill="#FB8600"/>
<path d="M66.8456 15.5556C67.643 15.8 68.4403 16.0444 69.2617 16.2963C68.7302 18.9852 68.1987 21.6741 67.651 24.4444C67.1195 24.4444 66.5879 24.4444 66.0403 24.4444C66.0184 23.3797 66.0029 22.3149 65.9899 21.25C65.9806 20.657 65.9713 20.0641 65.9616 19.4531C66.0403 17.7778 66.0403 17.7778 66.8456 15.5556Z" fill="#FB8600"/>
<path d="M65.2349 65.1852C67.7808 66.1999 68.4505 66.6586 70.0671 68.8889C69.8013 69.6222 69.5356 70.3556 69.2617 71.1111C68.4644 70.8667 67.6671 70.6222 66.8456 70.3704C65.8911 68.5683 65.2349 67.1999 65.2349 65.1852Z" fill="#FB8600"/>
<path d="M57.1812 45.1852C57.447 46.163 57.7128 47.1407 57.9866 48.1482C58.5181 48.1482 59.0497 48.1482 59.5973 48.1482C59.3316 49.8593 59.0658 51.5704 58.7919 53.3333C56.8545 51.5514 56.6951 50.6147 56.3758 48.1482C56.7282 46.4352 56.7282 46.4352 57.1812 45.1852Z" fill="#FB8600"/>
<path d="M87.7852 22.963C88.3168 22.963 88.8483 22.963 89.396 22.963C88.9946 25.6945 88.5095 27.1147 86.1745 28.8889C86.1745 28.4 86.1745 27.9111 86.1745 27.4074C85.643 27.163 85.1114 26.9185 84.5638 26.6667C85.5951 25.4019 86.672 24.1676 87.7852 22.963Z" fill="#FB8600"/>
<path d="M78.1208 94.0741C78.6524 94.0741 79.1839 94.0741 79.7316 94.0741C79.9475 94.5171 80.1634 94.9602 80.3859 95.4167C81.2532 97.0691 81.2532 97.0691 82.651 98.2407C83.0164 98.5769 83.3819 98.913 83.7584 99.2593C83.7584 99.7482 83.7584 100.237 83.7584 100.741C82.9611 100.741 82.1638 100.741 81.3423 100.741C78.1208 95.7408 78.1208 95.7407 78.1208 94.0741Z" fill="#FB8600"/>
<path d="M53.1544 48.1482C54.3624 49.0741 54.3624 49.0741 55.5705 50.3704C55.5705 51.3482 55.5705 52.3259 55.5705 53.3333C53.4589 52.5565 52.5151 52.1116 51.3423 50.2778C51.143 49.8194 50.9436 49.3611 50.7383 48.8889C51.5356 49.1333 52.3329 49.3778 53.1544 49.6296C53.1544 49.1407 53.1544 48.6519 53.1544 48.1482Z" fill="#FB8600"/>
<path d="M1.61074 41.4815C3.60403 41.8481 3.60403 41.8482 5.63758 42.2222C5.63758 42.7111 5.63758 43.2 5.63758 43.7037C6.4349 43.9482 7.23222 44.1926 8.05369 44.4444C3.42282 44.537 3.42282 44.537 1.61074 43.7037C1.61074 42.9704 1.61074 42.237 1.61074 41.4815Z" fill="#FB8600"/>
<path d="M72.4832 42.2222C73.5463 42.4667 74.6094 42.7111 75.7047 42.963C74.6477 44.8148 74.6477 44.8148 73.2886 46.6667C72.4913 46.6667 71.694 46.6667 70.8725 46.6667C71.404 45.2 71.9356 43.7333 72.4832 42.2222Z" fill="#FB8600"/>
<path d="M96.6443 34.8148C96.6443 35.5481 96.6443 36.2815 96.6443 37.037C94.4967 38.0247 92.349 39.0123 90.2013 40C91.4282 37.273 93.1655 34.8148 96.6443 34.8148Z" fill="#FB8600"/>
</svg>
