<svg width="1920" height="970" viewBox="0 0 1920 970" fill="none" xmlns="http://www.w3.org/2000/svg">
<g opacity="0.2" clip-path="url(#clip0_132_237)">
<path d="M-162.015 572.826C-105.618 633.014 -45.6133 689.817 17.5756 742.833C45.6652 766.399 75.1672 789.66 109.906 801.39C198.706 831.376 293.632 779.107 366.071 719.632C432.79 664.853 492.961 602.107 544.902 533.153C596.374 464.822 640.748 389.38 706.729 334.926C772.708 280.473 869.077 251.136 944.679 291.166C989.661 314.983 1020.68 360.093 1036.42 408.496C1052.17 456.899 1054.1 508.691 1052.42 559.559C1050.5 617.805 1044.6 679.064 1069.64 731.683C1095.57 786.154 1155.1 822.806 1215.41 821.425C1301.21 819.462 1368.11 750.996 1433.53 695.442C1516.64 624.866 1616.37 567.491 1725.14 559.894C1833.9 552.297 1951.45 604.393 1997.03 703.444" stroke="#0C44C6" stroke-width="2.80973" stroke-miterlimit="10"/>
<path d="M-153.669 549.247C-98.5881 608.117 -39.8364 663.534 22.1027 715.094C49.6372 738.016 78.5487 760.595 112.471 772.148C199.169 801.667 291.85 752.539 363.156 696.223C380.088 682.852 396.607 668.96 412.684 654.576C458.982 613.15 501.621 567.638 539.931 518.741C591.078 453.457 635.447 381.168 700.336 328.682C765.214 276.2 857.625 250.281 932.885 284.622C961.199 297.54 985.535 315.028 1004.8 337.951C1017.93 353.561 1029.02 371.23 1037.57 390.225C1041.49 398.909 1044.92 407.876 1047.89 417.141C1059.76 454.198 1063.16 495.236 1064.19 535.484C1064.29 539.476 1064.37 543.467 1064.44 547.453C1065.55 609.522 1065.8 673.487 1094.66 726.944C1122.45 778.434 1178.92 814.508 1237.83 813.455C1321.66 811.962 1387.49 747.088 1451.75 694.999C1456.82 690.894 1461.94 686.837 1467.12 682.843C1545.49 622.46 1636.95 575.829 1735.34 571.266C1840.23 566.394 1952.76 618.784 1995.73 715.786" stroke="#0C44C6" stroke-width="2.80973" stroke-miterlimit="10"/>
<path d="M-145.31 525.663C-91.5467 583.221 -34.045 637.243 26.6448 687.354C53.6241 709.631 81.9422 731.53 115.05 742.903C199.641 771.961 290.082 725.969 360.253 672.813C376.918 660.192 393.193 647.057 409.05 633.435C454.716 594.209 496.908 550.942 534.974 504.324C585.793 442.084 630.155 372.953 693.959 322.433C757.735 271.921 846.615 249.057 921.11 278.07C951.153 289.77 977.837 303.012 999.761 323.411C1014.72 337.297 1028.01 353.568 1038.73 371.944C1043.65 380.346 1048.08 389.202 1052 398.561C1067.59 435.978 1072.8 479.932 1075.67 522.638C1075.95 526.874 1076.22 531.104 1076.48 535.334C1080.61 601.229 1086.83 667.729 1119.69 722.193C1149 770.758 1202.76 806.199 1260.28 805.477C1342.12 804.452 1406.88 743.17 1469.98 694.544C1474.96 690.711 1479.99 686.931 1485.07 683.21C1561.94 626.975 1650.81 584.628 1745.57 582.628C1846.59 580.483 1954.08 633.166 1994.45 728.12" stroke="#0C44C6" stroke-width="2.80973" stroke-miterlimit="10"/>
<path d="M-136.968 502.083C-84.5241 558.325 -28.2749 610.96 31.1695 659.616C57.5921 681.246 85.3224 702.469 117.612 713.662C200.101 742.254 288.299 699.405 357.336 649.404C373.735 637.536 389.765 625.156 405.402 612.297C450.435 575.261 492.179 534.244 530.004 489.907C580.499 430.715 624.855 364.737 687.567 316.185C750.242 267.643 835.965 247.434 909.315 271.518C941.248 282.006 970.121 290.995 994.706 308.871C1011.48 321.034 1026.98 335.902 1039.88 353.666C1045.8 361.791 1051.23 370.532 1056.08 379.983C1075.4 417.759 1082.42 464.626 1087.12 509.791C1087.59 514.266 1088.05 518.742 1088.5 523.213C1095.65 592.933 1107.66 661.848 1144.71 717.442C1175.19 763.165 1226.58 797.889 1282.7 797.495C1362.56 796.943 1426.26 739.247 1488.2 694.087C1493.08 690.528 1498.02 687.019 1503 683.574C1578.37 631.485 1664.64 593.428 1755.77 593.989C1852.92 594.568 1955.39 647.542 1993.15 740.451" stroke="#0C44C6" stroke-width="2.80973" stroke-miterlimit="10"/>
<path d="M-128.616 478.501C-77.4885 533.426 -22.4935 584.672 35.7 631.876C61.5702 652.86 88.7072 673.403 120.18 684.418C200.565 712.546 286.519 672.833 354.422 625.994C370.554 614.875 386.341 603.257 401.757 591.156C446.157 556.319 487.454 517.548 525.035 475.491C575.205 419.341 619.552 356.522 681.178 309.935C742.749 263.366 825.631 245.392 897.525 264.968C931.487 274.216 962.409 278.98 989.656 294.333C1008.26 304.771 1025.96 318.242 1041.03 335.39C1047.96 343.233 1054.37 351.862 1060.17 361.41C1083.21 399.546 1092.05 449.327 1098.59 496.95C1099.24 501.668 1099.88 506.385 1100.53 511.101C1110.7 584.647 1128.3 655.901 1169.73 712.697C1201.09 755.678 1250.41 789.585 1305.13 789.523C1383.01 789.442 1445.64 735.335 1506.42 693.637C1511.21 690.35 1516.05 687.118 1520.94 683.945C1594.81 636.002 1678.48 602.23 1765.99 605.353C1859.26 608.659 1956.7 661.923 1991.85 752.785" stroke="#0C44C6" stroke-width="2.80973" stroke-miterlimit="10"/>
<path d="M-120.271 454.928C-70.4613 508.54 -16.7191 558.393 40.2278 604.146C65.5429 624.485 92.0889 644.347 122.741 655.182C201.023 682.845 284.735 646.275 351.503 602.592C367.369 592.223 382.912 581.362 398.107 570.024C441.874 537.382 482.724 500.857 520.063 461.084C569.908 407.982 614.249 348.316 674.784 303.698C735.254 259.098 815.541 242.957 885.733 258.428C921.842 266.386 954.695 266.978 984.603 279.805C1005.03 288.519 1024.93 300.589 1042.17 317.121C1050.11 324.685 1057.52 333.201 1064.26 342.84C1091.03 381.335 1101.67 434.031 1110.05 484.113C1110.88 489.072 1111.71 494.031 1112.55 498.99C1125.74 576.36 1148.75 649.926 1194.75 707.955C1226.73 748.299 1274.23 781.286 1327.55 781.55C1403.45 781.938 1465.02 731.424 1524.64 693.189C1529.34 690.177 1534.08 687.216 1538.87 684.318C1611.25 640.523 1692.32 611.038 1776.19 616.723C1865.59 622.756 1958.01 676.311 1990.55 765.126" stroke="#0C44C6" stroke-width="2.80973" stroke-miterlimit="10"/>
<path d="M-111.911 431.341C-63.4177 483.636 -10.9281 532.102 44.7691 576.399C69.5275 596.091 95.4845 615.274 125.32 625.932C201.498 653.13 282.967 619.699 348.599 579.176C364.199 569.556 379.497 559.453 394.47 548.879C437.603 518.433 478.003 484.155 515.102 446.663C564.622 396.607 608.955 340.097 668.403 297.443C727.772 254.815 805.655 240.122 873.95 251.87C912.302 258.469 946.987 254.957 979.559 265.259C1001.81 272.252 1023.92 282.92 1043.33 298.839C1052.26 306.123 1060.67 314.523 1068.35 324.261C1098.84 363.113 1111.3 418.727 1121.52 471.269C1122.52 476.467 1123.54 481.672 1124.58 486.87C1140.79 568.068 1169.03 643.958 1219.77 703.203C1252.16 741.018 1298.06 772.973 1349.98 773.571C1423.9 774.43 1484.39 727.507 1542.86 692.733C1547.47 689.992 1552.12 687.308 1556.8 684.684C1627.68 645.035 1706.15 619.836 1786.4 628.084C1871.93 636.841 1959.32 690.69 1989.26 777.459" stroke="#0C44C6" stroke-width="2.80973" stroke-miterlimit="10"/>
<path d="M-103.565 407.757C-56.3893 458.739 -5.15264 505.812 49.2979 548.658C73.5038 567.704 98.8663 586.211 127.886 596.687C201.962 623.421 281.189 593.127 345.686 555.764C361.017 546.898 376.076 537.548 390.825 527.737C433.325 499.487 473.279 467.457 510.134 432.245C559.327 385.233 603.656 331.878 662.013 291.194C720.28 250.535 798.441 225.317 862.158 245.32C903.101 243.164 939.273 242.942 974.507 250.72C998.583 255.989 1022.89 265.256 1044.48 280.559C1054.41 287.562 1063.81 295.851 1072.43 305.684C1106.66 344.896 1120.92 403.426 1132.98 458.421C1134.17 463.862 1135.37 469.309 1136.6 474.753C1155.83 559.774 1189.12 638.044 1244.8 698.455C1277.42 733.849 1321.89 764.668 1372.41 765.593C1444.35 766.924 1503.77 723.588 1561.08 692.282C1565.6 689.813 1570.15 687.403 1574.74 685.055C1644.12 649.553 1720 628.64 1796.61 639.452C1878.27 650.936 1960.63 705.075 1987.96 789.797" stroke="#0C44C6" stroke-width="2.80973" stroke-miterlimit="10"/>
<path d="M-95.2188 384.181C-49.3624 433.847 0.622933 479.529 53.8253 520.922C77.4761 539.323 102.248 557.149 130.451 567.447C202.422 593.716 279.404 566.563 342.769 532.359C357.833 524.242 372.647 515.65 387.177 506.601C429.042 480.546 468.55 450.762 505.161 417.832C554.029 373.868 598.35 323.668 655.621 284.949C712.785 246.262 788.347 221.633 850.368 238.772C893.337 234.285 931.561 230.93 969.456 236.184C995.357 239.729 1021.87 247.599 1045.63 262.285C1056.57 269.009 1066.96 277.184 1076.52 287.109C1114.47 326.68 1130.55 388.124 1144.45 445.579C1145.81 451.261 1147.21 456.95 1148.63 462.635C1170.88 551.483 1209.03 632.222 1269.82 693.704C1302.52 726.784 1345.71 756.357 1394.84 757.615C1464.8 759.42 1523.16 719.675 1579.3 691.834C1583.73 689.64 1588.19 687.503 1592.68 685.427C1660.57 654.071 1733.84 637.445 1806.83 650.82C1884.61 665.028 1961.95 719.462 1986.67 802.135" stroke="#0C44C6" stroke-width="2.80973" stroke-miterlimit="10"/>
<path d="M-86.8726 360.603C-42.3312 408.954 6.40006 453.248 58.3542 493.187C81.4484 510.941 105.631 528.088 133.018 538.208C202.884 564.014 277.627 539.997 339.857 508.955C354.655 501.588 369.225 493.754 383.534 485.467C424.766 461.608 463.828 434.073 500.195 403.422C548.74 362.503 593.051 315.455 649.232 278.707C705.295 241.991 778.254 217.949 838.578 232.23C883.573 225.41 923.849 218.922 964.406 221.654C992.128 223.475 1020.85 229.942 1046.78 244.014C1058.72 250.456 1070.11 258.52 1080.61 268.541C1122.29 308.472 1140.18 372.831 1155.91 432.746C1157.46 438.67 1159.04 444.6 1160.65 450.529C1185.92 543.201 1228.77 626.541 1294.84 688.966C1327.5 719.826 1369.54 748.059 1417.26 749.645C1485.25 751.916 1542.53 715.763 1597.52 691.382C1601.85 689.459 1606.22 687.595 1610.61 685.794C1676.99 658.586 1747.67 646.245 1817.03 662.181C1890.94 679.116 1963.25 733.843 1985.37 814.469" stroke="#0C44C6" stroke-width="2.80973" stroke-miterlimit="10"/>
<path d="M-78.5174 337.018C-35.2953 384.054 12.1846 426.957 62.8906 465.443C85.4323 482.55 109.021 499.018 135.592 508.96C203.357 534.303 275.855 513.426 336.949 485.541C351.479 478.924 365.806 471.848 379.895 464.323C420.493 442.66 459.105 417.371 495.233 389.004C543.452 351.13 587.759 307.238 642.849 272.454C697.811 237.708 768.169 214.257 826.793 225.673C873.814 216.521 916.142 206.903 959.36 207.109C988.909 207.209 1019.83 212.275 1047.93 225.731C1060.88 231.896 1073.26 239.844 1084.7 249.958C1130.1 290.246 1149.81 357.522 1167.38 419.894C1169.11 426.059 1170.88 432.235 1172.68 438.404C1200.98 534.902 1248.34 621.007 1319.87 684.211C1352.39 712.948 1393.37 739.747 1439.7 741.662C1505.71 744.405 1561.92 711.839 1615.75 690.923C1619.99 689.275 1624.26 687.682 1628.55 686.157C1693.44 663.095 1761.52 655.04 1827.25 673.539C1897.29 693.199 1964.57 748.219 1984.08 826.797" stroke="#0C44C6" stroke-width="2.80973" stroke-miterlimit="10"/>
<path d="M-70.1755 313.439C-28.2699 359.158 17.956 400.671 67.4153 437.706C89.4019 454.169 112.4 469.955 138.154 479.719C203.813 504.596 274.069 486.858 334.031 462.134C348.297 456.269 362.377 449.948 376.244 443.187C416.208 423.719 454.373 400.677 490.261 374.59C538.154 339.763 582.453 299.025 636.456 266.211C690.316 233.435 758.073 210.572 815.001 219.128C864.048 207.644 908.426 194.895 954.308 192.575C985.681 190.951 1018.8 194.617 1049.08 207.457C1063.03 213.34 1076.41 221.177 1088.79 231.386C1137.92 272.034 1159.43 342.226 1178.84 407.054C1180.75 413.46 1182.7 419.879 1184.7 426.291C1216.02 526.614 1267.72 615.69 1344.89 679.465C1377.19 706.168 1417.19 731.442 1462.12 733.687C1526.15 736.898 1581.29 707.924 1633.96 690.471C1638.11 689.095 1642.29 687.778 1646.48 686.526C1709.87 667.612 1775.35 663.845 1837.45 684.906C1903.62 707.292 1965.88 762.603 1982.78 839.134" stroke="#0C44C6" stroke-width="2.80973" stroke-miterlimit="10"/>
<path d="M-61.8252 289.859C-21.2373 334.265 23.7372 374.388 71.9483 409.969C93.3798 425.788 115.789 440.895 140.724 450.479C204.279 474.891 272.293 460.292 331.119 438.727C345.118 433.612 358.955 428.049 372.601 422.05C411.931 404.778 449.651 383.984 485.294 360.177C532.861 328.394 577.155 290.813 630.068 259.962C682.826 229.161 747.983 206.884 803.213 212.578C854.287 198.765 900.715 182.881 949.256 178.039C982.453 174.691 1017.78 176.958 1050.23 189.185C1065.19 194.789 1079.55 202.51 1092.88 212.817C1145.73 253.824 1169.06 326.929 1190.3 394.218C1192.4 400.866 1194.54 407.526 1196.73 414.184C1231.07 518.33 1286.93 610.621 1369.91 674.725C1401.94 699.476 1441.02 723.143 1484.55 725.718C1546.6 729.402 1600.67 704.018 1652.18 690.027C1656.24 688.925 1660.32 687.88 1664.42 686.902C1726.32 672.134 1789.19 672.652 1847.67 696.278C1909.96 721.391 1967.19 776.992 1981.49 851.478" stroke="#0C44C6" stroke-width="2.80973" stroke-miterlimit="10"/>
<path d="M-53.4715 266.278C-14.2002 309.367 29.5202 348.101 76.4832 382.229C97.3607 397.399 119.175 411.83 143.297 421.234C204.746 445.183 270.519 433.722 328.209 415.318C341.941 410.952 355.534 406.147 368.96 400.91C407.656 385.834 444.929 367.285 480.329 345.76C527.574 317.023 571.857 282.598 623.681 253.715C675.338 224.884 738.21 212.508 791.423 206.027C846.523 199.322 893.009 170.869 944.212 163.504C979.234 158.431 1016.76 159.298 1051.39 170.909C1067.35 176.232 1082.71 183.841 1096.97 194.241C1153.55 235.607 1178.69 311.626 1201.77 381.374C1204.05 388.264 1206.38 395.165 1208.76 402.066C1246.12 510.039 1305.99 605.826 1394.93 669.976C1426.66 692.856 1464.85 714.836 1506.98 717.739C1567.05 721.894 1620.05 700.1 1670.41 689.573C1674.38 688.743 1678.36 687.975 1682.36 687.271C1742.76 676.649 1803.04 681.455 1857.88 707.641C1916.3 735.478 1968.5 791.372 1980.19 863.811" stroke="#0C44C6" stroke-width="2.80973" stroke-miterlimit="10"/>
<path d="M-45.1234 242.702C-7.16981 284.478 35.2977 321.819 81.0141 354.496C101.336 369.021 122.56 382.771 145.865 391.997C205.213 415.48 268.74 407.16 325.298 391.914C338.765 388.3 352.116 384.251 365.318 379.776C403.38 366.895 440.205 350.596 475.364 331.352C522.282 305.659 566.561 274.39 617.296 247.473C667.853 220.613 728.482 207.845 779.64 199.484C837.018 190.107 885.297 158.861 939.162 148.972C976.005 142.177 1015.74 141.645 1052.54 152.637C1069.5 157.679 1085.85 165.176 1101.06 175.671C1161.37 217.397 1188.32 296.331 1213.23 368.535C1215.69 375.665 1218.21 382.81 1220.78 389.955C1261.16 501.752 1324.87 601.356 1419.95 665.235C1451.34 686.322 1488.67 706.536 1529.41 709.77C1587.5 714.393 1639.43 696.191 1688.63 689.129C1692.51 688.574 1696.4 688.076 1700.29 687.648C1759.2 681.174 1816.87 690.265 1868.09 719.013C1922.64 749.577 1969.82 805.763 1978.9 876.154" stroke="#0C44C6" stroke-width="2.80973" stroke-miterlimit="10"/>
<path d="M-36.777 219.116C-0.142632 259.576 41.0751 295.528 85.5417 326.749C105.309 340.63 125.942 353.698 148.43 362.747C205.673 385.766 266.958 380.584 322.381 368.498C335.581 365.634 348.688 362.343 361.67 358.63C399.098 347.945 435.476 333.891 470.392 316.929C516.985 294.284 561.256 266.169 610.902 241.219C660.357 216.33 718.659 203.072 767.845 192.929C827.417 180.646 877.579 146.841 934.109 134.428C972.778 125.911 1014.72 123.977 1053.68 134.354C1071.65 139.118 1089 146.501 1105.14 157.091C1169.18 199.174 1197.94 281.025 1224.7 355.689C1227.33 363.063 1230.04 370.451 1232.81 377.835C1276.21 493.458 1343.59 597.242 1444.98 660.482C1476.02 679.846 1512.5 698.224 1551.83 701.786C1607.95 706.882 1658.81 692.266 1706.85 688.668C1710.64 688.385 1714.43 688.164 1718.22 688.009C1775.64 685.68 1830.72 699.059 1878.3 730.371C1928.98 763.659 1971.13 820.138 1977.6 888.484" stroke="#0C44C6" stroke-width="2.80973" stroke-miterlimit="10"/>
<path d="M-28.436 195.518C6.88342 234.664 46.8455 269.225 90.0655 298.995C109.276 312.228 129.321 324.621 150.991 333.489C206.13 356.044 265.173 354.001 319.463 345.072C332.395 342.958 345.259 340.425 358.018 337.475C394.813 328.986 430.743 317.179 465.416 302.498C511.684 282.9 555.949 257.939 604.507 234.956C652.86 212.037 708.729 198.218 756.047 186.362C817.687 170.919 869.862 134.808 929.05 119.873C969.545 109.634 1013.69 106.3 1054.83 116.061C1073.79 120.543 1092.14 127.815 1109.22 138.498C1176.99 180.943 1207.56 265.706 1236.15 342.828C1238.97 350.441 1241.86 358.073 1244.82 365.701C1291.25 485.15 1362.15 593.518 1469.99 655.716C1500.69 673.428 1536.32 689.901 1574.25 693.793C1628.39 699.36 1678.19 688.336 1725.06 688.199C1728.76 688.192 1732.46 688.241 1736.15 688.36C1792.06 690.18 1844.55 707.843 1888.5 741.718C1935.31 777.733 1972.43 834.504 1976.3 900.801" stroke="#0C44C6" stroke-width="2.80973" stroke-miterlimit="10"/>
</g>
<defs>
<clipPath id="clip0_132_237">
<rect width="1920" height="970" fill="white"/>
</clipPath>
</defs>
</svg>
