<svg width="377" height="438" viewBox="0 0 377 438" fill="none" xmlns="http://www.w3.org/2000/svg">
<g clip-path="url(#clip0_155_180)">
<path d="M43.4805 421.757C82.8685 442.347 146.682 442.347 186.07 421.757C225.458 401.168 225.458 367.791 186.07 347.202C146.682 326.612 82.8685 326.612 43.4805 347.202C4.09245 367.791 4.09245 401.168 43.4805 421.757Z" fill="#F5F5F5"/>
<path d="M334.926 322.905C335.003 315.103 337.167 307.464 341.192 300.781C346.563 291.573 353.724 285.563 359.607 287.353C365.49 289.143 363.955 296.561 355.643 304.873C349.76 310.628 343.877 317.917 341.192 326.23L336.46 336.972L334.926 322.905Z" fill="#80C1D3"/>
<path d="M334.926 322.905C335.003 315.103 337.167 307.464 341.192 300.781C346.563 291.573 353.724 285.563 359.607 287.353C365.49 289.143 363.955 296.561 355.643 304.873C349.76 310.628 343.877 317.917 341.192 326.23L336.46 336.972L334.926 322.905Z" fill="#3F96AA"/>
<path d="M335.948 326.612C336.076 326.612 336.204 326.612 336.204 326.356C339.785 311.906 348.864 296.56 357.305 290.805C357.368 290.734 357.403 290.643 357.403 290.549C357.403 290.455 357.368 290.363 357.305 290.293H356.793C348.225 296.176 339.145 311.65 335.438 326.356C335.437 326.458 335.478 326.555 335.55 326.627C335.621 326.699 335.719 326.74 335.82 326.74L335.948 326.612Z" fill="white"/>
<path d="M334.925 339.402C337.71 341.879 341.112 343.557 344.772 344.261C351.166 345.668 354.107 342.855 354.107 342.855C354.107 342.855 352.061 336.716 348.481 334.798C352.386 335.889 356.066 337.665 359.351 340.041C359.351 340.041 363.187 340.297 365.105 334.414C365.105 334.414 363.059 330.706 355.386 328.276C359.27 327.817 363.207 328.255 366.896 329.555C367.407 329.683 369.965 322.138 370.86 318.685C371.755 315.232 370.349 315.104 367.535 314.209C364.722 313.314 355.386 312.163 353.596 313.697C351.806 315.232 350.527 320.219 350.527 320.219C349.733 318.457 349.424 316.515 349.631 314.593C347.746 313.893 345.688 313.804 343.749 314.337C340.552 315.232 340.68 316.767 340.552 319.068C340.412 321.34 340.584 323.621 341.063 325.846C341.063 325.846 339.017 323.928 339.401 317.022C336.967 318.828 334.812 320.982 333.007 323.416C331.216 326.358 331.088 334.542 334.925 339.402Z" fill="#80C1D3"/>
<path d="M334.925 339.785C334.993 339.785 335.058 339.758 335.106 339.71C335.154 339.663 335.181 339.598 335.181 339.53C341.064 329.171 361.014 317.789 367.919 316.894C368.175 316.809 368.303 316.681 368.303 316.511C368.175 316.255 368.047 316.127 367.791 316.127C360.758 317.022 340.552 328.532 334.542 339.146C334.542 339.402 334.542 339.53 334.67 339.657L334.925 339.785Z" fill="white"/>
<path opacity="0.5" d="M279.424 343.621C280.437 344.245 281.28 345.108 281.882 346.133C282.484 347.159 282.826 348.316 282.877 349.504C282.877 351.678 281.343 352.573 279.424 351.422L248.349 333.518C247.345 332.897 246.514 332.032 245.933 331.003C245.352 329.975 245.039 328.817 245.024 327.636C245.024 325.462 246.559 324.567 248.349 325.59L279.424 343.621Z" fill="#80C1D3"/>
<path d="M81.2049 1.279L80.8219 1.023L80.1819 0.767L79.6709 0.512L79.1589 0.256L78.6479 0H72.8929L71.7419 0.512L63.0459 5.627C63.6248 5.18311 64.2728 4.83749 64.9639 4.604H67.2659C68.1043 4.58683 68.9355 4.76162 69.6959 5.115C70.6339 5.39 71.5359 5.776 72.3809 6.266L312.29 145.147L320.986 140.032L81.2049 1.279ZM339.401 164.97V163.691C339.309 163.491 339.265 163.272 339.273 163.052C339.312 162.83 339.267 162.602 339.145 162.412L338.889 161.133C338.89 160.878 338.762 160.622 338.762 160.366C338.706 160.156 338.664 159.942 338.634 159.727C338.506 159.599 338.506 159.343 338.378 159.215C338.25 158.959 338.25 158.704 338.122 158.448C337.994 158.192 337.994 158.064 337.866 157.808C337.739 157.553 337.739 157.425 337.739 157.169L337.483 156.53C337.351 156.387 337.262 156.209 337.227 156.018H337.099C337.099 155.762 336.971 155.634 336.843 155.379L336.46 154.611L336.076 153.844L335.693 153.077H335.565V152.821L334.669 151.286L333.774 150.135L333.135 149.368L333.138 149.374L332.113 148.092L332.112 148.089C332.009 147.862 331.827 147.68 331.6 147.578H331.472L331.089 147.194L330.577 146.683L329.938 146.171L329.426 145.659L329.043 145.404H328.787L328.147 144.892L327.636 144.508L327.124 144.125L326.485 143.741H326.357L317.661 148.857L320.219 150.647H320.347L322.776 152.949C324.351 154.615 325.724 156.461 326.869 158.448C326.996 158.576 326.996 158.576 326.996 158.704C327.609 159.673 328.124 160.701 328.531 161.773C329.012 162.816 329.439 163.883 329.81 164.97L330.577 168.167C330.721 169.227 330.806 170.294 330.833 171.364L330.321 338.891C330.305 339.834 330.22 340.774 330.066 341.704L329.298 344.006C329.064 344.581 328.716 345.103 328.275 345.54L327.892 346.052C327.482 346.503 327.008 346.891 326.485 347.203L335.181 342.088C335.772 341.823 336.296 341.43 336.716 340.937L337.099 340.425L337.483 339.914L337.994 339.018L338.378 338.379C338.404 338.107 338.491 337.845 338.634 337.612C338.626 337.391 338.67 337.172 338.762 336.972V336.461C338.742 336.24 338.786 336.018 338.89 335.821V334.542C338.993 334.346 339.037 334.124 339.017 333.903L339.401 166.504V164.97Z" fill="#2B454E"/>
<path d="M317.533 147.832C324.822 152.052 330.705 162.283 330.705 170.596L330.193 338.122C330.193 346.435 324.183 349.887 316.894 345.667L71.8702 204.229C64.5802 199.881 58.6982 189.778 58.6982 181.338L59.2092 13.9381C59.2092 5.49806 65.0922 2.04606 72.3812 6.26606L317.533 147.832Z" fill="#375A64"/>
<path d="M302.315 147.449C309.093 151.286 314.464 160.749 314.464 168.422L314.08 322.393C314.08 330.066 308.581 333.135 301.803 329.299L88.1109 206.02C81.3329 202.055 75.9619 192.72 75.9619 185.047L76.3459 31.0765C76.4739 23.4035 81.8449 20.2065 88.6219 24.1705L302.315 147.449ZM321.369 281.215C320.894 281.215 320.439 281.027 320.103 280.691C319.767 280.356 319.579 279.9 319.579 279.425V225.714C319.579 225.24 319.768 224.785 320.104 224.449C320.439 224.113 320.894 223.924 321.369 223.923C321.604 223.923 321.837 223.969 322.055 224.059C322.272 224.149 322.47 224.281 322.636 224.447C322.803 224.614 322.935 224.811 323.024 225.029C323.114 225.246 323.16 225.479 323.16 225.714V279.425C323.16 279.661 323.114 279.894 323.024 280.111C322.934 280.328 322.802 280.526 322.636 280.692C322.469 280.858 322.272 280.99 322.055 281.08C321.837 281.17 321.604 281.216 321.369 281.215Z" fill="#F9FBFC"/>
<path d="M67.0098 109.466C68.12 110.172 69.0467 111.131 69.7137 112.265C70.3808 113.399 70.7691 114.675 70.8468 115.988C70.8468 118.418 69.0568 119.313 67.0098 118.162C65.8999 117.456 64.9734 116.497 64.3065 115.363C63.6396 114.229 63.2514 112.954 63.1738 111.64C63.1738 109.21 64.9638 108.315 67.0098 109.466Z" fill="white"/>
<path opacity="0.5" d="M213.948 132.232C214.599 134.363 215.07 136.544 215.355 138.754C215.483 140.161 215.61 141.439 215.61 142.718V143.997C215.61 144.253 215.483 144.637 215.483 145.02C215.483 145.404 215.355 145.788 215.355 146.043C215.355 146.299 215.227 146.811 215.227 147.194C215.098 147.478 215.012 147.78 214.971 148.089V148.345C214.828 148.578 214.741 148.841 214.715 149.112C214.587 149.24 214.587 149.24 214.587 149.368C214.587 149.496 214.46 149.88 214.332 150.136L213.948 151.031L213.564 151.798C213.564 151.815 213.561 151.831 213.555 151.847C213.548 151.862 213.539 151.876 213.527 151.888C213.503 151.912 213.47 151.926 213.436 151.926L213.053 152.693H212.925L212.541 153.46L212.03 153.972H211.902C211.774 154.228 211.518 154.356 211.39 154.484H211.262L210.751 154.995H210.623C210.495 155.251 210.239 155.379 210.112 155.507L209.472 155.89H209.344L208.705 156.146H208.577L207.81 156.402H207.426C207.298 148.217 201.671 138.37 194.51 134.278C187.348 130.186 181.594 133.511 181.594 141.695L182.105 142.59C182.009 142.327 181.83 142.102 181.594 141.951L180.826 140.8V140.544L180.059 139.521V139.265C179.817 138.943 179.603 138.6 179.42 138.242L178.78 137.091V137.603L178.269 136.58V136.324L177.757 135.301C177.57 134.862 177.356 134.435 177.118 134.022V133.767L176.734 132.616L176.223 131.337H176.095L175.711 130.186V129.93L174.944 127.5V127.244C174.92 126.849 174.834 126.461 174.688 126.094C174.56 125.71 174.56 125.326 174.432 124.943C174.304 124.559 174.304 124.047 174.176 123.664V123.408C174.071 123.034 174.029 122.645 174.049 122.257C173.955 121.881 173.912 121.494 173.921 121.106V120.85C173.816 120.476 173.773 120.087 173.793 119.699V118.548C173.741 117.349 173.827 116.148 174.049 114.968C174.269 113.245 174.743 111.564 175.455 109.98L175.839 109.085C179.292 102.947 186.581 101.54 195.021 106.4C203.462 111.259 209.216 119.06 213.053 128.14C213.322 128.715 213.537 129.314 213.692 129.93C213.818 130.692 213.903 131.461 213.948 132.232ZM194.893 132.743C199.241 135.301 202.694 133.255 202.694 128.268C202.595 125.544 201.833 122.886 200.473 120.523C199.114 118.161 197.198 116.166 194.893 114.712C190.545 112.154 186.965 114.2 186.965 119.188C187.089 121.92 187.876 124.582 189.257 126.943C190.638 129.305 192.572 131.295 194.893 132.743Z" fill="#80C1D3"/>
<path d="M247.325 199.242C248.158 199.83 248.852 200.593 249.36 201.476C249.868 202.359 250.177 203.342 250.267 204.357V216.762C250.267 218.68 248.988 219.447 247.325 218.552L133.509 152.82C132.659 152.251 131.951 151.494 131.44 150.607C130.931 149.72 130.632 148.727 130.568 147.705V135.3C130.568 133.382 131.847 132.615 133.509 133.638L247.325 199.242ZM247.198 226.353C248.07 226.9 248.795 227.652 249.308 228.544C249.821 229.436 250.106 230.441 250.139 231.469V243.873C250.139 245.792 248.732 246.559 247.07 245.536L133.382 179.932C132.524 179.371 131.811 178.615 131.3 177.726C130.789 176.838 130.494 175.841 130.44 174.817V162.412C130.44 160.494 131.719 159.727 133.382 160.622L247.198 226.353Z" fill="#E1E1E1"/>
<path d="M196.428 231.722C198.031 232.78 199.364 234.198 200.319 235.864C201.274 237.53 201.825 239.397 201.927 241.314V243.616C201.927 247.068 199.497 248.475 196.428 246.685L167.399 230.06C165.796 229.003 164.464 227.585 163.509 225.919C162.554 224.253 162.003 222.386 161.9 220.469V218.167C161.9 214.714 164.457 213.307 167.527 215.098L196.428 231.722Z" fill="#FF9E2B"/>
<path d="M91.4366 230.188C91.4366 230.188 81.5896 235.815 80.1826 261.648C81.3336 266.507 88.8786 268.936 94.7616 265.227C100.644 261.519 94.5056 234.536 91.4366 230.188Z" fill="#1A2E35"/>
<path d="M141.439 258.066C141.439 258.066 163.818 248.092 166.888 246.429C169.957 244.767 172.131 238.5 173.282 237.094C174.433 235.687 179.548 232.746 179.42 234.152C179.292 235.559 176.479 237.861 176.479 237.861C177.493 239.536 178.268 241.344 178.781 243.232C179.164 245.278 176.351 249.37 174.816 250.521C173.229 251.368 171.491 251.889 169.701 252.056C169.701 252.056 151.414 264.333 148.345 264.588C145.275 264.844 141.055 263.054 141.439 258.066Z" fill="#EFB29A"/>
<path d="M114.455 406.541C134.937 406.541 151.541 396.693 151.541 384.545C151.541 372.397 134.937 362.549 114.455 362.549C93.9731 362.549 77.3691 372.397 77.3691 384.545C77.3691 396.693 93.9731 406.541 114.455 406.541Z" fill="#E1E1E1"/>
<path d="M95.6558 380.579C95.6558 380.579 95.0168 384.927 95.7838 386.59C96.0937 387.072 96.4979 387.485 96.9722 387.806C97.4464 388.126 97.9807 388.347 98.5428 388.455C99.105 388.563 99.6833 388.556 100.242 388.433C100.802 388.31 101.33 388.074 101.795 387.74C103.873 386.083 105.838 384.289 107.677 382.369C107.677 382.369 113.944 379.044 114.455 377.254C114.967 375.464 112.921 373.929 111.258 374.313C109.596 374.696 104.353 377.893 102.051 377.893C99.7488 377.893 96.4238 378.405 95.6558 380.579Z" fill="#1A2E35"/>
<path d="M89.2617 289.398C89.2617 289.398 94.6317 379.3 95.2717 381.986C95.9117 384.671 103.073 386.078 104.352 381.858C105.631 377.638 107.293 296.048 107.293 296.048L89.2617 289.398Z" fill="#00537D"/>
<path d="M113.688 385.95C113.521 386.061 113.386 386.214 113.296 386.394C113.206 386.573 113.165 386.773 113.177 386.973C113.177 388.252 113.177 390.938 113.944 392.088C114.744 393.063 115.861 393.725 117.1 393.959C118.339 394.193 119.621 393.983 120.722 393.367C123.151 391.961 130.952 386.206 132.487 384.927C133.277 384.253 133.854 383.365 134.149 382.369C134.186 382.034 134.12 381.695 133.96 381.399C133.801 381.102 133.554 380.86 133.254 380.707C131.811 380.058 130.2 379.879 128.65 380.195C126.093 381.091 122.768 383.904 119.315 383.776C117.238 383.795 115.238 384.567 113.688 385.95Z" fill="#1A2E35"/>
<path d="M125.708 290.421C125.325 286.712 120.849 285.433 116.629 286.712C108.828 286.328 96.6792 286.584 96.1672 292.722C95.6562 301.802 99.8772 308.196 103.968 312.544C108.061 316.892 108.956 322.008 109.723 325.077C110.49 348.863 112.025 382.496 113.048 385.693C114.711 390.937 122.511 390.681 122.767 385.693C124.43 368.557 125.708 290.421 125.708 290.421Z" fill="#00537D"/>
<path d="M125.709 293.234C124.814 297.838 111.642 300.14 103.969 298.861C96.2959 297.582 87.9829 293.874 88.2389 285.05C88.2389 285.05 87.0889 249.371 87.0889 242.337C87.1987 237.927 88.7226 233.668 91.4359 230.188C91.4359 230.188 95.7839 225.201 109.34 228.014C109.34 228.014 120.338 230.444 125.453 238.628C125.453 238.628 128.906 247.58 127.755 266.251C126.604 284.922 125.709 293.234 125.709 293.234Z" fill="#1A2E35"/>
<path d="M98.7263 218.17C98.7263 218.17 99.8763 224.947 98.7263 228.017C97.5753 231.086 105.376 234.922 111.386 233.516C114.839 232.748 114.711 230.958 114.711 230.958C114.711 230.958 111.77 226.098 112.153 221.495C112.537 216.891 102.818 217.147 98.7263 218.17Z" fill="#D3866E"/>
<path d="M121.488 204.357C121.508 206.747 120.995 209.113 119.987 211.281C118.979 213.449 117.501 215.365 115.661 216.891C113.82 218.417 111.663 219.514 109.346 220.103C107.028 220.691 104.609 220.757 102.263 220.295C99.1261 219.676 96.2436 218.139 93.9826 215.878C91.7217 213.617 90.1844 210.734 89.5664 207.597C89.1044 205.251 89.1702 202.832 89.759 200.515C90.3478 198.198 91.4448 196.041 92.9706 194.2C94.4963 192.36 96.4125 190.882 98.5802 189.874C100.748 188.866 103.113 188.353 105.503 188.372C107.603 188.371 109.681 188.785 111.621 189.588C113.56 190.391 115.323 191.569 116.807 193.053C118.291 194.537 119.469 196.3 120.272 198.239C121.075 200.179 121.489 202.257 121.488 204.357Z" fill="#EFB29A"/>
<path d="M121.488 205.507C121.488 205.507 121.744 221.62 118.163 224.817C114.583 228.014 109.34 221.748 100.771 219.702C92.2028 217.656 107.677 200.775 107.677 200.775L121.488 205.507Z" fill="#EFB29A"/>
<path d="M120.21 234.793C120.21 234.793 123.791 233.77 127.755 239.652C131.72 245.535 137.602 252.952 140.288 254.231C142.973 255.51 146.81 252.952 148.345 252.952C149.879 252.952 153.844 259.986 152.437 263.439C151.03 266.891 141.055 268.682 138.498 268.682C135.94 268.682 119.699 258.963 117.397 253.464C115.095 247.965 111.642 235.049 120.21 234.793Z" fill="#1A2E35"/>
<path d="M146.042 253.721C146.447 252.831 147.093 252.072 147.906 251.529C148.72 250.987 149.669 250.683 150.646 250.652C154.099 250.396 158.191 257.174 157.935 261.01C157.68 264.847 152.181 266.765 150.902 265.742C149.623 264.719 152.181 262.161 146.042 253.721Z" fill="#E1E1E1"/>
<path d="M115.094 190.803C115.094 190.803 120.849 192.082 122.64 200.905C121.872 204.614 116.629 201.673 114.583 206.66C112.537 211.648 111.258 213.182 111.258 213.182L109.979 212.671C109.979 212.671 109.979 208.706 108.317 208.706C106.654 208.706 106.015 213.438 107.038 215.484C107.772 216.804 108.886 217.873 110.235 218.553C110.235 218.553 107.805 222.773 106.526 223.285C105.247 223.796 100.772 222.773 98.9805 222.006C97.1905 221.239 93.9935 217.786 91.4355 213.694C88.8775 209.601 86.7035 202.696 88.2385 197.836C88.5704 196.526 89.1903 195.307 90.0531 194.267C90.9158 193.227 91.9996 192.393 93.2255 191.826C94.6897 190.055 96.5834 188.69 98.7255 187.861C101.484 186.957 104.424 186.753 107.281 187.267C110.138 187.78 112.822 188.995 115.094 190.803Z" fill="#1A2E35"/>
<path d="M117.78 231.341L113.687 229.039C113.687 229.039 102.945 228.016 99.1095 225.586L97.0635 228.399C98.0931 230.059 99.4965 231.456 101.162 232.477C102.827 233.499 104.708 234.117 106.654 234.282C113.432 234.921 116.629 232.236 116.629 232.236L117.78 231.341Z" fill="#E1E1E1"/>
<path d="M306.791 103.969V108.7C306.782 109.341 306.608 109.968 306.285 110.521C305.962 111.074 305.501 111.534 304.947 111.856C304.394 112.179 303.766 112.352 303.125 112.359C302.485 112.366 301.853 112.207 301.292 111.897L279.168 98.9815C278.619 98.6487 278.165 98.1793 277.852 97.619C277.538 97.0587 277.375 96.4266 277.378 95.7845V91.0525C277.384 90.4267 277.554 89.8133 277.87 89.2735C278.187 88.7336 278.639 88.2862 279.183 87.9757C279.726 87.6652 280.341 87.5026 280.967 87.5039C281.593 87.5053 282.207 87.6706 282.749 87.9835L305.001 100.899C305.533 101.221 305.975 101.67 306.288 102.206C306.6 102.743 306.773 103.349 306.791 103.969ZM376.999 167.91V172.641C377.016 173.278 376.863 173.907 376.556 174.465C376.248 175.023 375.798 175.488 375.251 175.814C374.704 176.14 374.079 176.314 373.443 176.318C372.806 176.322 372.18 176.157 371.628 175.838L279.04 122.383C278.492 122.082 278.036 121.637 277.72 121.097C277.405 120.556 277.243 119.94 277.25 119.314V114.582C277.259 113.942 277.434 113.315 277.757 112.762C278.08 112.209 278.541 111.75 279.094 111.427C279.648 111.105 280.276 110.932 280.916 110.925C281.557 110.917 282.188 111.076 282.749 111.385L375.208 164.84C375.757 165.142 376.213 165.587 376.528 166.128C376.843 166.669 377.006 167.285 376.999 167.91Z" fill="#80C1D3"/>
<path opacity="0.53" d="M338.762 192.849V197.581C338.732 198.21 338.543 198.822 338.211 199.358C337.879 199.894 337.416 200.336 336.865 200.643C336.315 200.95 335.695 201.112 335.065 201.113C334.435 201.114 333.815 200.955 333.263 200.65L278.913 169.319C278.372 168.977 277.924 168.506 277.611 167.948C277.299 167.389 277.131 166.762 277.123 166.122V161.39C277.128 160.764 277.297 160.15 277.614 159.61C277.93 159.07 278.383 158.622 278.926 158.311C279.47 158.001 280.085 157.838 280.711 157.84C281.337 157.842 281.952 158.007 282.494 158.321L336.972 189.652C337.506 190.001 337.947 190.474 338.259 191.031C338.571 191.588 338.743 192.211 338.762 192.849Z" fill="#80C1D3"/>
<path opacity="0.4" d="M362.548 183.13V187.861C362.539 188.806 362.157 189.71 361.484 190.374C360.812 191.039 359.905 191.411 358.959 191.41C358.334 191.408 357.719 191.243 357.177 190.931L279.04 145.788C278.492 145.487 278.035 145.042 277.72 144.501C277.405 143.961 277.242 143.345 277.25 142.719V137.987C277.256 137.361 277.425 136.747 277.742 136.207C278.058 135.667 278.511 135.22 279.054 134.909C279.597 134.599 280.213 134.436 280.839 134.438C281.465 134.439 282.079 134.605 282.621 134.918L360.758 179.933C361.308 180.265 361.762 180.734 362.076 181.295C362.39 181.855 362.552 182.488 362.548 183.13Z" fill="#80C1D3"/>
<path d="M126.86 155.635C126.86 160.722 124.839 165.601 121.242 169.198C117.645 172.795 112.766 174.816 107.679 174.816C102.591 174.816 97.7124 172.795 94.1152 169.198C90.518 165.601 88.4971 160.722 88.4971 155.635C88.4971 150.547 90.518 145.668 94.1152 142.071C97.7124 138.474 102.591 136.453 107.679 136.453C112.766 136.453 117.645 138.474 121.242 142.071C124.839 145.668 126.86 150.547 126.86 155.635Z" fill="#FF9E2B"/>
<path d="M106.015 164.458L98.0859 158.575L101.027 154.611L105.12 157.68L113.56 146.938L117.397 150.007L106.015 164.458Z" fill="white"/>
<path opacity="0.4" d="M82.74 70.7203C85.1214 72.2793 87.1029 74.3763 88.5247 76.8421C89.9465 79.3079 90.7687 82.0733 90.925 84.9153C90.797 90.0303 87.216 92.2053 82.612 89.5193L8.185 46.5503C3.58 43.9923 0 37.5983 0 32.3553C0 27.1123 3.709 25.0653 8.185 27.7513L82.74 70.7203Z" fill="#80C1D3"/>
</g>
<defs>
<clipPath id="clip0_155_180">
<rect width="377" height="438" fill="white"/>
</clipPath>
</defs>
</svg>
