<svg width="200" height="64" viewBox="0 0 200 64" fill="none" xmlns="http://www.w3.org/2000/svg">
<g clip-path="url(#clip0_24_13093)">
<path d="M8.31325 49.8261C8.3086 49.8027 8.29929 49.7404 8.29463 49.689C8.28842 49.6376 8.26049 49.4693 8.23256 49.3151C8.07583 48.4754 8.03859 48.1 8.03859 47.3366C8.03859 46.673 8.06652 46.3567 8.16428 45.8878C8.28066 45.3332 8.47774 44.7646 8.72137 44.2832C8.84707 44.034 9.06897 43.6492 9.12328 43.5838C9.14656 43.5573 9.1776 43.5074 9.19312 43.4732C9.2257 43.3999 9.37002 43.2005 9.39019 43.2005C9.3964 43.2005 9.4414 43.1476 9.48951 43.0837C9.81383 42.6428 10.6161 41.8904 11.1841 41.4947C12.0112 40.9183 12.4193 40.6768 13.2371 40.2858C14.0099 39.9166 14.2783 39.8044 15.2932 39.429C15.9837 39.1735 17.0886 38.823 17.9855 38.5753C19.2983 38.2138 19.2735 38.2185 19.4473 38.2761C19.6847 38.3556 20.5817 38.9819 20.9541 39.3293C21.0472 39.4149 21.1558 39.5115 21.1946 39.5442C21.235 39.5785 21.2769 39.6221 21.2877 39.6424C21.3126 39.6907 21.3374 39.6907 21.3374 39.6408C21.3374 39.5287 20.9805 38.8105 20.8579 38.675C20.8408 38.6578 20.7958 38.5939 20.757 38.5316C20.7167 38.4693 20.6763 38.4132 20.6639 38.407C20.6531 38.4008 20.5879 38.3322 20.5196 38.2543C20.3846 38.1032 20.1317 37.8711 19.933 37.7169C19.8648 37.6639 19.798 37.6109 19.7856 37.5985C19.7515 37.5642 19.2906 37.2682 19.1106 37.1638C19.0252 37.114 18.5644 36.8741 18.0864 36.6295C16.9691 36.0593 16.4896 35.8054 15.9061 35.4689C15.8161 35.4175 15.6951 35.3474 15.6346 35.3131C15.4034 35.1807 15.3335 35.1526 15.3304 35.1978C15.3304 35.2072 15.3196 35.1947 15.3072 35.1667C15.2963 35.1402 15.2699 35.1059 15.2513 35.0934C15.2094 35.0638 15.1365 35.0607 15.1194 35.0888C15.1116 35.1012 15.1039 35.0888 15.0992 35.0545C15.0915 35.0046 15.0744 34.9922 14.7811 34.8161C14.1464 34.4345 13.0912 33.7646 12.9174 33.6322C12.8693 33.5948 12.8181 33.559 12.8057 33.5496C12.4395 33.3144 11.0397 32.2815 10.6533 31.9622C10.5851 31.9045 10.4314 31.7783 10.312 31.6817C10.1102 31.5166 9.88366 31.3172 9.55934 31.0181C9.4864 30.9527 9.29088 30.7735 9.12484 30.6208C8.63292 30.1706 8.21083 29.7391 7.79961 29.2655C7.73133 29.1892 7.64133 29.091 7.59943 29.0474C7.55598 29.0053 7.47063 28.9072 7.41011 28.8293C7.34804 28.753 7.28287 28.6751 7.26269 28.6579C7.24407 28.6408 7.20372 28.5925 7.17269 28.5489C7.14165 28.5068 7.08889 28.4398 7.05475 28.3993C6.9663 28.2996 6.48835 27.6718 6.33628 27.4537C6.26645 27.354 6.19196 27.2496 6.17024 27.2232C6.02437 27.044 5.24537 25.7572 5.10881 25.4721C5.0995 25.4503 5.07933 25.4176 5.06536 25.3973C5.04053 25.3646 5.04209 25.3631 5.07312 25.3631C5.10261 25.3631 5.13675 25.3942 5.43934 25.7058C5.49366 25.7619 5.59452 25.874 5.66435 25.9551C6.09885 26.4598 7.14941 27.5269 7.5715 27.8946C7.60098 27.9211 7.65995 27.9725 7.7003 28.0114C7.74064 28.0504 7.80737 28.1096 7.84616 28.1438C7.88651 28.1781 7.96876 28.2529 8.02927 28.309C8.0898 28.3666 8.20307 28.4694 8.27911 28.5395C8.3567 28.6096 8.4436 28.6891 8.47309 28.7171C8.50257 28.7436 8.55068 28.7826 8.58016 28.8028C8.60964 28.8231 8.65309 28.8589 8.67482 28.8823C8.69654 28.9041 8.7493 28.9508 8.7912 28.9851C8.83155 29.0194 8.90448 29.0832 8.95259 29.1253C9.00069 29.1689 9.09535 29.2499 9.16363 29.3044C9.23191 29.359 9.3126 29.4275 9.34209 29.4556C9.42278 29.5303 10.1552 30.1114 10.4051 30.2984C10.5245 30.3887 10.6502 30.4853 10.6844 30.5149C10.7744 30.5912 10.7558 30.5772 11.1701 30.8794C11.3811 31.0337 11.5953 31.1895 11.6465 31.2284C11.6977 31.2658 11.8513 31.3733 11.9879 31.4652L12.2362 31.6334L12.3526 31.6381C12.5295 31.6443 12.5682 31.663 12.4301 31.6724L12.3138 31.6802L12.441 31.7783C12.7281 31.998 13.639 32.5837 14.5794 33.1524C14.8525 33.3175 15.1008 33.4686 15.1303 33.4889C15.1597 33.5091 15.2001 33.5262 15.2203 33.5262C15.2684 33.5262 15.3165 33.5527 15.3165 33.5808C15.3165 33.5932 15.377 33.6337 15.453 33.6711C15.5275 33.7085 15.7727 33.8409 15.9993 33.9656C16.2258 34.0902 16.5579 34.2693 16.7363 34.3628C16.9164 34.4578 17.1708 34.5918 17.3028 34.6619C17.7916 34.9205 18.6807 35.3489 19.3465 35.6465C20.3598 36.0998 20.8703 36.4145 21.5764 37.019C21.7797 37.1934 22.2312 37.6468 22.4174 37.8649C22.9838 38.527 23.3423 39.2296 23.4183 39.82C23.4277 39.8932 23.4478 40.0023 23.4633 40.0615C23.4804 40.1222 23.5083 40.2531 23.527 40.3543C23.5456 40.454 23.5658 40.5366 23.572 40.5366C23.5859 40.5366 23.6496 40.3232 23.6496 40.2718C23.6496 40.25 23.6635 40.2032 23.6806 40.1658C23.738 40.0365 23.7504 39.9119 23.7504 39.4072C23.7504 39.0644 23.7442 38.8899 23.7287 38.8074C23.6573 38.4148 23.4401 37.9926 23.0801 37.5455C22.9109 37.3368 22.3647 36.7853 21.8572 36.3117C21.5391 36.0141 21.1605 35.6247 20.9758 35.4035C20.9184 35.3349 20.8563 35.2617 20.8362 35.2399C20.816 35.2181 20.7353 35.1153 20.6562 35.0093C19.933 34.0403 19.5466 33.0293 19.4582 31.8671C19.4349 31.568 19.4489 30.7408 19.4815 30.3949C19.528 29.912 19.5668 29.6534 19.6522 29.2577C19.7437 28.8309 19.7608 28.6626 19.7608 28.1516C19.7623 27.6375 19.7453 27.4631 19.6677 27.1079C19.4675 26.2043 18.9337 25.3023 18.1873 24.606C17.8412 24.2835 17.6053 24.0965 17.1802 23.8052C16.7208 23.4921 16.1436 23.0497 15.3258 22.3813C14.2923 21.5385 13.7988 21.1288 13.5397 20.8998C13.4031 20.7783 13.2495 20.6459 13.1998 20.6054C13.0943 20.5197 12.1058 19.6333 11.5053 19.0849C10.6983 18.3512 9.02863 16.6952 8.58171 16.1889C8.52585 16.125 8.43429 16.0237 8.37843 15.963C8.32256 15.9022 8.19066 15.7573 8.08514 15.642C7.98117 15.5268 7.83685 15.3694 7.76702 15.2915C7.69719 15.2152 7.58857 15.0921 7.52805 15.0189C7.46753 14.9457 7.39149 14.8584 7.3589 14.8242C7.32787 14.7899 7.20528 14.6466 7.08734 14.5048C6.9694 14.363 6.81888 14.1854 6.7506 14.1076C6.59853 13.9331 6.09885 13.313 5.99644 13.1728C5.95454 13.1152 5.89091 13.0326 5.85367 12.9906C5.81798 12.9485 5.7497 12.8582 5.7016 12.7912C5.65349 12.7226 5.61004 12.6665 5.60228 12.6665C5.59452 12.6665 5.58366 12.651 5.579 12.6338C5.5728 12.6151 5.54176 12.5715 5.50917 12.5357C5.47659 12.4998 5.39279 12.3908 5.32296 12.2927C5.25313 12.1945 5.17864 12.0932 5.15692 12.0668C5.13519 12.0418 5.03122 11.8938 4.9257 11.7396C4.82018 11.5854 4.69759 11.4109 4.65259 11.3533C4.60759 11.2956 4.54396 11.2037 4.51138 11.1523C4.48034 11.0993 4.43999 11.0417 4.42448 11.0246C4.35465 10.9467 3.64393 9.82189 3.30098 9.24704C2.88666 8.54912 2.3156 7.46329 1.93231 6.63763C1.20297 5.06887 0.55432 3.11532 0.225341 1.4967C0.0639556 0.699081 -0.0151855 0.116442 0.0282645 0.0401074C0.0406788 0.0151817 0.0561966 0.0369917 0.129131 0.181872C0.29362 0.51058 1.03072 1.84411 1.50091 2.6651C1.9711 3.48453 2.90993 5.0455 3.42668 5.86961C3.52909 6.03318 3.62531 6.19053 3.63927 6.21857C3.65479 6.24661 3.67807 6.28244 3.69358 6.29958C3.7091 6.31515 3.7479 6.3728 3.78048 6.42576C3.92946 6.67035 4.63552 7.74371 4.97226 8.23755C5.17864 8.53822 5.37882 8.83733 5.41762 8.90275C5.45641 8.96663 5.50142 9.0305 5.51538 9.04452C5.52935 9.0601 5.5759 9.12241 5.6178 9.18473C5.6597 9.24704 5.72798 9.34363 5.76832 9.39815C5.80867 9.45424 5.9204 9.61002 6.0135 9.74555C6.10816 9.88109 6.24782 10.0774 6.32386 10.1818C6.40145 10.2861 6.55197 10.4949 6.6606 10.6429C7.00975 11.1211 7.25804 11.453 7.43804 11.6835C7.5327 11.8082 7.67081 11.9873 7.74219 12.0808C7.86944 12.249 7.94703 12.3487 8.09135 12.5263C8.19066 12.6478 8.63137 13.2087 8.76017 13.3754C8.81913 13.4533 8.88896 13.5374 8.91535 13.5623C8.94017 13.5888 9.01776 13.6791 9.08604 13.7648C9.21018 13.9191 9.46468 14.2228 9.57175 14.3412C9.65089 14.4316 10.0559 14.9005 10.2499 15.1279C10.5013 15.4255 10.568 15.4972 11.423 16.4194C11.648 16.6624 11.8824 16.9148 11.9413 16.9802C12.0018 17.0457 12.2362 17.2856 12.4643 17.5146C12.6939 17.742 12.8802 17.9368 12.8802 17.9461C12.8802 17.9555 12.8879 17.9633 12.8972 17.9633C12.9065 17.9633 12.9515 18.0006 12.995 18.0458C13.0803 18.1331 13.5505 18.5802 13.7259 18.7422C13.7864 18.7967 13.9571 18.9572 14.1061 19.0989C14.2566 19.2407 14.4583 19.4245 14.5561 19.5055C14.6539 19.5865 14.7656 19.6831 14.8044 19.719C14.9347 19.842 15.1054 19.9885 15.1163 19.9885C15.1225 19.9885 15.1334 20.0025 15.138 20.0212C15.1489 20.0539 15.2311 20.1131 15.2668 20.1131C15.2792 20.1131 15.2854 20.0757 15.287 19.9853C15.2885 19.9137 15.2932 19.7937 15.2994 19.7158C15.3087 19.6037 15.3118 19.6317 15.3103 19.8638C15.3087 20.1224 15.3118 20.1567 15.3382 20.1957C15.3553 20.2206 15.467 20.3187 15.588 20.4138C15.9884 20.73 16.4244 21.0836 16.4881 21.1428C16.5222 21.174 16.6231 21.255 16.7131 21.3235C16.8031 21.3921 16.9908 21.5339 17.1321 21.6413C17.2733 21.7488 17.5526 21.9545 17.7528 22.0994C19.0345 23.0232 19.5916 23.5404 20.1782 24.3473C20.6624 25.0157 21.072 25.8709 21.2505 26.5891C21.3839 27.125 21.415 27.3743 21.4258 27.999C21.4352 28.5738 21.4258 28.7047 21.3436 29.1549C21.2753 29.5303 21.1931 30.0616 21.1512 30.4027C21.1341 30.5492 21.1093 30.7268 21.0969 30.8C21.0705 30.9495 21.0674 31.124 21.0891 31.1583C21.1077 31.1879 21.1217 31.1708 21.1651 31.0648C21.2179 30.9386 21.3405 30.7112 21.4833 30.476C21.7145 30.0943 21.9628 29.7827 22.3305 29.4135C22.765 28.9773 23.2585 28.5847 23.7349 28.2965C23.9878 28.1438 24.5775 27.8463 24.8832 27.7154C25.1486 27.6017 25.4869 27.4818 25.5396 27.4818C25.5738 27.4818 25.5738 27.4833 25.552 27.5269C25.5396 27.5503 25.4962 27.6095 25.4574 27.6547C25.3845 27.7388 25.192 28.0239 25.0555 28.2482C25.0151 28.3152 24.9732 28.3791 24.9639 28.3884C24.9282 28.4258 24.6613 29.0022 24.5605 29.2577C24.3572 29.7718 24.2827 30.1691 24.261 30.8249C24.2439 31.3857 24.2842 31.8032 24.4037 32.28C24.5046 32.6834 24.7653 33.4047 24.9515 33.7989C25.1253 34.1634 25.4729 34.7834 25.8609 35.419C26.0129 35.6698 26.0502 35.729 26.4971 36.4239C26.6321 36.6342 26.8245 36.9426 26.9238 37.1093C27.0247 37.276 27.1442 37.477 27.1923 37.5533C27.3164 37.7589 27.5632 38.2185 27.7028 38.5036C27.9728 39.0566 28.1792 39.672 28.2925 40.264C28.3251 40.4338 28.3282 40.4945 28.3282 40.9183C28.3282 41.3778 28.3266 41.3887 28.2847 41.5726C28.1544 42.1225 27.948 42.6132 27.6625 43.0447C27.3754 43.4794 27.2683 43.6102 26.8307 44.0558C26.494 44.4001 26.2504 44.5746 25.7879 44.8051C25.1672 45.1151 24.5201 45.327 23.7706 45.4657C23.5177 45.5124 22.8178 45.5903 22.3849 45.6183C21.716 45.6619 20.006 45.6401 19.0873 45.5763C18.912 45.5638 18.5457 45.5435 18.2726 45.5295C17.9995 45.5155 17.5743 45.4953 17.326 45.4812C16.412 45.4329 15.391 45.4127 15.2032 45.4376L15.1303 45.4361L15.1225 45.4283L15.1147 45.4267L14.9565 45.4345C14.868 45.4392 14.6926 45.447 14.5638 45.4516C13.4559 45.4937 12.4457 45.6962 11.631 46.0389C11.0506 46.282 10.4702 46.6543 10.0528 47.05C9.56399 47.5111 9.19622 48.0143 8.875 48.6577C8.67171 49.0643 8.52429 49.4117 8.47153 49.6158C8.4436 49.7202 8.41567 49.8012 8.40791 49.7965C8.4017 49.7918 8.3955 49.7747 8.3955 49.7575C8.3955 49.6983 8.36601 49.7295 8.36136 49.7934C8.35515 49.8682 8.32411 49.89 8.31325 49.8261Z" fill="#7297B2"/>
<path d="M11.088 63.4654C9.55797 63.2909 8.46862 63.0042 7.26288 62.4574C6.95252 62.3157 6.6732 62.1739 6.6732 62.1568C6.6732 62.1505 6.64993 62.1396 6.62199 62.135C6.55992 62.1241 5.82438 61.6847 5.54661 61.4947C5.43643 61.4199 5.28125 61.3077 5.20056 61.247C5.11986 61.1862 4.99417 61.0927 4.92124 61.0398C4.8483 60.9868 4.72881 60.8902 4.65588 60.8264C4.58295 60.7625 4.44949 60.6472 4.35949 60.5709C4.00258 60.2671 3.57739 59.8356 3.31514 59.5115C3.24841 59.429 3.1553 59.3184 3.1103 59.2685C3.00478 59.1532 2.66959 58.7077 2.49424 58.4491C1.57093 57.0828 0.925386 55.5265 0.630546 53.9469C0.470712 53.0838 0.4164 52.3298 0.448987 51.4013C0.484679 50.3498 0.537439 49.9634 0.776414 49.0007C0.999872 48.094 1.23574 47.449 1.62679 46.6639C1.81301 46.2869 1.96508 46.0065 2.01164 45.9504C2.03181 45.9255 2.04888 45.8959 2.04888 45.885C2.04888 45.874 2.07216 45.832 2.10164 45.7946C2.13112 45.7556 2.16682 45.7011 2.18078 45.6746C2.22268 45.5921 2.22423 45.6341 2.18233 45.7354C2.16061 45.7868 2.14199 45.8398 2.14199 45.8538C2.14199 45.8663 2.11405 45.9426 2.08147 46.022C1.96508 46.2931 1.75404 46.9552 1.65473 47.354C1.49179 48.0036 1.36299 48.8059 1.31644 49.468C1.29161 49.8185 1.29161 50.9324 1.31799 51.2206C1.37075 51.8188 1.55386 52.8346 1.70128 53.344C1.82542 53.7739 2.08147 54.517 2.21337 54.8333C2.26613 54.9595 2.68666 55.8116 2.78598 55.9939C2.81236 56.0406 2.86512 56.131 2.90391 56.1933C2.94271 56.2556 3.01875 56.3802 3.07151 56.4706C3.12582 56.5609 3.21582 56.698 3.27169 56.7759C3.3291 56.8538 3.43618 57.0049 3.51066 57.1109C3.69222 57.371 3.87533 57.6063 4.11741 57.8945C4.26328 58.0689 5.01279 58.823 5.23004 59.0161C5.53419 59.2856 5.97335 59.6315 6.23094 59.8044C6.29922 59.8496 6.35819 59.8932 6.35974 59.901C6.36285 59.9088 6.39388 59.929 6.42647 59.9462C6.46061 59.9633 6.50095 59.9882 6.51492 60.0007C6.55372 60.035 7.17443 60.4057 7.30168 60.4696C7.3622 60.5008 7.43047 60.5413 7.45375 60.5615C7.47858 60.5818 7.50496 60.5989 7.51427 60.5989C7.52824 60.5989 7.8029 60.7329 7.91463 60.7936C7.97515 60.8279 8.64242 61.1083 8.82088 61.1753C9.30969 61.3591 10.2687 61.6224 10.7854 61.7128C10.9096 61.7346 11.2618 61.7813 11.5691 61.8172L12.1277 61.8841L12.8959 61.8826C13.9588 61.8826 14.2801 61.8514 15.1848 61.6723C15.8148 61.5461 16.4122 61.3825 16.9026 61.2002C17.6071 60.9401 18.5273 60.4821 19.0968 60.1097C19.4584 59.8729 19.5623 59.8028 19.6539 59.7359C19.7051 59.6969 19.7517 59.6658 19.7563 59.6658C19.761 59.6642 19.7889 59.6439 19.8184 59.619C19.8479 59.5925 19.9875 59.4819 20.1303 59.3713C20.2715 59.2607 20.422 59.1392 20.4639 59.1003C20.5043 59.0613 20.616 58.9585 20.7091 58.8728C21.1126 58.5036 21.5641 58.0331 21.8155 57.7169C21.8807 57.6359 21.963 57.5377 21.9986 57.4988C22.0576 57.4349 22.399 56.9613 22.5418 56.7448C22.6023 56.6513 22.6768 56.5641 22.6938 56.5641C22.7218 56.5641 22.6845 56.6513 22.4937 57.0283C22.2578 57.4988 22.1305 57.7278 21.9428 58.0238C21.7876 58.2684 21.4416 58.7575 21.2678 58.9787C21.1995 59.0644 21.111 59.1797 21.0691 59.2311C21.0288 59.2841 20.9621 59.3635 20.9217 59.4071C20.8814 59.4523 20.8038 59.5396 20.7479 59.6034C20.5819 59.7935 19.837 60.535 19.7191 60.627C19.6896 60.6503 19.5748 60.7453 19.4646 60.8388C19.2846 60.9915 19.013 61.2002 18.7352 61.3981C18.5723 61.5149 18.0059 61.867 17.7452 62.0119C17.4798 62.1614 16.9212 62.4403 16.6357 62.5665C16.3036 62.7129 15.8086 62.8858 15.1382 63.0899C14.6401 63.241 14.0116 63.3594 13.214 63.4513C12.9781 63.4778 12.8121 63.4841 12.1433 63.4887C11.4372 63.495 11.3239 63.4918 11.088 63.4654Z" fill="#366283"/>
<path d="M19.444 34.7157C19.3975 34.6971 19.2159 34.6051 19.0405 34.5117C18.8652 34.4198 18.5269 34.2406 18.2879 34.1144C17.2203 33.5536 16.0471 32.8915 15.2945 32.4273C15.2371 32.3914 15.1828 32.3696 15.1518 32.3696C15.1161 32.3696 15.099 32.3603 15.0928 32.3416C15.0835 32.312 14.9345 32.2107 14.6955 32.0689C14.5233 31.9692 13.8188 31.5159 13.6993 31.4302C13.6543 31.3991 13.5472 31.3274 13.4619 31.2744C13.3765 31.2199 13.2648 31.1451 13.2151 31.1078C13.1655 31.0688 13.091 31.019 13.0506 30.9956C12.8831 30.9006 11.8977 30.2167 11.6308 30.0095C11.5625 29.9565 11.4895 29.9035 11.4678 29.8926C11.4461 29.8817 11.4089 29.8537 11.3825 29.8303C11.3576 29.8069 11.3049 29.7711 11.2661 29.7493C11.2273 29.7259 11.1575 29.6745 11.1094 29.6325C11.0613 29.592 10.9511 29.5063 10.8642 29.444C10.7773 29.3801 10.6081 29.2508 10.4871 29.1558C10.3661 29.0592 10.2 28.9283 10.1162 28.8644C9.89587 28.6931 9.44895 28.3254 9.28912 28.1852C9.21308 28.1167 9.09049 28.0138 9.01755 27.9546C8.94462 27.8955 8.81427 27.7833 8.72892 27.7054C8.64357 27.6275 8.47288 27.4764 8.35029 27.3689C8.22614 27.2614 8.10821 27.1539 8.08648 27.1305C8.06476 27.1056 7.96544 27.0121 7.86768 26.9218C7.64733 26.7177 6.90712 25.9871 6.81402 25.8811C6.77677 25.8391 6.6247 25.6771 6.47883 25.5228C6.33141 25.3686 6.10175 25.1131 5.96674 24.9542C5.83329 24.7953 5.67811 24.6146 5.62069 24.5507C5.56328 24.4869 5.49655 24.4059 5.47017 24.37C5.44534 24.3357 5.39724 24.2797 5.36465 24.2454C5.33361 24.2127 5.30723 24.1784 5.30723 24.1675C5.30723 24.1582 5.28241 24.127 5.25292 24.0974C5.22344 24.0678 5.17999 24.0164 5.15671 23.9821C5.13188 23.9463 5.07757 23.8746 5.03412 23.8232C4.98912 23.7702 4.91774 23.6737 4.87429 23.6082C4.82928 23.5428 4.78739 23.4898 4.77963 23.4898C4.77187 23.4898 4.761 23.4758 4.75635 23.4571C4.75014 23.4384 4.72221 23.3979 4.69428 23.3668C4.66635 23.3356 4.52669 23.1424 4.38237 22.9368C3.67475 21.9226 3.03232 20.801 2.57299 19.7743C2.41781 19.4269 2.05624 18.5234 2.03452 18.4284C2.00969 18.3162 2.05159 18.3318 2.16021 18.4751C2.27039 18.6184 2.35729 18.7275 2.41005 18.7851C2.43798 18.8147 2.4954 18.8848 2.5373 18.9393C2.58075 18.9939 2.67696 19.1123 2.75299 19.2042C2.82748 19.2945 2.95938 19.4565 3.04473 19.564C3.13008 19.6715 3.2325 19.7977 3.27439 19.8444C3.31629 19.8912 3.38302 19.9691 3.42492 20.0189C3.46526 20.0672 3.6282 20.2604 3.78648 20.4473C3.94477 20.6343 4.09839 20.8119 4.12788 20.8415C4.18995 20.9022 4.36685 21.1001 4.70204 21.4802C4.82618 21.622 4.97981 21.7902 5.04343 21.8556C5.20792 22.0254 5.34292 22.1672 5.74949 22.6019C6.14054 23.0209 7.08868 23.9759 7.28576 24.1488C7.47663 24.3171 7.74199 24.5616 7.8444 24.6676C7.94993 24.7751 8.26183 25.0711 8.42012 25.2113C8.47753 25.2627 8.55047 25.3297 8.5815 25.3593C8.61254 25.3889 8.72116 25.4839 8.82203 25.5696C9.016 25.7347 9.10601 25.8157 9.28601 25.9855C9.34653 26.0447 9.51102 26.188 9.65224 26.3049C9.7919 26.4217 9.91759 26.5292 9.93156 26.5448C9.94397 26.5604 10.0014 26.6102 10.0573 26.6554C10.1147 26.7006 10.3273 26.8751 10.5305 27.0433C11.128 27.5356 12.253 28.4127 12.5774 28.6385C12.6379 28.6806 12.703 28.7305 12.7248 28.7492C12.7465 28.7694 12.8039 28.8115 12.852 28.8442C12.9994 28.9439 13.2757 29.1495 13.2819 29.1635C13.2834 29.1713 13.347 29.2165 13.4215 29.2648C13.6202 29.3926 13.9553 29.6293 13.9817 29.6605C13.9941 29.6745 14.0221 29.6948 14.0438 29.7057C14.1074 29.7384 14.8818 30.2572 14.9811 30.3351C15.0323 30.374 15.085 30.4067 15.1006 30.4067C15.1161 30.4067 15.1378 30.4192 15.1487 30.4348C15.1595 30.4519 15.2045 30.4831 15.2464 30.5064C15.2899 30.5298 15.3411 30.5656 15.3628 30.5843C15.3845 30.6046 15.4156 30.6248 15.4326 30.631C15.4482 30.6373 15.5428 30.6934 15.6421 30.7557C15.9727 30.9675 16.4397 31.2573 16.6353 31.371C16.7423 31.4349 16.8556 31.5066 16.8867 31.5315C16.9192 31.5564 16.972 31.586 17.0046 31.5969C17.0356 31.6094 17.0899 31.6359 17.1225 31.6592C17.1551 31.681 17.1939 31.6997 17.2094 31.6997C17.2234 31.6997 17.2544 31.7215 17.2793 31.7465C17.3041 31.773 17.3367 31.7932 17.3506 31.7932C17.3662 31.7932 17.4081 31.8212 17.4438 31.854C17.4779 31.8882 17.5275 31.921 17.5524 31.9256C17.5772 31.9319 17.602 31.9459 17.6098 31.9583C17.616 31.9692 17.7091 32.0253 17.8146 32.083C17.9217 32.1391 18.0645 32.2216 18.1327 32.2668C18.201 32.312 18.2786 32.3556 18.3034 32.3634C18.3872 32.3883 18.7007 32.5768 18.7317 32.622C18.7488 32.6454 18.7721 32.7186 18.786 32.784C18.8202 32.9647 18.9505 33.4071 19.0467 33.6642C19.1305 33.8901 19.2221 34.0942 19.4362 34.5195C19.4518 34.5491 19.4797 34.5911 19.4999 34.6129C19.5387 34.6565 19.5619 34.7298 19.5418 34.7422C19.534 34.7469 19.4906 34.736 19.444 34.7157Z" fill="#366283"/>
<path d="M11.7476 60.1544C11.7181 60.1529 11.6173 60.142 11.5226 60.1342C10.815 60.0657 9.90566 59.8569 9.14839 59.5889C8.5556 59.3786 7.87127 59.0608 7.38711 58.7695C7.05503 58.5701 6.57242 58.243 6.44983 58.1339C6.41414 58.1043 6.35517 58.0591 6.31638 58.0342C6.27758 58.0093 6.20465 57.9532 6.15344 57.908C6.10223 57.8644 5.97964 57.76 5.88188 57.6775C5.5979 57.436 5.04236 56.8689 4.90735 56.682C4.88253 56.6493 4.85149 56.6119 4.83597 56.5994C4.78942 56.5605 4.55665 56.2707 4.43561 56.0993C4.05542 55.5634 3.79162 55.1304 3.54644 54.6428C3.04521 53.6488 2.73951 52.7063 2.57036 51.6439C2.47105 51.0207 2.44777 50.65 2.45708 49.8555C2.46329 49.3133 2.4695 49.1638 2.49743 48.9488C2.72554 47.1853 3.31833 45.6181 4.26026 44.283C4.44803 44.0166 4.732 43.6505 4.89339 43.4667C5.15099 43.1723 5.73756 42.5927 6.02154 42.3528C6.06809 42.3123 6.13792 42.2531 6.17672 42.2204C6.40017 42.0303 7.15124 41.5131 7.4647 41.334C7.96593 41.0473 8.94976 40.5956 9.15149 40.5582C9.18408 40.5519 9.22908 40.5317 9.25236 40.513C9.27719 40.4912 9.32684 40.4725 9.3765 40.4663C9.4215 40.46 9.47581 40.4476 9.49599 40.4398C9.51616 40.4335 9.53633 40.4289 9.53944 40.4335C9.5534 40.4476 9.46961 40.5099 9.34236 40.5784C8.97614 40.7763 8.35542 41.1688 8.23438 41.2779C8.21732 41.2919 8.08231 41.3979 7.93489 41.5116C7.78592 41.6269 7.64471 41.739 7.62298 41.7624C7.5997 41.7873 7.5128 41.8652 7.42901 41.9384C7.23659 42.1036 6.88899 42.4525 6.75398 42.6114C6.69812 42.6784 6.64846 42.7329 6.64225 42.7329C6.6376 42.7329 6.56777 42.8139 6.48863 42.9121C6.40948 43.0102 6.3381 43.0912 6.33189 43.0912C6.32414 43.0912 6.2962 43.1286 6.26982 43.1738C6.24189 43.2174 6.20154 43.2766 6.17827 43.3016C6.07585 43.4137 5.69101 43.9917 5.49393 44.3297C5.18668 44.8563 4.78942 45.7536 4.61717 46.3082C4.42165 46.9407 4.26492 47.6713 4.19974 48.2477C4.14698 48.7135 4.12525 49.815 4.15939 50.273C4.20905 50.9351 4.41233 51.9118 4.64355 52.6004C4.8158 53.1176 5.21926 54.0554 5.34806 54.2377C5.36668 54.2642 5.38686 54.3016 5.39306 54.3218C5.39927 54.3421 5.4272 54.3888 5.45514 54.4247C5.48307 54.462 5.511 54.5119 5.51566 54.5368C5.52186 54.5602 5.53893 54.5913 5.5529 54.6069C5.56686 54.6209 5.60721 54.6786 5.64135 54.7362C5.72825 54.8811 6.14413 55.4746 6.25896 55.6195C6.31172 55.685 6.39552 55.7862 6.44517 55.8454C6.49328 55.9031 6.58328 56.0152 6.64225 56.0931C6.73846 56.2209 7.31107 56.7957 7.53608 56.9889C7.57953 57.0263 7.6416 57.0808 7.67574 57.1104C7.79988 57.2194 8.28715 57.5902 8.42215 57.679C8.48267 57.718 8.53543 57.7569 8.53854 57.7631C8.5525 57.8005 9.37184 58.2741 9.69462 58.4315C9.89169 58.528 10.0577 58.6137 10.0624 58.6215C10.0686 58.6293 10.0981 58.6449 10.1307 58.6558C10.1617 58.6651 10.3386 58.7321 10.5217 58.8022C11.2992 59.1013 12.0207 59.2867 12.8696 59.402C13.2373 59.4519 13.512 59.4643 14.2677 59.4643H14.9784L15.4238 59.4004C15.9918 59.3194 16.223 59.2774 16.5551 59.1917C16.8251 59.1216 16.9058 59.1091 16.9213 59.1356C16.9306 59.1512 16.8546 59.1917 16.7832 59.2073C16.7583 59.2135 16.6885 59.2462 16.628 59.2774C16.3223 59.4441 15.5092 59.7276 14.9117 59.874C13.9356 60.1155 13.4934 60.1669 12.4227 60.1622C12.0813 60.1622 11.7771 60.1576 11.7476 60.1544Z" fill="#466F91"/>
<path d="M18.4988 30.7953C18.4802 30.775 18.4461 30.7485 18.4228 30.7361C18.2629 30.6551 18.0069 30.5071 17.5926 30.2562C17.3288 30.0973 17.0634 29.9369 17.0029 29.9011C16.8384 29.806 16.2255 29.4259 15.5644 29.0115C14.9809 28.6439 14.1166 28.069 13.4415 27.6001C13.2445 27.463 13.021 27.3072 12.945 27.2543C12.4267 26.8944 11.0952 25.8927 10.6204 25.5063C10.4963 25.4066 10.3597 25.2976 10.3147 25.2649C10.2402 25.2104 9.68623 24.7492 9.13224 24.2788C9.00499 24.1713 8.78464 23.975 8.64343 23.8441C8.50221 23.7132 8.32996 23.5559 8.26013 23.492C7.77443 23.0496 7.55097 22.8346 6.9675 22.2473C6.60438 21.8828 6.26764 21.5354 6.22109 21.4762C6.17298 21.4154 6.06901 21.297 5.99142 21.2113C5.75555 20.9574 5.66089 20.8515 5.57089 20.7424C5.52433 20.6863 5.46071 20.6147 5.43123 20.5835C5.38157 20.5321 5.24036 20.3623 4.78724 19.8093C4.70965 19.7142 4.63051 19.6114 4.61188 19.5787C4.59171 19.5475 4.56999 19.5211 4.56223 19.5211C4.55447 19.5211 4.54361 19.5055 4.53895 19.4868C4.53274 19.4696 4.51257 19.4385 4.49395 19.4214C4.37912 19.3123 3.44339 17.9725 3.30528 17.7217C3.27735 17.6703 3.24166 17.6142 3.22614 17.5971C3.1532 17.513 2.64577 16.6421 2.40835 16.1935C2.15541 15.7168 1.83729 15.0313 1.59676 14.4456C1.54555 14.3225 1.47728 14.1636 1.44314 14.0919C1.409 14.0187 1.38106 13.947 1.38106 13.9315C1.38106 13.9159 1.27244 13.5747 1.14054 13.1728C1.00708 12.7724 0.903115 12.439 0.909322 12.4344C0.921736 12.4219 1.05053 12.5637 1.08157 12.626C1.09554 12.6525 1.12502 12.6914 1.14675 12.7148C1.16847 12.7366 1.23675 12.8269 1.29572 12.9157C1.4152 13.0933 1.83419 13.6947 1.91333 13.8022C1.94126 13.8396 1.98161 13.9019 2.00488 13.9393C2.02816 13.9766 2.0623 14.0234 2.08092 14.0421C2.12592 14.0873 2.35714 14.4004 2.413 14.4892C2.43783 14.5281 2.47973 14.5842 2.50766 14.6138C2.53559 14.6434 2.59611 14.7182 2.64112 14.7805C2.95302 15.2042 3.75064 16.234 3.8453 16.3368C3.87013 16.3633 3.98031 16.4957 4.08893 16.6328C4.35894 16.9677 4.74999 17.4413 4.82913 17.527C4.95638 17.6641 5.54916 18.3402 5.61434 18.4243C5.65158 18.4711 5.68727 18.5084 5.69503 18.5084C5.70124 18.5084 5.75555 18.5661 5.81607 18.6362C5.87504 18.7079 5.98522 18.8294 6.05815 18.9057C6.26143 19.116 6.28937 19.1472 6.37627 19.2515C6.41972 19.3045 6.49575 19.3902 6.54541 19.44C6.59352 19.4915 6.71455 19.6192 6.81232 19.7251C7.24061 20.1863 8.86999 21.7955 9.20207 22.0837C9.40846 22.2629 9.48294 22.3299 9.58381 22.4265C9.62881 22.4701 9.70485 22.5402 9.75295 22.5822C9.87089 22.6866 10.0137 22.8175 10.0928 22.8938C10.1285 22.9281 10.1844 22.9779 10.2185 23.0029C10.2526 23.0278 10.3054 23.073 10.3364 23.1041C10.3675 23.1337 10.445 23.2038 10.5118 23.2599C10.5785 23.316 10.6499 23.3783 10.6732 23.4001C10.6964 23.4219 10.743 23.4609 10.7771 23.4858C10.8113 23.5107 10.8609 23.5528 10.8873 23.5793C10.9137 23.6042 10.9882 23.6665 11.0534 23.7164C11.1185 23.7662 11.2271 23.8581 11.2954 23.9189C11.4273 24.0388 11.4491 24.056 11.6539 24.2211C11.7268 24.2788 11.9084 24.4252 12.0574 24.5451C12.2063 24.6651 12.3755 24.7975 12.4344 24.8396C12.4919 24.8832 12.5384 24.9221 12.5384 24.9284C12.5384 24.9346 12.5881 24.972 12.647 25.0125C12.7076 25.053 12.7619 25.0982 12.7712 25.1122C12.7789 25.1278 12.8069 25.1496 12.8332 25.1605C12.8581 25.1714 12.8798 25.1854 12.8798 25.1932C12.8798 25.201 12.9108 25.2259 12.9496 25.2509C12.9869 25.2742 13.0474 25.3194 13.0846 25.3521C13.1219 25.3848 13.1917 25.4378 13.2414 25.469C13.291 25.5017 13.3717 25.5609 13.4198 25.6014C13.4679 25.6419 13.5409 25.698 13.5812 25.726C13.62 25.754 13.8404 25.9129 14.07 26.0796C14.2981 26.2479 14.5883 26.4566 14.7156 26.5454C14.8413 26.6342 14.9437 26.7137 14.9437 26.7199C14.9437 26.7277 14.9639 26.7339 14.9887 26.7339C15.0213 26.7339 15.0539 26.7542 15.1066 26.8056C15.2447 26.9396 17.006 28.0955 17.9153 28.6501C18.0612 28.7373 18.2009 28.8261 18.2273 28.8448C18.2521 28.8651 18.3436 28.918 18.429 28.9632C18.5128 29.0084 18.6292 29.0707 18.6866 29.1003L18.7921 29.1564L18.7828 29.3044C18.7766 29.3916 18.7611 29.4789 18.7456 29.5147C18.7285 29.5537 18.7083 29.6752 18.6912 29.8419C18.6649 30.1192 18.5966 30.694 18.5811 30.7812C18.5702 30.8404 18.5469 30.8451 18.4988 30.7953Z" fill="#466F91"/>
<path d="M26.7289 35.3231C26.6901 35.2639 26.6156 35.1642 26.5644 35.1003C26.4387 34.9414 26.1035 34.4413 25.9374 34.1656C25.7962 33.9304 25.5697 33.4786 25.4704 33.2387C25.3881 33.0362 25.2236 32.547 25.1786 32.3663C25.1367 32.1965 25.0995 31.9831 25.084 31.8008C25.0762 31.7244 25.0653 31.6839 25.0514 31.6777C25.0328 31.6715 25.0328 31.6668 25.0529 31.6512C25.0747 31.6356 25.0762 31.6185 25.0622 31.5328C25.0405 31.4051 25.0405 30.9736 25.0607 30.7383C25.1197 30.0482 25.3416 29.316 25.7264 28.5449C25.8955 28.2068 26.2866 27.5556 26.3564 27.498C26.3704 27.4855 26.403 27.4357 26.4278 27.3858C26.4526 27.336 26.4759 27.2955 26.4806 27.2955C26.4914 27.2955 26.614 27.431 26.6606 27.4949C26.6839 27.5276 26.8437 27.688 27.0144 27.8532C27.2487 28.0775 27.3372 28.1523 27.3651 28.1523C27.4303 28.1523 27.4085 28.0822 27.2875 27.903C27.2223 27.8064 27.0004 27.3656 27.0004 27.3328C26.9927 27.3188 26.9927 27.3188 26.9849 27.311C26.9415 27.311 26.7133 26.7206 26.5737 26.2423C26.4542 25.8357 26.3968 25.5008 26.3471 24.9353C26.3099 24.4975 26.3688 23.784 26.4883 23.2419C26.614 22.6733 26.9244 21.7791 27.1044 21.4706C27.1618 21.3725 27.2161 21.3226 27.1959 21.3849C27.1913 21.4021 27.1804 21.5065 27.1711 21.6171C27.1618 21.7292 27.1447 21.8835 27.1323 21.9598C27.0594 22.4178 27.0594 23.2201 27.1339 23.6579C27.2239 24.1938 27.466 24.9057 27.6646 25.2188C27.7111 25.2952 27.781 25.4073 27.8167 25.4712C27.8539 25.5351 27.9175 25.6286 27.9579 25.6815C27.9982 25.7329 28.0494 25.8015 28.0696 25.8311C28.1736 25.9822 28.7601 26.6723 28.9619 26.8811C29.0457 26.9668 29.1388 27.0696 29.1714 27.107C29.2024 27.1459 29.2614 27.2113 29.3033 27.255C29.3933 27.35 29.6586 27.7021 29.7843 27.8937C29.9612 28.1647 30.1086 28.523 30.1599 28.805C30.1924 28.9904 30.1924 29.5466 30.1599 29.7179C30.1211 29.9127 30.1273 29.9734 30.1955 30.1354C30.2964 30.3753 30.3088 30.4283 30.3166 30.6838C30.3259 30.9704 30.298 31.1153 30.1831 31.3552C30.0419 31.6528 29.8247 31.9581 29.7843 31.9192C29.7812 31.9145 29.7704 31.807 29.7626 31.6793C29.7471 31.4113 29.7191 31.3038 29.6245 31.1449C29.55 31.0172 29.446 30.9206 29.3467 30.8848C29.3064 30.8707 29.2365 30.8411 29.19 30.8178C29.1093 30.7788 29.0938 30.7773 28.8455 30.7773C28.6205 30.7773 28.5832 30.7804 28.5569 30.8053C28.5398 30.8193 28.4839 30.8489 28.4312 30.8692C28.2993 30.9221 28.2124 30.986 28.0199 31.1745C27.7686 31.4175 27.632 31.6154 27.4132 32.0469C27.2906 32.2884 27.2254 32.4722 27.1354 32.8414C27.0144 33.3353 26.9833 33.5222 26.9461 34.0176C26.9321 34.189 26.9182 34.3385 26.9151 34.3494C26.9104 34.3603 26.8964 34.5971 26.884 34.8744C26.8716 35.1517 26.8561 35.3901 26.8514 35.4041C26.8344 35.4493 26.8002 35.4275 26.7289 35.3231ZM29.6385 29.2755C29.6385 29.1244 29.5686 28.9873 29.4212 28.8471C29.3188 28.7505 29.1714 28.6508 29.131 28.6508C29.0984 28.6508 29.1077 28.7567 29.1496 28.8767C29.2148 29.0636 29.3467 29.2225 29.5205 29.3269C29.5717 29.3581 29.6183 29.383 29.626 29.383C29.6322 29.383 29.6385 29.3347 29.6385 29.2755ZM27.4815 28.2255C27.4815 28.2146 27.4737 28.1975 27.4629 28.1866C27.4349 28.1585 27.4039 28.1632 27.4039 28.1959C27.4039 28.2115 27.4085 28.2302 27.4147 28.2348C27.4318 28.2535 27.4815 28.2458 27.4815 28.2255Z" fill="#5B82A3"/>
<path d="M18.8539 28.0481C18.8415 28.0434 18.7919 28.0122 18.7453 27.9811C18.6988 27.9499 18.5172 27.8331 18.3419 27.724C17.9136 27.4545 16.5713 26.5759 16.4642 26.4949C16.4176 26.459 16.3385 26.4061 16.2888 26.3765C16.2392 26.3469 16.1492 26.2846 16.0887 26.2394C16.0297 26.1942 15.9583 26.1459 15.9304 26.1319C15.904 26.1179 15.8342 26.0696 15.7736 26.0228C15.7147 25.9777 15.5781 25.8826 15.471 25.8125C15.364 25.744 15.2243 25.6474 15.1607 25.5991C15.0971 25.5493 14.9776 25.4651 14.8969 25.4106C14.7339 25.3016 13.9332 24.7189 13.8324 24.6364C13.7967 24.6083 13.7625 24.5849 13.7563 24.5849C13.7501 24.5849 13.7191 24.5631 13.688 24.5366C13.657 24.5102 13.5189 24.4058 13.3808 24.3045C13.2427 24.2033 13.1247 24.1098 13.117 24.0973C13.1108 24.0849 13.0813 24.0631 13.0534 24.049C13.0254 24.035 12.9463 23.9758 12.8749 23.9197C12.8051 23.8621 12.6996 23.7811 12.639 23.739C12.5801 23.6954 12.4714 23.6097 12.3985 23.549C12.3256 23.4867 12.1518 23.3464 12.0106 23.2358C11.8694 23.1252 11.59 22.8978 11.3898 22.7311C11.1897 22.5628 10.9755 22.3852 10.9135 22.3338C10.8529 22.2824 10.6853 22.1422 10.541 22.0238C10.3983 21.9054 10.2276 21.7574 10.1639 21.6967C10.0181 21.5596 9.85358 21.41 9.54322 21.1343C9.02027 20.67 7.60039 19.2758 7.19227 18.8271C7.09916 18.7243 7.00761 18.6261 6.99054 18.6074C6.9564 18.5716 6.87881 18.489 6.7469 18.3473C6.6988 18.2943 6.615 18.1977 6.56069 18.1323C6.50638 18.0669 6.38999 17.9313 6.29999 17.8316C6.20999 17.7319 6.11067 17.6135 6.07808 17.5699C6.0455 17.5247 5.98498 17.4546 5.94463 17.411C5.82204 17.2817 5.51479 16.9 5.25253 16.5542C5.18736 16.4685 5.09891 16.3548 5.05391 16.3003C5.0089 16.2473 4.95459 16.171 4.93287 16.132C4.90959 16.0931 4.8708 16.0385 4.84441 16.0121C4.72182 15.8843 4.02818 14.8608 3.64333 14.2408C3.06607 13.3123 2.53691 12.3012 2.13655 11.3665C1.73929 10.438 1.29082 9.07492 1.18996 8.49228C1.17599 8.41906 1.14806 8.32403 1.12478 8.27886C1.09685 8.22589 1.08599 8.1885 1.09375 8.16513L1.10461 8.13086L1.1434 8.16825C1.17754 8.19941 1.32341 8.41439 1.47859 8.66365C1.50807 8.71038 1.62291 8.89265 1.73153 9.06869C1.93482 9.39428 2.46242 10.2013 2.71847 10.5798C3.01176 11.0129 3.42453 11.6064 3.55954 11.7934C3.63713 11.8993 3.77523 12.0925 3.86679 12.2218C3.95679 12.3511 4.04835 12.4742 4.06852 12.496C4.08714 12.5178 4.13835 12.5832 4.18025 12.644C4.22215 12.7032 4.29663 12.8029 4.34474 12.8621C4.3944 12.9228 4.46423 13.0163 4.49992 13.0724C4.53716 13.1269 4.58682 13.1939 4.61165 13.2204C4.63648 13.2453 4.72338 13.3559 4.80717 13.4634C4.88942 13.5725 5.00735 13.722 5.06632 13.7968C5.36892 14.1785 5.6172 14.4869 5.68393 14.5664C5.72428 14.6147 5.79721 14.7066 5.84687 14.7704C5.89653 14.8343 5.95705 14.9091 5.98187 14.9356C6.00825 14.9621 6.10912 15.0805 6.20688 15.1989C6.30465 15.3188 6.55293 15.6086 6.75777 15.8454C6.9626 16.0806 7.16589 16.3158 7.20934 16.3672C7.25124 16.4187 7.31486 16.4903 7.349 16.5246C7.38159 16.5604 7.43435 16.6165 7.46383 16.6492C7.83781 17.0652 8.50663 17.7802 8.76733 18.0419C8.88216 18.1588 9.10252 18.3831 9.2577 18.5405C9.41132 18.6994 9.64409 18.933 9.77289 19.0608C9.90324 19.1885 10.0088 19.2991 10.0088 19.3069C10.0088 19.3132 10.015 19.3194 10.0243 19.3194C10.0413 19.3194 10.1577 19.4284 10.5596 19.8179C10.6962 19.9503 10.8747 20.1155 10.9553 20.1824C11.036 20.251 11.1276 20.332 11.1571 20.3616C11.244 20.4504 11.6133 20.7822 11.7995 20.9396C12.0214 21.1265 12.3023 21.3726 12.352 21.4241C12.3737 21.4474 12.4482 21.5097 12.5164 21.5643C12.5832 21.6172 12.7446 21.7512 12.8718 21.8587C13.0006 21.9677 13.2163 22.1469 13.3529 22.2575C13.4894 22.3681 13.6182 22.4756 13.6399 22.4943C13.6617 22.5146 13.7175 22.5597 13.7656 22.5956C13.8137 22.6314 14.0698 22.8292 14.332 23.0364C15.0722 23.6144 15.1033 23.6378 15.4912 23.9182C15.5719 23.9758 15.6495 24.0381 15.6666 24.0568C15.6821 24.0755 15.7162 24.1004 15.7426 24.1145C15.8062 24.1472 16.1259 24.3731 16.2314 24.4603C16.278 24.4993 16.3338 24.5382 16.3556 24.5491C16.3773 24.5585 16.4254 24.5896 16.4626 24.6177C16.4999 24.6473 16.5759 24.6987 16.6318 24.7345C16.6876 24.7703 16.7652 24.8249 16.804 24.856C16.8428 24.8872 16.9809 24.9838 17.1082 25.0679C17.237 25.1536 17.358 25.2361 17.3797 25.2533C17.4015 25.2688 17.5241 25.3514 17.6513 25.434C17.7801 25.5165 17.898 25.5991 17.9167 25.6147C17.9337 25.6318 17.988 25.6677 18.0361 25.6973C18.0843 25.7269 18.2022 25.8063 18.3 25.8764C18.4738 26.001 18.4769 26.0042 18.5327 26.1225C18.6708 26.4248 18.7034 26.5229 18.8136 26.9685C18.8834 27.2458 18.8989 27.3735 18.9253 27.8689C18.9346 28.0481 18.9331 28.059 18.9067 28.0574C18.8896 28.0574 18.8664 28.0527 18.8539 28.0481Z" fill="#5B82A3"/>
<path d="M12.649 57.7818C12.3293 57.7273 11.6093 57.5372 11.2896 57.422C10.4827 57.1291 9.50972 56.6197 8.99453 56.2193C8.9278 56.1679 8.83159 56.0962 8.78193 56.0619C8.67641 55.9887 8.39554 55.7582 8.26363 55.6351C8.21242 55.5868 8.08828 55.4746 7.98897 55.3858C7.8912 55.2986 7.75465 55.1615 7.68792 55.0836C7.61964 55.0057 7.51878 54.892 7.46291 54.8297C7.34187 54.6973 6.96479 54.2143 6.84065 54.0367C6.59236 53.6753 6.25097 53.0849 6.08958 52.7344C5.8863 52.2982 5.67525 51.7467 5.54956 51.3307C5.44404 50.9833 5.29196 50.2122 5.22989 49.7293C5.16006 49.1669 5.15075 48.4674 5.20506 47.9221C5.33852 46.6182 5.85836 45.1227 6.59546 43.9262C6.74599 43.6832 6.95393 43.381 7.04548 43.2719C7.08893 43.2205 7.20221 43.0803 7.29842 42.9604C7.4986 42.7111 8.13949 42.0553 8.37226 41.8636C9.35609 41.0473 10.4392 40.4522 11.5845 40.0939C12.1586 39.9148 12.5574 39.8213 12.7483 39.8213C12.9159 39.8213 12.9236 39.8556 12.7654 39.8898C12.6816 39.9085 12.5373 39.9724 12.2191 40.1329C11.4277 40.5301 11.1406 40.7124 10.3585 41.3246C10.0311 41.5817 9.55007 42.0459 9.25367 42.3918C9.14815 42.5164 9.03953 42.641 9.01315 42.6706C8.98521 42.7002 8.89831 42.8124 8.81917 42.9199C8.73848 43.0274 8.64382 43.1535 8.60813 43.2003C8.57244 43.247 8.52278 43.3234 8.49795 43.3685C8.47312 43.4137 8.43278 43.4745 8.4064 43.5025C8.38002 43.529 8.3195 43.6225 8.27139 43.7081C8.00914 44.1724 7.95793 44.2674 7.88655 44.4123C7.65378 44.8781 7.39463 45.4997 7.25808 45.9219C7.07341 46.4936 6.96479 47.042 6.8872 47.7975C6.85927 48.0701 6.85927 49.5003 6.8872 49.7448C7.03307 51.0098 7.32791 52.0396 7.83844 53.0662C8.3195 54.0336 8.799 54.7144 9.55317 55.4996C9.89301 55.8548 9.97836 55.9389 10.1491 56.0838C10.1785 56.1102 10.2251 56.1507 10.2499 56.1741C10.2763 56.1975 10.4392 56.3237 10.6146 56.4545C10.7899 56.5854 10.956 56.7116 10.9855 56.7349C11.015 56.7583 11.0708 56.7973 11.1096 56.8191C11.1484 56.8409 11.2477 56.9016 11.3284 56.953C11.7722 57.235 12.5528 57.626 12.9081 57.7429C12.978 57.7662 13.0354 57.7896 13.0354 57.7927C13.0354 57.8036 12.7343 57.7958 12.649 57.7818Z" fill="#7DA2BB"/>
</g>
<g filter="url(#filter0_i_24_13093)">
<path d="M46.7014 44.3525V18.6841H63.6967V23.1585H52.1284V29.2748H62.5687V33.7493H52.1284V44.3525H46.7014ZM72.7741 18.6841V44.3525H67.3471V18.6841H72.7741ZM98.7089 18.6841V44.3525H94.0213L82.8541 28.197H82.6661V44.3525H77.2391V18.6841H82.0018L93.0813 34.8271H93.3069V18.6841H98.7089ZM108.62 18.6841V44.3525H103.193V18.6841H108.62ZM118.173 18.6841L123.35 27.4324H123.55L128.751 18.6841H134.88L127.047 31.5183L135.056 44.3525H128.814L123.55 35.5917H123.35L118.086 44.3525H111.869L119.903 31.5183L112.019 18.6841H118.173ZM149.331 18.6841V44.3525H143.904V23.8353H143.754L137.876 27.5202V22.7073L144.23 18.6841H149.331ZM164.719 18.3332C166.039 18.3332 167.309 18.5546 168.529 18.9974C169.758 19.4403 170.852 20.1463 171.813 21.1156C172.782 22.0848 173.547 23.3716 174.107 24.9759C174.675 26.5718 174.963 28.5312 174.972 30.854C174.972 33.0349 174.725 34.9817 174.232 36.6946C173.747 38.3992 173.05 39.8489 172.139 41.0437C171.228 42.2386 170.13 43.1493 168.843 43.776C167.556 44.3943 166.119 44.7035 164.531 44.7035C162.818 44.7035 161.306 44.3734 159.994 43.7133C158.682 43.0449 157.625 42.1383 156.823 40.9936C156.029 39.8405 155.549 38.5454 155.382 37.1082H160.734C160.943 38.044 161.381 38.771 162.05 39.289C162.718 39.7987 163.545 40.0536 164.531 40.0536C166.202 40.0536 167.472 39.3266 168.341 37.8728C169.21 36.4105 169.649 34.4094 169.657 31.8692H169.482C169.098 32.6213 168.58 33.2688 167.928 33.8119C167.276 34.3467 166.528 34.7603 165.684 35.0527C164.849 35.3452 163.959 35.4914 163.015 35.4914C161.502 35.4914 160.153 35.1363 158.966 34.4261C157.78 33.7158 156.844 32.7382 156.159 31.4932C155.474 30.2483 155.131 28.8278 155.131 27.2319C155.123 25.5106 155.52 23.9774 156.322 22.6321C157.124 21.2869 158.244 20.2341 159.681 19.4737C161.126 18.705 162.806 18.3248 164.719 18.3332ZM164.757 22.5945C163.913 22.5945 163.161 22.795 162.501 23.1961C161.849 23.5972 161.331 24.1361 160.947 24.8129C160.571 25.4897 160.387 26.2459 160.395 27.0815C160.395 27.9254 160.579 28.6858 160.947 29.3626C161.323 30.031 161.832 30.5658 162.476 30.9668C163.128 31.3596 163.871 31.5559 164.707 31.5559C165.333 31.5559 165.914 31.4389 166.449 31.205C166.984 30.971 167.447 30.6493 167.84 30.2399C168.241 29.8221 168.554 29.3417 168.78 28.7986C169.006 28.2554 169.118 27.6789 169.118 27.0689C169.11 26.2585 168.918 25.5148 168.542 24.838C168.166 24.1612 167.648 23.6181 166.988 23.2087C166.328 22.7992 165.584 22.5945 164.757 22.5945ZM188.583 44.7035C187.263 44.6951 185.988 44.4737 184.76 44.0392C183.54 43.6047 182.446 42.8987 181.476 41.9211C180.507 40.9434 179.738 39.6483 179.17 38.0357C178.61 36.4231 178.331 34.4428 178.331 32.0949C178.339 29.9391 178.585 28.0131 179.07 26.3169C179.563 24.6124 180.265 23.1669 181.176 21.9804C182.095 20.7939 183.194 19.8915 184.472 19.2732C185.75 18.6465 187.183 18.3332 188.771 18.3332C190.484 18.3332 191.996 18.6674 193.308 19.3358C194.62 19.9959 195.673 20.8941 196.466 22.0305C197.269 23.1669 197.753 24.4411 197.92 25.8532H192.569C192.36 24.9592 191.921 24.2573 191.253 23.7476C190.584 23.2379 189.757 22.9831 188.771 22.9831C187.1 22.9831 185.83 23.71 184.961 25.1639C184.1 26.6177 183.661 28.5938 183.645 31.0922H183.82C184.205 30.3318 184.723 29.6843 185.374 29.1495C186.034 28.6064 186.782 28.1928 187.618 27.9087C188.462 27.6162 189.352 27.47 190.287 27.47C191.808 27.47 193.162 27.8293 194.348 28.5479C195.535 29.2581 196.471 30.2357 197.156 31.4807C197.841 32.7257 198.183 34.1503 198.183 35.7546C198.183 37.4926 197.778 39.0384 196.968 40.392C196.166 41.7456 195.042 42.8068 193.596 43.5755C192.159 44.3358 190.488 44.7118 188.583 44.7035ZM188.558 40.4421C189.393 40.4421 190.141 40.2416 190.801 39.8405C191.461 39.4394 191.979 38.8963 192.355 38.2112C192.731 37.526 192.919 36.7573 192.919 35.905C192.919 35.0527 192.731 34.2882 192.355 33.6114C191.988 32.9346 191.478 32.3957 190.826 31.9946C190.175 31.5935 189.431 31.393 188.595 31.393C187.969 31.393 187.388 31.51 186.853 31.7439C186.327 31.9779 185.863 32.3037 185.462 32.7215C185.069 33.1393 184.76 33.6239 184.535 34.1754C184.309 34.7185 184.196 35.2992 184.196 35.9175C184.196 36.7448 184.384 37.5009 184.76 38.1861C185.145 38.8713 185.663 39.4185 186.314 39.828C186.974 40.2374 187.722 40.4421 188.558 40.4421Z" fill="#33607F"/>
</g>
<defs>
<filter id="filter0_i_24_13093" x="46.7014" y="18.3203" width="151.482" height="26.3955" filterUnits="userSpaceOnUse" color-interpolation-filters="sRGB">
<feFlood flood-opacity="0" result="BackgroundImageFix"/>
<feBlend mode="normal" in="SourceGraphic" in2="BackgroundImageFix" result="shape"/>
<feColorMatrix in="SourceAlpha" type="matrix" values="0 0 0 0 0 0 0 0 0 0 0 0 0 0 0 0 0 0 127 0" result="hardAlpha"/>
<feOffset/>
<feGaussianBlur stdDeviation="1.09134"/>
<feComposite in2="hardAlpha" operator="arithmetic" k2="-1" k3="1"/>
<feColorMatrix type="matrix" values="0 0 0 0 0 0 0 0 0 0 0 0 0 0 0 0 0 0 0.25 0"/>
<feBlend mode="normal" in2="shape" result="effect1_innerShadow_24_13093"/>
</filter>
<clipPath id="clip0_24_13093">
<rect width="30.3529" height="63.5294" fill="white"/>
</clipPath>
</defs>
</svg>
