<svg width="22" height="22" viewBox="0 0 22 22" fill="none" xmlns="http://www.w3.org/2000/svg">
<g clip-path="url(#clip0_37_1379)">
<path d="M21.1977 12.3675C21.2617 11.9182 21.2948 11.465 21.2968 11.0112C21.2967 8.2792 20.2114 5.65909 18.2796 3.72726C16.3478 1.79544 13.7276 0.710154 10.9956 0.710154C10.5419 0.712045 10.0887 0.745131 9.63942 0.809154C7.10023 -0.559315 3.96394 -0.0996351 1.92439 1.94009C-0.115255 3.97965 -0.574935 7.11585 0.793534 9.65505C0.729511 10.1043 0.696425 10.5574 0.694448 11.0112C0.694448 16.7005 5.30646 21.3124 10.9956 21.3124C11.4494 21.3105 11.9026 21.2774 12.3519 21.2134C14.891 22.5819 18.0272 22.1222 20.0669 20.0824C22.1065 18.0429 22.5662 14.9066 21.1977 12.3675Z" fill="white"/>
<path d="M6.52987 13.0675C10.1319 13.0675 13.0519 10.1475 13.0519 6.54549C13.0519 2.94346 10.1319 0.0234375 6.52987 0.0234375C2.92784 0.0234375 0.0078125 2.94346 0.0078125 6.54549C0.0078125 10.1475 2.92784 13.0675 6.52987 13.0675Z" fill="url(#paint0_linear_37_1379)"/>
<path d="M15.4596 21.9972C19.0616 21.9972 21.9816 19.0772 21.9816 15.4752C21.9816 11.8731 19.0616 8.95312 15.4596 8.95312C11.8575 8.95312 8.9375 11.8731 8.9375 15.4752C8.9375 19.0772 11.8575 21.9972 15.4596 21.9972Z" fill="url(#paint1_linear_37_1379)"/>
<mask id="mask0_37_1379" style="mask-type:luminance" maskUnits="userSpaceOnUse" x="0" y="0" width="22" height="22">
<path d="M15.4604 8.95364C14.2944 8.95341 13.1497 9.26654 12.1461 9.86028C13.8249 7.0295 13.1343 3.3915 10.5348 1.37275C7.93547 -0.646183 4.2399 -0.414753 1.91254 1.91261C-0.414731 4.23988 -0.646161 7.93554 1.37268 10.5349C3.39144 13.1343 7.02935 13.8249 9.8603 12.1461C8.35725 14.6935 8.7566 17.9335 10.8333 20.0397C12.9101 22.1458 16.1441 22.5907 18.7124 21.1236C21.2807 19.6566 22.5402 16.6447 21.7808 13.7861C21.0214 10.9274 18.4335 8.93765 15.4755 8.93843L15.4604 8.95364Z" fill="white"/>
</mask>
<g mask="url(#mask0_37_1379)">
<path d="M10.7885 23.6669C17.5192 23.6669 22.9755 18.2106 22.9755 11.4799C22.9755 4.74926 17.5192 -0.707031 10.7885 -0.707031C4.05785 -0.707031 -1.39844 4.74926 -1.39844 11.4799C-1.39844 18.2106 4.05785 23.6669 10.7885 23.6669Z" fill="url(#paint2_radial_37_1379)"/>
</g>
<path d="M10.9965 21.3132C16.6856 21.3132 21.2976 16.7013 21.2976 11.0121C21.2976 5.32292 16.6856 0.710938 10.9965 0.710938C5.3073 0.710938 0.695312 5.32292 0.695312 11.0121C0.695312 16.7013 5.3073 21.3132 10.9965 21.3132Z" fill="url(#paint3_linear_37_1379)"/>
<path d="M10.9965 21.3132C16.6856 21.3132 21.2976 16.7013 21.2976 11.0121C21.2976 5.32292 16.6856 0.710938 10.9965 0.710938C5.3073 0.710938 0.695312 5.32292 0.695312 11.0121C0.695312 16.7013 5.3073 21.3132 10.9965 21.3132Z" fill="url(#paint4_linear_37_1379)"/>
<path d="M7.24001 9.74617C6.99775 9.2919 6.87703 8.78272 6.88956 8.26805C6.87399 7.61755 7.09611 6.98368 7.51432 6.48519C7.95434 5.98872 8.51638 5.61577 9.14481 5.40323C9.82749 5.16235 10.5466 5.0412 11.2706 5.04513C11.7451 5.04182 12.219 5.07749 12.6877 5.15178C13.0218 5.20779 13.3506 5.2919 13.6706 5.40323C13.9612 5.5036 14.2228 5.67365 14.4325 5.89849C14.5926 6.0789 14.6796 6.31259 14.6764 6.55377C14.6822 6.68021 14.663 6.80656 14.6199 6.92555C14.5767 7.04454 14.5105 7.15382 14.4249 7.24711C14.3451 7.33208 14.2481 7.39912 14.1404 7.44377C14.0326 7.48843 13.9167 7.50968 13.8001 7.50613C13.637 7.50359 13.4761 7.46728 13.3277 7.39948C12.9688 7.24049 12.5997 7.10556 12.2229 6.99557C11.8724 6.90388 11.511 6.86034 11.1487 6.86615C10.6792 6.85038 10.2146 6.96649 9.80765 7.2013C9.6364 7.30537 9.49644 7.45377 9.40256 7.63081C9.30869 7.80786 9.26438 8.00697 9.27432 8.20712C9.27159 8.46745 9.36992 8.7187 9.54863 8.90802C9.76727 9.13357 10.0255 9.31694 10.3106 9.449C10.6229 9.60137 11.0725 9.8071 11.7125 10.0662L11.9105 10.1423C12.5149 10.3727 13.0944 10.6637 13.6401 11.0109C14.0749 11.2927 14.4418 11.6674 14.7144 12.1081C14.9824 12.5703 15.117 13.0978 15.103 13.6319C15.1246 14.2862 14.9349 14.9301 14.5621 15.4681C14.1795 15.9858 13.6478 16.3739 13.0382 16.5806C12.3173 16.8377 11.5557 16.9616 10.7905 16.9463C9.7443 16.981 8.70341 16.7832 7.74283 16.3672C7.49676 16.2565 7.28016 16.0895 7.1105 15.8796C6.97698 15.6819 6.9078 15.4477 6.91242 15.2091C6.90406 15.0834 6.92364 14.9575 6.96975 14.8402C7.01585 14.723 7.08734 14.6174 7.17908 14.5311C7.36954 14.3625 7.61835 14.275 7.87242 14.2872C8.15649 14.2912 8.43566 14.3617 8.68763 14.4929C9.00001 14.6453 9.24381 14.7672 9.44955 14.8434C9.65351 14.9295 9.86529 14.9959 10.082 15.0415C10.3493 15.1023 10.6231 15.1305 10.8973 15.1253C11.3825 15.1611 11.8656 15.0322 12.2686 14.7596C12.4209 14.643 12.5426 14.4914 12.6236 14.3176C12.7045 14.1438 12.7422 13.953 12.7334 13.7615C12.7407 13.4794 12.6367 13.2057 12.4439 12.9996C12.1954 12.7462 11.9071 12.5351 11.5905 12.3748C11.2172 12.1767 10.6839 11.9405 10.0058 11.651C9.39653 11.4083 8.81218 11.1072 8.26095 10.7519C7.84879 10.4778 7.48949 10.1738 7.24001 9.74617Z" fill="white"/>
</g>
<defs>
<linearGradient id="paint0_linear_37_1379" x1="550.117" y1="7.64121" x2="754.309" y2="1296.82" gradientUnits="userSpaceOnUse">
<stop offset="0.01" stop-color="#00B7F0"/>
<stop offset="0.34" stop-color="#009DE5"/>
<stop offset="0.76" stop-color="#0082D9"/>
<stop offset="1" stop-color="#0078D4"/>
</linearGradient>
<linearGradient id="paint1_linear_37_1379" x1="95.7982" y1="987.261" x2="1226.49" y2="335.056" gradientUnits="userSpaceOnUse">
<stop stop-color="#0078D4"/>
<stop offset="0.37" stop-color="#007AD5"/>
<stop offset="0.57" stop-color="#0082D9"/>
<stop offset="0.74" stop-color="#0090DF"/>
<stop offset="0.88" stop-color="#00A3E7"/>
<stop offset="1" stop-color="#00BCF2"/>
</linearGradient>
<radialGradient id="paint2_radial_37_1379" cx="0" cy="0" r="1" gradientUnits="userSpaceOnUse" gradientTransform="translate(1181.69 1217.99) scale(1219.21)">
<stop/>
<stop offset="1" stop-opacity="0"/>
</radialGradient>
<linearGradient id="paint3_linear_37_1379" x1="627.747" y1="332.903" x2="1657.86" y2="2117.33" gradientUnits="userSpaceOnUse">
<stop stop-color="#00B7F0"/>
<stop offset="1" stop-color="#007CC1"/>
</linearGradient>
<linearGradient id="paint4_linear_37_1379" x1="940.902" y1="2057.13" x2="1120.72" y2="4.52241" gradientUnits="userSpaceOnUse">
<stop stop-color="#0078D4"/>
<stop offset="1" stop-color="#00BCF2"/>
</linearGradient>
<clipPath id="clip0_37_1379">
<rect width="22" height="22" fill="white"/>
</clipPath>
</defs>
</svg>
