<svg width="261" height="204" viewBox="0 0 261 204" fill="none" xmlns="http://www.w3.org/2000/svg">
<path d="M82.5 203.472C61.7 149.872 18.8333 110.139 0 96.9725C19.6 63.3723 62.5 93.6392 81.5 112.973L144 27.4725C166 -5.72754 201.5 -2.02754 216.5 3.97246C174.1 43.5725 109.5 153.472 82.5 203.472Z" fill="url(#paint0_linear_209_226)"/>
<path d="M132 156H192V178H132V156Z" fill="url(#paint1_linear_209_226)"/>
<path d="M166 109H226V131H166V109Z" fill="url(#paint2_linear_209_226)"/>
<path d="M201 61H261V83H201V61Z" fill="url(#paint3_linear_209_226)"/>
<defs>
<linearGradient id="paint0_linear_209_226" x1="261" y1="101.736" x2="0" y2="101.736" gradientUnits="userSpaceOnUse">
<stop stop-color="#05246C"/>
<stop offset="1" stop-color="#020820"/>
</linearGradient>
<linearGradient id="paint1_linear_209_226" x1="261" y1="101.736" x2="0" y2="101.736" gradientUnits="userSpaceOnUse">
<stop stop-color="#05246C"/>
<stop offset="1" stop-color="#020820"/>
</linearGradient>
<linearGradient id="paint2_linear_209_226" x1="261" y1="101.736" x2="0" y2="101.736" gradientUnits="userSpaceOnUse">
<stop stop-color="#05246C"/>
<stop offset="1" stop-color="#020820"/>
</linearGradient>
<linearGradient id="paint3_linear_209_226" x1="261" y1="101.736" x2="0" y2="101.736" gradientUnits="userSpaceOnUse">
<stop stop-color="#05246C"/>
<stop offset="1" stop-color="#020820"/>
</linearGradient>
</defs>
</svg>
