<svg width="30" height="64" viewBox="0 0 30 64" fill="none" xmlns="http://www.w3.org/2000/svg">
<g clip-path="url(#clip0_37_221)">
<path d="M8.2169 50.1949C8.2123 50.1714 8.2031 50.1086 8.19849 50.0568C8.19236 50.005 8.16475 49.8356 8.13715 49.6802C7.98224 48.8343 7.94543 48.4561 7.94543 47.687C7.94543 47.0185 7.97303 46.6999 8.06966 46.2275C8.18469 45.6688 8.37948 45.096 8.62027 44.611C8.74451 44.3599 8.96383 43.9723 9.01751 43.9064C9.04052 43.8797 9.07119 43.8295 9.08653 43.7949C9.11874 43.7212 9.26138 43.5203 9.28132 43.5203C9.28745 43.5203 9.33193 43.4669 9.37948 43.4026C9.70003 42.9585 10.493 42.2004 11.0543 41.8018C11.8718 41.2211 12.2752 40.9779 13.0835 40.584C13.8473 40.212 14.1126 40.099 15.1157 39.7208C15.7982 39.4634 16.8902 39.1103 17.7767 38.8608C19.0743 38.4967 19.0497 38.5014 19.2215 38.5594C19.4562 38.6395 20.3427 39.2704 20.7108 39.6204C20.8028 39.7067 20.9102 39.804 20.9485 39.8369C20.9884 39.8715 21.0298 39.9154 21.0405 39.9358C21.0651 39.9845 21.0896 39.9845 21.0896 39.9342C21.0896 39.8212 20.7368 39.0977 20.6157 38.9612C20.5988 38.9439 20.5543 38.8796 20.516 38.8168C20.4761 38.754 20.4362 38.6975 20.424 38.6913C20.4132 38.685 20.3488 38.6159 20.2813 38.5375C20.1479 38.3852 19.8979 38.1514 19.7016 37.996C19.6341 37.9427 19.5681 37.8893 19.5559 37.8768C19.5221 37.8422 19.0666 37.544 18.8887 37.4389C18.8043 37.3887 18.3488 37.147 17.8764 36.9006C16.7721 36.3262 16.2982 36.0704 15.7215 35.7314C15.6325 35.6796 15.5129 35.609 15.4531 35.5744C15.2246 35.441 15.1556 35.4128 15.1525 35.4583C15.1525 35.4677 15.1417 35.4552 15.1295 35.4269C15.1187 35.4002 15.0927 35.3657 15.0743 35.3532C15.0329 35.3233 14.9608 35.3202 14.9439 35.3485C14.9362 35.361 14.9286 35.3485 14.924 35.3139C14.9163 35.2637 14.8994 35.2512 14.6095 35.0738C13.9822 34.6893 12.9393 34.0145 12.7675 33.8811C12.72 33.8434 12.6694 33.8073 12.6571 33.7979C12.2951 33.5609 10.9117 32.5204 10.5298 32.1987C10.4623 32.1406 10.3105 32.0135 10.1924 31.9162C9.99297 31.7498 9.76905 31.5489 9.44849 31.2476C9.37641 31.1817 9.18316 31.0012 9.01905 30.8474C8.53285 30.3939 8.11567 29.9591 7.70923 29.4821C7.64175 29.4052 7.55279 29.3063 7.51138 29.2623C7.46843 29.22 7.38408 29.1211 7.32426 29.0426C7.26291 28.9657 7.19849 28.8872 7.17856 28.87C7.16015 28.8527 7.12027 28.8041 7.0896 28.7601C7.05892 28.7178 7.00678 28.6503 6.97303 28.6095C6.88561 28.509 6.41322 27.8766 6.26291 27.6568C6.19389 27.5564 6.12027 27.4513 6.0988 27.4246C5.95463 27.2441 5.18469 25.9478 5.04972 25.6606C5.04052 25.6386 5.02058 25.6056 5.00678 25.5852C4.98224 25.5523 4.98377 25.5507 5.01445 25.5507C5.04359 25.5507 5.07733 25.5821 5.37641 25.896C5.43009 25.9525 5.52978 26.0655 5.5988 26.1471C6.02825 26.6556 7.06659 27.7306 7.48377 28.101C7.51291 28.1277 7.57119 28.1795 7.61107 28.2187C7.65095 28.2579 7.7169 28.3176 7.75524 28.3521C7.79512 28.3866 7.87641 28.4619 7.93622 28.5184C7.99604 28.5765 8.108 28.6801 8.18316 28.7507C8.25984 28.8213 8.34573 28.9014 8.37488 28.9296C8.40402 28.9563 8.45156 28.9955 8.4807 29.0159C8.50984 29.0363 8.55279 29.0724 8.57426 29.096C8.59573 29.118 8.64788 29.165 8.68929 29.1996C8.72917 29.2341 8.80126 29.2984 8.8488 29.3408C8.89635 29.3847 8.98991 29.4664 9.05739 29.5213C9.12488 29.5762 9.20463 29.6453 9.23377 29.6735C9.31353 29.7488 10.0375 30.3342 10.2844 30.5226C10.4025 30.6136 10.5267 30.7109 10.5605 30.7407C10.6494 30.8176 10.631 30.8035 11.0405 31.1079C11.2491 31.2633 11.4608 31.4203 11.5114 31.4595C11.562 31.4972 11.7138 31.6054 11.8488 31.698L12.0942 31.8675L12.2092 31.8722C12.3841 31.8785 12.4224 31.8974 12.2859 31.9068L12.1709 31.9146L12.2967 32.0135C12.5804 32.2348 13.4807 32.8249 14.4102 33.3977C14.6801 33.5641 14.9255 33.7163 14.9546 33.7367C14.9838 33.7571 15.0236 33.7743 15.0436 33.7743C15.0911 33.7743 15.1387 33.801 15.1387 33.8293C15.1387 33.8418 15.1985 33.8826 15.2736 33.9203C15.3473 33.958 15.5896 34.0914 15.8135 34.2169C16.0375 34.3425 16.3657 34.523 16.5421 34.6171C16.72 34.7128 16.9715 34.8478 17.1019 34.9184C17.585 35.179 18.4638 35.6105 19.1218 35.9103C20.1233 36.367 20.6279 36.684 21.3258 37.2929C21.5267 37.4687 21.973 37.9254 22.1571 38.1451C22.7169 38.8121 23.0712 39.5199 23.1463 40.1147C23.1556 40.1885 23.1755 40.2983 23.1908 40.358C23.2077 40.4192 23.2353 40.551 23.2537 40.653C23.2721 40.7535 23.2921 40.8366 23.2982 40.8366C23.312 40.8366 23.3749 40.6216 23.3749 40.5698C23.3749 40.5479 23.3887 40.5008 23.4056 40.4631C23.4623 40.3329 23.4746 40.2073 23.4746 39.6988C23.4746 39.3536 23.4684 39.1778 23.4531 39.0946C23.3825 38.6991 23.1678 38.2738 22.812 37.8234C22.6448 37.6131 22.1049 37.0575 21.6034 36.5804C21.289 36.2807 20.9148 35.8883 20.7322 35.6655C20.6755 35.5964 20.6141 35.5227 20.5942 35.5007C20.5743 35.4787 20.4945 35.3751 20.4163 35.2684C19.7016 34.2923 19.3197 33.2737 19.2322 32.1029C19.2092 31.8016 19.223 30.9683 19.2552 30.6199C19.3013 30.1334 19.3396 29.8728 19.424 29.4742C19.5144 29.0442 19.5313 28.8747 19.5313 28.3599C19.5329 27.842 19.516 27.6663 19.4393 27.3084C19.2414 26.3982 18.7138 25.4895 17.9761 24.788C17.6341 24.4631 17.4009 24.2748 16.9807 23.9813C16.5267 23.6659 15.9562 23.2202 15.1479 22.5469C14.1264 21.6978 13.6387 21.2851 13.3825 21.0544C13.2476 20.932 13.0957 20.7986 13.0467 20.7578C12.9424 20.6715 11.9654 19.7785 11.3718 19.226C10.5743 18.4869 8.92395 16.8186 8.48224 16.3085C8.42702 16.2442 8.33653 16.1422 8.28132 16.081C8.2261 16.0198 8.09573 15.8738 7.99144 15.7577C7.88868 15.6415 7.74604 15.483 7.67702 15.4046C7.608 15.3277 7.50064 15.2037 7.44083 15.1299C7.38101 15.0562 7.30586 14.9683 7.27365 14.9337C7.24297 14.8992 7.12181 14.7548 7.00524 14.612C6.88868 14.4692 6.73991 14.2903 6.67242 14.2118C6.52211 14.036 6.02825 13.4114 5.92702 13.2702C5.88561 13.2121 5.82273 13.1289 5.78592 13.0866C5.75064 13.0442 5.68316 12.9532 5.63561 12.8857C5.58807 12.8166 5.54512 12.7601 5.53745 12.7601C5.52978 12.7601 5.51905 12.7444 5.51445 12.7272C5.50831 12.7083 5.47764 12.6644 5.44543 12.6283C5.41322 12.5922 5.3304 12.4823 5.26138 12.3835C5.19236 12.2846 5.11874 12.1826 5.09727 12.1559C5.0758 12.1308 4.97304 11.9817 4.86874 11.8263C4.76445 11.671 4.64328 11.4952 4.5988 11.4371C4.55432 11.3791 4.49144 11.2865 4.45923 11.2347C4.42856 11.1813 4.38868 11.1233 4.37334 11.106C4.30432 11.0275 3.60187 9.89441 3.26291 9.31531C2.8534 8.61222 2.28899 7.51835 1.91015 6.68657C1.18929 5.10618 0.548188 3.13816 0.223035 1.50756C0.0635256 0.704028 -0.0146953 0.117073 0.0282495 0.040173C0.0405195 0.0150626 0.0558569 0.0370342 0.127943 0.182988C0.290519 0.514131 1.01905 1.85753 1.48377 2.68461C1.94849 3.51011 2.87641 5.08264 3.38715 5.91285C3.48837 6.07764 3.58346 6.23615 3.59727 6.2644C3.61261 6.29265 3.63561 6.32874 3.65095 6.34601C3.66629 6.3617 3.70463 6.41977 3.73684 6.47313C3.88408 6.71952 4.58193 7.80084 4.91475 8.29834C5.11874 8.60123 5.31659 8.90255 5.35494 8.96847C5.39328 9.03281 5.43776 9.09716 5.45156 9.11128C5.46537 9.12698 5.51138 9.18975 5.55279 9.25253C5.5942 9.31531 5.66169 9.41261 5.70156 9.46754C5.74144 9.52404 5.85187 9.68097 5.94389 9.81751C6.03745 9.95405 6.17549 10.1518 6.25064 10.2569C6.32733 10.3621 6.4761 10.5724 6.58346 10.7215C6.92856 11.2033 7.17395 11.5376 7.35187 11.7698C7.44543 11.8954 7.58193 12.0759 7.65248 12.17C7.77825 12.3395 7.85494 12.44 7.99757 12.6189C8.09573 12.7413 8.53132 13.3063 8.65862 13.4742C8.7169 13.5527 8.78592 13.6374 8.81199 13.6625C8.83653 13.6892 8.91322 13.7802 8.9807 13.8666C9.1034 14.0219 9.35494 14.328 9.46076 14.4472C9.53899 14.5383 9.93929 15.0106 10.131 15.2398C10.3795 15.5395 10.4454 15.6117 11.2905 16.5408C11.5129 16.7856 11.7445 17.0399 11.8028 17.1058C11.8626 17.1717 12.0942 17.4134 12.3197 17.6441C12.5467 17.8732 12.7307 18.0694 12.7307 18.0788C12.7307 18.0882 12.7384 18.0961 12.7476 18.0961C12.7568 18.0961 12.8013 18.1337 12.8442 18.1793C12.9286 18.2671 13.3933 18.7176 13.5666 18.8808C13.6264 18.9357 13.7951 19.0974 13.9424 19.2402C14.0911 19.383 14.2905 19.5682 14.3871 19.6498C14.4838 19.7314 14.5942 19.8287 14.6325 19.8648C14.7614 19.9888 14.9301 20.1363 14.9408 20.1363C14.947 20.1363 14.9577 20.1504 14.9623 20.1693C14.973 20.2022 15.0543 20.2618 15.0896 20.2618C15.1019 20.2618 15.108 20.2242 15.1095 20.1332C15.1111 20.061 15.1157 19.9401 15.1218 19.8617C15.131 19.7487 15.1341 19.7769 15.1325 20.0107C15.131 20.2713 15.1341 20.3058 15.1602 20.345C15.177 20.3701 15.2875 20.469 15.4071 20.5647C15.8028 20.8833 16.2338 21.2396 16.2967 21.2992C16.3304 21.3306 16.4301 21.4122 16.519 21.4813C16.608 21.5503 16.7936 21.6931 16.9332 21.8014C17.0727 21.9097 17.3488 22.1169 17.5467 22.2628C18.8135 23.1935 19.3641 23.7145 19.9439 24.5275C20.4224 25.2007 20.8273 26.0623 21.0037 26.7858C21.1356 27.3257 21.1663 27.5768 21.177 28.2061C21.1862 28.7852 21.177 28.9171 21.0957 29.3706C21.0282 29.7488 20.947 30.284 20.9056 30.6277C20.8887 30.7752 20.8641 30.9541 20.8519 31.0279C20.8258 31.1786 20.8227 31.3543 20.8442 31.3889C20.8626 31.4187 20.8764 31.4014 20.9194 31.2947C20.9715 31.1676 21.0927 30.9384 21.2338 30.7015C21.4623 30.317 21.7077 30.0031 22.0712 29.6311C22.5006 29.1917 22.9884 28.7962 23.4592 28.5059C23.7092 28.3521 24.2921 28.0523 24.5942 27.9205C24.8565 27.8059 25.1908 27.6851 25.243 27.6851C25.2767 27.6851 25.2767 27.6867 25.2552 27.7306C25.243 27.7541 25.2 27.8138 25.1617 27.8593C25.0896 27.944 24.8994 28.2312 24.7644 28.4572C24.7246 28.5247 24.6832 28.5891 24.674 28.5985C24.6387 28.6361 24.3749 29.2168 24.2752 29.4742C24.0743 29.9921 24.0006 30.3923 23.9792 31.053C23.9623 31.618 24.0022 32.0386 24.1203 32.5188C24.22 32.9253 24.4776 33.6519 24.6617 34.049C24.8335 34.4162 25.177 35.0409 25.5605 35.6812C25.7108 35.9338 25.7476 35.9935 26.1893 36.6934C26.3227 36.9053 26.5129 37.216 26.6111 37.384C26.7108 37.5519 26.8289 37.7543 26.8764 37.8312C26.9991 38.0384 27.243 38.5014 27.381 38.7886C27.6479 39.3457 27.8519 39.9656 27.9638 40.562C27.996 40.7331 27.9991 40.7943 27.9991 41.2211C27.9991 41.6841 27.9976 41.6951 27.9562 41.8803C27.8273 42.4343 27.6233 42.9286 27.3411 43.3634C27.0574 43.8012 26.9516 43.9331 26.519 44.3819C26.1862 44.7287 25.9454 44.9045 25.4884 45.1368C24.8749 45.4491 24.2353 45.6625 23.4945 45.8022C23.2445 45.8493 22.5528 45.9278 22.1249 45.956C21.4638 45.9999 19.7736 45.978 18.8657 45.9136C18.6924 45.9011 18.3304 45.8807 18.0605 45.8666C17.7905 45.8524 17.3703 45.832 17.1249 45.8179C16.2215 45.7692 15.2123 45.7488 15.0267 45.774L14.9546 45.7724L14.947 45.7645L14.9393 45.763L14.7829 45.7708C14.6954 45.7755 14.5221 45.7834 14.3948 45.7881C13.2997 45.8305 12.3013 46.0345 11.496 46.3797C10.9224 46.6246 10.3488 46.9997 9.93622 47.3983C9.4531 47.8628 9.0896 48.3697 8.77211 49.0179C8.57119 49.4275 8.42549 49.7775 8.37334 49.9831C8.34573 50.0882 8.31813 50.1698 8.31046 50.1651C8.30432 50.1604 8.29819 50.1432 8.29819 50.1259C8.29819 50.0663 8.26905 50.0976 8.26445 50.162C8.25831 50.2373 8.22764 50.2593 8.2169 50.1949Z" fill="#7297B2"/>
<path d="M10.9591 63.9354C9.44682 63.7596 8.37014 63.4708 7.17842 62.92C6.87167 62.7771 6.5956 62.6343 6.5956 62.6171C6.5956 62.6108 6.57259 62.5998 6.54498 62.5951C6.48363 62.5841 5.75664 62.1415 5.4821 61.9501C5.3732 61.8747 5.21983 61.7617 5.14007 61.7005C5.06032 61.6393 4.93609 61.5452 4.864 61.4918C4.79191 61.4385 4.67382 61.3411 4.60173 61.2768C4.52964 61.2125 4.39774 61.0963 4.30879 61.0194C3.95603 60.7134 3.53578 60.2787 3.27658 59.9522C3.21063 59.8691 3.1186 59.7576 3.07412 59.7074C2.96983 59.5913 2.63854 59.1424 2.46523 58.8819C1.55265 57.5055 0.914614 55.9377 0.623203 54.3464C0.465228 53.4769 0.411547 52.7173 0.443755 51.782C0.479031 50.7226 0.531179 50.3334 0.767375 49.3635C0.988234 48.4501 1.22136 47.8004 1.60787 47.0094C1.79191 46.6296 1.94222 46.3471 1.98823 46.2906C2.00817 46.2655 2.02504 46.2357 2.02504 46.2247C2.02504 46.2137 2.04805 46.1714 2.07719 46.1337C2.10633 46.0945 2.14161 46.0395 2.15541 46.0129C2.19682 45.9297 2.19836 45.9721 2.15695 46.0741C2.13547 46.1259 2.11707 46.1792 2.11707 46.1933C2.11707 46.2059 2.08946 46.2828 2.05725 46.3628C1.94222 46.6359 1.73363 47.3029 1.63547 47.7047C1.47443 48.3591 1.34713 49.1673 1.30112 49.8343C1.27658 50.1875 1.27658 51.3096 1.30265 51.5999C1.3548 52.2026 1.53578 53.2258 1.68149 53.739C1.80418 54.1721 2.05725 54.9207 2.18762 55.2393C2.23977 55.3665 2.65541 56.2249 2.75357 56.4085C2.77964 56.4556 2.83179 56.5466 2.87014 56.6094C2.90848 56.6722 2.98363 56.7977 3.03578 56.8888C3.08946 56.9798 3.17842 57.1179 3.23363 57.1964C3.29038 57.2748 3.39621 57.4271 3.46983 57.5338C3.64928 57.7959 3.83026 58.0329 4.06952 58.3232C4.21369 58.499 4.95449 59.2586 5.16922 59.4532C5.46983 59.7247 5.90388 60.0731 6.15848 60.2473C6.22596 60.2928 6.28425 60.3367 6.28578 60.3446C6.28885 60.3524 6.31952 60.3728 6.35173 60.3901C6.38547 60.4074 6.42535 60.4325 6.43915 60.445C6.4775 60.4796 7.09099 60.8531 7.21676 60.9174C7.27658 60.9488 7.34406 60.9896 7.36707 61.01C7.39161 61.0304 7.41768 61.0477 7.42688 61.0477C7.44069 61.0477 7.71216 61.1826 7.82259 61.2438C7.88241 61.2784 8.54191 61.5609 8.7183 61.6283C9.20142 61.8135 10.1493 62.0788 10.66 62.1698C10.7827 62.1918 11.1309 62.2388 11.4346 62.2749L11.9867 62.3424L12.7459 62.3409C13.7965 62.3409 14.114 62.3095 15.0082 62.129C15.6309 62.0019 16.2214 61.8371 16.706 61.6535C17.4023 61.3914 18.3119 60.93 18.8747 60.5549C19.2321 60.3163 19.3349 60.2457 19.4254 60.1782C19.476 60.139 19.522 60.1076 19.5266 60.1076C19.5312 60.106 19.5588 60.0856 19.5879 60.0605C19.6171 60.0338 19.7551 59.9224 19.8962 59.811C20.0358 59.6996 20.1846 59.5771 20.226 59.5379C20.2658 59.4987 20.3763 59.3951 20.4683 59.3088C20.8671 58.9368 21.3134 58.4629 21.5619 58.1443C21.6263 58.0627 21.7076 57.9638 21.7428 57.9246C21.8011 57.8602 22.1385 57.3831 22.2796 57.165C22.3395 57.0708 22.4131 56.9829 22.43 56.9829C22.4576 56.9829 22.4207 57.0708 22.2321 57.4506C21.999 57.9246 21.8732 58.1553 21.6876 58.4535C21.5342 58.6999 21.1922 59.1926 21.0204 59.4155C20.953 59.5018 20.8655 59.618 20.8241 59.6697C20.7842 59.7231 20.7183 59.8031 20.6784 59.8471C20.6385 59.8926 20.5619 59.9805 20.5066 60.0448C20.3425 60.2363 19.6063 60.9833 19.4898 61.0759C19.4606 61.0995 19.3471 61.1952 19.2382 61.2894C19.0603 61.4432 18.7919 61.6535 18.5174 61.8528C18.3563 61.9705 17.7965 62.3252 17.5388 62.4711C17.2766 62.6218 16.7244 62.9027 16.4422 63.0298C16.114 63.1773 15.6247 63.3515 14.9622 63.5571C14.4698 63.7094 13.8487 63.8286 13.0603 63.9212C12.8272 63.9479 12.6631 63.9542 12.002 63.9589C11.3042 63.9652 11.1922 63.962 10.9591 63.9354Z" fill="#366283"/>
<path d="M19.2178 34.9727C19.1718 34.9538 18.9923 34.8613 18.819 34.7671C18.6457 34.6745 18.3114 34.494 18.0752 34.3669C17.02 33.8019 15.8604 33.1349 15.1166 32.6672C15.0598 32.6311 15.0062 32.6092 14.9755 32.6092C14.9402 32.6092 14.9233 32.5998 14.9172 32.5809C14.908 32.5511 14.7608 32.4491 14.5246 32.3063C14.3543 32.2058 13.658 31.7491 13.5399 31.6628C13.4954 31.6314 13.3896 31.5592 13.3052 31.5059C13.2209 31.451 13.1104 31.3756 13.0614 31.338C13.0123 31.2987 12.9387 31.2485 12.8988 31.225C12.7331 31.1292 11.7592 30.4403 11.4954 30.2315C11.4279 30.1782 11.3558 30.1248 11.3344 30.1138C11.3129 30.1028 11.2761 30.0746 11.25 30.0511C11.2255 30.0275 11.1733 29.9914 11.135 29.9694C11.0966 29.9459 11.0276 29.8941 10.9801 29.8517C10.9325 29.8109 10.8236 29.7246 10.7377 29.6618C10.6519 29.5975 10.4847 29.4672 10.365 29.3715C10.2454 29.2742 10.0813 29.1424 9.99848 29.078C9.78069 28.9054 9.33897 28.535 9.181 28.3938C9.10585 28.3247 8.98468 28.2211 8.91259 28.1615C8.84051 28.1019 8.71167 27.9889 8.62732 27.9104C8.54296 27.8319 8.37425 27.6797 8.25309 27.5714C8.13039 27.4631 8.01382 27.3548 7.99235 27.3313C7.97088 27.3062 7.87272 27.212 7.77609 27.121C7.5583 26.9154 6.8267 26.1794 6.73468 26.0726C6.69787 26.0303 6.54756 25.867 6.40339 25.7117C6.25769 25.5563 6.03069 25.2989 5.89726 25.1388C5.76536 24.9788 5.61198 24.7967 5.55523 24.7324C5.49848 24.668 5.43253 24.5864 5.40646 24.5503C5.38192 24.5158 5.33437 24.4593 5.30217 24.4248C5.27149 24.3918 5.24542 24.3573 5.24542 24.3463C5.24542 24.3369 5.22088 24.3055 5.19174 24.2757C5.16259 24.2459 5.11965 24.1941 5.09664 24.1595C5.0721 24.1234 5.01842 24.0513 4.97548 23.9995C4.931 23.9461 4.86045 23.8488 4.8175 23.7829C4.77302 23.717 4.73161 23.6636 4.72394 23.6636C4.71628 23.6636 4.70554 23.6495 4.70094 23.6307C4.6948 23.6118 4.6672 23.571 4.63959 23.5396C4.61198 23.5082 4.47394 23.3136 4.33131 23.1065C3.63192 22.0848 2.99695 20.9548 2.54296 19.9206C2.38959 19.5706 2.03223 18.6604 2.01075 18.5646C1.98621 18.4517 2.02763 18.4673 2.13499 18.6117C2.24388 18.7561 2.32977 18.866 2.38192 18.924C2.40953 18.9539 2.46628 19.0245 2.50769 19.0794C2.55063 19.1343 2.64572 19.2536 2.72088 19.3462C2.7945 19.4372 2.92486 19.6004 3.00922 19.7087C3.09358 19.817 3.1948 19.9441 3.23621 19.9912C3.27763 20.0383 3.34358 20.1168 3.38499 20.167C3.42486 20.2157 3.58591 20.4103 3.74235 20.5986C3.89879 20.7869 4.05063 20.9658 4.07977 20.9956C4.14112 21.0568 4.31597 21.2562 4.64726 21.6391C4.76996 21.7819 4.9218 21.9514 4.98468 22.0173C5.14726 22.1884 5.28069 22.3312 5.68253 22.7691C6.06904 23.1912 7.00615 24.1533 7.20094 24.3275C7.38959 24.497 7.65186 24.7434 7.75309 24.8501C7.85738 24.9584 8.16566 25.2566 8.3221 25.3978C8.37885 25.4496 8.45094 25.5171 8.48161 25.5469C8.51229 25.5767 8.61965 25.6724 8.71934 25.7588C8.91106 25.9251 9.00002 26.0067 9.17793 26.1778C9.23775 26.2374 9.40032 26.3818 9.5399 26.4995C9.67793 26.6172 9.80217 26.7255 9.81597 26.7412C9.82824 26.7569 9.88499 26.8071 9.9402 26.8526C9.99695 26.8981 10.2071 27.0739 10.408 27.2434C10.9985 27.7393 12.1104 28.6229 12.431 28.8505C12.4908 28.8928 12.5552 28.9431 12.5767 28.9619C12.5982 28.9823 12.6549 29.0247 12.7025 29.0576C12.8482 29.1581 13.1212 29.3652 13.1273 29.3794C13.1289 29.3872 13.1917 29.4327 13.2654 29.4814C13.4617 29.6101 13.793 29.8486 13.819 29.88C13.8313 29.8941 13.8589 29.9145 13.8804 29.9255C13.9433 29.9585 14.7086 30.4811 14.8068 30.5595C14.8574 30.5988 14.9095 30.6317 14.9249 30.6317C14.9402 30.6317 14.9617 30.6443 14.9724 30.66C14.9831 30.6772 15.0276 30.7086 15.069 30.7322C15.112 30.7557 15.1626 30.7918 15.1841 30.8106C15.2055 30.831 15.2362 30.8514 15.2531 30.8577C15.2684 30.864 15.362 30.9205 15.4601 30.9833C15.7868 31.1967 16.2485 31.4886 16.4417 31.6032C16.5476 31.6675 16.6595 31.7397 16.6902 31.7648C16.7224 31.7899 16.7746 31.8198 16.8068 31.8308C16.8374 31.8433 16.8911 31.87 16.9233 31.8935C16.9555 31.9155 16.9939 31.9343 17.0092 31.9343C17.023 31.9343 17.0537 31.9563 17.0782 31.9814C17.1028 32.0081 17.135 32.0285 17.1488 32.0285C17.1641 32.0285 17.2055 32.0567 17.2408 32.0897C17.2746 32.1242 17.3236 32.1572 17.3482 32.1619C17.3727 32.1682 17.3973 32.1823 17.4049 32.1949C17.4111 32.2058 17.5031 32.2623 17.6074 32.3204C17.7132 32.3769 17.8543 32.4601 17.9218 32.5056C17.9893 32.5511 18.066 32.595 18.0905 32.6029C18.1733 32.628 18.4831 32.8179 18.5138 32.8634C18.5307 32.887 18.5537 32.9607 18.5675 33.0266C18.6012 33.2087 18.7301 33.6544 18.8252 33.9133C18.908 34.1409 18.9985 34.3465 19.2101 34.7749C19.2255 34.8048 19.2531 34.8471 19.273 34.8691C19.3114 34.913 19.3344 34.9868 19.3144 34.9994C19.3068 35.0041 19.2638 34.9931 19.2178 34.9727Z" fill="#366283"/>
<path d="M11.6109 60.6003C11.5817 60.5988 11.4821 60.5878 11.3885 60.5799C10.6891 60.5109 9.79034 60.3006 9.04187 60.0307C8.45598 59.8188 7.7796 59.4986 7.30107 59.2052C6.97285 59.0043 6.49586 58.6747 6.37469 58.5648C6.33942 58.535 6.28114 58.4895 6.24279 58.4644C6.20445 58.4393 6.13236 58.3828 6.08175 58.3373C6.03114 58.2933 5.90997 58.1882 5.81334 58.105C5.53267 57.8618 4.98359 57.2905 4.85015 57.1022C4.82561 57.0692 4.79494 57.0315 4.7796 57.019C4.73359 56.9797 4.50353 56.6878 4.3839 56.5152C4.00813 55.9753 3.74739 55.539 3.50506 55.0478C3.00966 54.0465 2.70752 53.0971 2.54034 52.0267C2.44218 51.399 2.41917 51.0255 2.42838 50.2251C2.43451 49.6789 2.44065 49.5283 2.46825 49.3117C2.69371 47.5351 3.2796 45.9563 4.21058 44.6113C4.39617 44.343 4.67684 43.9742 4.83635 43.789C5.09095 43.4924 5.67071 42.9085 5.95138 42.6669C5.99739 42.6261 6.06641 42.5664 6.10476 42.5335C6.32561 42.342 7.06795 41.8209 7.37776 41.6405C7.87316 41.3517 8.84555 40.8966 9.04494 40.8589C9.07715 40.8526 9.12163 40.8322 9.14463 40.8134C9.16917 40.7914 9.21825 40.7726 9.26733 40.7663C9.31181 40.76 9.36549 40.7475 9.38543 40.7396C9.40537 40.7334 9.42531 40.7286 9.42838 40.7334C9.44218 40.7475 9.35936 40.8103 9.23359 40.8793C8.87163 41.0786 8.25813 41.4741 8.1385 41.584C8.12163 41.5981 7.98819 41.7048 7.84249 41.8194C7.69525 41.9355 7.55568 42.0485 7.5342 42.0721C7.5112 42.0972 7.42531 42.1756 7.34249 42.2494C7.1523 42.4158 6.80874 42.7673 6.67531 42.9274C6.62009 42.9949 6.57101 43.0498 6.56488 43.0498C6.56028 43.0498 6.49126 43.1314 6.41304 43.2303C6.33482 43.3291 6.26427 43.4107 6.25813 43.4107C6.25046 43.4107 6.22285 43.4484 6.19678 43.4939C6.16917 43.5379 6.1293 43.5975 6.10629 43.6226C6.00506 43.7356 5.62469 44.3179 5.42991 44.6584C5.12623 45.1889 4.73359 46.0928 4.56334 46.6516C4.37009 47.2887 4.21519 48.0248 4.15077 48.6055C4.09862 49.0747 4.07715 50.1843 4.11089 50.6457C4.15997 51.3127 4.36089 52.2967 4.58942 52.9903C4.75966 53.5114 5.15844 54.4562 5.28574 54.6398C5.30414 54.6665 5.32408 54.7041 5.33022 54.7245C5.33635 54.7449 5.36396 54.792 5.39157 54.8281C5.41917 54.8658 5.44678 54.916 5.45138 54.9411C5.45752 54.9646 5.47439 54.996 5.48819 55.0117C5.502 55.0259 5.54187 55.0839 5.57561 55.142C5.6615 55.2879 6.07255 55.8859 6.18604 56.0318C6.23819 56.0977 6.32101 56.1998 6.37009 56.2594C6.41764 56.3175 6.5066 56.4305 6.56488 56.5089C6.65997 56.6376 7.22592 57.2167 7.44831 57.4113C7.49126 57.449 7.55261 57.5039 7.58635 57.5337C7.70905 57.6436 8.19065 58.0171 8.32408 58.1066C8.3839 58.1458 8.43604 58.185 8.43911 58.1913C8.45292 58.229 9.26273 58.7061 9.58175 58.8646C9.77654 58.9619 9.94065 59.0482 9.94525 59.0561C9.95138 59.0639 9.98052 59.0796 10.0127 59.0906C10.0434 59.1 10.2183 59.1675 10.3992 59.2381C11.1676 59.5394 11.8808 59.7262 12.7198 59.8423C13.0833 59.8925 13.3548 59.9051 14.1017 59.9051H14.8041L15.2443 59.8408C15.8057 59.7592 16.0342 59.7168 16.3624 59.6305C16.6293 59.5598 16.7091 59.5473 16.7244 59.574C16.7336 59.5897 16.6584 59.6305 16.5879 59.6462C16.5633 59.6524 16.4943 59.6854 16.4345 59.7168C16.1324 59.8847 15.3287 60.1703 14.7382 60.3179C13.7735 60.5611 13.3364 60.6129 12.2781 60.6082C11.9406 60.6082 11.64 60.6035 11.6109 60.6003Z" fill="#466F91"/>
<path d="M18.2837 31.0241C18.2653 31.0036 18.2315 30.977 18.2085 30.9644C18.0505 30.8828 17.7975 30.7337 17.388 30.481C17.1272 30.321 16.865 30.1593 16.8051 30.1232C16.6426 30.0275 16.0367 29.6446 15.3834 29.2271C14.8067 28.8567 13.9524 28.2776 13.2852 27.8052C13.0904 27.6671 12.8696 27.5102 12.7944 27.4568C12.2821 27.0943 10.9662 26.0852 10.4969 25.6959C10.3742 25.5955 10.2392 25.4857 10.1947 25.4527C10.1211 25.3978 9.57355 24.9332 9.026 24.4593C8.90023 24.351 8.68244 24.1532 8.54287 24.0214C8.4033 23.8896 8.23306 23.7311 8.16404 23.6667C7.68398 23.221 7.46312 23.0044 6.88643 22.4128C6.52753 22.0455 6.19471 21.6956 6.1487 21.6359C6.10115 21.5747 5.99839 21.4554 5.9217 21.3691C5.68858 21.1133 5.59502 21.0066 5.50606 20.8967C5.46005 20.8402 5.39716 20.768 5.36802 20.7367C5.31894 20.6849 5.17937 20.5138 4.73152 19.9567C4.65483 19.8609 4.57661 19.7574 4.55821 19.7244C4.53827 19.693 4.5168 19.6663 4.50913 19.6663C4.50146 19.6663 4.49072 19.6506 4.48612 19.6318C4.47999 19.6145 4.46005 19.5832 4.44164 19.5659C4.32815 19.456 3.4033 18.1063 3.2668 17.8537C3.23919 17.8019 3.20391 17.7454 3.18858 17.7281C3.11649 17.6434 2.61496 16.7661 2.38029 16.3141C2.13029 15.8339 1.81588 15.1433 1.57815 14.5532C1.52753 14.4293 1.46005 14.2692 1.42631 14.197C1.39256 14.1232 1.36496 14.051 1.36496 14.0353C1.36496 14.0196 1.25759 13.6759 1.12723 13.271C0.995324 12.8677 0.892564 12.5319 0.898699 12.5271C0.910968 12.5146 1.03827 12.6574 1.06894 12.7202C1.08275 12.7469 1.11189 12.7861 1.13336 12.8096C1.15483 12.8316 1.22232 12.9226 1.2806 13.0121C1.3987 13.191 1.81281 13.7968 1.89103 13.9051C1.91864 13.9427 1.95851 14.0055 1.98152 14.0432C2.00453 14.0808 2.03827 14.1279 2.05667 14.1468C2.10115 14.1923 2.32968 14.5077 2.38489 14.5972C2.40943 14.6364 2.45085 14.6929 2.47845 14.7227C2.50606 14.7525 2.56588 14.8279 2.61036 14.8907C2.91864 15.3175 3.70698 16.3549 3.80054 16.4585C3.82508 16.4852 3.93397 16.6186 4.04134 16.7567C4.30821 17.0941 4.69471 17.5712 4.77293 17.6575C4.8987 17.7956 5.48459 18.4767 5.54901 18.5615C5.58582 18.6086 5.62109 18.6462 5.62876 18.6462C5.63489 18.6462 5.68858 18.7043 5.74839 18.7749C5.80667 18.8471 5.91557 18.9695 5.98766 19.0464C6.18858 19.2583 6.21618 19.2897 6.30207 19.3948C6.34502 19.4482 6.42017 19.5345 6.46925 19.5847C6.5168 19.6365 6.63643 19.7652 6.73305 19.8719C7.15637 20.3365 8.7668 21.9576 9.09502 22.248C9.29901 22.4285 9.37263 22.496 9.47232 22.5933C9.5168 22.6372 9.59195 22.7078 9.6395 22.7502C9.75606 22.8553 9.89717 22.9872 9.97539 23.0641C10.0107 23.0986 10.0659 23.1488 10.0996 23.1739C10.1334 23.199 10.1855 23.2446 10.2162 23.2759C10.2469 23.3058 10.3235 23.3764 10.3895 23.4329C10.4554 23.4894 10.526 23.5522 10.549 23.5741C10.572 23.5961 10.618 23.6353 10.6518 23.6604C10.6855 23.6856 10.7346 23.7279 10.7607 23.7546C10.7867 23.7797 10.8604 23.8425 10.9248 23.8927C10.9892 23.9429 11.0966 24.0355 11.164 24.0967C11.2944 24.2176 11.3159 24.2348 11.5183 24.4012C11.5904 24.4593 11.7699 24.6068 11.9171 24.7276C12.0643 24.8485 12.2315 24.9819 12.2898 25.0242C12.3466 25.0682 12.3926 25.1074 12.3926 25.1137C12.3926 25.12 12.4416 25.1576 12.4999 25.1985C12.5597 25.2393 12.6134 25.2848 12.6226 25.2989C12.6303 25.3146 12.6579 25.3366 12.684 25.3475C12.7085 25.3585 12.73 25.3727 12.73 25.3805C12.73 25.3883 12.7607 25.4135 12.799 25.4386C12.8358 25.4621 12.8956 25.5076 12.9324 25.5406C12.9693 25.5735 13.0383 25.6269 13.0873 25.6583C13.1364 25.6912 13.2162 25.7509 13.2637 25.7917C13.3113 25.8325 13.3834 25.889 13.4232 25.9172C13.4616 25.9455 13.6794 26.1056 13.9064 26.2735C14.1318 26.443 14.4186 26.6533 14.5444 26.7427C14.6686 26.8322 14.7699 26.9122 14.7699 26.9185C14.7699 26.9264 14.7898 26.9326 14.8143 26.9326C14.8466 26.9326 14.8788 26.953 14.9309 27.0048C15.0674 27.1398 16.8082 28.3043 17.707 28.863C17.8512 28.9509 17.9892 29.0403 18.0153 29.0592C18.0398 29.0796 18.1303 29.1329 18.2146 29.1784C18.2975 29.224 18.4125 29.2867 18.4693 29.3165L18.5735 29.373L18.5643 29.5221C18.5582 29.61 18.5429 29.6979 18.5275 29.734C18.5107 29.7732 18.4907 29.8957 18.4739 30.0636C18.4478 30.3429 18.3803 30.922 18.365 31.0099C18.3542 31.0696 18.3312 31.0743 18.2837 31.0241Z" fill="#466F91"/>
<path d="M26.4179 35.5838C26.3796 35.5241 26.306 35.4237 26.2554 35.3593C26.1311 35.1993 25.7998 34.6955 25.6357 34.4177C25.4962 34.1807 25.2722 33.7256 25.1741 33.4839C25.0928 33.2799 24.9302 32.7871 24.8857 32.6051C24.8443 32.434 24.8075 32.219 24.7922 32.0354C24.7845 31.9585 24.7738 31.9177 24.76 31.9114C24.7416 31.9051 24.7416 31.9004 24.7615 31.8847C24.783 31.869 24.7845 31.8517 24.7707 31.7654C24.7492 31.6367 24.7492 31.202 24.7692 30.965C24.8274 30.2698 25.0468 29.5322 25.4271 28.7553C25.5943 28.4148 25.9808 27.7588 26.0498 27.7007C26.0636 27.6881 26.0958 27.6379 26.1204 27.5877C26.1449 27.5375 26.1679 27.4967 26.1725 27.4967C26.1833 27.4967 26.3044 27.6332 26.3504 27.6976C26.3735 27.7305 26.5314 27.8922 26.7001 28.0585C26.9317 28.2845 27.0192 28.3598 27.0468 28.3598C27.1112 28.3598 27.0897 28.2892 26.9701 28.1087C26.9057 28.0114 26.6863 27.5673 26.6863 27.5343C26.6787 27.5202 26.6787 27.5202 26.671 27.5124C26.6281 27.5124 26.4026 26.9176 26.2646 26.4358C26.1465 26.0261 26.0897 25.6887 26.0406 25.119C26.0038 24.678 26.0621 23.9593 26.1802 23.4131C26.3044 22.8403 26.6112 21.9394 26.7891 21.6287C26.8458 21.5298 26.8995 21.4796 26.8796 21.5424C26.875 21.5596 26.8642 21.6648 26.855 21.7762C26.8458 21.8892 26.829 22.0446 26.8167 22.1215C26.7446 22.5829 26.7446 23.3911 26.8182 23.8321C26.9072 24.372 27.1465 25.0892 27.3428 25.4047C27.3888 25.4816 27.4578 25.5946 27.4931 25.6589C27.5299 25.7233 27.5928 25.8174 27.6327 25.8708C27.6725 25.9226 27.7231 25.9916 27.7431 26.0214C27.8458 26.1737 28.4256 26.8689 28.625 27.0792C28.7078 27.1655 28.7998 27.2691 28.832 27.3068C28.8627 27.346 28.921 27.4119 28.9624 27.4559C29.0514 27.5516 29.3136 27.9063 29.4379 28.0993C29.6127 28.3724 29.7584 28.7334 29.809 29.0174C29.8412 29.2042 29.8412 29.7644 29.809 29.9371C29.7707 30.1333 29.7768 30.1945 29.8443 30.3577C29.944 30.5994 29.9563 30.6527 29.9639 30.9101C29.9731 31.1989 29.9455 31.3448 29.832 31.5865C29.6925 31.8863 29.4777 32.1939 29.4379 32.1546C29.4348 32.1499 29.4241 32.0416 29.4164 31.913C29.4011 31.643 29.3735 31.5347 29.2799 31.3747C29.2063 31.246 29.1035 31.1487 29.0054 31.1126C28.9655 31.0984 28.8965 31.0686 28.8504 31.0451C28.7707 31.0058 28.7554 31.0043 28.51 31.0043C28.2876 31.0043 28.2508 31.0074 28.2247 31.0325C28.2078 31.0466 28.1526 31.0765 28.1004 31.0969C27.9701 31.1502 27.8842 31.2146 27.694 31.4045C27.4455 31.6493 27.3106 31.8486 27.0943 32.2833C26.9731 32.5266 26.9087 32.7118 26.8198 33.0837C26.7001 33.5812 26.6695 33.7695 26.6327 34.2686C26.6189 34.4413 26.605 34.5919 26.602 34.6029C26.5974 34.6139 26.5836 34.8524 26.5713 35.1318C26.559 35.4111 26.5437 35.6513 26.5391 35.6654C26.5222 35.7109 26.4885 35.6889 26.4179 35.5838ZM29.2937 29.4914C29.2937 29.3391 29.2247 29.201 29.079 29.0598C28.9777 28.9625 28.832 28.862 28.7922 28.862C28.76 28.862 28.7692 28.9688 28.8106 29.0896C28.875 29.2779 29.0054 29.438 29.1771 29.5432C29.2277 29.5746 29.2738 29.5997 29.2814 29.5997C29.2876 29.5997 29.2937 29.551 29.2937 29.4914ZM27.1618 28.4336C27.1618 28.4226 27.1541 28.4054 27.1434 28.3944C27.1158 28.3661 27.0851 28.3708 27.0851 28.4038C27.0851 28.4195 27.0897 28.4383 27.0958 28.443C27.1127 28.4618 27.1618 28.454 27.1618 28.4336Z" fill="#5B82A3"/>
<path d="M18.6347 28.2552C18.6224 28.2505 18.5734 28.2191 18.5273 28.1877C18.4813 28.1563 18.3019 28.0386 18.1286 27.9287C17.7053 27.6572 16.3786 26.7721 16.2727 26.6905C16.2267 26.6544 16.1485 26.601 16.0994 26.5712C16.0503 26.5414 15.9614 26.4786 15.9016 26.4331C15.8433 26.3876 15.7727 26.3389 15.7451 26.3248C15.7191 26.3107 15.65 26.262 15.5902 26.2149C15.5319 26.1694 15.397 26.0737 15.2911 26.0031C15.1853 25.934 15.0473 25.8367 14.9844 25.7881C14.9215 25.7379 14.8034 25.6531 14.7237 25.5982C14.5626 25.4883 13.7712 24.9014 13.6715 24.8182C13.6362 24.7899 13.6025 24.7664 13.5964 24.7664C13.5902 24.7664 13.5596 24.7444 13.5289 24.7177C13.4982 24.6911 13.3617 24.5859 13.2252 24.4839C13.0887 24.3819 12.9721 24.2877 12.9645 24.2752C12.9583 24.2626 12.9292 24.2406 12.9016 24.2265C12.874 24.2124 12.7957 24.1528 12.7252 24.0963C12.6562 24.0382 12.5519 23.9566 12.4921 23.9142C12.4338 23.8703 12.3264 23.784 12.2543 23.7227C12.1823 23.66 12.0105 23.5187 11.8709 23.4073C11.7313 23.2959 11.4553 23.0667 11.2574 22.8988C11.0596 22.7293 10.8479 22.5504 10.7865 22.4986C10.7267 22.4468 10.5611 22.3056 10.4184 22.1863C10.2773 22.067 10.1086 21.9179 10.0457 21.8567C9.90158 21.7186 9.739 21.568 9.43225 21.2902C8.91538 20.8225 7.512 19.4179 7.10863 18.9659C7.01661 18.8623 6.92612 18.7635 6.90924 18.7446C6.8755 18.7085 6.79881 18.6253 6.66845 18.4825C6.6209 18.4292 6.53808 18.3319 6.4844 18.266C6.43072 18.2 6.31569 18.0635 6.22673 17.9631C6.13777 17.8626 6.03961 17.7433 6.0074 17.6994C5.9752 17.6539 5.91538 17.5833 5.8755 17.5393C5.75434 17.4091 5.45066 17.0246 5.19145 16.6762C5.12704 16.5898 5.03961 16.4753 4.99513 16.4203C4.95066 16.367 4.89697 16.2901 4.8755 16.2508C4.8525 16.2116 4.81415 16.1567 4.78808 16.13C4.66691 16.0013 3.98133 14.9702 3.60096 14.3456C3.03041 13.4102 2.5074 12.3917 2.1117 11.4501C1.71906 10.5147 1.27581 9.14148 1.17612 8.55453C1.16231 8.48077 1.1347 8.38503 1.1117 8.33952C1.08409 8.28616 1.07336 8.2485 1.08102 8.22496L1.09176 8.19043L1.1301 8.2281C1.16385 8.25948 1.30802 8.47606 1.46139 8.72716C1.49053 8.77425 1.60403 8.95786 1.71139 9.13521C1.91231 9.46321 2.43378 10.2762 2.68685 10.6575C2.97673 11.0938 3.3847 11.6918 3.51814 11.8801C3.59483 11.9868 3.73133 12.1814 3.82182 12.3117C3.91078 12.4419 4.00127 12.5659 4.02121 12.5879C4.03961 12.6098 4.09023 12.6758 4.13164 12.737C4.17305 12.7966 4.24667 12.897 4.29421 12.9567C4.34329 13.0179 4.41231 13.1121 4.44759 13.1686C4.4844 13.2235 4.53348 13.291 4.55802 13.3176C4.58256 13.3428 4.66845 13.4542 4.75127 13.5625C4.83256 13.6723 4.94912 13.823 5.0074 13.8983C5.30648 14.2828 5.55188 14.5936 5.61783 14.6736C5.65771 14.7223 5.7298 14.8149 5.77888 14.8792C5.82796 14.9435 5.88777 15.0189 5.91231 15.0456C5.93839 15.0722 6.03808 15.1915 6.1347 15.3108C6.23133 15.4316 6.47673 15.7235 6.67918 15.9621C6.88164 16.1991 7.08256 16.436 7.1255 16.4878C7.16691 16.5396 7.2298 16.6118 7.26354 16.6463C7.29575 16.6824 7.34789 16.7389 7.37704 16.7719C7.74667 17.1909 8.40771 17.9113 8.66538 18.1749C8.77888 18.2926 8.99667 18.5186 9.15004 18.6771C9.30188 18.8372 9.53194 19.0726 9.65924 19.2013C9.78808 19.33 9.89237 19.4414 9.89237 19.4493C9.89237 19.4556 9.89851 19.4618 9.90771 19.4618C9.92458 19.4618 10.0396 19.5717 10.4369 19.964C10.5718 20.0974 10.7482 20.2638 10.828 20.3313C10.9077 20.4003 10.9982 20.4819 11.0273 20.5118C11.1132 20.6012 11.4783 20.9355 11.6623 21.094C11.8816 21.2823 12.1592 21.5303 12.2083 21.5821C12.2298 21.6056 12.3034 21.6684 12.3709 21.7233C12.4369 21.7767 12.5964 21.9117 12.7221 22.02C12.8494 22.1298 13.0626 22.3103 13.1976 22.4217C13.3326 22.5331 13.4599 22.6414 13.4813 22.6603C13.5028 22.6807 13.558 22.7262 13.6056 22.7623C13.6531 22.7984 13.9062 22.9977 14.1654 23.2064C14.897 23.7887 14.9276 23.8122 15.3111 24.0947C15.3908 24.1528 15.4675 24.2155 15.4844 24.2344C15.4997 24.2532 15.5335 24.2783 15.5595 24.2924C15.6224 24.3254 15.9384 24.553 16.0427 24.6408C16.0887 24.6801 16.1439 24.7193 16.1654 24.7303C16.1868 24.7397 16.2344 24.7711 16.2712 24.7994C16.308 24.8292 16.3832 24.881 16.4384 24.9171C16.4936 24.9532 16.5703 25.0081 16.6086 25.0395C16.647 25.0709 16.7835 25.1682 16.9092 25.2529C17.0365 25.3392 17.1562 25.4224 17.1776 25.4397C17.1991 25.4554 17.3203 25.5385 17.4461 25.6217C17.5734 25.7049 17.6899 25.7881 17.7083 25.8038C17.7252 25.821 17.7789 25.8571 17.8264 25.8869C17.874 25.9168 17.9905 25.9968 18.0872 26.0674C18.2589 26.193 18.262 26.1961 18.3172 26.3154C18.4537 26.6199 18.4859 26.7187 18.5948 27.1676C18.6638 27.4469 18.6792 27.5756 18.7053 28.0747C18.7145 28.2552 18.7129 28.2661 18.6868 28.2646C18.67 28.2646 18.647 28.2599 18.6347 28.2552Z" fill="#5B82A3"/>
<path d="M12.5021 58.2098C12.1861 58.1549 11.4745 57.9634 11.1585 57.8473C10.361 57.5522 9.39932 57.039 8.89012 56.6357C8.82417 56.5839 8.72908 56.5117 8.68 56.4772C8.5757 56.4034 8.29809 56.1711 8.16773 56.0472C8.11711 55.9985 7.99441 55.8855 7.89625 55.7961C7.79963 55.7082 7.66466 55.5701 7.59871 55.4916C7.53122 55.4131 7.43153 55.2986 7.37631 55.2358C7.25668 55.1024 6.88398 54.6159 6.76128 54.437C6.51588 54.0729 6.17846 53.4781 6.01895 53.1249C5.81803 52.6855 5.60944 52.1299 5.48521 51.7109C5.38092 51.3609 5.23061 50.5841 5.16926 50.0976C5.10024 49.531 5.09104 48.8264 5.14472 48.2771C5.27662 46.9635 5.79042 45.4569 6.51895 44.2516C6.66772 44.0067 6.87325 43.7023 6.96374 43.5924C7.00668 43.5406 7.11865 43.3994 7.21374 43.2785C7.41159 43.0274 8.04503 42.3667 8.27509 42.1737C9.24748 41.3513 10.318 40.7518 11.4499 40.3909C12.0174 40.2104 12.4116 40.1162 12.6002 40.1162C12.7659 40.1162 12.7736 40.1507 12.6171 40.1853C12.5343 40.2041 12.3917 40.2684 12.0772 40.4301C11.295 40.8303 11.0113 41.0139 10.2383 41.6307C9.91466 41.8896 9.4392 42.3573 9.14625 42.7057C9.04196 42.8313 8.9346 42.9568 8.90852 42.9866C8.88092 43.0165 8.79503 43.1295 8.71681 43.2377C8.63705 43.346 8.54349 43.4732 8.50822 43.5202C8.47294 43.5673 8.42386 43.6442 8.39932 43.6897C8.37478 43.7352 8.3349 43.7964 8.30883 43.8247C8.28276 43.8514 8.22294 43.9455 8.17539 44.0319C7.91619 44.4995 7.86558 44.5953 7.79503 44.7412C7.56496 45.2105 7.30883 45.8367 7.17386 46.262C6.99134 46.8379 6.88398 47.3904 6.8073 48.1515C6.77969 48.4262 6.77969 49.8669 6.8073 50.1133C6.95147 51.3876 7.24288 52.425 7.74748 53.4592C8.22294 54.4338 8.69687 55.1196 9.44227 55.9106C9.77815 56.2684 9.86251 56.3532 10.0312 56.4991C10.0604 56.5258 10.1064 56.5666 10.1309 56.5902C10.157 56.6137 10.318 56.7408 10.4913 56.8727C10.6647 57.0045 10.8288 57.1316 10.8579 57.1551C10.8871 57.1787 10.9423 57.2179 10.9806 57.2399C11.019 57.2619 11.1171 57.3231 11.1969 57.3749C11.6355 57.6589 12.407 58.0528 12.7582 58.1705C12.8272 58.1941 12.884 58.2176 12.884 58.2208C12.884 58.2318 12.5864 58.2239 12.5021 58.2098Z" fill="#7DA2BB"/>
</g>
<defs>
<clipPath id="clip0_37_221">
<rect width="30" height="64" fill="white"/>
</clipPath>
</defs>
</svg>
