<svg width="120" height="120" viewBox="0 0 120 120" fill="none" xmlns="http://www.w3.org/2000/svg">
<g clip-path="url(#clip0_37_860)">
<path d="M99.7887 16.2062C117.396 27.3176 117.396 27.3176 120 34.602C120.335 39.5728 120.033 43.8292 118.421 48.5897C118.177 50.1676 117.948 51.7477 117.73 53.329C117.188 56.8546 116.348 59.3768 114.476 62.4387C111.428 68.6441 111.854 76.371 111.711 83.0529C110.911 108.765 110.911 108.765 102.459 117.381C98.2633 120.804 93.743 120.33 88.4212 120.001C86.4984 119.674 84.6472 119.278 82.7684 118.779C81.1403 118.385 81.1403 118.385 78.9475 119.265C73.4397 119.796 70.0375 118.545 65.5264 115.584C64.7449 114.764 64.7449 114.764 63.9475 113.927C62.0689 112.394 61.3469 112.456 58.9146 112.317C55.0445 112.056 53.2439 110.874 50.5264 108.222C50.1733 107.475 49.8202 106.728 49.4563 105.958C46.084 102.479 41.9353 102.889 37.1054 102.608C26.3061 101.897 15.7085 100.348 7.91952 92.7097C0.586444 84.3938 -0.811674 75.9933 0.000111863 65.5222C2.05918 52.3178 11.1227 39.8038 19.737 29.4486C20.4435 28.5794 21.1497 27.7099 21.8556 26.8403C45.9462 -2.56605 67.5339 -3.81106 99.7887 16.2062ZM31.1666 19.4211C28.5022 22.1463 26.0512 25.0223 23.6843 27.9762C23.9448 28.4621 24.2054 28.948 24.4738 29.4486C25.1638 28.9048 25.8538 28.361 26.5647 27.8008C41.7143 16.0676 56.6596 7.61787 76.5791 6.6265C72.8769 3.17419 66.5943 2.42573 61.5421 2.12305C48.566 2.60322 39.5468 11.13 31.1666 19.4211ZM36.3159 22.8228C36.837 23.0658 37.358 23.3087 37.8949 23.559C39.4973 22.9675 41.0719 22.31 42.6317 21.6265C47.1268 19.7339 51.6434 18.2898 56.3981 17.0713C56.9859 16.9193 57.5736 16.7674 58.1791 16.6108C68.2952 14.0917 78.5061 13.5342 88.4212 16.9332C89.4704 17.1909 90.5222 17.4403 91.5791 17.6694C87.3658 13.2166 81.3687 9.11705 74.8798 8.65967C60.0894 8.38923 47.909 14.6829 36.3159 22.8228ZM52.1054 20.6142C52.9809 20.5969 52.9809 20.5969 53.8742 20.5792C85.3457 20.0381 85.3457 20.0381 96.1432 28.3184C97.0316 29.1492 97.8655 30.0302 98.6843 30.921C99.2054 31.1639 99.7264 31.4069 100.263 31.6572C98.5584 26.0046 92.9749 21.1841 87.6841 18.3136C77.9604 13.9098 61.1733 14.9769 52.1054 20.6142ZM93.9475 16.1971C94.5662 16.8651 95.185 17.5332 95.8225 18.2216C96.256 18.697 96.6896 19.1725 97.1362 19.6623C98.2396 20.8655 99.3553 22.0589 100.479 23.2456C104.359 27.429 107.776 31.7021 110.921 36.3964C111.254 36.8927 111.586 37.389 111.929 37.9003C113.576 40.4161 114.991 42.8534 116.053 45.6449C118.548 42.1552 118.216 38.6782 117.632 34.602C115.132 28.1949 108.379 24.3758 102.632 20.6142C101.909 20.1369 101.187 19.6595 100.442 19.1677C97.4499 17.0038 97.4499 17.0038 93.9475 16.1971ZM58.4212 22.0866C58.4212 22.3296 58.4212 22.5725 58.4212 22.8228C59.9385 22.9979 59.9385 22.9979 61.4865 23.1765C75.4622 24.8901 88.6248 27.7688 98.3389 38.073C101.351 42.5381 102.264 46.8666 102.188 52.0866C102.182 52.665 102.176 53.2435 102.17 53.8394C101.903 62.6938 98.2413 70.6004 91.9245 77.2093C83.9632 83.6815 75.4305 85.9198 65.181 87.7921C64.2178 87.98 63.2546 88.1679 62.2621 88.3615C55.9892 89.5433 49.8111 90.2409 43.4212 90.5529C44.5435 93.3299 45.5466 95.0678 47.9113 97.0866C48.4191 97.5402 48.9269 97.9939 49.4502 98.4612C52.1953 99.8237 53.8661 99.3389 56.8422 98.651C59.4245 97.6175 59.4245 97.6175 62.0231 96.2124C63.0562 95.6794 64.0893 95.1464 65.1224 94.6135C65.6848 94.3197 66.2472 94.026 66.8267 93.7234C68.8785 92.6609 70.9433 91.6228 73.011 90.5874C77.377 88.3984 81.722 86.1761 86.0527 83.9271C86.5589 83.6659 87.0651 83.4047 87.5866 83.1356C94.8417 79.3405 99.3973 75.0611 102.138 67.6388C105.259 56.8766 105.363 44.5929 99.4738 34.602C94.5262 27.9338 88.1188 24.5676 79.737 22.8228C75.1201 22.0396 70.6432 21.9998 65.9705 22.0406C65.2424 22.0439 64.5142 22.0473 63.764 22.0507C61.983 22.0593 60.2021 22.0713 58.4212 22.0866ZM37.1054 27.24C31.4535 30.2013 28.0596 33.9888 26.0527 39.7553C24.5535 45.9024 27.8272 52.4186 30.0001 58.1602C30.2718 58.8811 30.2718 58.8811 30.549 59.6165C32.0212 64.7908 32.0212 64.7908 35.5264 68.467C35.5577 67.6173 35.589 66.7677 35.6213 65.8923C35.7424 62.7044 35.8823 59.5174 36.0276 56.3304C36.0876 54.9576 36.1427 53.5846 36.1925 52.2115C36.8763 33.6172 36.8763 33.6172 42.9277 28.3443C45.3042 26.6882 47.8068 25.4086 50.5264 24.2952C46.0715 22.9104 41.2545 25.5433 37.1054 27.24ZM48.158 27.24C47.6074 27.5275 47.0569 27.8151 46.4896 28.1114C41.9025 30.8719 40.0416 34.1496 38.6843 39.0191C37.7547 43.5477 37.8039 48.0023 37.8455 52.5928C37.8491 53.342 37.8526 54.0912 37.8563 54.8632C37.8655 56.6984 37.8785 58.5336 37.8949 60.3688C39.3339 58.3559 40.2253 56.5951 41.1884 54.3642C41.5182 53.6107 41.8479 52.8572 42.1876 52.0809C42.8681 50.5134 43.5466 48.9451 44.223 47.3761C51.2677 31.3134 51.2677 31.3134 59.2106 27.9762C67.2172 26.1773 75.3188 28.3085 82.4354 31.8786C90.2558 36.6779 96.7276 42.7299 98.6843 51.5345C99.3312 60.2812 95.7739 66.8657 89.7534 73.3903C79.4163 81.6848 69.2319 82.3956 56.0527 81.7185C49.7724 81.1807 43.8629 79.922 37.8949 78.0375C37.9645 79.066 38.0499 80.0934 38.1416 81.1204C38.1874 81.6926 38.2332 82.2649 38.2803 82.8545C38.7934 85.1517 39.4395 86.5302 41.0527 88.3443C48.6701 90.1127 57.4584 87.8242 64.9343 86.3658C66.3211 86.097 66.3211 86.097 67.7358 85.8228C79.8605 83.2981 88.902 79.5755 95.8903 69.741C100.287 62.4679 102.559 53.2262 100.14 45.0209C97.0551 37.6827 91.0594 33.0988 83.635 29.6786C73.3325 25.6321 58.5501 21.6138 48.158 27.24ZM53.7337 33.4056C48.9408 38.7386 45.5024 46.3399 43.4212 53.0069C43.6817 53.4928 43.9422 53.9786 44.2106 54.4793C44.7459 53.8738 45.2812 53.2683 45.8328 52.6445C61.4279 35.1401 61.4279 35.1401 70.1646 33.9118C76.4306 33.5852 80.596 35.2748 85.4113 38.9731C91.0691 44.1009 94.1268 49.2207 94.2632 56.6174C94.2349 59.1025 94.1177 61.5695 93.9475 64.0498C96.94 60.6527 97.4058 57.6746 97.3151 53.3663C96.5191 46.4131 92.2323 41.4045 86.8422 36.8105C77.5449 29.9299 63.4917 24.5594 53.7337 33.4056ZM102.632 29.4486C103.646 32.3728 104.764 35.2412 105.954 38.1055C109.043 45.5762 110.706 52.3557 111.316 60.3688C113.943 55.587 116.104 51.3658 114.468 45.9785C111.898 40.0532 107.944 34.2602 103.421 29.4486C103.161 29.4486 102.9 29.4486 102.632 29.4486ZM22.6481 34.5559C17.8961 39.08 14.6602 43.7455 13.9639 50.1081C14.8817 60.8911 22.8264 67.9575 30.7896 75.0928C31.581 75.8272 32.3708 76.5631 33.158 77.3013C33.6791 77.7872 34.2001 78.2731 34.737 78.7737C34.175 70.2142 30.1276 61.9401 26.817 54.0134C23.4122 45.7637 23.9978 39.7506 27.6317 31.6572C25.1964 31.6572 24.3523 32.9935 22.6481 34.5559ZM101.053 32.3934C101.842 33.8658 101.842 33.8658 101.842 33.8658L101.053 32.3934ZM47.6646 53.0069C43.8748 57.3007 43.8748 57.3007 42.7304 62.4854C43.8611 66.2511 45.021 68.2478 48.5065 70.3851C57.482 74.8988 67.0321 77.1203 76.9892 74.5866C82.9583 72.6713 87.9557 69.4929 91.1997 64.3604C93.8264 58.6259 93.2314 53.9907 90.8328 48.2877C88.0589 43.0149 83.3612 38.6347 77.6646 36.0744C64.3829 32.4046 54.9173 44.2585 47.6646 53.0069ZM103.421 37.5467C104.211 39.0191 104.211 39.0191 104.211 39.0191L103.421 37.5467ZM104.211 39.7553C105 41.2277 105 41.2277 105 41.2277L104.211 39.7553ZM105 41.2277C105.013 41.8321 105.025 42.4364 105.038 43.0591C105.079 45.3408 105.108 47.6225 105.13 49.9045C105.148 51.3619 105.178 52.8192 105.208 54.2765C105.256 60.1252 104.668 65.1397 102.632 70.6756C102.322 71.5714 102.013 72.4673 101.694 73.3903C101.483 73.9521 101.271 74.5139 101.053 75.0928C105.358 72.569 107.504 69.2437 108.947 64.786C109.98 56.4833 108.551 49.1255 105.79 41.2277C105.529 41.2277 105.269 41.2277 105 41.2277ZM11.8422 44.9087C11.0653 46.3179 10.2932 47.7294 9.52314 49.1418C8.87742 50.3205 8.87742 50.3205 8.21866 51.523C5.64337 56.6586 5.33881 62.6467 6.82783 68.1507C11.5157 78.874 22.4226 83.6068 33.0871 88.1344C35.3291 89.1747 35.3291 89.1747 37.1054 89.0805C35.5064 82.9174 32.3133 79.5759 27.6317 75.0928C18.7764 66.2708 12.157 58.9698 12.5484 46.4214C12.5759 45.9222 12.6034 45.423 12.6317 44.9087C12.3712 44.9087 12.1106 44.9087 11.8422 44.9087ZM40.2633 61.105C39.6867 62.6024 39.1317 64.1069 38.5856 65.6142C38.2742 66.4512 37.9628 67.2883 37.642 68.1507C37.014 71.1056 37.2307 72.4187 38.6843 75.0928C44.277 80.4088 53.5772 80.3583 61.1244 80.5028C61.8769 80.5092 62.6294 80.5156 63.4047 80.5222C64.1201 80.5324 64.8355 80.5426 65.5725 80.5531C75.2207 80.4908 82.8096 77.4591 89.6547 71.1357C90.2898 70.498 90.9248 69.8602 91.5791 69.2032C91.1883 68.4743 91.1883 68.4743 90.7896 67.7308C90.3683 68.1218 89.947 68.5128 89.5129 68.9156C82.5402 75.0802 76.5664 77.0371 67.0813 76.9652C58.6745 76.6507 49.3299 74.402 43.4212 68.467C41.9119 66.0644 41.4555 63.8595 41.0527 61.105C40.7922 61.105 40.5317 61.105 40.2633 61.105ZM3.15801 62.5774C0.926868 69.0559 1.51503 78.1041 4.37614 84.2981C8.96844 91.6344 15.464 96.3041 24.0077 98.8931C27.6824 99.781 31.405 100.007 35.181 100.261C35.9774 100.322 36.7737 100.382 37.5942 100.444C39.536 100.59 41.4781 100.728 43.4212 100.86C41.52 95.7769 39.2172 92.4745 34.114 89.9806C31.2168 88.6951 28.275 87.5137 25.328 86.3313C21.3963 84.7535 18.1772 82.9042 14.7966 80.4503C13.3553 79.3643 13.3553 79.3643 11.0527 78.7737C10.2386 77.448 10.2386 77.448 9.4738 75.829C8.81627 74.8011 8.15836 73.7735 7.50011 72.7461C5.48178 69.4038 4.6527 66.3438 3.94748 62.5774C3.68695 62.5774 3.42643 62.5774 3.15801 62.5774ZM93.158 64.0498C93.9475 65.5222 93.9475 65.5222 93.9475 65.5222L93.158 64.0498ZM92.3685 65.5222C93.158 66.9946 93.158 66.9946 93.158 66.9946L92.3685 65.5222ZM108.947 69.9394C102.865 79.322 98.148 89.0511 93.9059 99.2654C91.3401 105.433 88.698 110.953 84.4738 116.32C88.7742 117.98 92.5544 119.115 97.1547 117.838C101.881 115.92 104.12 112.509 105.965 108.15C109.016 99.4332 109.137 90.743 109.392 81.6725C109.426 80.5323 109.46 79.392 109.495 78.2518C109.579 75.4811 109.659 72.7103 109.737 69.9394C109.476 69.9394 109.216 69.9394 108.947 69.9394ZM99.4738 79.5099C98.9441 80.0039 98.9441 80.0039 98.4037 80.5078C90.0001 88.3443 90.0001 88.3443 88.4273 89.7592C84.47 93.36 80.9424 97.1316 77.4888 101.156C75.2466 103.679 72.8192 105.976 70.2633 108.222C72.315 110.457 74.7007 111.506 77.5166 112.777C78.3745 113.167 79.2324 113.557 80.1163 113.959C80.7727 114.252 81.4291 114.545 82.1054 114.847C88.3026 109.682 90.8748 102.699 93.9475 95.7063C94.558 94.345 95.1686 92.9838 95.7793 91.6227C96.3709 90.2851 96.961 88.9469 97.5495 87.6081C97.8328 86.9701 98.1162 86.3322 98.4081 85.6749C98.6631 85.0829 98.9181 84.491 99.1808 83.8811C99.4094 83.3563 99.6379 82.8315 99.8734 82.2908C100.451 80.9204 100.451 80.9204 99.4738 79.5099ZM89.2106 83.9271C87.5463 84.5546 87.5463 84.5546 85.7012 85.5548C84.9868 85.9221 84.2724 86.2894 83.5363 86.6679C82.771 87.0693 82.0057 87.4706 81.2172 87.8842C80.4377 88.287 79.6581 88.6898 78.855 89.1048C76.5133 90.317 74.1769 91.5375 71.8422 92.7615C70.8626 93.2745 70.8626 93.2745 69.8631 93.7978C66.5469 95.5354 66.5469 95.5354 63.2378 97.2847C60.359 98.8098 57.4477 100.239 54.4738 101.596C55.6543 103.797 57.3952 104.038 59.8027 104.955C61.0423 105.434 61.0423 105.434 62.3069 105.924C65.4274 107.011 65.4274 107.011 68.6843 107.485C70.2929 106.579 70.2929 106.579 71.6449 105.093C72.4615 104.273 72.4615 104.273 73.2947 103.436C75.6482 100.896 77.9163 98.2985 80.1687 95.6804C83.5475 91.8724 87.1734 88.2749 90.7896 84.6633C90.2685 84.4204 89.7475 84.1774 89.2106 83.9271ZM51.3159 104.541C52.5749 106.794 52.5749 106.794 54.4738 108.958C56.9469 109.671 56.9469 109.671 59.2106 109.694C58.4988 108.827 57.7722 107.97 57.0396 107.117C56.6366 106.639 56.2336 106.161 55.8184 105.668C54.3838 104.212 54.3838 104.212 51.3159 104.541ZM60.0001 106.749C60.7817 107.721 61.5633 108.693 62.3685 109.694C63.4106 109.451 64.4528 109.208 65.5264 108.958C62.9575 107.295 62.9575 107.295 60.0001 106.749ZM65.5264 111.166C66.5749 114.1 68.0736 114.759 70.8338 116.314C73.6614 117.481 75.8951 117.31 78.9475 117.056C78.9475 116.57 78.9475 116.084 78.9475 115.584C76.894 114.236 76.894 114.236 74.3587 112.915C73.5069 112.45 72.6551 111.985 71.7775 111.506C69.2628 110.332 68.0768 109.977 65.5264 111.166Z" fill="#FB8600"/>
<path d="M82.9812 43.1413C86.9708 45.8932 89.7998 49.9549 90.7896 54.4776C91.6043 59.8581 90.1525 64.0177 86.8422 68.4653C82.7835 72.3131 77.782 73.6319 72.0889 73.8948C63.9232 73.6752 58.0247 70.9245 52.1516 65.7535C49.7178 63.1997 48.1788 61.3982 48.1086 57.9285C49.9148 52.0831 53.4737 49.1343 59.0626 46.1494C66.7783 42.2126 74.6049 38.8053 82.9812 43.1413ZM51.2727 55.4496C50.3626 56.7669 50.3626 56.7669 50.2797 58.8488C52.8495 64.4403 57.0878 67.4877 62.8959 70.0039C65.9652 71.1209 68.5931 71.525 71.8915 71.5482C72.5683 71.5586 73.2451 71.569 73.9423 71.5798C76.0043 71.5268 76.0043 71.5268 78.158 69.9377C77.5474 69.9187 76.9368 69.8998 76.3077 69.8802C70.2072 69.5704 65.3981 69.0455 60.9314 64.9339C58.7594 62.5034 57.7172 60.7949 57.0889 57.6525C57.8036 54.4413 58.7477 53.4726 61.579 51.5328C66.5439 49.303 72.0003 48.3176 77.3808 49.747C80.8433 51.029 82.8128 52.3598 84.6711 55.3058C85.6739 58.8904 85.4907 62.3418 83.5363 65.6212C82.5913 66.8554 81.5648 68.0345 80.5264 69.2015C83.8519 68.053 85.536 65.9 87.6317 63.312C89.2239 58.8576 88.6893 54.9071 86.7713 50.6643C84.7527 46.8997 82.3972 44.8791 78.158 43.4347C67.9864 42.3093 57.416 48.0842 51.2727 55.4496ZM59.2106 55.2138C58.705 58.1103 59.1534 59.8955 60.8389 62.2997C63.7724 65.7729 67.1863 67.6215 71.8422 68.4193C75.2378 68.6648 77.5826 67.8933 80.5264 66.2567C82.5242 64.3006 83.5649 62.9276 83.8632 60.209C83.7501 57.7723 83.5136 55.9402 81.8586 53.9974C78.3257 51.1558 75.1888 50.5466 70.7012 50.5809C66.5536 51.0245 62.186 52.4392 59.2106 55.2138Z" fill="#FB8600"/>
</g>
<defs>
<clipPath id="clip0_37_860">
<rect width="120" height="120" fill="white"/>
</clipPath>
</defs>
</svg>
