<svg width="120" height="120" viewBox="0 0 120 120" fill="none" xmlns="http://www.w3.org/2000/svg">
<path d="M90.9772 110.051C92.3609 111.312 92.3609 111.312 93.1911 113.04C93.0285 115.785 92.9183 117.053 90.9772 119.019C86.5108 119.43 86.5108 119.43 84.3817 118.178C83.238 116.134 83.3602 114.6 83.5976 112.293C85.7179 109.072 87.4827 108.9 90.9772 110.051Z" fill="#FB8600"/>
<path d="M10.7236 26.1113C12.753 27.0923 12.753 27.0923 13.4909 28.587C13.8185 32.4857 13.8185 32.4857 12.7068 34.4726C10.4352 35.8084 8.6727 35.6376 6.11127 35.3134C4.63534 34.0989 4.63534 34.0989 3.89738 32.3239C3.89738 30.035 3.89738 30.035 4.63534 27.8396C6.86943 25.771 7.73905 25.4719 10.7236 26.1113Z" fill="#FB8600"/>
<path d="M20.1326 100.335C20.6197 100.828 21.1067 101.321 21.6085 101.83C21.2679 106.659 21.2679 106.659 19.3946 108.556C14.9282 108.967 14.9282 108.967 12.7991 107.715C11.6429 105.649 11.7274 104.16 12.015 101.83C14.3777 98.5251 16.7254 98.6537 20.1326 100.335Z" fill="#FB8600"/>
<path d="M117.544 42.7871C118.928 43.5812 118.928 43.5812 119.758 45.0292C120.081 47.645 120.081 47.645 119.758 50.2608C118.559 51.7555 118.559 51.7555 116.806 52.5029C114.096 52.3382 112.843 52.2266 110.902 50.2608C110.496 45.7374 110.496 45.7374 111.732 43.5812C113.773 42.4102 115.243 42.4958 117.544 42.7871Z" fill="#FB8600"/>
<path d="M77.2326 0C79.9078 0.186843 79.9078 0.186843 81.3376 1.02764C82.4938 3.09398 82.4093 4.5828 82.1217 6.9132C81.3376 8.31452 81.3376 8.31452 79.9078 9.15531C77.3249 9.529 77.3249 9.529 74.742 9.15531C73.22 7.56715 73.2199 7.56715 72.5281 5.41845C73.7024 0.26483 73.7024 0.26483 77.2326 0Z" fill="#FB8600"/>
<path d="M61.4586 0.186843C62.9346 1.68159 62.9346 1.68159 63.1306 3.08291C63.1268 3.60701 63.123 4.1311 63.1191 4.67108C63.1229 5.19517 63.1267 5.71927 63.1306 6.25924C62.9346 7.66057 62.9346 7.66057 61.4586 9.15531C58.2585 9.39102 56.7899 9.49087 54.079 7.66057C53.8057 5.12345 53.6294 3.25924 54.8631 0.980926C57.089 -0.255322 58.9766 -0.0416717 61.4586 0.186843Z" fill="#FB8600"/>
<path d="M103.523 96.5979C104.999 98.84 104.999 98.84 104.814 101.129C104.261 103.324 104.261 103.324 102.785 104.819C100.248 105.146 100.248 105.146 97.6189 104.819C96.0969 103.231 96.0969 103.231 95.405 101.082C95.9124 98.6532 95.9124 98.6532 96.881 96.5979C99.2045 95.4213 101.047 96.0606 103.523 96.5979Z" fill="#FB8600"/>
<path d="M6.84924 45.0292C8.1868 45.9634 8.1868 45.9634 9.06313 47.2713C9.50323 49.7545 9.27795 50.6902 7.86394 52.7832C6.11127 53.9977 6.11127 53.9977 3.80513 53.9042C1.68348 53.2503 1.68348 53.2503 0.207553 51.7555C-0.0691842 49.1865 -0.0691842 49.1865 0.207553 46.5239C2.28779 44.027 3.88914 43.9531 6.84924 45.0292Z" fill="#FB8600"/>
<path d="M35.6299 108.556C37.0597 109.77 37.0597 109.77 37.8438 111.545C37.6811 114.29 37.571 115.558 35.6299 117.524C33.3396 117.771 31.8236 117.902 29.8184 116.684C28.5981 114.624 28.6977 113.152 28.9882 110.798C30.6128 108.056 32.6709 108.119 35.6299 108.556Z" fill="#FB8600"/>
<path d="M105.321 27.6061C107.95 27.8396 107.95 27.8396 109.426 28.6337C110.632 30.9995 110.056 32.8098 109.426 35.3134C107.212 36.8081 107.212 36.8081 104.952 36.6213C102.785 36.0607 102.785 36.0607 101.309 34.566C101.124 31.9502 101.124 31.9502 101.309 29.3344C102.785 27.8396 102.785 27.8396 105.321 27.6061Z" fill="#FB8600"/>
<path d="M43.7475 6.16582C45.1312 7.00662 45.1312 7.00662 45.9614 8.40794C46.2515 10.7583 46.3123 12.2441 45.1773 14.3402C42.8504 15.6325 41.0723 15.029 38.5817 14.3869C36.9914 11.971 36.76 11.2095 37.1058 8.40794C38.7771 5.681 40.7723 5.78919 43.7475 6.16582Z" fill="#FB8600"/>
<path d="M107.997 80.3425C110.164 80.9031 110.164 80.9031 111.64 82.3978C111.883 84.713 111.975 86.2642 110.856 88.3301C108.529 89.6224 106.751 89.0188 104.261 88.3768C102.785 86.1347 102.785 86.1347 102.923 83.8459C103.773 80.735 104.839 80.0815 107.997 80.3425Z" fill="#FB8600"/>
<path d="M29.9106 17.2363C30.5803 17.5292 31.25 17.822 31.94 18.1238C32.9204 22.9077 32.9204 22.9077 31.8939 24.8034C29.8009 25.9659 28.381 25.9438 26.0363 25.5975C24.6065 24.3363 24.6065 24.3363 23.8224 22.608C23.8796 20.2354 24.2662 19.2133 25.8057 17.4231C27.5123 16.629 27.5123 16.629 29.9106 17.2363Z" fill="#FB8600"/>
<path d="M93.3756 17.2363C94.0453 17.5292 94.715 17.822 95.405 18.1238C96.3854 22.9077 96.3854 22.9077 95.3589 24.8034C93.2658 25.9659 91.846 25.9438 89.5013 25.5975C88.0715 24.3363 88.0715 24.3363 87.2874 22.608C87.3445 20.2354 87.7311 19.2133 89.2707 17.4231C90.9772 16.629 90.9772 16.629 93.3756 17.2363Z" fill="#FB8600"/>
<path d="M50.343 111.312C52.6031 111.545 52.6031 111.545 54.0329 112.339C55.2832 114.649 54.6247 116.532 54.079 119.019C53.341 119.766 53.341 119.766 50.8504 120C48.1753 119.766 48.1753 119.766 46.6993 118.505C45.7671 116.322 45.9465 115.269 46.6993 113.04C48.1753 111.545 48.1753 111.545 50.343 111.312Z" fill="#FB8600"/>
<path d="M5.32718 62.7793C7.5872 62.9661 7.5872 62.9661 9.8011 64.4609C10.0317 67.0767 10.0317 67.0767 9.8011 69.6925C8.32517 71.1872 8.32517 71.1872 5.74229 71.3741C3.15941 71.1872 3.15941 71.1872 1.68348 69.6925C1.49899 67.0767 1.49899 67.0767 1.68348 64.4609C3.15941 62.9661 3.15941 62.9661 5.32718 62.7793Z" fill="#FB8600"/>
<path d="M12.7991 78.0537C14.9669 78.661 14.9669 78.661 16.4428 80.1557C16.6891 82.5002 16.8328 84.0163 15.5664 86.0413C13.7455 87.1859 12.6458 87.2021 10.5391 86.8821C9.2015 86.0413 9.2015 86.0413 8.32517 84.6399C8.03216 82.266 7.95667 80.7984 9.15538 78.7077C10.5391 77.9136 10.5391 77.9136 12.7991 78.0537Z" fill="#FB8600"/>
<path d="M111.64 64.4609C112.517 66.5162 112.517 66.5162 113.116 68.9451C112.378 70.7201 112.378 70.7201 110.902 71.9346C108.688 72.3083 108.688 72.3083 106.474 71.9346C104.999 70.7201 104.999 70.7201 104.261 68.9451C104.768 66.5629 104.768 66.5629 105.737 64.4609C107.848 63.3915 109.377 64.0125 111.64 64.4609Z" fill="#FB8600"/>
<path d="M69.5762 110.051C70.3142 110.798 70.3142 110.798 70.5448 112.947C70.3142 115.282 70.3142 115.282 69.115 116.777C67.3624 117.524 67.3624 117.524 64.964 116.917C63.9594 116.478 63.9594 116.478 62.9346 116.03C62.4733 113.928 62.4733 113.928 62.1966 111.545C64.5297 108.001 66.0674 108.367 69.5762 110.051Z" fill="#FB8600"/>
<path d="M23.0845 90.4321C25.2984 90.6189 25.2984 90.6189 26.7743 92.1137C27.0049 94.7295 27.0049 94.7295 26.7743 97.3453C24.5604 98.84 24.5604 98.84 22.3004 98.6999C20.1326 98.0926 20.1326 98.0926 18.6567 95.8505C18.9813 92.481 19.4896 90.7355 23.0845 90.4321Z" fill="#FB8600"/>
<path d="M19.3485 30.5489C21.6085 30.8291 21.6085 30.8291 23.0383 32.0903C24.0362 34.2898 23.9041 35.3024 23.0845 37.5555C20.8706 39.0502 20.8706 39.0502 18.5644 38.8167C16.4428 38.3028 16.4428 38.3028 15.7048 37.5555C15.5664 34.9864 15.5664 34.9864 15.7048 32.3239C17.1807 30.8291 17.1807 30.8291 19.3485 30.5489Z" fill="#FB8600"/>
<path d="M76.5408 12.0047C79.1698 12.1448 79.1698 12.1448 80.6457 13.6395C80.9225 15.835 80.9225 15.835 80.6457 18.1238C79.4004 19.5718 79.4004 19.5718 77.6939 20.3659C75.7567 20.2725 75.7567 20.2725 74.004 19.6185C72.5281 17.3764 72.5281 17.3764 72.7587 15.0409C73.4351 12.1762 73.4351 12.1762 76.5408 12.0047Z" fill="#FB8600"/>
<path d="M81.4298 101.176C83.5976 101.83 83.5976 101.83 85.0735 104.072C84.8343 106.555 84.625 107.515 82.8596 109.303C80.6457 109.49 80.6457 109.49 78.4318 109.303C76.9559 107.808 76.9559 107.808 76.7253 105.613C76.9559 103.324 76.9559 103.324 77.7861 101.876C79.1698 101.082 79.1698 101.082 81.4298 101.176Z" fill="#FB8600"/>
<path d="M92.4532 90.6189C93.8369 91.8801 93.8368 91.8801 94.6671 93.6084C94.4364 95.6637 94.4364 95.6637 93.9291 97.3453C91.8997 98.2328 91.8997 98.2328 89.5013 98.84C87.7486 98.0459 87.7486 98.0459 86.5494 96.5979C86.1733 94.4209 86.2244 93.3635 87.4258 91.5064C89.2595 90.2897 90.3036 90.2379 92.4532 90.6189Z" fill="#FB8600"/>
<path d="M105.829 48.9529C107.95 49.5134 107.95 49.5134 108.688 50.2608C108.873 52.8299 108.873 52.8299 108.688 55.4924C106.475 56.9871 106.474 56.9872 104.583 56.8003C102.785 56.2398 102.785 56.2398 101.309 54.745C101.041 52.6271 101.045 51.4527 102.139 49.6068C103.523 48.7661 103.523 48.7661 105.829 48.9529Z" fill="#FB8600"/>
<path d="M36.3678 97.9058C38.5817 98.0926 38.5817 98.0926 40.0577 99.5874C40.2422 101.83 40.2422 101.83 40.0577 104.072C38.5817 105.566 38.5817 105.566 36.3678 105.753C34.1539 105.566 34.1539 105.566 32.678 104.072C32.4935 101.83 32.4935 101.83 32.678 99.5874C34.1539 98.0926 34.1539 98.0926 36.3678 97.9058Z" fill="#FB8600"/>
<path d="M17.9187 45.7766C19.3485 47.0378 19.3485 47.0378 20.1326 48.7661C19.6399 50.5542 19.2316 51.9207 17.9187 53.2503C15.7509 53.3904 15.7509 53.3904 13.4909 53.2503C13.0039 52.757 12.5168 52.2638 12.015 51.7555C12.1995 49.093 12.1995 49.093 12.753 46.5239C14.6529 45.5619 15.8134 45.5165 17.9187 45.7766Z" fill="#FB8600"/>
<path d="M59.2447 12.1448C60.9712 12.3595 62.6939 12.6077 64.4105 12.8922C64.8717 14.9942 64.8717 14.9942 65.1485 17.3764C64.4179 18.4863 64.4179 18.4863 63.6725 19.6185C61.5048 19.9455 61.5048 19.9455 59.2447 19.6185C57.7688 18.3573 57.7688 18.3573 57.0308 16.629C57.5236 14.8408 57.9319 13.4744 59.2447 12.1448Z" fill="#FB8600"/>
<path d="M88.7633 28.587C89.2504 29.0803 89.7375 29.5735 90.2393 30.0817C89.9625 32.4173 89.9625 32.4173 89.5013 34.566C87.4258 35.0331 87.4258 35.0331 85.0735 35.3134C84.3429 34.8201 83.6123 34.3268 82.8596 33.8186C83.0483 32.0674 83.297 30.3221 83.5976 28.587C85.5946 27.5758 86.6475 27.9977 88.7633 28.587Z" fill="#FB8600"/>
<path d="M50.3892 17.3764C51.3653 21.4207 51.3653 21.4207 50.343 23.3087C48.241 24.4761 46.7473 23.9153 44.4854 23.3554C43.5093 19.3111 43.5093 19.3111 44.5316 17.4231C46.6336 16.2557 48.1273 16.8165 50.3892 17.3764Z" fill="#FB8600"/>
<path d="M49.9741 100.054C51.8651 100.335 51.8651 100.335 53.2949 101.596C54.079 103.324 54.079 103.324 53.71 105.333C52.6031 107.061 52.6031 107.061 50.8043 107.762C48.9132 107.808 48.9132 107.808 46.6993 106.314C46.4687 104.072 46.4687 104.072 46.6993 101.83C48.1753 100.335 48.1753 100.335 49.9741 100.054Z" fill="#FB8600"/>
<path d="M96.0969 78.5208C98.3569 78.661 98.3569 78.661 99.8328 80.1557C100.017 82.0241 100.017 82.0241 99.8328 83.8926C98.3569 85.3873 98.3569 85.3873 96.143 85.6209C95.4124 85.5438 94.6818 85.4667 93.9291 85.3873C92.4532 83.1452 92.4532 83.1452 92.6838 81.1833C93.4126 78.6333 93.3988 78.6952 96.0969 78.5208Z" fill="#FB8600"/>
<path d="M94.6671 36.8081C96.7887 36.7147 96.7887 36.7147 99.0948 36.8081C100.571 38.3028 100.571 38.3028 100.755 40.1713C100.571 42.0397 100.571 42.0397 99.0948 43.5344C96.7887 43.6279 96.7887 43.6279 94.6671 43.5344C93.8368 41.8529 93.8368 41.8529 93.1911 39.7976C93.8368 38.0693 93.8368 38.0693 94.6671 36.8081Z" fill="#FB8600"/>
<path d="M18.4722 60.6306C19.2941 61.0468 19.2941 61.0468 20.1326 61.4714C20.2249 63.6201 20.2249 63.6201 20.1326 65.9556C18.6567 67.4504 18.6567 67.4504 16.8118 67.6372C14.9669 67.4504 14.9669 67.4504 13.4909 65.9556C13.3987 63.6201 13.3987 63.6201 13.4909 61.4714C15.5048 60.1117 16.1004 59.8663 18.4722 60.6306Z" fill="#FB8600"/>
<path d="M65.8864 99.5874C66.3476 101.316 66.3477 101.316 66.6244 103.324C65.8938 104.434 65.8938 104.434 65.1485 105.566C63.4438 105.32 61.7391 105.073 59.9827 104.819C59.4754 103.091 59.4754 103.091 59.2447 101.082C60.9154 98.0963 62.9246 98.8542 65.8864 99.5874Z" fill="#FB8600"/>
<path d="M96.881 65.2083C98.8181 65.6754 98.8181 65.6754 100.571 66.703C101.309 68.1043 101.309 68.1043 101.309 69.6925C100.248 71.3741 100.248 71.3741 99.0948 72.682C95.5895 72.1214 95.5895 72.1214 93.9291 70.4399C94.0675 68.5714 94.0675 68.5714 94.6671 66.703C95.3976 66.2097 96.1282 65.7165 96.881 65.2083Z" fill="#FB8600"/>
<path d="M27.5123 36.0607C29.8184 35.9206 29.8184 35.9206 31.94 36.0607C32.8164 37.7423 32.8164 37.7423 33.416 39.7976C32.4013 41.5259 32.4013 41.5259 31.2021 42.7871C29.0103 42.4171 29.0103 42.4171 26.7743 42.0397C26.3131 40.3114 26.3131 40.3114 26.0363 38.3028C26.5234 37.5629 27.0104 36.823 27.5123 36.0607Z" fill="#FB8600"/>
<path d="M21.9314 72.5418C23.8224 72.682 23.8224 72.682 25.2984 74.1767C25.0216 76.8859 25.0216 76.8859 24.5604 79.4083C22.4387 79.5017 22.4387 79.5017 20.1326 79.4083C19.6455 78.9151 19.1585 78.4218 18.6567 77.9136C19.1763 72.7565 19.1763 72.7565 21.9314 72.5418Z" fill="#FB8600"/>
<path d="M36.7368 25.4107C38.5817 25.5975 38.5817 25.5975 40.0577 27.0923C40.2421 28.9607 40.2421 28.9607 40.0577 30.8291C38.5817 32.3239 38.5817 32.3239 36.7368 32.5107C34.8919 32.3239 34.8919 32.3239 33.416 30.8291C33.2315 28.9607 33.2315 28.9607 33.416 27.0923C34.8919 25.5975 34.8919 25.5975 36.7368 25.4107Z" fill="#FB8600"/>
<path d="M74.3269 23.9626C76.2179 24.1028 76.2179 24.1028 77.6939 25.5975C77.4171 28.3067 77.4171 28.3067 76.9559 30.8291C74.8342 30.9225 74.8342 30.9225 72.5281 30.8291C72.0411 30.3359 71.554 29.8426 71.0522 29.3344C71.5718 24.1773 71.5718 24.1773 74.3269 23.9626Z" fill="#FB8600"/>
<path d="M76.2179 93.6084C76.6792 95.7571 76.6792 95.7571 76.9559 98.0926C75.48 99.5874 75.48 99.5874 73.6351 99.7742C71.7901 99.5874 71.7901 99.5874 70.3142 98.0926C70.4987 95.8038 70.4987 95.8038 71.0522 93.6084C73.0201 92.6119 74.1271 93.1069 76.2179 93.6084Z" fill="#FB8600"/>
<path d="M93.9291 53.2503C95.7556 53.9902 95.7556 53.9902 97.6189 54.745C97.7112 56.52 97.7112 56.52 97.6189 58.4819C96.143 59.9766 96.143 59.9766 94.2058 60.0701C93.6275 60.0392 93.0491 60.0084 92.4532 59.9766C91.9661 58.7435 91.479 57.5103 90.9772 56.2398C91.9513 55.2532 92.9255 54.2667 93.9291 53.2503Z" fill="#FB8600"/>
<path d="M62.5195 23.9626C64.4105 24.1028 64.4105 24.1028 65.8864 25.5975C65.4764 29.0022 65.4764 29.0022 64.4105 30.0817C62.6117 30.2219 62.6117 30.2219 60.7207 30.0817C60.2336 29.5885 59.7466 29.0952 59.2447 28.587C59.7759 24.1764 59.7759 24.1764 62.5195 23.9626Z" fill="#FB8600"/>
<path d="M28.9882 82.3978C31.2943 82.6781 31.2943 82.6781 33.416 83.1452C33.416 84.625 33.416 86.1048 33.416 87.6294C31.7094 88.4702 31.7094 88.4702 29.7261 89.1242C28.9956 88.6309 28.265 88.1376 27.5123 87.6294C27.2816 85.761 27.2816 85.761 27.5123 83.8926C27.9993 83.3993 28.4864 82.906 28.9882 82.3978Z" fill="#FB8600"/>
<path d="M27.0971 47.8786C28.9882 48.0187 28.9882 48.0187 30.4641 49.5134C30.0541 52.9181 30.0541 52.9181 28.9882 53.9977C27.1894 54.1378 27.1894 54.1378 25.2984 53.9977C24.8113 53.5044 24.3242 53.0111 23.8224 52.5029C24.3535 48.0923 24.3535 48.0923 27.0971 47.8786Z" fill="#FB8600"/>
<path d="M50.712 89.7314C52.6031 89.8715 52.6031 89.8715 54.079 91.3663C53.8023 93.3281 53.8023 93.3281 53.341 95.1031C51.5884 95.5703 51.5884 95.5703 49.6512 95.8505C48.1753 94.3558 48.1753 94.3558 48.0369 92.4406C48.2229 89.9914 48.2936 89.9198 50.712 89.7314Z" fill="#FB8600"/>
<path d="M86.5494 44.2818C88.0307 44.4961 89.5076 44.7442 90.9772 45.0292C91.0086 46.5236 91.0073 48.019 90.9772 49.5134C90.2393 50.2608 90.2393 50.2608 88.4405 50.4009C86.5495 50.2608 86.5494 50.2608 85.0735 48.7661C85.4835 45.3614 85.4835 45.3614 86.5494 44.2818Z" fill="#FB8600"/>
<path d="M52.188 27.6995C54.079 27.8396 54.079 27.8396 55.5549 29.3344C55.2782 31.2962 55.2782 31.2962 54.817 33.0712C51.3116 33.912 51.3116 33.912 49.6512 33.0712C49.6198 31.5768 49.6211 30.0814 49.6512 28.587C50.3892 27.8396 50.3892 27.8396 52.188 27.6995Z" fill="#FB8600"/>
<path d="M83.5976 85.3873C84.3355 86.1347 84.3355 86.1347 84.4278 88.0031C84.3355 89.8715 84.3355 89.8715 83.5976 90.6189C81.7988 90.7591 81.7988 90.7591 79.9078 90.6189C79.4207 90.1257 78.9336 89.6324 78.4318 89.1242C78.6163 87.209 78.6163 87.209 79.1698 85.3873C81.0166 84.4522 81.6811 84.7612 83.5976 85.3873Z" fill="#FB8600"/>
<path d="M40.0577 87.6294C41.0318 88.1227 42.0059 88.616 43.0095 89.1242C43.0095 90.3573 43.0095 91.5905 43.0095 92.861C41.5483 93.6009 41.5483 93.6009 40.0577 94.3558C39.0835 93.6159 38.1094 92.876 37.1058 92.1137C37.3364 90.7123 37.3364 90.7123 37.8438 89.1242C38.5743 88.6309 39.3049 88.1376 40.0577 87.6294Z" fill="#FB8600"/>
<path d="M26.7743 58.4819C28.2502 58.5753 28.2502 58.5753 29.7261 59.2293C30.6486 60.7707 30.6486 60.7707 31.2021 62.2188C30.4715 63.3286 30.4715 63.3286 29.7261 64.4609C27.8351 64.6477 27.8351 64.6477 26.0363 64.4609C25.2984 63.7135 25.2984 63.7135 25.16 61.8918C25.2984 59.9766 25.2984 59.9766 26.7743 58.4819Z" fill="#FB8600"/>
<path d="M43.0095 34.566C44.2459 34.7798 45.4772 35.0277 46.6993 35.3134C47.2067 36.668 47.2067 36.668 47.4373 38.3028C46.3765 39.6107 46.3765 39.6107 45.2234 40.545C43.397 39.8051 43.397 39.8051 41.5336 39.0502C42.1793 35.4068 42.1793 35.4068 43.0095 34.566Z" fill="#FB8600"/>
<path d="M84.3356 74.9241C85.572 75.1379 86.8032 75.3858 88.0254 75.6715C88.0254 77.1513 88.0254 78.6311 88.0254 80.1557C86.2727 80.6228 86.2727 80.6228 84.3356 80.9031C83.8485 80.4098 83.3614 79.9165 82.8596 79.4083C83.2696 76.0036 83.2696 76.0036 84.3356 74.9241Z" fill="#FB8600"/>
<path d="M60.3517 88.2834C62.1966 88.3768 62.1966 88.3768 62.9346 89.1242C63.0268 90.9926 63.0268 90.9926 62.9346 92.861C62.1966 93.6084 62.1966 93.6084 60.3517 93.7018C58.5068 93.6084 58.5068 93.6084 57.7688 92.861C57.6766 90.9926 57.6766 90.9926 57.7688 89.1242C58.5068 88.3768 58.5068 88.3768 60.3517 88.2834Z" fill="#FB8600"/>
<path d="M29.7262 68.1977C31.4788 68.1043 31.4788 68.1043 33.416 68.1977C33.903 68.691 34.3901 69.1843 34.8919 69.6925C34.6152 71.2807 34.6152 71.2807 34.1539 72.682C32.4013 73.1491 32.4013 73.1491 30.4641 73.4294C29.9771 72.9361 29.49 72.4428 28.9882 71.9346C29.2649 69.9727 29.2649 69.9727 29.7262 68.1977Z" fill="#FB8600"/>
<path d="M86.1805 65.8622C88.0254 65.9556 88.0254 65.9556 88.7633 66.703C88.8556 68.5714 88.8556 68.5714 88.7633 70.4399C88.0254 71.1872 88.0254 71.1872 86.1805 71.2807C84.3355 71.1872 84.3355 71.1872 83.5976 70.4399C83.5053 68.5714 83.5053 68.5714 83.5976 66.703C84.3355 65.9556 84.3355 65.9556 86.1805 65.8622Z" fill="#FB8600"/>
<path d="M80.2767 38.2094C82.1216 38.3028 82.1217 38.3028 82.8596 39.0502C82.9519 40.9186 82.9519 40.9186 82.8596 42.7871C82.1217 43.5344 82.1216 43.5344 80.2767 43.6279C78.4318 43.5344 78.4318 43.5344 77.6939 42.7871C77.6016 40.9186 77.6016 40.9186 77.6939 39.0502C78.4318 38.3028 78.4318 38.3028 80.2767 38.2094Z" fill="#FB8600"/>
<path d="M66.6244 83.8926C67.8608 84.1063 69.092 84.3543 70.3142 84.6399C70.7754 86.0413 70.7754 86.0413 71.0522 87.6294C70.5651 88.1227 70.0781 88.616 69.5762 89.1242C67.6391 88.8439 67.6391 88.8439 65.8864 88.3768C65.8549 87.1316 65.8564 85.8852 65.8864 84.6399C66.1299 84.3933 66.3735 84.1467 66.6244 83.8926Z" fill="#FB8600"/>
<path d="M69.5762 36.0607C70.7939 36.0607 72.0115 36.0607 73.2661 36.0607C73.5096 37.2939 73.7531 38.5271 74.004 39.7976C72.5429 40.5375 72.5429 40.5375 71.0522 41.2923C70.3216 40.7991 69.591 40.3058 68.8383 39.7976C69.0818 38.5644 69.3253 37.3313 69.5762 36.0607Z" fill="#FB8600"/>
<path d="M37.1058 74.9241C38.3422 75.1379 39.5734 75.3858 40.7956 75.6715C40.7956 76.9046 40.7956 78.1378 40.7956 79.4083C39.5734 79.694 38.3422 79.9419 37.1058 80.1557C36.3678 79.4083 36.3678 79.4083 36.2756 77.5399C36.3678 75.6715 36.3678 75.6715 37.1058 74.9241Z" fill="#FB8600"/>
<path d="M37.8438 42.7871C39.0614 42.7871 40.279 42.7871 41.5336 42.7871C42.0409 44.1417 42.0409 44.1417 42.2716 45.7766C41.2107 47.0845 41.2107 47.0845 40.0577 48.0187C39.0835 47.5254 38.1094 47.0322 37.1058 46.5239C37.3493 45.2908 37.5929 44.0576 37.8438 42.7871Z" fill="#FB8600"/>
<path d="M84.0127 57.6878C84.9031 57.7109 84.9031 57.7109 85.8115 57.7345C86.6417 60.5372 86.6417 60.5372 85.8115 62.2188C84.5938 62.2188 83.3762 62.2188 82.1217 62.2188C81.8396 60.981 81.5948 59.7341 81.3837 58.4819C82.1216 57.7345 82.1217 57.7345 84.0127 57.6878Z" fill="#FB8600"/>
<path d="M63.7187 36.2476C64.1905 36.4325 64.6623 36.6175 65.1485 36.8081C65.392 37.548 65.6355 38.2879 65.8864 39.0502C65.1558 40.1601 65.1558 40.1601 64.4105 41.2923C63.1929 41.0457 61.9752 40.7991 60.7207 40.545C60.7207 39.3118 60.7207 38.0786 60.7207 36.8081C62.1966 36.0607 62.1966 36.0607 63.7187 36.2476Z" fill="#FB8600"/>
<path d="M37.1058 51.0082C38.6279 51.1483 38.6279 51.1483 40.0577 51.7555C40.3012 52.4954 40.5447 53.2353 40.7956 53.9977C40.065 55.1075 40.065 55.1075 39.3197 56.2398C38.3456 55.9931 37.3715 55.7465 36.3678 55.4924C35.9066 54.0911 35.9066 54.0911 35.6299 52.5029C36.1169 52.0097 36.604 51.5164 37.1058 51.0082Z" fill="#FB8600"/>
<path d="M54.817 39.0502C56.339 39.1903 56.339 39.1903 57.7688 39.7976C58.0123 40.5375 58.2559 41.2774 58.5068 42.0397C58.2633 42.533 58.0197 43.0262 57.7688 43.5344C56.5512 43.5344 55.3335 43.5344 54.079 43.5344C53.6178 42.1331 53.6178 42.1331 53.341 40.545C53.8281 40.0517 54.3151 39.5584 54.817 39.0502Z" fill="#FB8600"/>
<path d="M44.4854 78.661C45.4596 78.9076 46.4337 79.1542 47.4373 79.4083C47.8524 80.8564 47.8524 80.8564 48.1753 82.3978C47.4373 83.1452 47.4373 83.1452 45.5463 83.1919C44.6559 83.1688 44.6559 83.1688 43.7475 83.1452C43.504 82.4053 43.2604 81.6654 43.0095 80.9031C43.4966 80.1632 43.9836 79.4233 44.4854 78.661Z" fill="#FB8600"/>
<path d="M71.7901 77.9136C73.0078 78.1602 74.2254 78.4069 75.48 78.661C75.2364 79.8941 74.9929 81.1273 74.742 82.3978C73.5244 82.1512 72.3067 81.9046 71.0522 81.6504C71.2957 80.4173 71.5392 79.1841 71.7901 77.9136Z" fill="#FB8600"/>
<path d="M78.4318 51.0082C80 51.7088 80 51.7088 81.3837 52.5029C81.1402 53.4894 80.8966 54.476 80.6457 55.4924C79.2159 55.9128 79.2159 55.9128 77.6939 56.2398C76.9559 55.4924 76.9559 55.4924 76.9098 53.5773C76.925 52.9761 76.9402 52.3749 76.9559 51.7555C77.443 51.5089 77.93 51.2623 78.4318 51.0082Z" fill="#FB8600"/>
<path d="M74.004 71.1872C75.4338 71.4208 75.4338 71.4208 76.9559 71.9346C77.1994 72.6745 77.443 73.4144 77.6939 74.1767C77.4503 74.67 77.2068 75.1632 76.9559 75.6715C75.7383 75.4248 74.5206 75.1782 73.2661 74.9241C73.5096 73.6909 73.7531 72.4578 74.004 71.1872Z" fill="#FB8600"/>
<path d="M51.8651 79.4083C52.8392 79.4083 53.8133 79.4083 54.817 79.4083C55.0605 80.3949 55.304 81.3814 55.5549 82.3978C54.1712 83.1919 54.1712 83.1919 52.6031 83.8926C52.116 83.6459 51.6289 83.3993 51.1271 83.1452C51.3707 81.912 51.6142 80.6789 51.8651 79.4083Z" fill="#FB8600"/>
<path d="M71.7901 48.0187C73.0266 48.2325 74.2578 48.4804 75.48 48.7661C75.2364 49.7526 74.9929 50.7391 74.742 51.7555C73.7679 51.7555 72.7938 51.7555 71.7901 51.7555C71.375 50.3075 71.375 50.3075 71.0522 48.7661C71.2957 48.5194 71.5392 48.2728 71.7901 48.0187Z" fill="#FB8600"/>
<path d="M49.6512 44.2818C51.1733 44.6088 51.1733 44.6088 52.6031 45.0292C52.6031 46.0157 52.6031 47.0023 52.6031 48.0187C51.6289 48.2653 50.6548 48.5119 49.6512 48.7661C49.3692 47.5283 49.1243 46.2814 48.9132 45.0292C49.1568 44.7826 49.4003 44.5359 49.6512 44.2818Z" fill="#FB8600"/>
<path d="M41.5336 64.4609C42.9948 64.8308 42.9948 64.8308 44.4854 65.2083C44.2419 66.4414 43.9984 67.6746 43.7475 68.9451C42.7734 68.6985 41.7993 68.4518 40.7956 68.1977C41.0391 66.9646 41.2827 65.7314 41.5336 64.4609Z" fill="#FB8600"/>
<path d="M37.8438 58.4819C39.3049 58.8518 39.3049 58.8518 40.7956 59.2293C40.5521 60.4624 40.3086 61.6956 40.0577 62.9661C39.0835 62.7195 38.1094 62.4729 37.1058 62.2188C37.3493 60.9856 37.5929 59.7524 37.8438 58.4819Z" fill="#FB8600"/>
<path d="M62.1966 74.1767C63.6578 74.5467 63.6578 74.5467 65.1485 74.9241C65.1485 75.9106 65.1485 76.8972 65.1485 77.9136C63.9308 77.6669 62.7132 77.4203 61.4586 77.1662C61.7022 76.1797 61.9457 75.1931 62.1966 74.1767Z" fill="#FB8600"/>
<path d="M45.9614 68.1977C47.4225 68.5677 47.4225 68.5677 48.9132 68.9451C48.6697 69.9316 48.4262 70.9182 48.1753 71.9346C47.2012 71.9346 46.227 71.9346 45.2234 71.9346C45.4669 70.7014 45.7105 69.4683 45.9614 68.1977Z" fill="#FB8600"/>
<path d="M74.004 65.2083C75.4652 65.5782 75.4652 65.5782 76.9559 65.9556C76.7124 66.9422 76.4688 67.9287 76.2179 68.9451C75.2438 68.9451 74.2697 68.9451 73.2661 68.9451C73.5096 67.7119 73.7531 66.4788 74.004 65.2083Z" fill="#FB8600"/>
<path d="M57.7688 77.9136C59.23 78.2835 59.23 78.2835 60.7207 78.661C60.4771 79.6475 60.2336 80.634 59.9827 81.6504C59.0086 81.4038 58.0345 81.1572 57.0308 80.9031C57.2744 79.9165 57.5179 78.93 57.7688 77.9136Z" fill="#FB8600"/>
<path d="M66.6244 46.5239C67.355 46.7706 68.0856 47.0172 68.8383 47.2713C68.8383 48.2578 68.8383 49.2444 68.8383 50.2608C67.6206 50.2608 66.403 50.2608 65.1485 50.2608C65.1485 49.2743 65.1485 48.2877 65.1485 47.2713C65.6355 47.0247 66.1226 46.778 66.6244 46.5239Z" fill="#FB8600"/>
<path d="M46.6993 50.2608C48.5258 50.6307 48.5258 50.6308 50.3892 51.0082C49.9021 51.9947 49.4151 52.9812 48.9132 53.9977C48.1827 53.751 47.4521 53.5044 46.6993 53.2503C46.6993 52.2638 46.6993 51.2772 46.6993 50.2608Z" fill="#FB8600"/>
<path d="M71.7901 59.9766C72.5207 59.9766 73.2513 59.9766 74.004 59.9766C74.2476 60.7165 74.4911 61.4564 74.742 62.2188C73.2808 62.9587 73.2808 62.9587 71.7901 63.7135C71.375 62.2655 71.375 62.2655 71.0522 60.724C71.2957 60.4774 71.5392 60.2307 71.7901 59.9766Z" fill="#FB8600"/>
<path d="M65.1485 69.6925C65.879 69.9391 66.6096 70.1858 67.3624 70.4399C67.1188 71.4264 66.8753 72.4129 66.6244 73.4294C65.8938 73.4294 65.1632 73.4294 64.4105 73.4294C64.167 72.6895 63.9234 71.9496 63.6725 71.1872C64.1596 70.694 64.6466 70.2007 65.1485 69.6925Z" fill="#FB8600"/>
<path d="M47.4373 55.4924C48.1679 55.4924 48.8985 55.4924 49.6512 55.4924C49.4077 56.7256 49.1641 57.9587 48.9132 59.2293C48.1827 58.9826 47.4521 58.736 46.6993 58.4819C46.9429 57.4954 47.1864 56.5088 47.4373 55.4924Z" fill="#FB8600"/>
<path d="M51.1271 69.6925C51.8577 69.9391 52.5883 70.1858 53.341 70.4399C53.0975 71.4264 52.854 72.4129 52.6031 73.4294C51.8725 73.1827 51.1419 72.9361 50.3892 72.682C50.6327 71.6954 50.8762 70.7089 51.1271 69.6925Z" fill="#FB8600"/>
<path d="M60.7207 48.7661C61.6948 48.7661 62.6689 48.7661 63.6725 48.7661C63.429 49.7526 63.1855 50.7391 62.9346 51.7555C62.204 51.7555 61.4734 51.7555 60.7207 51.7555C60.7207 50.769 60.7207 49.7825 60.7207 48.7661Z" fill="#FB8600"/>
<path d="M65.1485 65.9556C65.879 66.2023 66.6096 66.4489 67.3624 66.703C67.3624 67.4429 67.3624 68.1828 67.3624 68.9451C66.3882 68.6985 65.4141 68.4518 64.4105 68.1977C64.654 67.4578 64.8976 66.7179 65.1485 65.9556Z" fill="#FB8600"/>
<path d="M54.817 69.6925C55.7911 69.6925 56.7652 69.6925 57.7688 69.6925C57.7688 70.4324 57.7688 71.1723 57.7688 71.9346C56.7947 71.9346 55.8206 71.9346 54.817 71.9346C54.817 71.1947 54.817 70.4548 54.817 69.6925Z" fill="#FB8600"/>
<path d="M48.9132 59.9766C49.8874 60.2233 50.8615 60.4699 51.8651 60.724C51.6216 61.4639 51.378 62.2038 51.1271 62.9661C50.3965 62.7195 49.666 62.4729 48.9132 62.2188C48.9132 61.4789 48.9132 60.739 48.9132 59.9766Z" fill="#FB8600"/>
<path d="M68.1003 57.7345C68.8309 57.7345 69.5615 57.7345 70.3142 57.7345C70.3142 58.7211 70.3142 59.7076 70.3142 60.724C69.5836 60.724 68.853 60.724 68.1003 60.724C68.1003 59.7375 68.1003 58.751 68.1003 57.7345Z" fill="#FB8600"/>
<path d="M64.4105 56.2398C65.1411 56.4864 65.8717 56.733 66.6244 56.9872C66.3809 57.7271 66.1373 58.467 65.8864 59.2293C65.1558 58.9826 64.4253 58.736 63.6725 58.4819C63.9161 57.742 64.1596 57.0021 64.4105 56.2398Z" fill="#FB8600"/>
<path d="M63.6725 62.9661C64.1596 62.9661 64.6466 62.9661 65.1485 62.9661C65.1485 63.9527 65.1485 64.9392 65.1485 65.9556C64.4179 65.709 63.6873 65.4624 62.9346 65.2083C63.1781 64.4684 63.4216 63.7285 63.6725 62.9661Z" fill="#FB8600"/>
<path d="M57.7688 51.0082C58.2559 51.2548 58.7429 51.5014 59.2447 51.7555C59.2447 52.4954 59.2447 53.2353 59.2447 53.9977C58.5142 53.9977 57.7836 53.9977 57.0308 53.9977C57.2744 53.0111 57.5179 52.0246 57.7688 51.0082Z" fill="#FB8600"/>
<path d="M57.7688 67.4504C58.4994 67.4504 59.23 67.4504 59.9827 67.4504C59.9827 68.1903 59.9827 68.9302 59.9827 69.6925C59.2521 69.6925 58.5215 69.6925 57.7688 69.6925C57.7688 68.9526 57.7688 68.2127 57.7688 67.4504Z" fill="#FB8600"/>
<path d="M51.8651 62.9661C52.5957 62.9661 53.3263 62.9661 54.079 62.9661C54.079 63.706 54.079 64.4459 54.079 65.2083C53.3484 65.2083 52.6178 65.2083 51.8651 65.2083C51.8651 64.4684 51.8651 63.7285 51.8651 62.9661Z" fill="#FB8600"/>
<path d="M55.5549 58.4819C56.2855 58.4819 57.0161 58.4819 57.7688 58.4819C57.7688 59.2218 57.7688 59.9617 57.7688 60.724C57.0382 60.724 56.3076 60.724 55.5549 60.724C55.5549 59.9841 55.5549 59.2442 55.5549 58.4819Z" fill="#FB8600"/>
<path d="M55.5549 55.4924C56.2855 55.4924 57.0161 55.4924 57.7688 55.4924C57.5253 56.2323 57.2818 56.9722 57.0308 57.7345C56.3003 57.4879 55.5697 57.2413 54.817 56.9872C55.0605 56.4939 55.304 56.0006 55.5549 55.4924Z" fill="#FB8600"/>
<path d="M60.7207 57.7345C61.4513 57.7345 62.1818 57.7345 62.9346 57.7345C62.9346 58.4744 62.9346 59.2143 62.9346 59.9766C62.204 59.73 61.4734 59.4834 60.7207 59.2293C60.7207 58.736 60.7207 58.2427 60.7207 57.7345Z" fill="#FB8600"/>
<path d="M59.2447 64.4609C59.9753 64.4609 60.7059 64.4609 61.4586 64.4609C61.2151 65.2008 60.9716 65.9407 60.7207 66.703C60.2336 66.4564 59.7466 66.2097 59.2447 65.9556C59.2447 65.4624 59.2447 64.9691 59.2447 64.4609Z" fill="#FB8600"/>
<path d="M60.7207 61.4714C61.4513 61.718 62.1818 61.9647 62.9346 62.2188C62.691 62.712 62.4475 63.2053 62.1966 63.7135C61.7095 63.7135 61.2225 63.7135 60.7207 63.7135C60.7207 62.9736 60.7207 62.2337 60.7207 61.4714Z" fill="#FB8600"/>
<path d="M55.5549 63.7135C56.042 63.7135 56.529 63.7135 57.0308 63.7135C57.0308 64.2068 57.0308 64.7 57.0308 65.2083C56.5438 65.2083 56.0567 65.2083 55.5549 65.2083C55.5549 64.715 55.5549 64.2217 55.5549 63.7135Z" fill="#FB8600"/>
</svg>
