<svg width="123" height="122" viewBox="0 0 123 122" fill="none" xmlns="http://www.w3.org/2000/svg">
<g clip-path="url(#clip0_206_210)">
<path fill-rule="evenodd" clip-rule="evenodd" d="M61.4404 0.0096604C64.7104 -0.13034 67.2904 1.00966 69.8904 2.65966C73.1904 4.74966 76.9104 8.88966 81.5004 11.5097C87.9504 15.1997 99.9104 10.1097 106.03 19.2097C109.6 24.5097 109.77 28.6697 110.03 32.7797C110.32 37.2097 111.09 41.2897 115.63 47.2897C123.14 57.2197 124.7 63.8297 120.83 70.7197C118.19 75.4197 112.64 78.0297 111.35 80.9997C108.62 87.3297 111.64 92.0997 107.9 99.4797C105.3 104.6 101.29 107.97 95.9504 109.69C91.4504 111.14 86.9204 109.04 83.3204 110.56C76.9804 113.22 72.3104 119.41 67.2604 120.98C65.3104 121.58 63.3704 121.88 61.4404 121.87C59.5004 121.88 57.5604 121.59 55.6204 120.98C50.5804 119.41 45.9004 113.23 39.5604 110.56C35.9504 109.04 31.4304 111.14 26.9304 109.69C21.5904 107.97 17.5804 104.6 14.9804 99.4797C11.2304 92.0997 14.2604 87.3297 11.5204 80.9997C10.2304 78.0297 4.68036 75.4197 2.04036 70.7197C-1.82964 63.8297 -0.259638 57.2197 7.24036 47.2897C11.7804 41.2897 12.5504 37.2097 12.8404 32.7797C13.1104 28.6697 13.2704 24.5097 16.8404 19.2097C22.9604 10.1097 34.9204 15.1997 41.3704 11.5097C45.9604 8.88966 49.6704 4.74966 52.9804 2.65966C55.5904 1.00966 58.1704 -0.13034 61.4404 0.0096604ZM50.8304 53.8997L58.6904 61.3797L72.2204 47.6297C73.5604 46.2697 74.4004 45.1797 76.0504 46.8797L81.4104 52.3697C83.1704 54.1097 83.0804 55.1297 81.4204 56.7497L61.7504 76.0597C58.2504 79.4897 58.8604 79.6997 55.3104 76.1797L41.8104 62.7497C41.0704 61.9497 41.1504 61.1397 41.9604 60.3397L48.1804 53.8897C49.1104 52.9097 49.8604 52.9697 50.8304 53.8997ZM61.2604 27.5697C80.2104 27.5697 95.5604 42.9297 95.5604 61.8697C95.5604 80.8197 80.2004 96.1697 61.2604 96.1697C42.3104 96.1697 26.9604 80.8097 26.9604 61.8697C26.9604 42.9197 42.3204 27.5697 61.2604 27.5697Z" fill="url(#paint0_linear_206_210)"/>
</g>
<defs>
<linearGradient id="paint0_linear_206_210" x1="122.876" y1="60.934" x2="-0.00292969" y2="60.934" gradientUnits="userSpaceOnUse">
<stop stop-color="#05246C"/>
<stop offset="1" stop-color="#020820"/>
</linearGradient>
<clipPath id="clip0_206_210">
<rect width="122.88" height="121.86" fill="white"/>
</clipPath>
</defs>
</svg>
