<svg width="466" height="513" viewBox="0 0 466 513" fill="none" xmlns="http://www.w3.org/2000/svg">
<g clip-path="url(#clip0_207_187)">
<path fill-rule="evenodd" clip-rule="evenodd" d="M232.2 0C319.09 55.08 397.59 81.13 464.95 74.98C476.72 312.95 388.84 453.49 233.1 512.14C82.7004 457.24 -6.25963 322.75 0.340368 71.36C79.4204 75.5 157.01 58.41 232.2 0ZM190.56 251.87C195.838 256.345 200.815 261.162 205.46 266.29C220.02 242.85 235.55 221.33 251.94 201.54C298.3 145.55 277.29 156.34 341.59 156.34L332.66 166.27C305.2 196.77 295.94 212.66 273.43 245.17C250.92 277.72 230.8 311.31 212.89 345.88L207.33 356.63L202.21 345.69C192.77 325.41 181.45 306.81 167.97 290.18C154.48 273.55 142.7 262.71 124.41 250.16C132.79 222.65 172.68 236.73 190.56 251.87ZM232.35 39.64C304.41 85.31 373.58 110.99 429.44 105.88C439.2 303.23 362.25 423.85 233.11 472.49C108.37 426.97 30.5304 311.37 36.0004 102.89C108.38 106.68 174.71 84.42 232.35 39.64Z" fill="url(#paint0_linear_207_187)"/>
</g>
<defs>
<linearGradient id="paint0_linear_207_187" x1="466" y1="256.07" x2="-0.00292969" y2="256.07" gradientUnits="userSpaceOnUse">
<stop stop-color="#05246C"/>
<stop offset="1" stop-color="#020820"/>
</linearGradient>
<clipPath id="clip0_207_187">
<rect width="466" height="512.14" fill="white"/>
</clipPath>
</defs>
</svg>
