<svg width="22" height="22" viewBox="0 0 22 22" fill="none" xmlns="http://www.w3.org/2000/svg">
<g clip-path="url(#clip0_37_1394)">
<path d="M5.15625 0H16.8438C19.6915 0 22 2.30853 22 5.15625V16.8438C22 19.6915 19.6915 22 16.8438 22H5.15625C2.30853 22 0 19.6915 0 16.8438V5.15625C0 2.30853 2.30853 0 5.15625 0Z" fill="url(#paint0_radial_37_1394)"/>
<path d="M5.15625 0H16.8438C19.6915 0 22 2.30853 22 5.15625V16.8438C22 19.6915 19.6915 22 16.8438 22H5.15625C2.30853 22 0 19.6915 0 16.8438V5.15625C0 2.30853 2.30853 0 5.15625 0Z" fill="url(#paint1_radial_37_1394)"/>
<path d="M10.9992 2.40625C13.3331 2.40625 13.6261 2.41648 14.5427 2.45816C15.4576 2.50009 16.0821 2.6449 16.6285 2.85742C17.1938 3.07691 17.6732 3.37055 18.1509 3.84837C18.6289 4.32609 18.9226 4.80554 19.1427 5.37058C19.3559 5.91714 19.5009 6.54191 19.542 7.45637C19.583 8.37306 19.5938 8.66611 19.5938 11.0001C19.5938 13.3341 19.5834 13.6261 19.5418 14.5427C19.4997 15.4576 19.3549 16.0821 19.1426 16.6285C18.9229 17.1938 18.6293 17.6732 18.1515 18.1509C17.6739 18.6289 17.1945 18.9233 16.6296 19.1427C16.0828 19.3553 15.4582 19.5001 14.5435 19.542C13.6268 19.5837 13.3341 19.5939 11.0003 19.5939C8.66611 19.5939 8.37409 19.5837 7.45748 19.542C6.54259 19.5001 5.9174 19.3553 5.37058 19.1427C4.80554 18.9233 4.32678 18.6289 3.84931 18.1509C3.37124 17.6732 3.07768 17.1938 2.85742 16.6287C2.64619 16.0821 2.50113 15.4574 2.45816 14.5429C2.41699 13.6262 2.40625 13.3341 2.40625 11.0001C2.40625 8.66611 2.41699 8.37323 2.45816 7.45654C2.50113 6.54165 2.64619 5.91723 2.85742 5.37084C3.07768 4.80554 3.37124 4.32609 3.84931 3.84837C4.3273 3.37038 4.80537 3.07673 5.37109 2.85751C5.91895 2.6449 6.5438 2.50001 7.45869 2.45816C8.37538 2.41648 8.66723 2.40625 11.0019 2.40625H10.9992ZM11.7702 3.95493C11.5413 3.95459 11.286 3.95493 10.9992 3.95493C8.70461 3.95493 8.4327 3.96318 7.52658 4.00434C6.68869 4.04267 6.23391 4.18266 5.93098 4.30031C5.52991 4.45603 5.24399 4.64226 4.94338 4.94313C4.6426 5.24391 4.45646 5.53034 4.30031 5.93141C4.18266 6.23391 4.0425 6.68869 4.00434 7.52658C3.96318 8.43253 3.95424 8.70461 3.95424 10.9981C3.95424 13.2916 3.96318 13.5638 4.00434 14.4696C4.04267 15.3075 4.18266 15.7623 4.30031 16.0649C4.45603 16.466 4.6426 16.7515 4.94338 17.0521C5.24416 17.3529 5.52973 17.5391 5.93098 17.6949C6.23356 17.813 6.68869 17.9527 7.52658 17.991C8.43253 18.0322 8.70461 18.0411 10.9992 18.0411C13.2939 18.0411 13.5659 18.0322 14.4718 17.991C15.3097 17.9523 15.7645 17.8124 16.0676 17.6947C16.4686 17.5389 16.7551 17.3528 17.0559 17.052C17.3567 16.7512 17.5429 16.4655 17.699 16.0642C17.8166 15.7616 17.9568 15.3068 17.995 14.469C18.0361 13.563 18.0444 13.2909 18.0444 10.996C18.0444 8.70109 18.0361 8.43038 17.995 7.52443C17.9566 6.68654 17.8166 6.23176 17.699 5.92883C17.5432 5.52776 17.3567 5.24133 17.0558 4.94055C16.7551 4.63977 16.4686 4.45354 16.0676 4.29748C15.7646 4.17931 15.3097 4.03966 14.4718 4.00116C13.679 3.96533 13.3718 3.95459 11.7702 3.95278V3.95493ZM6.41188 5.38184C6.98122 5.38184 7.44313 5.84332 7.44313 6.41274C7.44313 6.98208 6.98122 7.44399 6.41188 7.44399C5.84255 7.44399 5.38063 6.98208 5.38063 6.41274C5.38063 5.84341 5.84255 5.38149 6.41188 5.38149V5.38184ZM10.9992 6.58677C13.4364 6.58677 15.4125 8.56281 15.4125 11.0001C15.4125 13.4374 13.4364 15.4125 10.9992 15.4125C8.56195 15.4125 6.58659 13.4374 6.58659 11.0001C6.58659 8.5629 8.56212 6.58677 10.9994 6.58677H10.9992ZM10.9992 8.13545C9.4172 8.13545 8.13459 9.41789 8.13459 11.0001C8.13459 12.5821 9.4172 13.8647 10.9992 13.8647C12.5813 13.8647 13.8638 12.5821 13.8638 11.0001C13.8638 9.41789 12.5813 8.13545 10.9992 8.13545Z" fill="white"/>
</g>
<defs>
<radialGradient id="paint0_radial_37_1394" cx="0" cy="0" r="1" gradientUnits="userSpaceOnUse" gradientTransform="translate(16.1563 23.6944) rotate(-90) scale(21.8036 20.2791)">
<stop stop-color="#FFDD55"/>
<stop offset="0.1" stop-color="#FFDD55"/>
<stop offset="0.5" stop-color="#FF543E"/>
<stop offset="1" stop-color="#C837AB"/>
</radialGradient>
<radialGradient id="paint1_radial_37_1394" cx="0" cy="0" r="1" gradientUnits="userSpaceOnUse" gradientTransform="translate(25.6851 1.58477) rotate(101.319) scale(9.74634 40.1747)">
<stop stop-color="#3771C8"/>
<stop offset="0.128" stop-color="#3771C8"/>
<stop offset="1" stop-color="#6600FF" stop-opacity="0"/>
</radialGradient>
<clipPath id="clip0_37_1394">
<rect width="22" height="22" fill="white" transform="matrix(-1 0 0 1 22 0)"/>
</clipPath>
</defs>
</svg>
