<svg width="50" height="50" viewBox="0 0 50 50" fill="none" xmlns="http://www.w3.org/2000/svg">
<path d="M13.3406 33.5411C13.3406 33.5411 18.549 30.416 24.7991 30.416C31.0492 30.416 36.2577 33.5411 36.2577 33.5411" stroke="#FB8600" stroke-width="2.53906"/>
<path d="M18.5493 20.0001C18.5493 20.8209 18.7109 21.6337 19.0251 22.392C19.3391 23.1502 19.7995 23.8392 20.3799 24.4196C20.9602 25 21.6493 25.4604 22.4075 25.7745C23.1659 26.0887 23.9786 26.2503 24.7995 26.2503C25.6202 26.2503 26.4329 26.0887 27.1913 25.7745C27.9495 25.4604 28.6386 25 29.2189 24.4196C29.7993 23.8392 30.2597 23.1502 30.5738 22.392C30.8879 21.6337 31.0496 20.8209 31.0496 20.0001C31.0496 19.1794 30.8879 18.3666 30.5738 17.6083C30.2597 16.8501 29.7993 16.1611 29.2189 15.5807C28.6386 15.0003 27.9495 14.5399 27.1913 14.2258C26.4329 13.9116 25.6202 13.75 24.7995 13.75C23.9786 13.75 23.1659 13.9116 22.4075 14.2258C21.6493 14.5399 20.9602 15.0003 20.3799 15.5807C19.7995 16.1611 19.3391 16.8501 19.0251 17.6083C18.7109 18.3666 18.5493 19.1794 18.5493 20.0001Z" stroke="#FB8600" stroke-width="2.53906"/>
<path d="M4.49048 4.69141H11.7732V11.9741H4.49048V4.69141Z" stroke="black" stroke-opacity="0.3" stroke-width="2.53906"/>
<path d="M37.2993 8.33278C37.2993 6.03153 39.1647 4.16602 41.466 4.16602C43.7673 4.16602 45.6328 6.03153 45.6328 8.33278C45.6328 10.634 43.7673 12.4995 41.466 12.4995C39.1647 12.4995 37.2993 10.634 37.2993 8.33278Z" stroke="black" stroke-opacity="0.3" stroke-width="2.53906"/>
<path d="M3.96545 41.6667C3.96545 39.3654 5.83099 37.5 8.13223 37.5C10.4335 37.5 12.299 39.3654 12.299 41.6667C12.299 43.968 10.4335 45.8336 8.13223 45.8336C5.83099 45.8336 3.96545 43.968 3.96545 41.6667Z" stroke="black" stroke-opacity="0.3" stroke-width="2.53906"/>
<path d="M37.8198 38.0205H45.1116V45.3123H37.8198V38.0205Z" stroke="black" stroke-opacity="0.3" stroke-width="2.53906"/>
<path d="M16.4656 3.65187C19.0967 2.62478 21.9199 2.08301 24.799 2.08301C27.6781 2.08301 30.5012 2.62478 33.1324 3.65187M33.1324 46.3476C30.5012 47.3746 27.6781 47.9164 24.799 47.9164C21.9199 47.9164 19.0967 47.3746 16.4656 46.3476M46.1469 16.6664C47.174 19.2974 47.7156 22.1205 47.7156 24.9996C47.7156 27.8789 47.174 30.702 46.1469 33.333M3.45117 33.333C2.4241 30.702 1.88232 27.8789 1.88232 24.9996C1.88232 22.1205 2.4241 19.2974 3.45117 16.6664" stroke="black" stroke-opacity="0.3" stroke-width="2.53906"/>
</svg>
