<svg width="22" height="22" viewBox="0 0 22 22" fill="none" xmlns="http://www.w3.org/2000/svg">
<g clip-path="url(#clip0_170_198)">
<path d="M11 0C8.08328 0 5.28344 1.15964 3.22266 3.2218C1.15975 5.28477 0.000571433 8.08256 0 11C0 13.9162 1.16016 16.716 3.22266 18.7782C5.28344 20.8404 8.08328 22 11 22C13.9167 22 16.7166 20.8404 18.7773 18.7782C20.8398 16.716 22 13.9162 22 11C22 8.0838 20.8398 5.28395 18.7773 3.2218C16.7166 1.15964 13.9167 0 11 0Z" fill="url(#paint0_linear_170_198)"/>
<path d="M4.97927 10.885C8.18646 9.48801 10.3246 8.56693 11.3936 8.12195C14.4496 6.85128 15.0838 6.63059 15.498 6.62311C15.5891 6.62165 15.7919 6.64417 15.9243 6.75116C16.0343 6.84139 16.0652 6.96342 16.0807 7.0491C16.0944 7.1347 16.1133 7.32978 16.0979 7.48206C15.9329 9.22143 15.2161 13.4423 14.8518 15.3905C14.6988 16.2149 14.3946 16.4912 14.1007 16.5182C13.4613 16.577 12.9766 16.0961 12.3579 15.6906C11.3902 15.0559 10.8436 14.6609 9.90349 14.0417C8.81724 13.326 9.52193 12.9326 10.1407 12.2897C10.3022 12.1215 13.1176 9.5614 13.1708 9.3292C13.1777 9.30015 13.1846 9.19187 13.1193 9.13481C13.0557 9.07757 12.9611 9.09717 12.8924 9.11264C12.7944 9.13464 11.2493 10.1569 8.25177 12.1794C7.81349 12.4809 7.41646 12.6278 7.05896 12.6201C6.66708 12.6117 5.91083 12.398 5.3488 12.2155C4.6613 11.9915 4.11302 11.8731 4.16115 11.4928C4.18521 11.2948 4.45849 11.0921 4.97927 10.885Z" fill="white"/>
</g>
<defs>
<linearGradient id="paint0_linear_170_198" x1="1100" y1="0" x2="1100" y2="2200" gradientUnits="userSpaceOnUse">
<stop stop-color="#2AABEE"/>
<stop offset="1" stop-color="#229ED9"/>
</linearGradient>
<clipPath id="clip0_170_198">
<rect width="22" height="22" fill="white"/>
</clipPath>
</defs>
</svg>
