<svg width="120" height="120" viewBox="0 0 120 120" fill="none" xmlns="http://www.w3.org/2000/svg">
<g clip-path="url(#clip0_37_864)">
<path d="M62.151 3.53081C63.2356 3.82142 64.3204 4.11146 65.4053 4.40095C67.6666 5.00654 69.926 5.61859 72.1842 6.23547C75.0689 7.02298 77.9575 7.79477 80.8477 8.56188C83.0839 9.15714 85.3179 9.76031 87.5513 10.3659C88.6155 10.6535 89.6803 10.9388 90.7458 11.2216C92.2362 11.6186 93.7233 12.026 95.2101 12.4363C96.0543 12.6652 96.8986 12.8941 97.7684 13.1299C101.967 14.6586 104.826 16.52 106.748 20.6129C107.289 22.206 107.773 23.8187 108.216 25.4418C108.41 26.1465 108.41 26.1465 108.608 26.8655C109.032 28.4099 109.448 29.9564 109.863 31.5034C110.157 32.5864 110.451 33.6694 110.745 34.7523C111.359 37.0206 111.969 39.2899 112.577 41.5601C113.351 44.4531 114.139 47.3422 114.931 50.2305C115.542 52.4666 116.144 54.7049 116.744 56.9439C117.031 58.0092 117.321 59.0737 117.613 60.1373C121.073 72.7433 121.073 72.7433 120 77.3C118.154 80.4647 115.969 82.9891 113.389 85.5743C113.034 85.9316 112.679 86.2889 112.314 86.657C111.152 87.8247 109.986 88.987 108.819 90.1489C108.005 90.9641 107.191 91.7796 106.377 92.5952C104.676 94.298 102.973 95.9981 101.268 97.6964C99.0844 99.8714 96.9077 102.053 94.7328 104.237C93.0555 105.919 91.3747 107.598 89.6928 109.277C88.8887 110.08 88.0856 110.884 87.2837 111.689C86.1633 112.813 85.0383 113.933 83.9119 115.051C82.9542 116.007 82.9542 116.007 81.9771 116.982C78.7604 119.852 76.3919 120.316 72.1755 120.223C67.5353 119.76 63.0699 118.431 58.585 117.204C57.5004 116.914 56.4156 116.623 55.3307 116.334C53.0695 115.728 50.8101 115.116 48.5519 114.499C45.6672 113.712 42.7785 112.94 39.8884 112.173C37.6522 111.578 35.4182 110.975 33.1848 110.369C32.1206 110.081 31.0557 109.796 29.9902 109.513C28.4998 109.116 27.0127 108.709 25.5259 108.299C24.6817 108.07 23.8375 107.841 22.9676 107.605C18.7691 106.076 15.9103 104.215 13.9877 100.122C13.4472 98.5289 12.9628 96.9162 12.5205 95.2931C12.3909 94.8233 12.2613 94.3535 12.1278 93.8695C11.7037 92.325 11.288 90.7785 10.8732 89.2315C10.5795 88.1485 10.2855 87.0655 9.99136 85.9826C9.37677 83.7144 8.76666 81.445 8.15937 79.1748C7.38485 76.2818 6.59684 73.3927 5.80505 70.5044C5.19415 68.2684 4.59186 66.03 3.99192 63.791C3.70515 62.7257 3.41548 61.6612 3.12274 60.5976C-0.337335 47.9916 -0.337334 47.9916 0.736119 43.4349C2.58175 40.2702 4.76701 37.7459 7.34751 35.1606C7.8796 34.6247 7.8796 34.6247 8.42244 34.0779C9.58368 32.9102 10.7502 31.748 11.9171 30.586C12.7313 29.7708 13.5454 28.9553 14.3592 28.1397C16.0598 26.4369 17.763 24.7368 19.4681 23.0386C21.6516 20.8635 23.8284 18.6819 26.0032 16.4982C27.6805 14.8156 29.3613 13.1365 31.0432 11.4584C31.8474 10.6553 32.6504 9.85101 33.4523 9.04565C34.5727 7.92151 35.6978 6.8022 36.8241 5.68404C37.4626 5.04671 38.1011 4.40938 38.759 3.75274C45.4712 -2.2348 54.4015 1.41 62.151 3.53081ZM39.7266 6.34553C39.3693 6.70619 39.0119 7.06685 38.6438 7.43844C38.2567 7.82049 37.8695 8.20254 37.4707 8.59617C36.1979 9.85554 34.9334 11.1229 33.6694 12.391C32.7854 13.2717 31.9011 14.1521 31.0166 15.0322C29.1663 16.8759 27.3203 18.7236 25.4771 20.5742C23.115 22.9447 20.7415 25.3033 18.3645 27.6588C16.5366 29.4732 14.7157 31.2944 12.8966 33.1176C12.0242 33.9902 11.1495 34.8605 10.2724 35.7284C9.0475 36.9423 7.83234 38.1653 6.61922 39.3911C6.25591 39.7473 5.89261 40.1035 5.5183 40.4704C3.43843 42.5959 2.38303 44.1194 2.20851 47.1159C2.35381 48.5922 2.35381 48.5922 2.77486 50.0217C2.98994 50.8441 2.98994 50.8441 3.20937 51.683C3.37162 52.2703 3.53387 52.8576 3.70104 53.4627C3.86595 54.0847 4.03087 54.7066 4.20079 55.3474C4.74059 57.3757 5.29167 59.4007 5.84348 61.4257C6.2185 62.821 6.59288 64.2164 6.96665 65.612C7.5325 67.7228 8.09935 69.8334 8.66972 71.9431C9.83152 76.2417 10.9593 80.5473 12.0551 84.8633C12.4406 86.3664 12.8269 87.8693 13.2136 89.3721C13.5658 90.7511 13.9097 92.1322 14.2535 93.5134C14.4685 94.34 14.6835 95.1667 14.905 96.0183C15.0848 96.7275 15.2646 97.4368 15.4498 98.1674C16.5299 100.996 17.6351 103.129 20.5096 104.416C22.266 104.983 24.0274 105.45 25.8186 105.897C27.2194 106.27 28.6201 106.644 30.0208 107.018C30.7648 107.212 31.5089 107.406 32.2755 107.606C35.4692 108.45 38.6448 109.354 41.8225 110.256C45.1575 111.199 48.4986 112.119 51.8403 113.038C53.5576 113.513 55.2734 113.992 56.9879 114.477C59.5051 115.188 62.0265 115.881 64.5494 116.571C65.6928 116.9 65.6928 116.9 66.8593 117.236C67.5755 117.428 68.2916 117.62 69.0295 117.818C69.9625 118.078 69.9625 118.078 70.9143 118.342C74.6289 118.691 77.2528 117.668 80.1607 115.393C80.8696 114.704 81.5687 114.004 82.2594 113.296C82.6468 112.914 83.0341 112.532 83.4331 112.139C84.7015 110.883 85.9561 109.614 87.2104 108.344C88.092 107.463 88.9742 106.583 89.857 105.703C91.7006 103.861 93.5376 102.013 95.3701 100.161C97.718 97.7877 100.08 95.4297 102.448 93.0761C104.27 91.262 106.084 89.4408 107.897 87.6173C108.765 86.7449 109.636 85.8747 110.509 85.0066C111.727 83.7927 112.934 82.5697 114.14 81.3438C114.501 80.9877 114.862 80.6315 115.234 80.2645C117.302 78.1371 118.351 76.6079 118.528 73.619C118.382 72.1428 118.382 72.1428 117.961 70.7132C117.818 70.165 117.674 69.6167 117.527 69.0519C117.364 68.4646 117.202 67.8773 117.035 67.2722C116.87 66.6502 116.705 66.0283 116.535 65.3875C115.995 63.3592 115.444 61.3342 114.893 59.3092C114.518 57.9139 114.143 56.5185 113.769 55.123C113.204 53.0121 112.637 50.9015 112.066 48.7919C110.905 44.4932 109.777 40.1876 108.681 35.8717C108.295 34.3686 107.909 32.8656 107.522 31.3628C107.17 29.9838 106.826 28.6027 106.483 27.2216C106.268 26.3949 106.053 25.5683 105.831 24.7166C105.561 23.6528 105.561 23.6528 105.286 22.5675C104.207 19.7408 103.1 17.6092 100.23 16.3175C98.4774 15.7477 96.7199 15.2796 94.9319 14.8326C94.2573 14.6522 93.5828 14.4718 92.8879 14.2859C91.4175 13.8934 89.9456 13.5066 88.4725 13.1246C86.0784 12.5 83.6916 11.8526 81.3054 11.1983C77.1045 10.0467 72.9 8.90921 68.6936 7.77796C66.0735 7.07287 63.4544 6.3645 60.8353 5.656C59.166 5.20622 57.4966 4.75664 55.8272 4.30726C55.0459 4.09567 54.2646 3.88408 53.4597 3.66608C52.7433 3.47399 52.0268 3.2819 51.2887 3.08399C50.6585 2.91421 50.0283 2.74443 49.3791 2.56951C45.3067 1.60487 42.5873 3.54645 39.7266 6.34553Z" fill="#FB8600"/>
<path d="M48.0224 12.3377C48.6368 12.4064 49.2511 12.4751 49.8841 12.5459C51.9072 12.7749 53.9291 13.0126 55.9509 13.2522C56.6373 13.3326 57.3236 13.413 58.0308 13.4958C62.3297 14.0022 66.6246 14.535 70.9176 15.0887C72.3981 15.2775 73.8791 15.4615 75.3607 15.6409C77.5398 15.9052 79.7164 16.1846 81.8932 16.4673C82.5512 16.5441 83.2091 16.6209 83.887 16.7C87.7613 17.2234 90.4597 17.9705 93.4969 20.6142C94.6535 22.4146 94.6535 22.4146 95.5531 24.5511C95.9169 25.3996 96.2807 26.2481 96.6556 27.1224C97.0753 28.143 97.4948 29.1638 97.9141 30.1847C98.4392 31.433 98.9651 32.6809 99.4918 33.9286C100.97 37.4459 102.424 40.9727 103.869 44.5037C104.776 46.7184 105.691 48.9301 106.606 51.1419C107.188 52.5599 107.769 53.9781 108.35 55.3966C108.622 56.0523 108.895 56.708 109.175 57.3836C112.422 65.3684 112.422 65.3684 111.091 69.531C109.695 72.4088 107.785 74.7723 105.736 77.2093C104.941 78.1783 104.148 79.1485 103.355 80.1195C102.945 80.6211 102.534 81.1226 102.111 81.6394C100.017 84.234 97.9994 86.8862 95.9816 89.5405C95.5836 90.0625 95.1857 90.5846 94.7757 91.1224C93.248 93.1274 91.7224 95.1341 90.1988 97.1423C89.1988 98.4595 88.1962 99.7747 87.1932 101.09C86.6305 101.831 86.0677 102.572 85.4879 103.336C84.9726 103.976 84.4573 104.617 83.9263 105.277C83.2559 106.112 83.2559 106.112 82.5719 106.965C79.2296 109.606 75.2773 108.982 71.2584 108.547C69.4438 108.321 67.6303 108.086 65.8176 107.845C64.855 107.72 63.8923 107.595 62.9005 107.467C60.8696 107.202 58.8395 106.932 56.8098 106.659C54.2181 106.31 51.6245 105.979 49.03 105.652C46.5417 105.335 44.0556 105.002 41.5692 104.67C40.1783 104.496 40.1783 104.496 38.7594 104.319C30.4746 103.172 30.4746 103.172 27.2392 100.123C26.0826 98.323 26.0826 98.323 25.1831 96.1864C24.8192 95.3379 24.4554 94.4894 24.0806 93.6151C23.6608 92.5945 23.2413 91.5737 22.822 90.5528C22.2969 89.3045 21.771 88.0566 21.2443 86.8089C19.7663 83.2916 18.3126 79.7648 16.8676 76.2338C15.9599 74.0191 15.0451 71.8074 14.13 69.5957C13.5482 68.1776 12.9668 66.7594 12.3859 65.341C12.1137 64.6852 11.8415 64.0295 11.561 63.3539C8.31441 55.3691 8.31441 55.3691 9.64528 51.2066C11.0408 48.3287 12.9512 45.9652 15 43.5283C15.7949 42.5592 16.5886 41.5891 17.3811 40.618C17.7915 40.1164 18.202 39.6149 18.6249 39.0981C20.7193 36.5036 22.7368 33.8513 24.7546 31.197C25.1525 30.675 25.5504 30.153 25.9604 29.6151C27.4881 27.6101 29.0138 25.6034 30.5374 23.5952C31.5374 22.278 32.5399 20.9628 33.5429 19.6479C34.1057 18.9067 34.6684 18.1656 35.2482 17.4019C39.3226 12.3371 41.6289 11.5882 48.0224 12.3377ZM39.0184 16.197C37.71 17.6773 36.5179 19.1314 35.3374 20.7062C34.993 21.155 34.6485 21.6038 34.2937 22.0662C33.5519 23.0344 32.813 24.0048 32.0766 24.9771C30.8985 26.5324 29.7126 28.0817 28.5247 29.6297C26.904 31.7426 25.2871 33.8583 23.6733 35.9765C22.1927 37.9185 20.7058 39.8552 19.2101 41.7855C18.7127 42.4282 18.7127 42.4282 18.2052 43.0838C17.3209 44.2249 16.4351 45.3648 15.5492 46.5047C15.0339 47.1927 14.5186 47.8807 13.9877 48.5896C13.135 49.6558 13.135 49.6558 12.2651 50.7436C10.6749 53.6882 11.0895 54.91 11.7791 58.1602C12.4947 60.2698 13.3578 62.3012 14.2465 64.3431C14.4947 64.927 14.7429 65.511 14.9986 66.1127C15.7909 67.9736 16.5914 69.8307 17.3926 71.6878C18.173 73.5121 18.9517 75.3373 19.73 77.1626C20.2451 78.3684 20.762 79.5734 21.2809 80.7777C22.5599 83.7533 23.8062 86.7361 24.9897 89.7512C25.2171 90.3251 25.4445 90.899 25.6788 91.4902C26.1049 92.5712 26.5238 93.655 26.9341 94.742C28.0823 97.6424 28.9832 99.2538 31.6564 100.86C33.6955 101.402 33.6955 101.402 35.9754 101.663C36.8453 101.783 37.7152 101.903 38.6114 102.027C40.0171 102.206 40.0171 102.206 41.4513 102.389C42.4269 102.52 43.4024 102.65 44.3779 102.781C46.4206 103.054 48.464 103.321 50.5081 103.583C53.1203 103.918 55.7304 104.267 58.3401 104.62C60.3542 104.892 62.3692 105.157 64.3844 105.42C65.8129 105.607 67.2407 105.799 68.6686 105.991C69.5431 106.102 70.4176 106.213 71.3186 106.327C72.0846 106.427 72.8507 106.526 73.6399 106.629C76.4499 106.783 79.1878 106.815 81.4934 105.067C81.8408 104.635 82.1881 104.203 82.546 103.758C82.9797 103.224 83.4134 102.69 83.8602 102.139C86.1307 99.1643 88.3895 96.1812 90.6206 93.1764C93.1262 89.8021 95.6784 86.4696 98.2703 83.1612C99.9965 80.9572 101.711 78.7441 103.423 76.5295C104.394 75.2797 105.378 74.0393 106.363 72.8007C106.839 72.1753 107.316 71.5499 107.807 70.9056C108.201 70.4016 108.594 69.8977 109 69.3785C110.362 66.14 109.115 62.7636 107.874 59.6229C107.419 58.5441 106.957 57.468 106.49 56.3944C106.241 55.8105 105.993 55.2265 105.738 54.6248C104.945 52.764 104.145 50.9068 103.344 49.0497C102.563 47.2254 101.784 45.4003 101.006 43.575C100.491 42.3691 99.9741 41.1641 99.4553 39.9598C98.1762 36.9842 96.9299 34.0014 95.7465 30.9863C95.519 30.4124 95.2916 29.8386 95.0573 29.2473C94.6313 28.1663 94.2124 27.0825 93.802 25.9955C92.6539 23.0954 91.7545 21.4814 89.0797 19.878C87.0246 19.3405 87.0246 19.3405 84.7256 19.0866C83.8486 18.9688 82.9716 18.8511 82.068 18.7298C80.6519 18.5536 80.6519 18.5536 79.2072 18.3739C78.2263 18.2458 77.2454 18.1169 76.2647 17.9873C73.6874 17.6489 71.1088 17.3215 68.5299 16.9961C66.4241 16.7286 64.3194 16.4534 62.2146 16.1777C57.8664 15.6083 53.5174 15.045 49.1668 14.494C48.0104 14.347 48.0104 14.347 46.8306 14.1971C43.3618 13.8205 41.8624 14.157 39.0184 16.197Z" fill="#FB8600"/>
<path d="M44.4161 23.2608C45.5918 23.2468 45.5918 23.2468 46.7912 23.2325C47.6341 23.2347 48.4769 23.2368 49.3453 23.239C50.2148 23.2352 51.0843 23.2313 51.9801 23.2273C53.8187 23.2226 55.6572 23.2236 57.4958 23.2299C60.309 23.2361 63.1211 23.215 65.9342 23.1916C67.7205 23.1904 69.5068 23.1908 71.2931 23.193C72.5552 23.1806 72.5552 23.1806 73.8427 23.168C79.6353 23.2189 79.6353 23.2189 82.4982 24.8114C84.0082 26.5999 85.1675 28.3171 86.2816 30.3767C86.6977 31.1341 87.1137 31.8914 87.5423 32.6717C87.9738 33.4755 88.4052 34.2792 88.8497 35.1073C89.7579 36.7742 90.6676 38.4402 91.5788 40.1054C92.0254 40.9227 92.4721 41.7401 92.9322 42.5822C94.0908 44.6535 95.292 46.6814 96.5424 48.6982C96.8857 49.2546 97.2291 49.811 97.5829 50.3843C98.2118 51.3924 98.8504 52.3946 99.5006 53.3891C101.122 56.0098 102.223 58.4417 102.041 61.5725C100.952 65.8248 98.3679 69.5664 96.1196 73.2975C95.5749 74.2209 95.0311 75.145 94.4884 76.0696C93.4236 77.8789 92.3517 79.6838 91.2729 81.4848C90.0515 83.5316 88.8495 85.5869 87.662 87.6533C83.1799 95.3765 83.1799 95.3765 80.2454 97.1779C78.4068 97.4633 78.4068 97.4633 76.3202 97.4753C75.5364 97.4847 74.7525 97.494 73.945 97.5036C73.1021 97.5015 72.2593 97.4993 71.3909 97.4971C70.5214 97.501 69.6519 97.5048 68.7561 97.5088C66.9175 97.5135 65.079 97.5125 63.2405 97.5063C60.4273 97.5 57.6152 97.5212 54.8021 97.5445C53.0157 97.5457 51.2294 97.5453 49.4431 97.5431C48.6017 97.5514 47.7604 97.5596 46.8935 97.5682C41.101 97.5173 41.101 97.5173 38.238 95.9248C36.728 94.1362 35.5687 92.4191 34.4546 90.3594C34.0386 89.6021 33.6225 88.8447 33.1939 88.0644C32.7625 87.2607 32.331 86.4569 31.8865 85.6288C30.9783 83.962 30.0686 82.2959 29.1574 80.6307C28.7108 79.8134 28.2642 78.9961 27.804 78.154C26.6454 76.0826 25.4442 74.0548 24.1938 72.0379C23.8505 71.4815 23.5071 70.9251 23.1534 70.3518C22.5244 69.3437 21.8858 68.3415 21.2356 67.347C19.6146 64.7264 18.5136 62.2944 18.6954 59.1637C19.7845 54.9114 22.3684 51.1697 24.6166 47.4386C25.1614 46.5152 25.7051 45.5912 26.2479 44.6666C27.3127 42.8572 28.3845 41.0524 29.4633 39.2513C30.6847 37.2046 31.8867 35.1493 33.0742 33.0828C38.7554 23.2935 38.7554 23.2935 44.4161 23.2608ZM38.2822 28.7116C37.4076 30.0556 36.5784 31.4299 35.7861 32.824C35.0972 34.0272 35.0972 34.0272 34.3944 35.2547C33.9109 36.1103 33.4277 36.9661 32.9448 37.8221C32.4499 38.6934 31.9548 39.5645 31.4593 40.4354C30.4895 42.1404 29.5215 43.8463 28.5546 45.5528C27.4599 47.4669 26.3458 49.3644 25.2061 51.2519C24.7887 51.9503 24.7887 51.9503 24.3628 52.6628C23.6638 53.8272 22.9572 54.9871 22.2498 56.1464C21.1739 58.5526 21.125 59.9532 21.3497 62.5767C22.3032 64.8593 22.3032 64.8593 23.6935 67.129C24.0592 67.762 24.0592 67.762 24.4322 68.4078C25.2207 69.7672 26.0225 71.1182 26.8252 72.4693C27.3686 73.3985 27.9113 74.3282 28.4532 75.2583C29.5182 77.0818 30.5888 78.9017 31.6654 80.7184C32.8972 82.7989 34.1189 84.8847 35.3346 86.9747C37.6232 91.6285 37.6232 91.6285 41.227 94.9693C42.4366 95.0507 43.6494 95.0865 44.8616 95.0996C45.9969 95.1138 45.9969 95.1138 47.155 95.1282C47.9756 95.1337 48.7961 95.1391 49.6415 95.1447C50.4821 95.1507 51.3228 95.1566 52.1889 95.1627C53.97 95.1729 55.7511 95.1808 57.5322 95.1866C60.2598 95.1993 62.9868 95.2316 65.7142 95.2641C67.4425 95.2715 69.1708 95.2778 70.8992 95.2828C71.7167 95.2956 72.5343 95.3085 73.3766 95.3218C74.1381 95.3197 74.8995 95.3175 75.6841 95.3153C76.3532 95.3196 77.0223 95.3239 77.7117 95.3284C80.0818 94.8549 80.9263 93.8545 82.454 92.0245C83.3286 90.6805 84.1578 89.3063 84.9502 87.9122C85.4094 87.11 85.8687 86.3079 86.3419 85.4814C86.8253 84.6258 87.3085 83.77 87.7914 82.9141C88.2863 82.0428 88.7814 81.1717 89.2769 80.3007C90.2467 78.5958 91.2147 76.8899 92.1816 75.1833C93.2763 73.2692 94.3904 71.3717 95.5301 69.4843C95.8084 69.0186 96.0867 68.553 96.3734 68.0733C97.0724 66.9089 97.7791 65.7491 98.4864 64.5897C99.5623 62.1835 99.6112 60.7829 99.3865 58.1595C98.433 55.8769 98.433 55.8769 97.0428 53.6071C96.799 53.1851 96.5552 52.7632 96.304 52.3284C95.5155 50.9689 94.7138 49.6179 93.9111 48.2668C93.3676 47.3376 92.825 46.408 92.283 45.4779C91.218 43.6544 90.1474 41.8344 89.0708 40.0177C87.839 37.9372 86.6174 35.8514 85.4017 33.7615C83.1131 29.1076 83.1131 29.1076 79.5092 25.7668C78.2996 25.6855 77.0868 25.6497 75.8746 25.6365C74.7394 25.6224 74.7394 25.6224 73.5812 25.6079C72.7607 25.6025 71.9401 25.597 71.0947 25.5914C70.2541 25.5855 69.4134 25.5795 68.5473 25.5734C66.7662 25.5632 64.9851 25.5553 63.204 25.5495C60.4764 25.5369 57.7495 25.5045 55.0221 25.4721C53.2937 25.4646 51.5654 25.4584 49.8371 25.4534C49.0195 25.4405 48.2019 25.4276 47.3596 25.4143C46.5981 25.4165 45.8367 25.4186 45.0521 25.4209C44.383 25.4165 43.7139 25.4122 43.0246 25.4078C40.6544 25.8812 39.81 26.8816 38.2822 28.7116Z" fill="#FB8600"/>
<path d="M73.9992 32.0484C76.2916 34.3263 78.1677 36.7748 80.0614 39.3873C80.8354 40.445 81.61 41.5023 82.385 42.5593C82.7665 43.0811 83.148 43.6029 83.541 44.1406C84.5694 45.52 85.6269 46.8651 86.7101 48.2015C87.3099 48.9522 87.9097 49.7029 88.5276 50.4763C89.0628 51.1301 89.5981 51.784 90.1495 52.4577C91.6309 55.0875 91.51 56.6277 91.2883 59.6327C90.6339 61.6298 89.9509 63.4601 89.1114 65.3727C88.8879 65.8995 88.6643 66.4262 88.434 66.9688C87.9625 68.0744 87.4864 69.1781 87.0061 70.2799C86.2726 71.9649 85.5551 73.6561 84.8394 75.3488C84.3778 76.4257 83.9154 77.5022 83.4519 78.5783C83.2378 79.0821 83.0238 79.586 82.8032 80.1051C80.7918 84.6863 80.7918 84.6863 78.773 86.1358C76.6174 86.6232 74.5595 86.9928 72.3773 87.2861C71.4475 87.4211 71.4475 87.4211 70.4989 87.5587C68.5957 87.8312 66.6909 88.0895 64.7853 88.3444C63.9251 88.4629 63.9251 88.4629 63.0476 88.5838C49.5964 90.43 49.5964 90.43 46.737 88.6895C44.4446 86.4115 42.5685 83.963 40.6749 81.3505C39.9008 80.2928 39.1262 79.2355 38.3512 78.1785C37.779 77.3958 37.779 77.3958 37.1952 76.5972C36.1668 75.2178 35.1093 73.8728 34.0261 72.5363C33.4263 71.7856 32.8265 71.035 32.2086 70.2615C31.6734 69.6077 31.1381 68.9538 30.5867 68.2801C29.1053 65.6503 29.2262 64.1101 29.4479 61.1051C30.1023 59.108 30.7853 57.2778 31.6248 55.3651C31.8483 54.8384 32.0719 54.3117 32.3022 53.769C32.7737 52.6634 33.2498 51.5597 33.7301 50.4579C34.4636 48.7729 35.1811 47.0817 35.8968 45.389C36.3584 44.3121 36.8208 43.2356 37.2843 42.1596C37.6054 41.4038 37.6054 41.4038 37.933 40.6327C39.9444 36.0515 39.9444 36.0515 41.9632 34.602C44.1188 34.1146 46.1767 33.7451 48.3589 33.4517C48.9788 33.3618 49.5987 33.2718 50.2373 33.1791C52.1405 32.9066 54.0453 32.6484 55.9509 32.3934C56.5244 32.3144 57.0978 32.2354 57.6886 32.154C71.1398 30.3078 71.1398 30.3078 73.9992 32.0484ZM57.3712 34.2665C55.8587 34.464 54.3449 34.6489 52.8307 34.8335C51.8694 34.9593 50.908 35.085 49.9176 35.2146C48.6078 35.3823 48.6078 35.3823 47.2715 35.5534C44.721 36.1156 43.2474 36.6265 41.227 38.283C40.2524 40.0534 39.4957 41.6557 38.774 43.5227C38.5667 44.0337 38.3595 44.5448 38.146 45.0713C37.7118 46.1495 37.2833 47.23 36.8603 48.3126C36.2137 49.9648 35.5479 51.6082 34.8787 53.2514C34.4582 54.3025 34.0388 55.3541 33.6206 56.4061C33.4228 56.8955 33.225 57.3849 33.0212 57.8891C32.0059 60.5117 31.2572 62.7085 31.6564 65.5223C32.3872 66.9803 32.3872 66.9803 33.4912 68.283C33.885 68.7875 34.2787 69.292 34.6844 69.8118C35.3265 70.6038 35.3265 70.6038 35.9816 71.4118C36.8713 72.521 37.7599 73.631 38.6474 74.742C39.0886 75.2931 39.5298 75.8443 39.9843 76.4121C41.126 77.9055 42.1445 79.4176 43.1394 81.0112C46.0235 85.7002 46.0235 85.7002 50.74 88.1086C52.9638 87.9862 55.0423 87.6632 57.217 87.1933C59.2027 86.8132 61.1821 86.5892 63.1921 86.3716C67.6626 85.8788 67.6626 85.8788 72.1271 85.3363C72.7516 85.26 73.3761 85.1838 74.0195 85.1052C76.2853 84.5518 77.6677 83.9068 79.5092 82.4548C80.4838 80.6844 81.2405 79.0821 81.9622 77.2151C82.1695 76.7041 82.3767 76.1931 82.5902 75.6665C83.0244 74.5884 83.4529 73.5078 83.8759 72.4252C84.5225 70.773 85.1883 69.1296 85.8575 67.4864C86.278 66.4353 86.6974 65.3838 87.1156 64.3317C87.3134 63.8423 87.5112 63.353 87.715 62.8487C88.7303 60.2261 89.479 58.0293 89.0798 55.2155C88.349 53.7575 88.349 53.7575 87.245 52.4548C86.6537 51.6981 86.6537 51.6981 86.0505 50.9261C85.6229 50.3981 85.1952 49.87 84.7546 49.326C83.8722 48.2154 82.9903 47.1044 82.1089 45.9929C81.6686 45.4417 81.2282 44.8904 80.7745 44.3225C79.6079 42.8267 78.5022 41.307 77.4156 39.7525C76.94 39.0856 76.94 39.0856 76.4548 38.4052C75.6027 37.204 74.7632 35.9938 73.9245 34.7832C72.2624 32.8847 72.2624 32.8847 69.7848 32.9909C65.6151 33.1982 61.5084 33.7202 57.3712 34.2665Z" fill="#FB8600"/>
<path d="M68.7911 40.9224C70.6528 42.691 72.4948 44.4725 74.3099 46.289C75.2899 47.1972 75.2899 47.1972 76.2898 48.1237C80.7861 52.5748 80.7861 52.5748 81.2937 55.6074C81.1333 57.534 80.7656 59.2442 80.2454 61.1049C80.1147 61.694 79.9839 62.2831 79.8491 62.8901C79.4496 64.6292 78.9852 66.3367 78.497 68.0528C78.3432 68.6331 78.1895 69.2134 78.0311 69.8113C77.8755 70.3689 77.7198 70.9264 77.5595 71.5008C77.4215 71.9976 77.2836 72.4943 77.1414 73.0061C76.4397 74.6485 75.7596 75.4578 74.3559 76.5651C72.6885 77.2213 72.6885 77.2213 70.7525 77.747C70.0489 77.9392 69.3452 78.1313 68.6202 78.3293C67.8861 78.5215 67.1521 78.7137 66.3958 78.9117C65.6702 79.1124 64.9447 79.3131 64.1972 79.5199C57.3278 81.3607 57.3278 81.3607 53.7424 80.9822C50.9722 79.1831 48.7562 76.78 46.4264 74.4485C45.773 73.843 45.1196 73.2376 44.4465 72.6138C39.9501 68.1626 39.9501 68.1626 39.4426 65.1301C39.603 63.2034 39.9707 61.4933 40.4908 59.6325C40.6216 59.0435 40.7524 58.4544 40.8872 57.8474C41.2867 56.1083 41.7511 54.4008 42.2393 52.6847C42.4699 51.8142 42.4699 51.8142 42.7052 50.9262C42.8608 50.3686 43.0165 49.8111 43.1768 49.2366C43.3838 48.4915 43.3838 48.4915 43.5949 47.7314C44.2966 46.089 44.9767 45.2797 46.3804 44.1724C48.0478 43.5162 48.0478 43.5162 49.9838 42.9905C50.6874 42.7983 51.3911 42.6061 52.1161 42.4081C52.8502 42.216 53.5842 42.0238 54.3405 41.8258C55.0661 41.6251 55.7916 41.4244 56.5391 41.2176C65.5342 38.8072 65.5342 38.8072 68.7911 40.9224ZM54.7546 43.8503C53.7013 44.1016 53.7013 44.1016 52.6266 44.3579C48.3794 45.4749 48.3794 45.4749 45.6356 48.765C45.3955 49.6789 45.1554 50.5928 44.908 51.5344C44.6243 52.4549 44.3405 53.3755 44.0482 54.3239C43.8005 55.2558 43.5528 56.1877 43.2976 57.1479C43.0442 58.0836 42.7908 59.0193 42.5298 59.9834C42.0266 62.287 41.7232 63.9346 41.9632 66.2583C43.6067 68.7163 45.7643 70.7071 47.8528 72.7921C48.4004 73.3785 48.948 73.965 49.5121 74.5693C52.8479 78.0086 52.8479 78.0086 57.409 78.8772C58.4025 78.6238 59.3892 78.3423 60.3681 78.0375C61.4996 77.8025 62.6317 77.5706 63.7644 77.3415C64.9187 77.0565 66.0719 76.767 67.224 76.473C67.8109 76.344 68.3979 76.2149 69.0026 76.0819C72.1629 75.2633 73.2957 74.9008 75.0231 71.9983C75.2888 71.0759 75.5545 70.1535 75.8283 69.2031C76.112 68.2826 76.3958 67.362 76.6881 66.4136C76.9358 65.4817 77.1835 64.5498 77.4387 63.5896C77.6921 62.6539 77.9455 61.7182 78.2065 60.7541C78.7099 58.4491 79.0195 56.8038 78.7731 54.4792C77.7014 52.8434 77.7014 52.8434 76.1647 51.382C75.6167 50.8292 75.0686 50.2764 74.504 49.7068C73.9237 49.1408 73.3433 48.5747 72.7454 47.9914C72.1794 47.4111 71.6133 46.8308 71.0301 46.2329C70.4773 45.6849 69.9245 45.1368 69.3549 44.5722C68.8499 44.0713 68.3448 43.5704 67.8245 43.0543C64.0176 40.4047 58.8637 42.7447 54.7546 43.8503Z" fill="#FB8600"/>
<path d="M63.3129 49.3257C66.1871 50.8656 68.5295 52.76 70.6748 55.2153C71.3769 57.5796 71.0861 59.4429 70.6748 61.841C70.7659 63.1848 70.7659 63.1848 70.8589 64.5558C69.4752 68.2225 66.8007 69.0085 63.3704 70.6265C61.1108 71.4093 59.7746 71.7727 57.4233 71.4116C54.549 69.8716 52.2066 67.9773 50.0613 65.522C49.3593 63.1577 49.6501 61.2943 50.0613 58.8962C50.0006 58.0004 49.9399 57.1045 49.8773 56.1815C51.261 52.5148 53.9354 51.7288 57.3658 50.1108C59.6253 49.328 60.9616 48.9645 63.3129 49.3257ZM56.5951 53.0067C55.9251 53.28 55.2551 53.5533 54.5648 53.8349C53.7932 54.1538 53.7932 54.1538 53.0061 54.4791C51.6834 60.3937 51.6834 60.3937 53.4634 65.9102C55.246 67.4704 56.6539 68.4291 58.8957 69.203C61.4013 68.9838 63.3037 68.1344 65.5215 66.9944C66.2503 66.7515 66.9791 66.5085 67.73 66.2582C68.4 63.006 68.8284 60.0012 68.4662 56.6877C66.6303 54.3063 64.5323 52.8491 61.8405 51.5343C59.8514 51.5343 58.432 52.2531 56.5951 53.0067Z" fill="#FB8600"/>
</g>
<defs>
<clipPath id="clip0_37_864">
<rect width="120" height="120" fill="white"/>
</clipPath>
</defs>
</svg>
