<svg width="22" height="22" viewBox="0 0 22 22" fill="none" xmlns="http://www.w3.org/2000/svg">
<path d="M21.5145 5.41274C21.3883 4.94639 21.1421 4.52124 20.8005 4.17962C20.4589 3.838 20.0338 3.59183 19.5675 3.46562C17.8602 3 10.989 3 10.989 3C10.989 3 4.11752 3.01409 2.41026 3.47971C1.94391 3.60593 1.51877 3.85212 1.17716 4.19375C0.835553 4.53539 0.589405 4.96056 0.463227 5.42692C-0.0531797 8.46039 -0.253503 13.0827 0.477407 15.9948C0.603598 16.4612 0.849752 16.8863 1.19136 17.2279C1.53296 17.5696 1.9581 17.8157 2.42444 17.9419C4.1317 18.4076 11.003 18.4076 11.003 18.4076C11.003 18.4076 17.8743 18.4076 19.5815 17.9419C20.0478 17.8158 20.473 17.5696 20.8146 17.228C21.1562 16.8863 21.4024 16.4612 21.5286 15.9948C22.0733 12.9571 22.2411 8.33758 21.5145 5.41274Z" fill="#FF0000"/>
<path d="M8.80078 14.0055L14.5009 10.7039L8.80078 7.40234V14.0055Z" fill="white"/>
</svg>
